<svg xmlns="http://www.w3.org/2000/svg" xmlns:xlink="http://www.w3.org/1999/xlink" xmlns:a="http://ns.adobe.com/AdobeSVGViewerExtensions/3.0/" version="1.1" x="0px" y="0px" width="111px" height="43px" viewBox="-0.671 -0.379 111 43" enable-background="new -0.671 -0.379 111 43" xml:space="preserve"><defs></defs><path fill="#FFFFFF" d="M26.033 17.91h-8.881V9.16h8.881c0.96 0 1.7 0.8 1.7 1.742v5.266 C27.776 17.1 27 17.9 26 17.91L26.033 17.91z M19.238 15.825h6.453v-4.58h-6.453V15.825L19.238 15.825z"/><path fill="#FFFFFF" d="M26.412 32.449h-9.259v-9.677h9.259c0.959 0 1.7 0.8 1.7 1.741v6.191 C28.153 31.7 27.4 32.4 26.4 32.449L26.412 32.449z M19.238 30.363h6.829v-5.506h-6.829V30.363L19.238 30.363z"/><polygon fill="#FFFFFF" points="66.7,31.1 61.8,31.1 61.8,0 43.4,0 43.4,10.6 48.3,10.6 48.3,31.1 43.4,31.1 43.4,41.7 66.7,41.7"/><path fill="#FFFFFF" d="M109.372 14.197v-3.654c0-5.821-4.726-10.542-10.543-10.542H78.502c-5.822 0-10.544 4.721-10.544 10.5 v20.576c0 5.8 4.7 10.5 10.5 10.539h20.326c5.817 0 10.543-4.717 10.543-10.539V17.062h-0.037h-17.11V24.6h3.559v5.088 c0 0.766-0.62 1.387-1.388 1.387H82.932c-0.768 0-1.386-0.621-1.386-1.387V11.956c0-0.767 0.618-1.389 1.386-1.389h11.463 c0.768 0 1.4 0.6 1.4 1.389v2.242H109.372z"/><path fill="#FFFFFF" d="M29.089 2.085l1.104 0.005c4.651 0 8.4 3.8 8.4 8.478c0 7.395-7.102 9.216-7.102 9.216v1.102 c0 0 8.6 1.9 8.6 9.924c0 4.833-3.934 8.767-8.767 8.767H2.085V33.17h4.891V8.491H2.085V2.085H29.089 M30.204 0H0v10.576h4.89 v20.51H0V41.66h31.313c5.992 0 10.852-4.863 10.852-10.851c0-4.974-3.35-9.159-7.912-10.443v-0.062 c3.794-1.603 6.459-5.357 6.459-9.736c0-5.814-4.7-10.535-10.509-10.563V0L30.204 0z"/></svg>