<svg xmlns="http://www.w3.org/2000/svg" xmlns:xlink="http://www.w3.org/1999/xlink" xmlns:a="http://ns.adobe.com/AdobeSVGViewerExtensions/3.0/" version="1.1" x="0px" y="0px" width="83px" height="34px" viewBox="-0.458 -0.777 83 34" enable-background="new -0.458 -0.777 83 34" xml:space="preserve"><defs></defs><path fill="#FFFFFF" d="M35.657 14.144c-0.768-2.683-2.405-3.406-4.913-3.406c-4.605 0-6.652 3.172-6.652 6.8 c0 4.5 2.5 7.5 6.7 7.488c2.866 0 4.196-1.26 5.45-3.709l0.64 0.07c-0.333 1.003-0.896 2.869-1.305 3.8 c-0.717 0.164-3.02 0.653-4.811 0.653c-6.473 0-9.185-4.012-9.185-7.721c0-4.805 4.068-8.141 9.671-8.141 c2.175 0 3.9 0.5 4.6 0.606c0.205 1.3 0.3 2.3 0.5 3.522L35.657 14.144z"/><path fill="#FFFFFF" d="M52.315 22.098c0 2.5 0.2 2.7 2.3 2.846v0.536h-6.755v-0.536c2.098-0.141 2.303-0.304 2.303-2.846 V13.7c0-2.542-0.205-2.706-2.303-2.846v-0.537h6.755v0.537c-2.099 0.14-2.303 0.303-2.303 2.846V22.098z"/><path fill="#FFFFFF" d="M81.271 14.144c-0.768-2.683-2.405-3.406-4.913-3.406c-4.605 0-6.652 3.172-6.652 6.8 c0 4.5 2.5 7.5 6.7 7.488c2.866 0 4.196-1.26 5.45-3.709l0.64 0.07c-0.333 1.003-0.896 2.869-1.305 3.8 c-0.717 0.164-3.02 0.653-4.811 0.653c-6.474 0-9.186-4.012-9.186-7.721c0-4.805 4.068-8.141 9.672-8.141 c2.175 0 3.9 0.5 4.6 0.606c0.204 1.3 0.3 2.3 0.5 3.522L81.271 14.144z"/><polygon fill="#FFFFFF" points="0.7,5.7 17.3,5.7 11.2,0"/><polygon fill="#FFFFFF" points="0,8.8 4,8.9 2.8,32.1 1.2,32.4"/><polygon fill="#FFFFFF" points="6.8,7.8 10.3,7.7 9.7,28.1 7.8,28.1"/><polygon fill="#FFFFFF" points="13.4,9 17.2,8.7 16.4,31.9 14.2,32.1"/><rect x="40.8" y="17.5" transform="matrix(0.707 -0.7072 0.7072 0.707 -0.9148 35.1942)" fill="#FFFFFF" width="2.4" height="2.4"/><rect x="59.6" y="17.5" transform="matrix(0.707 -0.7072 0.7072 0.707 4.5711 48.4358)" fill="#FFFFFF" width="2.4" height="2.4"/></svg>