<svg xmlns="http://www.w3.org/2000/svg" xmlns:xlink="http://www.w3.org/1999/xlink" xmlns:a="http://ns.adobe.com/AdobeSVGViewerExtensions/3.0/" version="1.1" x="0px" y="0px" width="46px" height="44px" viewBox="4 0 46 44" enable-background="new 4 0 46 44" xml:space="preserve"><defs></defs><path fill="#AC0302" d="M49.154 0.001H28.785v10.15c0 0 4.5 0 5.1 0c0 0.8 0 8.7 0 10.3 c-1.326-1.662-16.336-20.49-16.336-20.49H4.155v10.15c0 0 4.5 0 5.1 0c0 0.8 0 21.9 0 22.785c-0.614 0-5.11 0-5.11 0v10.149 h20.368V32.936c0 0-4.495 0-5.109 0c0-0.777 0-8.75 0-10.351c1.325 1.7 16.3 20.5 16.3 20.5h13.395V32.936 c0 0-4.502 0-5.111 0c0-0.822 0-21.945 0-22.785c0.615 0 5.1 0 5.1 0V0.001L49.154 0.001z"/><path fill="#FFFFFF" d="M41.117 6.31c0.578-0.508 1.373-0.663 2.238-0.663c0.416-0.005 0.785-0.005 1.049-0.004 c0.264 0 0.4 0 0.4 0.004V4.51H33.107v1.136h1.619c0.609 0 1.4 0.1 2 0.561c0.615 0.5 1.1 1.3 1.1 2.8 v22.244L16.483 4.51H8.478v1.107c0.596 0 1.8 0.4 2.8 0.937c1.015 0.6 1.9 1.4 1.9 2.3v25.15 c0 1.404-0.362 2.264-0.94 2.771c-0.579 0.508-1.373 0.664-2.239 0.664c-0.415 0.004-0.784 0.004-1.049 0 c-0.265-0.003-0.427-0.004-0.427-0.004v1.134h11.724V37.44h-1.618c-0.61 0-1.376-0.092-1.991-0.561 c-0.613-0.469-1.075-1.314-1.075-2.818V11.766l21.35 26.808h7.965v-1.107c-0.596 0-1.76-0.353-2.775-0.935 c-1.014-0.582-1.881-1.393-1.881-2.3V9.082C40.176 7.7 40.5 6.8 41.1 6.31z"/><rect fill="none" width="53.3" height="43.1"/></svg>