<svg xmlns="http://www.w3.org/2000/svg" width="122" height="125"><g><polygon points="0,62.041 122,62.041 122,113.082 61,124.124 0,113.082" fill="#343223"/><polygon points="0,60.041 122,60.041 122,111.225 61,122.266 0,111.225" fill="#DC6170"/><polygon points="0,0 122,0 122,110.143 61,121.184 0,110.143" fill="#c00"/></g><g><path d="M83 63h-21v10h5v10.616c-1-1.662-15.442-20.616-15.442-20.616h-13.558v10h5v23h-5v10h20v-10h-5v-10.291c1 1.661 16.76 20.291 16.76 20.291h13.24v-10h-5v-23h5v-10zm-1 1v8h-5v24.958l5 .01v8.032h-11.803c-.263 0-18.197-21.887-18.197-21.887v13.887h5v8h-18v-8h5v-25h-5v-8h12.12c.264 0 16.88 22.212 16.88 22.212v-14.212h-5v-8h19z" fill="#fff"/><path d="M75.028 69.436c.577-.508 1.418-.664 2.282-.664l.658-.004.032.003v-.771h-11v1h1.727c.608 0 .98-.021 1.594.446.615.468.68 1.196.68 2.702v22.242l-20.519-26.39h-8.482v.742c1 0 1.932.355 2.947.938 1.015.582 2.053 1.39 2.053 2.299v25.151c0 1.404-.295 2.265-.874 2.771-.579.508-1.341.664-2.206.664-.415.006-1.007.006-1.271.006l-.649-.006v1.435h12v-1h-1.416c-.61 0-1.636-.31-2.25-.779-.613-.467-1.334-1.53-1.334-3.033v-22.297l21.869 27.109h7.131v-1.407s-1.432-.354-2.447-.938c-1.014-.58-1.553-1.392-1.553-2.3v-25.149c0-1.406.448-2.265 1.028-2.77z" fill="#fff"/></g></svg>