<svg xmlns="http://www.w3.org/2000/svg" xmlns:xlink="http://www.w3.org/1999/xlink" version="1.1" x="0px" y="0px" width="122px" height="125px" viewBox="0 -58.124 122 125" enable-background="new 0 -58.124 122 125" xml:space="preserve"><g><polygon fill="#343223" points="-0.5,3.9 122.5,3.9 122.5,55 61,66 -0.5,55"/><polygon fill="#DC6170" points="-0.5,1.9 122.5,1.9 122.5,53.1 61,64.1 -0.5,53.1"/><polygon fill="#AB1E23" points="-0.5,-59.1 122.5,-59.1 122.5,51.1 61,62.1 -0.5,51.1"/></g><g><g><path fill="#FFFFFF" d="M83.5 4.917h-21v10h5c0 1 0 9 0 10.575c-1-1.662-15.942-20.575-15.942-20.575H38.5v10c0 0 4 0 5 0 c0 1 0 22 0 23c-1 0-5 0-5 0v10h20v-10c0 0-4 0-5 0c0-1 0-8.731 0-10.332c1 1.7 16.3 20.3 16.3 20.332H83.5v-10h-5 c0-1 0-22 0-23h5V4.917L83.5 4.917z M82.5 5.917v8h-5v24.917l5 0.01v8.073H70.197c-0.264 0-17.697-21.928-17.697-21.928v13.928h5 v8h-18v-8h5v-25h-5v-8h11.62c0.264 0 17.4 22.2 17.4 22.171V13.917h-5v-8H82.5z"/></g><path fill="#AB1E23" d="M82.5 5.917v8h-5v24.917l5 0.01v8.073c0 0-11.895 0-12.303 0c-0.264 0-17.697-21.928-17.697-21.928v13.928 c0 0 4 0 5 0c0 1 0 8 0 8c-1 0-18 0-18 0s0-7 0-8h5v-25h-5c0 0 0-7 0-8c0 0 11.2 0 11.6 0c0.264 0 17.4 22.2 17.4 22.2 V13.917h-5v-8H82.5z"/><path fill="#FFFFFF" d="M75.278 11.311c0.577-0.508 1.293-0.664 2.157-0.664c0.416-0.005 0.58-0.005 0.846-0.003 c0.264 0 0.2 0 0.2 0.003v-0.73h-11v1h1.227c0.608 0 1.23-0.042 1.8 0.426c0.615 0.5 0.9 1.2 0.9 2.682v22.242 L50.482 9.917H42.5v0.701c1 0 1.9 0.4 2.9 0.937c1.015 0.6 2.1 1.4 2.1 2.3v25.151c0 1.404-0.545 2.265-1.124 2.8 c-0.579 0.508-1.466 0.664-2.331 0.664c-0.415 0.006-0.819 0.006-1.084 0.006C42.696 42.4 42.5 42.4 42.5 42.44v1.477h12v-1 h-1.916c-0.61 0-1.386-0.33-2-0.8c-0.613-0.467-1.084-1.55-1.084-3.054V16.767l21.369 27.15H78.5v-1.448 c0 0-1.432-0.354-2.447-0.938c-1.014-0.58-1.553-1.392-1.553-2.3V14.082C74.5 12.7 74.7 11.8 75.3 11.311z"/><rect x="33.5" y="4.9" fill="none" width="54" height="43"/></g></svg>