<?xml version="1.0" encoding="utf-8"?>
<!-- Generator: Adobe Illustrator 15.0.2, SVG Export Plug-In . SVG Version: 6.00 Build 0)  -->
<!DOCTYPE svg PUBLIC "-//W3C//DTD SVG 1.1//EN" "http://www.w3.org/Graphics/SVG/1.1/DTD/svg11.dtd">
<svg version="1.1" xmlns="http://www.w3.org/2000/svg" xmlns:xlink="http://www.w3.org/1999/xlink" x="0px" y="0px" width="122px"
	 height="66.834px" viewBox="0 0 122 66.834" enable-background="new 0 0 122 66.834" xml:space="preserve">
<g id="Layer_1">
	<polygon fill="#343223" points="0,3.858 122,3.858 122,54.958 61,66 0,54.958 	"/>
	<polygon fill="#DC6170" points="0,2 122,2 122,53.1 61,64.142 0,53.1 	"/>
	<polygon fill="#AB1E23" points="0,0 122,0 122,51.1 61,62.142 0,51.1 	"/>
</g>
<g id="Layer_2">
	<g>
		<path fill="#FFFFFF" d="M83.154,5.002H62.786v10.149c0,0,4.496,0,5.109,0c0,0.777,0,8.74,0,10.341
			C66.57,23.83,51.558,5.002,51.558,5.002H38.155v10.149c0,0,4.496,0,5.11,0c0,0.84,0,21.945,0,22.785c-0.614,0-5.11,0-5.11,0v10.15
			h20.369v-10.15c0,0-4.495,0-5.109,0c0-0.777,0-8.75,0-10.351C54.74,29.246,69.76,48.086,69.76,48.086h13.395v-10.15
			c0,0-4.502,0-5.109,0c0-0.822,0-21.944,0-22.785c0.615,0,5.109,0,5.109,0V5.002L83.154,5.002z M82.247,5.91v8.333h-5.11v24.591
			l5.11,0.01v8.334h-12.05c-0.264-0.332-17.691-22.189-17.691-22.189v13.855h5.109v8.334H39.063v-8.334h5.109V14.243h-5.109V5.91
			h12.057c0.264,0.332,17.685,22.178,17.685,22.178V14.243h-5.11V5.91H82.247z"/>
	</g>
	<path fill="#AB1E23" d="M82.247,5.91v8.333h-5.11v24.591l5.11,0.01v8.334c0,0-11.642,0-12.05,0
		c-0.264-0.332-17.691-22.189-17.691-22.189v13.855c0,0,4.495,0,5.109,0c0,0.738,0,7.596,0,8.334c-0.826,0-17.727,0-18.552,0
		c0-0.738,0-7.596,0-8.334c0.614,0,5.109,0,5.109,0V14.243c0,0-4.495,0-5.109,0c0-0.739,0-7.594,0-8.333c0.783,0,11.649,0,12.057,0
		c0.264,0.332,17.685,22.178,17.685,22.178V14.243h-5.11V5.91H82.247z"/>
	<path fill="#FFFFFF" d="M75.118,11.311c0.577-0.508,1.373-0.664,2.237-0.664c0.416-0.005,0.785-0.005,1.051-0.003
		c0.264,0.001,0.425,0.003,0.425,0.003V9.511H67.108v1.135h1.619c0.608,0,1.376,0.093,1.989,0.561
		c0.615,0.468,1.076,1.312,1.076,2.818v22.242L50.482,9.511h-8.005v1.107c0.596,0,1.76,0.355,2.775,0.937
		c1.015,0.582,1.881,1.391,1.881,2.3v25.151c0,1.404-0.362,2.264-0.94,2.77c-0.579,0.508-1.374,0.664-2.239,0.664
		c-0.415,0.006-0.784,0.006-1.049,0.006c-0.266-0.002-0.427-0.006-0.427-0.006v1.135h11.724v-1.135h-1.618
		c-0.61,0-1.376-0.092-1.99-0.561c-0.614-0.467-1.075-1.312-1.075-2.816V16.767l21.35,26.807h7.964v-1.105
		c-0.595,0-1.759-0.355-2.774-0.938c-1.013-0.58-1.88-1.391-1.88-2.299V14.082C74.177,12.676,74.538,11.818,75.118,11.311z"/>
	<rect x="34" y="5" fill="none" width="53.33" height="43.085"/>
</g>
</svg>
