<svg xmlns="http://www.w3.org/2000/svg" xmlns:xlink="http://www.w3.org/1999/xlink" xmlns:a="http://ns.adobe.com/AdobeSVGViewerExtensions/3.0/" version="1.1" x="0px" y="0px" width="46px" height="44px" viewBox="4 0 46 44" enable-background="new 4 0 46 44" xml:space="preserve"><defs></defs><path fill="#FFFFFF" d="M49.154 0.002H28.786v10.149c0 0 4.5 0 5.1 0c0 0.8 0 8.7 0 10.3 C32.57 18.8 17.6 0 17.6 0.002H4.155v10.149c0 0 4.5 0 5.1 0c0 0.8 0 21.9 0 22.785c-0.614 0-5.11 0-5.11 0v10.15 h20.368v-10.15c0 0-4.495 0-5.109 0c0-0.777 0-8.75 0-10.351C20.74 24.2 35.8 43.1 35.8 43.086h13.395v-10.15 c0 0-4.502 0-5.109 0c0-0.822 0-21.944 0-22.785c0.615 0 5.1 0 5.1 0V0.002L49.154 0.002z M48.247 0.91v8.333h-5.11v24.591 l5.11 0.01v8.334h-12.05c-0.264-0.332-17.691-22.189-17.691-22.189v13.855h5.109v8.334H5.063v-8.334h5.109V9.243H5.063V0.91h12.057 c0.264 0.3 17.7 22.2 17.7 22.178V9.243h-5.11V0.91H48.247z"/><path fill="#AC0302" d="M48.247 0.91v8.333h-5.11v24.591l5.11 0.01v8.334c0 0-11.642 0-12.05 0 c-0.264-0.332-17.691-22.189-17.691-22.189v13.855c0 0 4.5 0 5.1 0c0 0.7 0 7.6 0 8.334c-0.826 0-17.727 0-18.552 0 c0-0.738 0-7.596 0-8.334c0.614 0 5.1 0 5.1 0V9.243c0 0-4.495 0-5.109 0c0-0.739 0-7.594 0-8.333c0.783 0 11.6 0 12.1 0 c0.264 0.3 17.7 22.2 17.7 22.178V9.243h-5.11V0.91H48.247z"/><path fill="#FFFFFF" d="M41.118 6.311c0.577-0.508 1.373-0.664 2.237-0.664c0.416-0.005 0.785-0.005 1.051-0.003 c0.264 0 0.4 0 0.4 0.003V4.511H33.108v1.135h1.619c0.608 0 1.4 0.1 2 0.6 c0.615 0.5 1.1 1.3 1.1 2.818v22.242L16.482 4.511H8.477v1.107c0.596 0 1.8 0.4 2.8 0.9 c1.015 0.6 1.9 1.4 1.9 2.3v25.151c0 1.404-0.362 2.264-0.94 2.77c-0.579 0.508-1.374 0.664-2.239 0.7 c-0.415 0.006-0.784 0.006-1.049 0.006c-0.266-0.002-0.427-0.006-0.427-0.006v1.135h11.724v-1.135h-1.618 c-0.61 0-1.376-0.092-1.99-0.561c-0.614-0.467-1.075-1.312-1.075-2.816V11.767l21.35 26.807h7.964v-1.105 c-0.595 0-1.759-0.355-2.774-0.938c-1.013-0.58-1.88-1.391-1.88-2.299V9.082C40.177 7.7 40.5 6.8 41.1 6.311z"/><rect fill="none" width="53.3" height="43.1"/></svg>