<svg xmlns="http://www.w3.org/2000/svg" width="111" height="48"><path fill="#fff" d="M20.716 30.964c-.39 0-.655.025-.793.063v2.505c.164.038.365.05.642.05 1.02 0 1.649-.516 1.649-1.372 0-.78-.529-1.246-1.498-1.246z"/><path fill="#fff" d="M80.149 30.977c-.415 0-.705.038-.869.076v5.552c.164.038.441.038.667.038 1.75.012 2.896-.945 2.896-2.971 0-1.826-1.032-2.695-2.694-2.695z"/><path fill="#fff" d="M29.339 30.952c-1.322 0-2.065 1.284-2.065 2.87 0 1.599.768 2.845 2.052 2.845h.013c1.297 0 2.039-1.221 2.039-2.883.001-1.523-.717-2.832-2.039-2.832z"/><path fill="#fff" d="M5.974 30.939c-.466 0-.73.025-.869.063v2.329h.755c.957 0 1.523-.478 1.523-1.221.001-.768-.528-1.171-1.409-1.171z"/><path fill="#fff" d="M102.036 23.061h-10.542c-1.355 1.271-3.172 2.055-5.175 2.055h-2.451c-2.004 0-3.821-.784-5.175-2.055h-7.081c-1.355 1.271-3.172 2.055-5.176 2.055h-2.451c-2.004 0-3.821-.784-5.175-2.055h-7.08c-1.355 1.271-3.171 2.055-5.176 2.055h-2.451c-2.004 0-3.821-.784-5.175-2.055h-7.081c-1.355 1.271-3.171 2.055-5.175 2.055h-2.451c-2.004 0-3.821-.784-5.175-2.055h-10.081c-4.951 0-8.965 4.535-8.965 10.129 0 5.594 4.014 10.129 8.965 10.129h93.072c4.95 0 8.964-4.534 8.964-10.129-.001-5.594-4.014-10.129-8.965-10.129zm-94.388 14.991c-.126-.239-.34-.932-.579-1.976-.239-1.07-.604-1.347-1.397-1.36h-.567v3.336h-1.901v-8.359c.617-.113 1.523-.189 2.555-.189 1.259 0 2.14.189 2.744.68.516.403.793.995.793 1.775 0 1.07-.768 1.813-1.498 2.077v.038c.592.239.919.793 1.133 1.574.264.969.516 2.077.68 2.404h-1.963zm8.749 0h-5.401v-8.485h5.225v1.574h-3.311v1.763h3.122v1.561h-3.122v2.014h3.487v1.573zm6.95-3.89c-.655.605-1.637.894-2.77.894-.252 0-.478-.013-.654-.05v3.047h-1.901v-8.373c.592-.101 1.423-.176 2.593-.176 1.184 0 2.039.227 2.606.692.541.415.894 1.121.894 1.951 0 .844-.265 1.549-.768 2.015zm5.917 4.028h-.013c-2.505 0-3.991-1.901-3.991-4.318 0-2.543 1.637-4.444 4.129-4.444 2.606 0 4.029 1.951 4.029 4.293 0 2.795-1.674 4.469-4.154 4.469zm10.172-.138c-.126-.239-.34-.932-.579-1.976-.239-1.07-.604-1.347-1.397-1.36h-.566v3.336h-1.901v-8.359c.617-.113 1.523-.189 2.555-.189 1.259 0 2.14.189 2.745.68.516.403.793.995.793 1.775 0 1.07-.768 1.813-1.498 2.077v.038c.592.239.919.793 1.133 1.574.264.969.516 2.077.68 2.404h-1.965zm9.127-6.874h-2.316v6.874h-1.913v-6.874h-2.291v-1.611h6.521v1.611zm6.118 6.874h-1.914v-8.485h1.914v8.485zm9.001 0h-2.014l-1.813-3.273c-.504-.919-1.07-2.002-1.473-2.996h-.05c.063 1.133.088 2.329.088 3.714v2.555h-1.763v-8.485h2.241l1.763 3.11c.504.894.995 1.951 1.385 2.908h.025c-.113-1.12-.151-2.266-.151-3.55v-2.468h1.762v8.485zm6.307-1.46c.592 0 1.222-.113 1.611-.277l.277 1.511c-.34.164-1.146.365-2.165.365-2.934 0-4.444-1.838-4.444-4.267 0-2.896 2.065-4.494 4.633-4.494.995 0 1.75.202 2.09.378l-.403 1.511c-.378-.164-.919-.315-1.611-.315-1.511 0-2.694.919-2.694 2.82 0 1.698 1.007 2.768 2.706 2.768zm5.401 1.46h-1.914v-8.485h1.914v8.485zm8.082-1.007c-.894.743-2.266 1.096-3.928 1.096-.995 0-1.712-.063-2.178-.126v-8.321c.705-.126 1.624-.189 2.581-.189 1.624 0 2.682.264 3.487.881.881.655 1.435 1.712 1.435 3.223.001 1.623-.591 2.743-1.397 3.436zm8.385 1.007h-5.401v-8.485h5.225v1.574h-3.311v1.763h3.122v1.561h-3.122v2.014h3.487v1.573zm8.648 0h-2.014l-1.813-3.273c-.504-.919-1.07-2.002-1.473-2.996h-.05c.063 1.133.088 2.329.088 3.714v2.555h-1.763v-8.485h2.241l1.762 3.11c.504.894.995 1.951 1.385 2.908h.025c-.113-1.12-.151-2.266-.151-3.55v-2.468h1.763v8.485zm5.539-6.874v6.874h-1.914v-6.874h-2.291v-1.611h6.521v1.611h-2.316z"/><path fill="#fff" d="M37.761 30.939c-.466 0-.73.025-.868.063v2.329h.755c.957 0 1.523-.478 1.523-1.221 0-.768-.529-1.171-1.41-1.171z"/><path fill="#fff" d="M23.829 8.526h-3.979v-2.799h11.326v2.799h-4.023v11.938h-3.323v-11.938z"/><path fill="#fff" d="M80.506 17.202c.874.459 2.274.918 3.695.918 1.531 0 2.34-.634 2.34-1.618 0-.896-.7-1.443-2.471-2.055-2.449-.875-4.067-2.23-4.067-4.395 0-2.514 2.121-4.417 5.575-4.417 1.684 0 2.887.328 3.761.743l-.744 2.668c-.568-.284-1.64-.7-3.061-.7-1.443 0-2.143.678-2.143 1.421 0 .94.809 1.355 2.733 2.099 2.602.962 3.805 2.318 3.805 4.417 0 2.471-1.881 4.57-5.925 4.57-1.683 0-3.345-.459-4.176-.918l.678-2.733z"/><path fill="#fff" d="M60.549 6.372c1.027-.175 2.471-.306 4.504-.306 2.055 0 3.542.394 4.526 1.203.94.721 1.552 1.946 1.552 3.389 0 1.465-.459 2.689-1.333 3.498-1.137 1.049-2.843 1.552-4.811 1.552-.437 0-.831-.022-1.137-.088v5.291h-3.301v-14.539zm3.302 6.69c.284.066.634.087 1.115.087 1.771 0 2.864-.896 2.864-2.383 0-1.355-.919-2.164-2.602-2.164-.678 0-1.137.044-1.377.109v4.351z"/><path fill="#fff" d="M47.326 5.643v14.737h-3.323v-14.737h3.323z"/><path fill="#fff" d="M73.939 47.373l.305-1.606.085-.544h.24l-.041.289h.007c.136-.202.337-.321.548-.321.327 0 .466.271.466.551 0 .538-.384 1.042-.891 1.042-.16 0-.267-.035-.328-.069h-.006l-.124.658h-.261zm.428-.879c.069.054.167.085.293.085.337 0 .617-.419.617-.819 0-.161-.069-.353-.293-.353-.205 0-.459.233-.538.661l-.079.426z"/><path fill="#fff" d="M76.356 46.784c-.381 0-.595-.284-.595-.627 0-.504.349-.967.844-.967.413 0 .598.312.598.633 0 .472-.334.961-.844.961h-.003zm.031-.208c.309 0 .541-.397.541-.753 0-.176-.082-.425-.356-.425-.328 0-.544.4-.544.75 0 .249.138.429.356.429h.003z"/><path fill="#fff" d="M77.725 45.225l.054.857.007.409h.009l.167-.381.45-.885h.23l.094.869.025.397h.007l.145-.387.412-.879h.265l-.753 1.524h-.243l-.101-.828-.022-.406h-.007l-.176.396-.438.838h-.242l-.142-1.524h.259z"/><path fill="#fff" d="M80.671 46.664c-.114.063-.299.12-.504.12-.403 0-.58-.277-.58-.614 0-.46.34-.979.831-.979.29 0 .447.173.447.393 0 .4-.451.504-1.014.494-.012.066-.003.208.032.29.06.139.183.205.34.205.18 0 .315-.054.409-.104l.039.195zm-.056-1.076c0-.123-.095-.192-.233-.192-.249 0-.434.242-.497.482.409.007.731-.05.731-.286v-.004z"/><path fill="#fff" d="M80.998 46.749l.186-.983c.038-.198.06-.4.076-.541h.23l-.041.331h.01c.101-.208.261-.365.466-.365l.076.006-.051.258-.072-.006c-.224 0-.425.274-.491.627l-.126.674h-.263z"/><path fill="#fff" d="M83.082 46.664c-.113.063-.299.12-.504.12-.403 0-.58-.277-.58-.614 0-.46.34-.979.832-.979.29 0 .447.173.447.393 0 .4-.45.504-1.014.494-.013.066-.003.208.032.29.06.139.183.205.34.205.179 0 .314-.054.409-.104l.038.195zm-.057-1.076c0-.123-.094-.192-.233-.192-.249 0-.435.242-.497.482.409.007.73-.05.73-.286v-.004z"/><path fill="#fff" d="M85.031 44.514l-.337 1.754c-.028.157-.054.334-.063.482h-.239l.04-.302h-.006c-.138.217-.33.337-.551.337-.293 0-.454-.242-.454-.554 0-.542.403-1.039.942-1.039.097 0 .205.022.271.054l.135-.731h.262zm-.441.951c-.051-.038-.139-.066-.249-.066-.365 0-.648.391-.648.797 0 .183.062.375.286.375.202 0 .444-.23.51-.573l.101-.533z"/><path fill="#fff" d="M86.308 44.514l-.202.989h.007c.135-.205.33-.312.535-.312.334 0 .46.277.46.548 0 .469-.337 1.045-.948 1.045-.267 0-.469-.11-.469-.39l.029-.239.328-1.641h.26zm-.331 1.647l-.019.195c0 .144.085.223.246.223.393 0 .633-.469.633-.809 0-.189-.082-.362-.29-.362-.227 0-.46.233-.535.592l-.035.161z"/><path fill="#fff" d="M87.592 45.225l.151.819.069.403h.006l.164-.375.39-.847h.278l-.573 1.159c-.163.331-.318.598-.526.803-.17.17-.356.242-.441.261l-.066-.224c.066-.025.177-.066.28-.148.104-.079.214-.202.296-.353l.007-.069-.306-1.43h.271z"/><path fill="#fff" d="M89.66 46.078l-.337.671h-.274l1.096-2.123h.308l.293 2.123h-.268l-.085-.671h-.733zm.714-.207l-.085-.614-.035-.391h-.009l-.173.387-.315.617h.617z"/><path fill="#fff" d="M91.283 45.225l.054.857.006.409h.01l.167-.381.451-.885h.23l.094.869.025.397h.006l.145-.387.413-.879h.264l-.753 1.524h-.242l-.101-.828-.022-.406h-.006l-.177.396-.438.838h-.243l-.141-1.524h.258z"/><path fill="#fff" d="M94.129 46.749l.035-.393h-.007c-.167.318-.378.428-.592.428-.271 0-.438-.214-.438-.504 0-.532.391-1.089 1.052-1.089.145 0 .305.025.409.057l-.155.797c-.05.264-.069.535-.063.705h-.241zm.167-1.329l-.18-.022c-.393 0-.718.41-.718.835 0 .17.06.337.258.337.22 0 .479-.283.551-.689l.089-.461z"/><path fill="#fff" d="M94.758 46.749l.186-.983c.038-.198.06-.4.076-.541h.23l-.041.331h.01c.101-.208.261-.365.466-.365l.076.006-.051.258-.072-.006c-.224 0-.425.274-.491.627l-.126.674h-.263z"/><path fill="#fff" d="M96.842 46.664c-.113.063-.299.12-.504.12-.403 0-.58-.277-.58-.614 0-.46.34-.979.832-.979.29 0 .447.173.447.393 0 .4-.45.504-1.014.494-.013.066-.003.208.032.29.06.139.183.205.34.205.179 0 .314-.054.409-.104l.038.195zm-.057-1.076c0-.123-.094-.192-.233-.192-.249 0-.435.242-.498.482.409.007.73-.05.73-.286v-.004z"/><path fill="#fff" d="M97.169 46.749l.29-1.524h.261l-.29 1.524h-.261zm.488-1.804c-.091 0-.155-.072-.155-.17.003-.104.082-.186.18-.186.097 0 .164.072.164.17-.004.11-.082.186-.186.186h-.003z"/><path fill="#fff" d="M98.563 44.86l-.069.365h.365l-.041.205h-.365l-.138.743-.032.242c0 .091.044.148.145.148l.123-.013-.013.205-.201.029c-.23 0-.321-.139-.321-.296l.035-.287.148-.771h-.217l.038-.205h.217l.054-.28.272-.085z"/><path fill="#fff" d="M99.246 45.225l.151.819.069.403h.007l.163-.375.391-.847h.277l-.573 1.159c-.164.331-.318.598-.526.803-.17.17-.356.242-.441.261l-.066-.224c.066-.025.177-.066.281-.148.104-.079.214-.202.296-.353l.006-.069-.306-1.43h.271z"/><path fill="#fff" d="M99.945 47.14c.097-.189.242-.526.308-.756l.312-.032c-.113.268-.308.617-.419.765l-.201.023z"/><path fill="#fff" d="M101.896 44.627l-.403 2.123h-.261l.403-2.123h.261z"/><path fill="#fff" d="M101.962 46.749l.202-1.08.072-.444h.236l-.041.299h.007c.138-.214.343-.334.567-.334.179 0 .384.104.384.422l-.029.245-.17.891h-.258l.167-.882.019-.195c0-.151-.06-.264-.239-.264-.186 0-.45.223-.519.602l-.139.74h-.259z"/><path fill="#fff" d="M104.685 46.69c-.079.041-.236.094-.441.094-.394 0-.586-.265-.586-.589 0-.523.384-1.005.932-1.005.142 0 .271.041.318.069l-.076.205c-.06-.029-.145-.057-.258-.057-.397 0-.645.39-.645.753 0 .249.129.409.378.409.158 0 .274-.047.353-.085l.025.206z"/><path fill="#fff" d="M105.093 46.784c-.104 0-.173-.082-.173-.186 0-.117.082-.211.198-.211.107 0 .177.082.177.189 0 .116-.082.208-.198.208h-.004z"/><path fill="#fff" d="M26.672 26.115h-2.451c-4.728 0-8.573-3.846-8.573-8.573v-8.968c0-4.728 3.846-8.574 8.574-8.574h2.451c4.728 0 8.574 3.846 8.574 8.574v8.968c-.001 4.728-3.847 8.573-8.575 8.573zm-2.45-24.115c-3.625 0-6.573 2.949-6.573 6.574v8.968c0 3.625 2.949 6.573 6.573 6.573h2.451c3.625 0 6.574-2.949 6.574-6.573v-8.968c-.001-3.625-2.95-6.574-6.575-6.574h-2.45z"/><path fill="#fff" d="M86.319 26.115h-2.451c-4.728 0-8.573-3.846-8.573-8.573v-8.968c0-4.728 3.846-8.574 8.573-8.574h2.451c4.728 0 8.573 3.846 8.573 8.574v8.968c.001 4.728-3.845 8.573-8.573 8.573zm-2.451-24.115c-3.624 0-6.573 2.949-6.573 6.574v8.968c0 3.625 2.949 6.573 6.573 6.573h2.451c3.624 0 6.573-2.949 6.573-6.573v-8.968c.001-3.625-2.949-6.574-6.573-6.574h-2.451z"/><path fill="#fff" d="M66.437 26.115h-2.451c-4.727 0-8.572-3.846-8.572-8.573v-8.968c-.001-4.728 3.845-8.574 8.571-8.574h2.451c4.728 0 8.574 3.846 8.574 8.574v8.968c.001 4.728-3.846 8.573-8.573 8.573zm-2.452-24.115c-3.624 0-6.572 2.949-6.572 6.574v8.968c0 3.625 2.948 6.573 6.572 6.573h2.451c3.625 0 6.574-2.949 6.574-6.573v-8.968c.001-3.625-2.948-6.574-6.573-6.574h-2.452z"/><path fill="#fff" d="M46.554 26.115h-2.451c-4.728 0-8.574-3.846-8.574-8.573v-8.968c.001-4.728 3.847-8.574 8.575-8.574h2.451c4.728 0 8.574 3.846 8.574 8.574v8.968c-.001 4.728-3.847 8.573-8.575 8.573zm-2.45-24.115c-3.625 0-6.574 2.949-6.574 6.574v8.968c0 3.625 2.949 6.573 6.574 6.573h2.451c3.625 0 6.574-2.949 6.574-6.573v-8.968c-.001-3.625-2.95-6.574-6.575-6.574h-2.45z"/></svg>