<svg xmlns="http://www.w3.org/2000/svg" xmlns:xlink="http://www.w3.org/1999/xlink" version="1.1" x="0px" y="0px" width="76.147px" height="29.462px" viewBox="0 0 76.147 29.462" enable-background="new 0 0 76.147 29.462" xml:space="preserve"><path fill="#FFFFFF" d="M47.39 21.413l-0.703 0.074v7.298c0.281 0 0.5 0.1 0.8 0.051c1.42 0 1.895-0.768 2.441-2.164 l0.326 0.111l-0.506 2.623c-0.557-0.15-0.631-0.162-1.232-0.162h-3.479v-0.408l0.629-0.086v-7.263l-0.629-0.074v-0.42h2.312V21.413z "/><path fill="#FFFFFF" d="M51.712 28.75l0.494 0.086v0.408h-1.818v-0.408l0.525-0.086v-4.07c0-0.285-0.094-0.42-0.285-0.42 c-0.084 0-0.156 0.023-0.24 0.049v-0.383l1.324-0.508V28.75z M51.304 22.181c-0.307 0-0.57-0.283-0.57-0.643s0.264-0.656 0.59-0.656 c0.307 0 0.5 0.3 0.5 0.68C51.858 21.9 51.6 22.2 51.3 22.181z"/><path fill="#FFFFFF" d="M53.89 24.332c0.305-0.518 0.873-0.863 1.398-0.863c1.158 0 1.5 1 1.5 2.176v3.105l0.482 0.086v0.408 h-1.811v-0.408l0.527-0.086v-3.082c0-1.062-0.316-1.619-0.924-1.619c-0.453 0-0.918 0.311-1.18 0.805v3.896l0.525 0.086v0.408h-1.85 v-0.408l0.525-0.086v-3.5c0-0.781-0.084-0.99-0.379-0.99c-0.031 0-0.084 0-0.146 0.023v-0.42l0.979-0.482 C53.753 23.7 53.9 23.9 53.9 24.332z"/><path fill="#FFFFFF" d="M59.528 29.453c-1.232 0-2.072-1.113-2.072-2.744c0-1.783 1.029-3.229 2.303-3.229 c0.758 0 1.4 0.4 1.4 0.977c0 0.359-0.232 0.645-0.527 0.645c-0.273 0-0.537-0.285-0.6-0.656 c-0.086-0.457-0.117-0.496-0.441-0.496c-0.736 0-1.295 0.965-1.295 2.24c0 1.4 0.7 2.5 1.7 2.5 c0.461 0 0.756-0.234 1.156-0.902l0.264 0.223C60.884 29 60.3 29.5 59.5 29.453z"/><path fill="#FFFFFF" d="M64.841 26.398c0 1.67-0.432 2.598-1.211 2.598c-0.852 0-1.252-0.828-1.252-2.635 c0-1.533 0.494-2.473 1.303-2.473C64.388 23.9 64.8 24.9 64.8 26.398z M65.796 26.51c0-1.707-0.924-3.029-2.115-3.029 c-1.229 0-2.26 1.348-2.26 2.955c0 1.7 1 3 2.2 3.018C64.774 29.5 65.8 28.1 65.8 26.51z"/><path fill="#FFFFFF" d="M67.167 28.75l0.527 0.086v0.408h-1.852v-0.408l0.525-0.086v-6.632c0-0.557-0.082-0.742-0.324-0.742 c-0.055 0-0.074 0.014-0.201 0.037v-0.434l1.324-0.604V28.75z"/><path fill="#FFFFFF" d="M69.378 24.332c0.303-0.518 0.871-0.863 1.396-0.863c1.16 0 1.5 1 1.5 2.176v3.105l0.484 0.086v0.408 h-1.809v-0.408l0.527-0.086v-3.082c0-1.062-0.316-1.619-0.928-1.619c-0.453 0-0.914 0.311-1.176 0.805v3.896l0.525 0.086v0.408 h-1.852v-0.408l0.525-0.086v-3.5c0-0.781-0.086-0.99-0.377-0.99c-0.031 0-0.084 0-0.148 0.023v-0.42l0.977-0.482 C69.239 23.7 69.3 23.9 69.4 24.332z"/><path fill="#FFFFFF" d="M28.952 1.538v2.324c0 0.6 0 0.7 0.1 0.905C29.221 5 29.5 5.1 29.8 5.1 c0.333 0 0.607-0.182 0.721-0.474c0.07-0.169 0.086-0.327 0.086-0.805V1.538h0.432v2.306c0 0.607-0.039 0.847-0.174 1.1 C30.62 5.3 30.3 5.5 29.8 5.508c-0.555 0-0.948-0.246-1.125-0.695c-0.086-0.227-0.113-0.438-0.113-0.969V1.538H28.952z"/><polygon fill="#FFFFFF" points="34.3,5.4 33.9,5.4 32.1,2.3 32.1,5.4 31.7,5.4 31.7,1.5 32.1,1.5 33.9,4.7 33.9,1.5 34.3,1.5"/><rect x="35.1" y="1.5" fill="#FFFFFF" width="0.4" height="3.9"/><polygon fill="#FFFFFF" points="37.5,4.7 38.6,1.5 39,1.5 37.6,5.4 37.3,5.4 36.1,1.5 36.5,1.5"/><polygon fill="#FFFFFF" points="41.1,3.3 41.1,3.6 40,3.6 40,5.1 41.3,5.1 41.3,5.4 39.5,5.4 39.5,1.5 41.1,1.5 41.1,1.9 40,1.9 40,3.3"/><path fill="#FFFFFF" d="M42.345 3.283V1.906h0.447c0.342 0 0.5 0.2 0.5 0.613c0 0.286-0.078 0.513-0.221 0.6 c-0.109 0.093-0.201 0.122-0.438 0.122H42.345z M41.913 5.432h0.432v-1.78h0.359l0.934 1.78h0.457l-0.99-1.839 c0.184-0.081 0.275-0.139 0.371-0.256c0.17-0.21 0.273-0.514 0.273-0.829c0-0.392-0.146-0.718-0.389-0.858 c-0.137-0.082-0.316-0.111-0.656-0.111h-0.791V5.432z"/><path fill="#FFFFFF" d="M45.886 2.303c-0.117-0.333-0.273-0.473-0.514-0.473c-0.277 0-0.473 0.25-0.473 0.6 c0 0.3 0.1 0.5 0.5 0.782c0.324 0.2 0.4 0.3 0.6 0.478c0.141 0.2 0.2 0.4 0.2 0.7 c0 0.677-0.408 1.139-1.008 1.139c-0.414 0-0.703-0.187-0.908-0.578l0.27-0.379c0.113 0.4 0.3 0.6 0.6 0.6 c0.34 0 0.566-0.287 0.566-0.707c0-0.21-0.061-0.368-0.178-0.497c-0.094-0.104-0.098-0.104-0.395-0.321 c-0.553-0.396-0.73-0.677-0.73-1.126c0-0.589 0.383-1.027 0.893-1.027c0.361 0 0.6 0.2 0.8 0.513L45.886 2.303z"/><rect x="46.9" y="1.5" fill="#FFFFFF" width="0.4" height="3.9"/><polygon fill="#FFFFFF" points="49.4,5.4 49,5.4 49,1.9 48.1,1.9 48.1,1.5 50.3,1.5 50.3,1.9 49.4,1.9"/><polygon fill="#FFFFFF" points="53.4,1.5 52.3,3.7 52.3,5.4 51.9,5.4 51.9,3.7 50.8,1.5 51.2,1.5 52.1,3.2 53,1.5"/><path fill="#FFFFFF" d="M60.786 1.831c0.66 0 1.1 0.6 1.1 1.651c0 1.034-0.404 1.659-1.064 1.7 c-0.678 0-1.07-0.619-1.07-1.682C59.716 2.5 60.1 1.8 60.8 1.831z M60.786 1.462c-0.957 0-1.539 0.753-1.539 2 c0 0.7 0.1 1.2 0.5 1.587c0.268 0.3 0.6 0.5 1.1 0.468c0.438 0 0.807-0.164 1.07-0.468 c0.312-0.367 0.463-0.863 0.463-1.559C62.319 2.2 61.7 1.5 60.8 1.462z"/><polygon fill="#FFFFFF" points="64.6,3.3 64.6,3.7 63.6,3.7 63.6,5.4 63.1,5.4 63.1,1.5 64.7,1.5 64.7,1.9 63.6,1.9 63.6,3.3"/><path fill="#FFFFFF" d="M11.438 1.206v0.506l0.309 0.059c1.406 0.3 1.6 0.3 1.6 1.985c0 0 0 9.2 0 10 C12.972 13.1 5.9 1.2 5.9 1.206h-3.8v0.541l0.358 0.03c1.456 0.1 1.6 0.1 1.6 1.809v12.438 c0 1.508-0.256 1.543-1.48 1.719l-0.522 0.076l0.001 0.096v0.492h5.256v-0.588l-0.59-0.09c-1.258-0.182-1.484-0.215-1.484-1.705 c0 0 0-9.792 0-10.515c0.396 0.6 8.2 12.9 8.2 12.898h1.129V3.659c0-1.479 0.205-1.538 1.342-1.864l0.232-0.067V1.206 H11.438z"/><path fill="#FFFFFF" d="M29.539 6.833c-1.193 0-2.082 0.455-2.842 1.45c0-0.63 0-8.296 0-8.296l-0.152 0.057l-3.148 1.172v0.575 l0.145-0.04c0.246-0.069 0.329-0.069 0.445-0.069c0.497 0 0.7 0.2 0.7 1.397v10.759c0 2.29-0.123 3.131-0.66 4.5 l-0.035 0.092l0.621 0.334c0 0 1.242-1.477 1.414-1.682c0.689 1.1 1.7 1.7 3 1.725c2.617 0 4.666-2.756 4.666-6.274 C33.682 9.1 32 6.8 29.5 6.833z M28.801 17.597c-1.631 0-2.104-0.891-2.104-3.978c0 0 0-3.86 0-3.949 c0.695-0.795 1.259-1.126 1.938-1.126c1.729 0 3 2.1 3 4.879C31.668 16 30.5 17.6 28.8 17.597z"/><path fill="#FFFFFF" d="M73.356 16.497l-0.076 0.092c-0.342 0.424-0.475 0.494-0.648 0.494c-0.258 0-0.438-0.434-0.438-1.057v-5.236 c0-1.418-0.236-2.066-0.971-2.668c-1.98-1.623-4.092-1.614-4.779-1.593c-2.051-0.078-7.1 2.788-8.422 6.1 c0-1.913 0-1.803 0-12.654l-3.186 1.201v0.622l0.146-0.042c0.154-0.044 0.307-0.067 0.459-0.067c0.393 0 0.6 0.2 0.6 1.2 c0 0 0 14.6 0 14.803c-0.162 0.023-1.174 0.164-1.174 0.164v0.676h4.357V17.86c0 0-1.008-0.141-1.172-0.164 c0.002-2.517 0.135-3.171 1.541-5.175c0.16 0.3 2.6 4.9 2.7 5.167c-0.238 0.033-1.109 0.156-1.109 0.156v0.691h4.789 c0.395 0.2 0.8 0.3 1.3 0.26c1.258 0 2.436-0.744 3.104-1.918c0.105 1.2 0.7 1.9 1.6 1.9 c0.539 0 1.268-0.578 1.998-1.582l0.061-0.082L73.356 16.497z M64.144 15.712c0 0.8 0.2 1.4 0.7 2 c-0.139-0.018-0.234-0.027-0.281-0.033c-0.055-0.098-3.691-6.698-3.764-6.828c0.66-0.869 2.406-2.291 3.736-2.455 c0.357-0.044 0.623-0.076 0.7 0.015c0.252 0.4 0.8 0.3 0.8 0.34c0.133-0.013 0.8 0.1 1.467-0.914 c0.002-0.004 0.031-0.141 0.398-0.143c1.586-0.009 2.2 1.8 2.2 3.021C67.854 11.4 64.1 12.6 64.1 15.712z M70.126 15.814c-0.672 0.791-1.43 1.248-2.078 1.248c-1.014 0-1.746-0.822-1.746-1.958c0-2.101 2.098-2.812 3.785-3.383 c0 0 0.027-0.009 0.039-0.013C70.126 12 70.1 15.7 70.1 15.814z"/><path fill="#FFFFFF" d="M23.389 15.181l-0.069 0.104c-0.888 1.314-1.644 1.826-2.695 1.826c-1.702 0-3.073-1.505-3.442-3.75 c0.199-0.054 6.879-1.85 6.879-1.85l-0.012-0.097c-0.342-2.868-1.934-4.58-4.26-4.58c-2.611 0-4.736 2.88-4.736 6.4 c0 3.2 2 5.6 4.9 5.567c1.833 0 3.146-0.947 4.131-2.985l0.039-0.081L23.389 15.181z M19.789 7.9 c1.073 0 1.8 0.8 1.8 2.079c0 0.64-0.219 1.022-1.417 1.327c0 0-2.465 0.611-3.095 0.8 C17.105 9.5 18.1 7.9 19.8 7.912z"/><path fill="#FFFFFF" d="M52.63 11.615c-2.496-1.082-2.695-1.249-2.695-2.234c0-0.77 0.701-1.427 1.594-1.435 c0 0 0.729-0.04 0.8 0.312c0.025 0.1 0.3 1.1 1.5 0.874c0.529-0.106 0.697-0.589 0.711-0.949 c0.029-0.686-0.795-1.375-2.045-1.375c-2.523 0-4.428 1.482-4.428 3.449c0 1.8 1.5 2.5 3 3.2 c1.277 0.6 2.5 1.1 2.5 2.417c0 1.012-0.889 1.836-1.982 1.836c-1.113 0-1.484-0.549-1.568-1.373 c-0.078-0.801-0.752-1.016-1.305-1.031c-0.613-0.018-1.098 0.436-1.145 1.167c-0.01 0.2 0 0.2 0 0.3 c-0.242 0.277-0.365 0.33-0.514 0.33c-0.254 0-0.434-0.436-0.434-1.057l0.002-5.231c0-1.418-0.234-2.067-0.969-2.668 c-1.195-1.087-3.639-1.96-5.662-1.538c-1.125 0.235-2.943 1.597-3.794 3.908c-0.064-1.787-0.248-2.511-0.876-3.727L35.344 6.7 l-2.236 1.051v0.451l0.24-0.057l0.135-0.022c0.68 0 1 0.9 1 2.786c0 0 0 6.6 0 6.7 c-0.162 0.023-1.191 0.172-1.191 0.172v0.58h4.49v-0.584c0 0-1.093-0.146-1.261-0.17c0-0.182 0.025-2.614 0.025-2.614 c0.295-5.484 1.52-6.054 2.046-6.388c0.438-0.277 1.071-0.323 1.128-0.235c0.252 0.4 0.8 0.3 0.8 0.3 c0.158-0.016 0.9 0.1 1.467-0.914c0.002-0.004 0.031-0.141 0.4-0.143c1.584-0.009 2.2 1.8 2.2 3.021l0.025 0 c0 0 0 0 0 0.011c-2.27 0.732-5.982 1.958-5.982 5.025c0 1.8 1.3 3.1 3.1 3.058c1.256 0 2.434-0.742 3.102-1.914 c0.107 1.2 0.7 1.9 1.6 1.914c0.447 0 1.027-0.4 1.631-1.111c0.637 0.7 1.8 1.1 3.3 1.1 c2.27 0 4.047-1.559 4.047-3.546C55.438 13.7 54.4 12.4 52.6 11.615z M44.653 15.863c-0.674 0.791-1.43 1.248-2.08 1.2 c-1.01 0-1.746-0.822-1.746-1.958c0-2.101 2.1-2.812 3.785-3.383c0 0 0.027-0.01 0.041-0.014 C44.653 12 44.7 15.8 44.7 15.863z"/><rect fill="none" width="76.1" height="29.5"/></svg>