<svg xmlns="http://www.w3.org/2000/svg" viewBox="0 0 54 27"><path fill="#FFF" d="M1.209 23.194L.006 26.605 0 26.623h.418l.334-.971h1.327l.331.962.003.009h.445L1.65 23.194h-.441zm.737 2.079H.885l.535-1.547.526 1.547zm3.773.202l.394.09-.003.013c-.176.716-.645 1.109-1.318 1.109-.431 0-.795-.164-1.052-.475-.261-.316-.399-.769-.399-1.31 0-1.051.583-1.758 1.451-1.758.667 0 1.094.353 1.268 1.05l.003.013-.41.112-.004-.013c-.155-.542-.405-.764-.862-.764-.624 0-1.012.519-1.012 1.356 0 .875.382 1.397 1.021 1.397.47 0 .767-.265.907-.809l.004-.013.012.002zm2.167-2.281l-1.203 3.411-.006.018h.418l.334-.971h1.327l.331.962.003.009h.445l-1.21-3.429h-.439zm.737 2.079H7.562l.535-1.547.526 1.547zm2.661-2.065h-.906v3.415h.906c1.127 0 1.722-.593 1.722-1.717 0-1.111-.595-1.698-1.722-1.698m1.292 1.698c0 .906-.394 1.328-1.241 1.328h-.527v-2.628h.517c.842 0 1.251.425 1.251 1.3m1.9 1.324h1.772v.393h-2.202v-3.415h2.106v.398h-1.676v1.031h1.245v.388h-1.245v1.205zm5.431-3.022h.559v3.415h-.425v-2.689c-.036.125-.086.266-.138.414l-.051.146-.814 2.129h-.381l-.003-.008-.832-2.179c-.065-.176-.114-.307-.172-.516v2.704h-.398v-3.415h.549l1.062 2.867 1.044-2.868zm1.942 0h.43v3.416h-.43v-3.416zm3.845 2.267l.394.09-.003.013c-.176.716-.645 1.109-1.318 1.109-.431 0-.795-.164-1.052-.475-.261-.316-.399-.769-.399-1.31 0-1.051.583-1.758 1.451-1.758.667 0 1.094.353 1.268 1.05l.003.013-.41.112-.004-.013c-.155-.542-.405-.764-.862-.764-.625 0-1.012.519-1.012 1.356 0 .875.382 1.397 1.021 1.397.47 0 .767-.265.908-.809l.003-.013.012.002zm3.715-2.281l-1.203 3.411-.006.018h.418l.334-.971h1.327l.334.971h.446l-1.21-3.429h-.44zm.738 2.079h-1.061l.535-1.547.526 1.547zm2.289.957h1.63v.393h-2.06v-3.415h.43v3.022zm2.849 0h1.63v.393h-2.06v-3.415h.43v3.022zm2.363-3.022h.43v3.416h-.43v-3.416zm2.633-.014l-1.203 3.411-.006.018h.418l.334-.971h1.327l.334.971h.445l-1.21-3.429h-.439zm.737 2.079h-1.061l.535-1.547.526 1.547zm4.077-2.065h.407v3.415h-.382l-.004-.006-1.829-2.729v2.735h-.407v-3.415h.446l.004.006 1.766 2.655v-2.661zm3.763 2.264l.406.093-.003.013c-.176.716-.645 1.109-1.318 1.109-.431 0-.795-.164-1.052-.475-.261-.316-.399-.769-.399-1.31 0-1.051.583-1.758 1.451-1.758.667 0 1.094.353 1.268 1.05l.003.013-.41.112-.004-.013c-.155-.542-.405-.764-.862-.764-.625 0-1.012.519-1.012 1.356 0 .875.382 1.397 1.021 1.397.47 0 .767-.265.907-.809l.004-.014zm3.531.758v.393h-2.202v-3.415h2.106v.398h-1.676v1.031h1.245v.388h-1.245v1.205h1.772zM29.673 0v14.79H32v5.032H20.898V14.79h2.327V5.032h-2.327V0h8.775zM52.29 6.755V5.017A5.018 5.018 0 0 0 47.274.001h-9.671a5.017 5.017 0 0 0-5.017 5.016v9.79a5.016 5.016 0 0 0 5.017 5.015h9.671a5.017 5.017 0 0 0 5.016-5.015V8.118H44.131v3.586h1.693v2.421a.66.66 0 0 1-.66.66H39.71a.66.66 0 0 1-.66-.66V5.689a.66.66 0 0 1 .66-.661h5.454a.66.66 0 0 1 .66.661v1.066h6.466zm-.121 13.372c0 .515.398.917.915.917a.91.91 0 0 0 .917-.921.903.903 0 0 0-.912-.917.91.91 0 0 0-.92.921m1.68 0a.757.757 0 0 1-.761.778.765.765 0 0 1-.769-.782c0-.438.328-.778.763-.778a.763.763 0 0 1 .767.782m-1.116.481h.189v-.39h.167l.201.39h.203l-.218-.415c.122-.04.203-.124.203-.282 0-.204-.139-.307-.376-.307h-.371v1.004zm.19-.534v-.302h.17c.13 0 .201.044.201.148 0 .11-.072.153-.199.153h-.172zM12.638 8.524H8.412V4.361h4.226a.818.818 0 0 1 .809.826v2.508a.812.812 0 0 1-.795.83h-.03.015l.001-.001zM9.406 7.53h3.069V5.354H9.412v2.18l-.006-.004zm3.412 7.914H8.416v-4.615h4.402a.818.818 0 0 1 .809.826v2.949a.8.8 0 0 1-.815.83l.006.01zm-3.414-.993h3.245v-2.627H9.406v2.62l-.002.007zM14.085.994h.524a4.015 4.015 0 0 1 4.004 4.026v.011a4.604 4.604 0 0 1-3.383 4.386v.519s4.097.906 4.097 4.723a4.176 4.176 0 0 1-4.176 4.172H1.23v-3.044h2.34V4.037H1.234V.994h12.857M14.622 0H.249v5.031h2.327v9.76H.249v5.031h14.902A5.163 5.163 0 0 0 16.55 9.69v-.025A5.03 5.03 0 0 0 14.623 0h-.001z"/></svg>