<svg xmlns="http://www.w3.org/2000/svg" viewBox="0 0 41.384 15.778"><path d="M9.85 6.777H6.49v-3.31h3.36a.65.65 0 0 1 .643.658v1.993a.646.646 0 0 1-.656.66h.012zm-2.57-.79h2.44v-1.73H7.285V5.99zm2.713 6.292h-3.5V8.61h3.5a.65.65 0 0 1 .643.658v2.344a.636.636 0 0 1-.648.66zm-2.714-.79h2.58V9.4H7.28v2.083zm17.95.27h-1.85V0h-6.96v4.01h1.85v7.758h-1.85v4.01h8.81v-4.01zm16.15-6.4V3.99A3.99 3.99 0 0 0 37.39 0H29.7a3.987 3.987 0 0 0-3.99 3.973v7.786a4 4 0 0 0 3.97 3.98h7.69a3.99 3.99 0 0 0 3.99-3.99v-5.3h-6.48V9.3h1.346v1.927a.525.525 0 0 1-.526.525h-4.316a.524.524 0 0 1-.524-.525V4.52a.525.525 0 0 1 .524-.52h4.337a.524.524 0 0 1 .53.526v.846h5.14zM11 .79h.417A3.192 3.192 0 0 1 14.6 4a3.66 3.66 0 0 1-2.69 3.487V7.9s3.257.72 3.257 3.755a3.32 3.32 0 0 1-3.32 3.317H.78v-2.42h1.86V3.21H.783V.79h10.222m.422-.79H0v4h1.85v7.76H0v4h11.848a4.105 4.105 0 0 0 1.112-8.056v-.02A4 4 0 0 0 11.428 0z" fill="#fff"/></svg>