<svg xmlns="http://www.w3.org/2000/svg" viewBox="0 0 105 40"><path fill="#fff" d="M25.5 17H16V9h9.5c.9 0 1.5.6 1.5 1.5v5c0 .9-.6 1.5-1.5 1.5zM18 15h7v-4h-7v4zm7.5 16H16v-9h9.5c.9 0 1.5.6 1.5 1.5v6c0 .9-.6 1.5-1.5 1.5zm-.5-2v-5h-7v5h7zm34 1V0H42v10h5v20h-5v10h22V30h-5zm46-20c0-5.6-4.6-10-10.2-10H75.3C69.7 0 65 4.4 65 10v20c0 5.6 4.4 10 10 10h20c5.6 0 10-4.4 10-10V16H88v7h4v5.8c0 .7-.5 1.2-1.2 1.2H79.3c-.7 0-1.2-.5-1.2-1.2V11.3c0-.7.5-1.2 1.2-1.2h11.5c.7 0 1.2.5 1.2 1.2V13h13v-3zM29 2c4.5 0 8 3.6 8 8.1 0 4.1-3 7.8-7 8.9v1s8.5 1.9 8.5 9.5c0 4.6-3.8 8.5-8.5 8.5H2v-6h5V8H2V2m27-2H0v10h5v20H0v10h30c5.7 0 10.5-4.7 10.5-10.5 0-4.7-3.1-8.7-7.6-10v-.1c5.2-2.2 7.6-8.1 5.4-13.3C36.7 2.5 33 0 29 0z"/></svg>