<svg xmlns="http://www.w3.org/2000/svg" viewBox="0 0 40.739 16"><path d="M17.608 6.985A2.136 2.136 0 0 0 15.182 5.3 3.09 3.09 0 0 0 11.9 8.66c0 2.223 1.235 3.7 3.31 3.7a2.712 2.712 0 0 0 2.69-1.833l.316.035c-.164.5-.442 1.417-.644 1.877a12.343 12.343 0 0 1-2.376.32c-3.2 0-4.536-1.98-4.536-3.82 0-2.38 2.01-4.02 4.776-4.02a11.28 11.28 0 0 1 2.272.3c.1.64.148 1.13.247 1.74zm8.226 3.928c0 1.235.1 1.333 1.136 1.405v.265h-3.335v-.265c1.036-.07 1.137-.15 1.137-1.405V6.765c0-1.255-.1-1.336-1.137-1.405v-.265h3.335v.265c-1.037.07-1.137.15-1.137 1.405v4.147zm14.3-3.928A2.136 2.136 0 0 0 37.708 5.3a3.09 3.09 0 0 0-3.285 3.358c0 2.222 1.235 3.7 3.31 3.7a2.712 2.712 0 0 0 2.69-1.832l.316.035c-.17.5-.45 1.42-.65 1.88a12.343 12.343 0 0 1-2.38.32c-3.2 0-4.54-1.98-4.54-3.81 0-2.37 2.01-4.02 4.77-4.02a11.28 11.28 0 0 1 2.27.3c.1.64.15 1.14.25 1.74zM.346 2.815h8.2L5.53 0zM0 4.345l1.975.055-.592 11.452-.79.148zm3.358-.493L5.086 3.8 4.79 13.877h-.938zm3.26.592L8.493 4.3 8.1 15.753l-1.086.1zm13.286 4.8l.838-.838.838.838-.838.838zm9.273-.027l.838-.838.838.83-.838.84z" fill="#fff"/></svg>