<svg xmlns="http://www.w3.org/2000/svg" viewBox="0 0 141.69 46.03"><path d="M.33,19.6A.31.31,0,0,1,0,19.21L3.33.39A.46.46,0,0,1,3.78,0H7.07a.31.31,0,0,1,.32.39L4.07,19.21a.46.46,0,0,1-.45.39Z" style="fill:#fff"/><path d="M15.37,19.6a.47.47,0,0,1-.43-.39L13.22,9.8l-1.66,9.41a.51.51,0,0,1-.45.39H7.82a.32.32,0,0,1-.32-.39L10.82.39A.47.47,0,0,1,11.28,0h4c.19,0,.31.14.35.39L17.4,11.18l.09.31,2-11.1A.49.49,0,0,1,19.9,0h3.29a.31.31,0,0,1,.32.39L20.19,19.21a.48.48,0,0,1-.46.39Z" style="fill:#fff"/><path d="M38.65,19.3a1,1,0,0,1-.69.3H30.74a.73.73,0,0,1-.66-.3l-1.27-1.58a.84.84,0,0,1-.18-.73L31.17,2.61a1.4,1.4,0,0,1,.43-.73L33.43.31A1.13,1.13,0,0,1,34.2,0h7.13c.31,0,.39,0,.67.31l1.3,1.57a.86.86,0,0,1,.14.73L40.91,17a1.34,1.34,0,0,1-.41.73ZM37.1,15.08a.22.22,0,0,0,.11-.19L39,4.89a.27.27,0,0,0,0-.23l-.36-.45a.2.2,0,0,0-.18-.08H35.71a.4.4,0,0,0-.21.08L35,4.66a.39.39,0,0,0-.12.23l-1.76,10a.32.32,0,0,0,0,.19l.31.4h3.21Z" style="fill:#fff"/><path d="M54.19,19.3a1,1,0,0,1-.77.3H46.25a.74.74,0,0,1-.66-.28l-1.27-1.6a.79.79,0,0,1-.18-.73L47.07.39A.51.51,0,0,1,47.53,0h3.29a.32.32,0,0,1,.32.39l-2.56,14.5c0,.11,0,.11.05.19l.32.4h3.2l.46-.4a.33.33,0,0,0,.15-.22L55.31.39A.48.48,0,0,1,55.77,0H59a.31.31,0,0,1,.32.39L56.42,17a1.24,1.24,0,0,1-.4.73Z" style="fill:#fff"/><path d="M67.85,19.6a.48.48,0,0,1-.43-.39l-1.5-6.85H64.65l-1.21,6.85a.48.48,0,0,1-.45.39H59.7a.33.33,0,0,1-.32-.39L62.7.39A.49.49,0,0,1,63.15,0h8.79a.86.86,0,0,1,.67.28l1.3,1.6a.81.81,0,0,1,.14.79L72.8,9.75a1.06,1.06,0,0,1-.41.73l-2,1.65L72,19.21a.31.31,0,0,1-.34.39ZM69,7.72a.43.43,0,0,0,.12-.22l.45-2.56c0-.14,0-.19,0-.28l-.34-.42a.4.4,0,0,0-.34-.11H66.1l-.73,4.13h2.91a.24.24,0,0,0,.2-.09Z" style="fill:#fff"/><path d="M89.39,19.3a1.11,1.11,0,0,1-.77.3H81.46a.87.87,0,0,1-.67-.3l-1.27-1.58a.68.68,0,0,1-.17-.73L81.88,2.61a1.11,1.11,0,0,1,.43-.73L84.14.31A1,1,0,0,1,84.91,0h7.17a.72.72,0,0,1,.66.31L94,1.88a.8.8,0,0,1,.18.73l-.53,3a.55.55,0,0,1-.49.39H89.91a.33.33,0,0,1-.32-.39l.13-.73c0-.09,0-.11,0-.2l-.38-.48a.18.18,0,0,0-.18-.08H86.42a.26.26,0,0,0-.2.08l-.53.48a.46.46,0,0,0-.15.25l-1.75,9.92a.22.22,0,0,0,.07.22l.29.4h3.23l.46-.4a.47.47,0,0,0,.12-.19l.43-2.48H86.57a.33.33,0,0,1-.32-.39l.59-3.34a.47.47,0,0,1,.46-.39h5.47a.33.33,0,0,1,.35.39l-1.5,8.48a1,1,0,0,1-.4.56Z" style="fill:#fff"/><path d="M103,19.6a.46.46,0,0,1-.43-.39l-1.5-6.85H99.82l-1.2,6.85a.5.5,0,0,1-.46.39H94.87a.34.34,0,0,1-.32-.39L97.87.39A.5.5,0,0,1,98.33,0h8.79a.88.88,0,0,1,.67.28l1.29,1.6a.79.79,0,0,1,.14.79L108,9.75a1,1,0,0,1-.4.73l-2,1.65,1.58,7.08a.31.31,0,0,1-.35.39Zm1.15-11.88a.32.32,0,0,0,.12-.22l.45-2.56c0-.14,0-.19,0-.28l-.34-.42c-.09-.11-.2-.11-.34-.11h-2.77l-.72,4.13h2.9a.26.26,0,0,0,.21-.09Z" style="fill:#fff"/><path d="M109.86,19.6a.31.31,0,0,1-.32-.39L112.86.39a.47.47,0,0,1,.45-.39h3.29a.31.31,0,0,1,.32.39L113.6,19.21a.46.46,0,0,1-.45.39Z" style="fill:#fff"/><path d="M120.34,19.6c-.2,0-.37-.14-.33-.33l2.67-15.14h-3.51a.33.33,0,0,1-.35-.39l.59-3.32a.52.52,0,0,1,.48-.42H131a.35.35,0,0,1,.34.42l-.58,3.32a.5.5,0,0,1-.49.39h-3.51l-2.66,15.14a.47.47,0,0,1-.45.33Z" style="fill:#fff"/><path d="M127.5,22.38c-.35.15-.52,0-.48-.22l1.19-6.74a.49.49,0,0,1,.48-.39H132a.3.3,0,0,1,.31.39l-.92,5.22c-.06.2-.16.31-.43.43Z" style="fill:#fff"/><path d="M25.06,45.72a1.05,1.05,0,0,1-.69.31H17.15a.74.74,0,0,1-.66-.31l-1.27-1.58a.84.84,0,0,1-.18-.73L17.58,29A1.4,1.4,0,0,1,18,28.3l1.83-1.57a1.13,1.13,0,0,1,.77-.31h7.13c.31,0,.39,0,.67.31l1.3,1.57a.86.86,0,0,1,.14.73L27.32,43.41a1.34,1.34,0,0,1-.41.73ZM23.51,41.5a.28.28,0,0,0,.12-.19l1.76-10a.27.27,0,0,0-.05-.23L25,30.64a.19.19,0,0,0-.18-.09H22.12c-.08,0-.11,0-.21.09l-.55.44a.39.39,0,0,0-.12.23l-1.76,10a.32.32,0,0,0,.05.19l.31.4h3.21Z" style="fill:#fff"/><path d="M40.6,45.72a1,1,0,0,1-.77.31H32.67a.77.77,0,0,1-.67-.28l-1.27-1.61a.79.79,0,0,1-.18-.73l2.93-16.59a.5.5,0,0,1,.46-.4h3.29a.32.32,0,0,1,.32.4L35,41.31c0,.11,0,.11,0,.19l.32.4h3.2l.46-.4a.33.33,0,0,0,.15-.22l2.55-14.46a.48.48,0,0,1,.46-.4h3.26a.32.32,0,0,1,.32.4L42.83,43.41a1.24,1.24,0,0,1-.4.73Z" style="fill:#fff"/><path d="M54.26,46a.49.49,0,0,1-.43-.4l-1.5-6.85H51.06l-1.21,6.85a.49.49,0,0,1-.46.4H46.11a.34.34,0,0,1-.32-.4L49.1,26.82a.51.51,0,0,1,.46-.4h8.79a.88.88,0,0,1,.67.28l1.3,1.6a.78.78,0,0,1,.13.79l-1.24,7.08a1.06,1.06,0,0,1-.41.73l-1.95,1.66,1.57,7.07a.32.32,0,0,1-.34.4Zm1.16-11.88a.51.51,0,0,0,.12-.23L56,31.37c0-.15,0-.2,0-.29l-.34-.42a.4.4,0,0,0-.34-.11H52.51l-.73,4.13h2.91a.24.24,0,0,0,.2-.09Z" style="fill:#fff"/><path d="M75.8,45.72A1.15,1.15,0,0,1,75,46H67.87a.84.84,0,0,1-.67-.31l-1.27-1.58a.68.68,0,0,1-.17-.73L68.29,29a1.11,1.11,0,0,1,.43-.73l1.83-1.57a1,1,0,0,1,.77-.31h7.17a.72.72,0,0,1,.66.31l1.27,1.57a.77.77,0,0,1,.18.73l-.53,3a.54.54,0,0,1-.49.39H76.32A.33.33,0,0,1,76,32l.13-.73c0-.09,0-.11,0-.2l-.38-.47a.17.17,0,0,0-.18-.09H72.84a.26.26,0,0,0-.21.09l-.53.47a.44.44,0,0,0-.15.26L70.2,41.28a.22.22,0,0,0,.07.22l.29.4h3.23l.46-.4a.47.47,0,0,0,.12-.19l.43-2.47H73a.33.33,0,0,1-.32-.4l.59-3.34a.48.48,0,0,1,.46-.39h5.47a.33.33,0,0,1,.35.39L78,43.58a1,1,0,0,1-.4.56Z" style="fill:#fff"/><path d="M81.31,46a.33.33,0,0,1-.35-.4l3.33-18.9c0-.17.28-.31.47-.31H88c.19,0,.36.14.33.31L85.68,41.9h7.41a.35.35,0,0,1,.35.39l-.59,3.34a.5.5,0,0,1-.48.4Z" style="fill:#fff"/><path d="M105.64,45.72A1.05,1.05,0,0,1,105,46H97.73a.74.74,0,0,1-.66-.31L95.8,44.14a.84.84,0,0,1-.18-.73L98.16,29a1.4,1.4,0,0,1,.43-.73l1.83-1.57a1.13,1.13,0,0,1,.77-.31h7.13c.31,0,.39,0,.67.31l1.3,1.57a.86.86,0,0,1,.14.73L107.9,43.41a1.34,1.34,0,0,1-.41.73Zm-1.55-4.22a.29.29,0,0,0,.11-.19l1.77-10a.27.27,0,0,0,0-.23l-.36-.44a.19.19,0,0,0-.18-.09H102.7c-.08,0-.11,0-.21.09l-.55.44a.34.34,0,0,0-.12.23l-1.76,10a.26.26,0,0,0,0,.19l.31.4h3.21Z" style="fill:#fff"/><path d="M119.3,46a.49.49,0,0,1-.43-.4l-1.5-6.85H116.1l-1.21,6.85a.5.5,0,0,1-.46.4h-3.29a.34.34,0,0,1-.31-.4l3.31-18.81a.51.51,0,0,1,.46-.4h8.79a.88.88,0,0,1,.67.28l1.3,1.6a.78.78,0,0,1,.13.79l-1.24,7.08a1.06,1.06,0,0,1-.41.73l-2,1.66,1.57,7.07a.32.32,0,0,1-.34.4Zm1.16-11.88a.51.51,0,0,0,.12-.23l.45-2.55c0-.15,0-.2,0-.29l-.34-.42c-.09-.11-.2-.11-.34-.11h-2.76l-.73,4.13h2.9a.25.25,0,0,0,.21-.09Z" style="fill:#fff"/><path d="M129.39,46a.32.32,0,0,1-.31-.4L130.6,37l-3.37-10a.42.42,0,0,1,.45-.54h3.57a.47.47,0,0,1,.42.4l1.79,5.56,3.75-5.56a.74.74,0,0,1,.56-.4h3.57c.33,0,.45.28.26.54l-6.91,10-1.52,8.62a.51.51,0,0,1-.46.4Z" style="fill:#fff"/><path d="M136.69,46a0,0,0,0,1,0-.06l.46-2.61h-.67a.05.05,0,0,1-.05-.07l.05-.28a.07.07,0,0,1,.07-.07h1.77s.05,0,.05.07l-.05.28a.08.08,0,0,1-.08.07h-.67L137.07,46A.09.09,0,0,1,137,46Z" style="fill:#fff"/><path d="M140.25,46a.06.06,0,0,1-.06-.07l.31-1.9-.92,1.9a.13.13,0,0,1-.09.07h-.24a.08.08,0,0,1-.07-.07l-.31-2-.38,2a.08.08,0,0,1-.07.07h-.29a.05.05,0,0,1,0-.07l.64-3s0-.07.07-.07h.31s.05,0,.06.06l.23,1.94.07.45.19-.45.92-1.94s0-.06.08-.06H141s0,0,0,.07l-.4,3a.09.09,0,0,1-.08.07Z" style="fill:#fff"/></svg>