<?xml version="1.0" encoding="utf-8"?>
<!-- Generator: Adobe Illustrator 19.1.0, SVG Export Plug-In . SVG Version: 6.00 Build 0)  -->
<svg version="1.1" baseProfile="tiny" id="Layer_1" xmlns="http://www.w3.org/2000/svg" xmlns:xlink="http://www.w3.org/1999/xlink"
	 x="0px" y="0px" viewBox="0 0 40 40" xml:space="preserve">
<g>
	<path fill="#474746" d="M25.2,9.6l0.3-0.3C26,8.8,26,8,25.5,7.6L18,0h-4l9.6,9.6C24,10,24.7,10,25.2,9.6z"/>
	<path fill="#474746" d="M27.7,21.7L28,22c0.5,0.5,1.2,0.5,1.7,0L40,11.7v-4L27.7,20C27.2,20.5,27.2,21.2,27.7,21.7z"/>
	<path fill="#474746" d="M31.5,25.5l0.3,0.3c0.5,0.5,1.2,0.5,1.7,0l6.5-6.5v-4l-8.5,8.5C31,24.3,31,25,31.5,25.5z"/>
	<path fill="#474746" d="M19.4,20.4l-0.3,0.3c-0.5,0.5-0.5,1.2,0,1.7l15.8,15.8c0.5,0.5,1.2,0.5,1.7,0l0.3-0.3
		c0.5-0.5,0.5-1.2,0-1.7L21.1,20.4C20.6,19.9,19.9,19.9,19.4,20.4z"/>
	<path fill="#474746" d="M15.6,24.2l-0.3,0.3c-0.5,0.5-0.5,1.2,0,1.7L29.1,40h4L17.3,24.2C16.8,23.7,16.1,23.7,15.6,24.2z"/>
	<path fill="#474746" d="M1.7,0.7L1.4,0.4C1,0,0.5-0.1,0,0.2v3.9l1.7-1.7C2.2,1.9,2.2,1.2,1.7,0.7z"/>
	<path fill="#474746" d="M5.2,4.2C4.7,3.7,4,3.7,3.5,4.2L0,7.7v4l5.5-5.5C6,5.7,6,5,5.5,4.5L5.2,4.2z"/>
	<path fill="#474746" d="M40,26.9v-4l-4.7,4.7c-0.5,0.5-0.5,1.2,0,1.7l0.3,0.3c0.5,0.5,1.2,0.5,1.7,0L40,26.9z"/>
	<path fill="#474746" d="M9.3,8.3L9,8C8.5,7.5,7.8,7.5,7.3,8L0,15.3v4L9.3,10C9.8,9.5,9.8,8.8,9.3,8.3z"/>
	<path fill="#474746" d="M9.7,31.8c-0.5-0.5-1.2-0.5-1.7,0l-0.3,0.3c-0.5,0.5-0.5,1.2,0,1.7L14,40h4L9.7,31.8z"/>
	<path fill="#474746" d="M16.9,15.9l-0.3-0.3c-0.5-0.5-1.2-0.5-1.7,0L0,30.5v3.2c0.4,0.1,0.8,0,1.1-0.3l15.8-15.8
		C17.4,17.1,17.4,16.3,16.9,15.9z"/>
	<path fill="#474746" d="M31.1,2c0.5,0.5,1.2,0.5,1.7,0l0.3-0.3c0.5-0.5,0.5-1.2,0-1.7h-4L31.1,2z"/>
	<path fill="#474746" d="M21.5,40h4l-12-12c-0.5-0.5-1.2-0.5-1.7,0l-0.3,0.3c-0.5,0.5-0.5,1.2,0,1.7L21.5,40z"/>
	<path fill="#474746" d="M5.9,35.5c-0.5-0.5-1.2-0.5-1.7,0l-0.3,0.3c-0.5,0.5-0.5,1.2,0,1.7L6.4,40h4L5.9,35.5z"/>
	<path fill="#474746" d="M39.1,31.4c-0.5,0.5-0.5,1.2,0,1.7l0.3,0.3c0.2,0.2,0.4,0.3,0.6,0.3v-3.2L39.1,31.4z"/>
	<path fill="#474746" d="M23.9,17.9l0.3,0.3c0.5,0.5,1.2,0.5,1.7,0L40,4.1V0.2c-0.1,0-0.2,0.1-0.3,0.2L23.9,16.2
		C23.5,16.7,23.5,17.4,23.9,17.9z"/>
	<path fill="#474746" d="M25.5,0h-4l5.8,5.8c0.5,0.5,1.2,0.5,1.7,0l0.3-0.3c0.5-0.5,0.5-1.2,0-1.7L25.5,0z"/>
	<path fill="#474746" d="M13.1,12.1l-0.3-0.3c-0.5-0.5-1.2-0.5-1.7,0L0,22.9v4l13.1-13.1C13.6,13.3,13.6,12.5,13.1,12.1z"/>
	<path fill="#474746" d="M21.4,13.4l0.3-0.3c0.5-0.5,0.5-1.2,0-1.7L10.4,0h-4l13.4,13.4C20.2,13.8,21,13.8,21.4,13.4z"/>
</g>
</svg>
