<svg xmlns="http://www.w3.org/2000/svg" viewBox="0 0 40 40"><path fill="#474746" d="M25.2 9.6l.3-.3c.5-.5.5-1.3 0-1.7L18 0h-4l9.6 9.6c.4.4 1.1.4 1.6 0zm2.5 12.1l.3.3c.5.5 1.2.5 1.7 0L40 11.7v-4L27.7 20c-.5.5-.5 1.2 0 1.7zm3.8 3.8l.3.3c.5.5 1.2.5 1.7 0l6.5-6.5v-4l-8.5 8.5c-.5.5-.5 1.2 0 1.7zm-12.1-5.1l-.3.3c-.5.5-.5 1.2 0 1.7l15.8 15.8c.5.5 1.2.5 1.7 0l.3-.3c.5-.5.5-1.2 0-1.7L21.1 20.4c-.5-.5-1.2-.5-1.7 0zm-3.8 3.8l-.3.3c-.5.5-.5 1.2 0 1.7L29.1 40h4L17.3 24.2c-.5-.5-1.2-.5-1.7 0zM1.7.7L1.4.4C1 0 .5-.1 0 .2v3.9l1.7-1.7c.5-.5.5-1.2 0-1.7zm3.5 3.5c-.5-.5-1.2-.5-1.7 0L0 7.7v4l5.5-5.5c.5-.5.5-1.2 0-1.7l-.3-.3zM40 26.9v-4l-4.7 4.7c-.5.5-.5 1.2 0 1.7l.3.3c.5.5 1.2.5 1.7 0l2.7-2.7zM9.3 8.3L9 8c-.5-.5-1.2-.5-1.7 0L0 15.3v4L9.3 10c.5-.5.5-1.2 0-1.7zm.4 23.5c-.5-.5-1.2-.5-1.7 0l-.3.3c-.5.5-.5 1.2 0 1.7L14 40h4l-8.3-8.2zm7.2-15.9l-.3-.3c-.5-.5-1.2-.5-1.7 0L0 30.5v3.2c.4.1.8 0 1.1-.3l15.8-15.8c.5-.5.5-1.3 0-1.7zM31.1 2c.5.5 1.2.5 1.7 0l.3-.3c.5-.5.5-1.2 0-1.7h-4l2 2zm-9.6 38h4l-12-12c-.5-.5-1.2-.5-1.7 0l-.3.3c-.5.5-.5 1.2 0 1.7l10 10zM5.9 35.5c-.5-.5-1.2-.5-1.7 0l-.3.3c-.5.5-.5 1.2 0 1.7L6.4 40h4l-4.5-4.5zm33.2-4.1c-.5.5-.5 1.2 0 1.7l.3.3c.2.2.4.3.6.3v-3.2l-.9.9zM23.9 17.9l.3.3c.5.5 1.2.5 1.7 0L40 4.1V.2c-.1 0-.2.1-.3.2L23.9 16.2c-.4.5-.4 1.2 0 1.7zM25.5 0h-4l5.8 5.8c.5.5 1.2.5 1.7 0l.3-.3c.5-.5.5-1.2 0-1.7L25.5 0zM13.1 12.1l-.3-.3c-.5-.5-1.2-.5-1.7 0L0 22.9v4l13.1-13.1c.5-.5.5-1.3 0-1.7zm8.3 1.3l.3-.3c.5-.5.5-1.2 0-1.7L10.4 0h-4l13.4 13.4c.4.4 1.2.4 1.6 0z"/></svg>