<?xml version="1.0" encoding="utf-8"?>
<!-- Generator: Adobe Illustrator 20.1.0, SVG Export Plug-In . SVG Version: 6.00 Build 0)  -->
<svg version="1.1" id="Layer_1" xmlns="http://www.w3.org/2000/svg" xmlns:xlink="http://www.w3.org/1999/xlink" x="0px" y="0px"
	 viewBox="0 0 152 152" style="enable-background:new 0 0 152 152;" xml:space="preserve">
<style type="text/css">
	.st0{fill:#FFFFFF;}
</style>
<path class="st0" d="M147,2H90v41h10v33.7L53.5,3.4L52.6,2H2v41h10v66H2v41h60v-41H52V75.3l46.5,73.3l0.9,1.4H150v-41h-10V43h10V2
	H147z M59,112v35H5v-35h10V40H5V5h46l52,82V40H93V5h54v35h-10v72h10v35h-46L49,65v47H59z"/>
<path d="M147,0H88v45h10v24.8L55.2,2.3L53.7,0H0v45h10v62H0v45h64v-45H54V82.2l42.8,67.5l1.5,2.3H152v-45h-10V45h10V0H147z M150,5
	v38h-10v66h10v41H99.3l-0.9-1.4L52,75.3V109h10v41H2v-41h10V43H2V2h50.6l0.9,1.4L100,76.7V43H90V2h60V5z M103,40H93V5h54v35h-10v72
	v0h10v35h-46L49,65v47v0h10v35H5v-35h10V40H5V5h46l52,82V40z"/>
</svg>
