<svg xmlns="http://www.w3.org/2000/svg" viewBox="0 0 152 152"><path fill="#FFF" d="M147 2H90v41h10v33.673L53.532 3.393 52.648 2H2v41h10v66H2v41h60v-41H52V75.336l46.467 73.271.884 1.393H150v-41h-10V43h10V2h-3zM59 112v35H5v-35h10V40H5V5h45.998L103 87.005V40H93V5h54v35h-10v72h10v35h-46L49 65.004V112h10z"/><path d="M147 0H88v45h10v24.784L55.221 2.322 53.748 0H0v45h10v62H0v45h64v-45H54V82.224l42.778 67.454L98.251 152H152v-45h-10V45h10V0h-5zm3 5v38h-10v66h10v41H99.35l-.884-1.393L52 75.336V109h10v41H2v-41h10V43H2V2h50.648l.884 1.393L100 76.673V43H90V2h60v3zm-47 35H93V5h54v35h-10v72.002V112h10v35h-46L49 65.004v46.998V112h10v35H5v-35h10V40H5V5h45.998L103 87.006V40z"/></svg>