<svg xmlns="http://www.w3.org/2000/svg" viewBox="0 0 152 152"><defs><style>#n152,#n56{display:none}@media(min-width:56px){#n44{display:none}#n56{display:block}}@media(min-width:152px){#n56{display:none}#n152{display:block}}</style></defs><path id="n152" d="M147,0H88V45H98V69.8L55.2,2.3,53.8,0H0V45H10v62H0v45H64V107H54V82.2l42.8,67.5,1.5,2.3H152V107H142V45h10V0Zm3,5V43H140v66h10v41H99.4l-.9-1.4L52,75.3V109H62v41H2V109H12V43H2V2H52.6l.9,1.4L100,76.7V43H90V2h60ZM103,87,51,5H5V40H15v72H5v35H59V112H49V65l52,82h46V112H137V40h10V5H93V40h10Z" fill="#FFF"/><path id="n56" d="M147.006,0H86.857V46.143H97.714V67.857L54.286,0H0V46.143H10.857v59.714H0V152H65.143V105.857H54.286V84.143L97.714,152H152V105.857H141.143V46.143H152V0Zm2.28,43.429H138.429v65.143h10.857v40.714H99.071L51.571,76v32.571H62.429v40.714H2.714V108.571H13.571V43.429H2.714V2.714H51.571L100.429,76V43.429H89.571V2.714h59.714ZM103.143,86.857,50.214,5.429H5.429V40.714H16.286v70.571H5.429v35.286H59.714V111.286H48.857V65.143l51.571,81.429h46.143V111.286H135.714V40.714h10.857V5.429H92.286V40.714h10.857Z" fill="#FFF"/><path id="n44" d="M147.008,0H86.364V44.909H96.727V65.636L55.273,0H0V44.909H10.364v62.182H0V152H65.636V107.091H55.273V86.364L96.727,152H152V107.091H141.636V44.909H152V0Zm1.537,41.455H138.182v69.091h10.364v38H98.455L51.818,76v34.545H62.182v38H3.455v-38H13.818V41.455H3.455v-38H53.545L100.182,76V41.455H89.818v-38h58.727ZM103.636,86.364,51.818,6.909H6.909V38H17.273v76H6.909v31.091H58.727V114H48.364V65.636l51.818,79.455h44.909V114H134.727V38h10.364V6.909H93.273V38h10.364Z" fill="#FFF"/></svg>