<svg xmlns="http://www.w3.org/2000/svg" viewBox="0 0 46 44"><path fill="#d00000" d="M45.9 0H25.1v10.4h5.2v10.5C29 19.2 13.7 0 13.7 0H0v10.4h5.2v23.2H0V44h20.8V33.6h-5.2V23.1C16.9 24.8 32.2 44 32.2 44h13.7V33.6h-5.2V10.4h5.2V0z"/><path fill="#fff" d="M37.8 6.5c.6-.5 1.4-.7 2.3-.7h1.5V4.7h-12v1.2h1.7c.6 0 1.4.1 2 .6.6.5 1.1 1.3 1.1 2.9V32L12.6 4.7H4.4v1.1c.6 0 1.8.4 2.9 1 1 .6 1.9 1.4 1.9 2.4v25.7c0 1.4-.4 2.3-1 2.8s-1.4.7-2.3.7H4.4v1.2h12v-1.2h-1.7c-.6 0-1.4-.1-2-.6-.6-.5-1.1-1.3-1.1-2.9V12.1l21.8 27.4h8.1v-1.1c-.6 0-1.8-.4-2.8-1-1-.6-1.9-1.4-1.9-2.4V9.3c0-1.4.4-2.3 1-2.8z"/></svg>