<svg xmlns="http://www.w3.org/2000/svg" viewBox="0 0 163 152"><path d="M159.007 151.2a3.2 3.2 0 1 1 3.193-3.2 3.217 3.217 0 0 1-3.193 3.2zM150 2v41h-10v66h10v41H99.35l-.883-1.393L52 75.337V109h10v41H2v-41h10V43H2V2h50.648l.884 1.393L100 76.673V43H90V2h60zM49 112V65l52 82h46v-35h-10V40h10V5H93v35h10v47.005L51 5H5v35h10v72H5v35h54v-35H49z" fill="#fff"/><path d="M159.054 144a4 4 0 1 0 3.946 4.006 4 4 0 0 0-3.946-4.006zm-.046 7.2a3.2 3.2 0 1 1 3.192-3.2 3.217 3.217 0 0 1-3.193 3.2zm-1.606-5.6h1.41a2.3 2.3 0 0 1 1.066.15 1.21 1.21 0 0 1 .634 1.13 1.427 1.427 0 0 1-.346.95 1.52 1.52 0 0 1-.555.383l-.1.048 1.1 2.14h-.8l-1.043-2.04h-.562v2.045h-.8v-4.8zm1.23 2.1a2.707 2.707 0 0 0 .37-.023.715.715 0 0 0 .595-.755.562.562 0 0 0-.4-.6 1.73 1.73 0 0 0-.6-.036h-.397v1.414h.43zM147 0H88v45h10v24.784L55.22 2.322 53.75 0H0v45h10v62H0v45h64v-45H54V82.224l42.778 67.454L98.25 152H152v-45h-10V45h10V0h-5zm3 5v38h-10v66h10v41H99.35l-.883-1.393L52 75.337V109h10v41H2v-41h10V43H2V2h50.648l.884 1.393L100 76.673V43H90V2h60v3zm-47 35H93V5h54v35h-10v72h10v35h-46L49 65v47h10v35H5v-35h10V40H5V5h46l52 82.006V40z" fill="#d00000"/></svg>