<svg xmlns="http://www.w3.org/2000/svg" viewBox="0 0 152 152"><path fill="#FFF" d="M147 2H90v41h10v33.673L53.532 3.393 52.648 2H2v41h10v66H2v41h60v-41H52V75.336l46.467 73.271.884 1.393H150v-41h-10V43h10V2h-3zM59 112v35H5v-35h10V40H5V5h45.998L103 87.005V40H93V5h54v35h-10v72h10v35h-46L49 65.004V112h10z"/><path fill="#D00000" d="M147 0H88v45h10v24.8L55.2 2.3 53.8 0H0v45h10v62H0v45h64v-45H54V82.2l42.8 67.5 1.5 2.3H152v-45h-10V45h10V0zm3 5v38h-10v66h10v41H99.4l-.9-1.4L52 75.3V109h10v41H2v-41h10V43H2V2h50.6l.9 1.4L100 76.7V43H90V2h60zm-47 82L51 5H5v35h10v72H5v35h54v-35H49V65l52 82h46v-35h-10V40h10V5H93v35h10z"/></svg>