<svg xmlns="http://www.w3.org/2000/svg" width="119" height="128"><polygon fill="#D00000" points="119,116 59,128 0,116 0,0 119,0"/><path fill="#fff" d="M81.989 70h-19.989v10h5v10c-1.325-1.662-16-20-16-20h-14v10h5v23h-5v10h20v-10h-5v-10c1.326 1.661 16 20 16 20h14l-.011-10h-4.989v-23h4.989v-10zm-.989 1v8h-5l-.028 25h5.028v8h-12c-.264-.332-18-22-18-22v14h5v8h-18v-8h5v-25h-5v-8h12c.264.332 18 22 18 22v-14h-5v-8h18z"/><path fill="#c00" d="M81 71l-.082 7.865h-5l.054 25.135h5.028v8s-11.674-.135-12.082-.135c-.264-.332-18-22-18-22l.082 14.135c5.082.135 4.318 0 5 0v8h-18v-8h5v-25h-5v-8h12c.264.332 18 22 18 22v-14h-5v-8h18z"/><path fill="#fff" d="M74 76c1-1 2.734-1.001 3-1h1v-1h-12v1h1c.608 0 2 0 3 1 .547.547 1 1.494 1 3v22l-22-27h-8v1c.596 0 2.072.418 3.087 1s1.913 2.091 1.913 3l-.032 24.963c0 1.404-.362 2.264-.939 2.77-.58.507-2.763 1.267-3.029 1.267h-1v1h12v-1h-1c-.609 0-1.959-.695-2.573-1.164-.614-.467-1.427-1.332-1.427-2.836v-23l22 28h8v-1c-.595 0-2 0-3.108-1.512-.69-.941-1.88-1.391-1.88-2.299v-25.15c0-1.406.443-2.494.988-3.039z"/><rect x="32.835" y="69.957" width="53.33" height="43.085" fill="none"/><path fill="#fff" d="M86.144 111.655c0 .763-.619 1.383-1.379 1.383s-1.383-.624-1.383-1.383c0-.776.619-1.388 1.398-1.388.748.001 1.364.629 1.364 1.388zm-2.51 0c0 .628.512 1.147 1.131 1.147.62 0 1.127-.516 1.127-1.152 0-.627-.503-1.15-1.115-1.15-.64 0-1.143.508-1.143 1.155zm.655-.807h.407c.181 0 .265.012.34.044.141.056.229.2.229.372 0 .207-.124.375-.332.447l.456.748h-.276l-.432-.712h-.144v.712h-.248v-1.611zm.368.699c.239 0 .344-.084.344-.283 0-.152-.072-.217-.248-.217h-.216v.5h.12z"/></svg>