<svg xmlns="http://www.w3.org/2000/svg" viewBox="0 0 96 26"><path fill="#fff" d="M36.7 2.6v3.1c0 .8 0 1 .2 1.2.2.3.5.5.9.5s.8-.2 1-.6c.1-.4.1-.7.1-1.1V2.6h.6v3c.1.5 0 1-.3 1.5s-.8.8-1.4.8c-.7.1-1.3-.3-1.5-1-.1-.4-.2-.8-.1-1.3v-3h.5zm7.2 5.1h-.6l-2.4-4.2v4.2h-.6V2.6h.6l2.4 4.2V2.6h.6v5.1zm1-5.1h.6v5.2h-.6V2.6zm3.2 4.1l1.5-4.1h.5l-1.9 5.1h-.3l-1.7-5.1h.6l1.3 4.1zM53 4.9v.4h-1.5v2h1.8v.4H51V2.6h2V3h-1.5v1.8c-.1.1 1.5.1 1.5.1zm1.6 0V3h.6c.4 0 .6.3.6.8 0 .3-.1.6-.3.8-.2.1-.4.2-.6.2 0 .1-.3.1-.3.1zM54 7.7h.6V5.4h.5l1.3 2.3h.6l-1.3-2.5c.2-.1.3-.2.4-.3.3-.3.4-.7.4-1.1 0-.4-.2-.9-.5-1.1-.3-.1-.6-.2-.9-.1H54v5.1zm5.3-4.1c0-.3-.3-.6-.7-.6-.4 0-.7.4-.6.7v.1c0 .4.1.6.7 1l.8.6c.2.3.3.6.3.9.1.8-.5 1.4-1.3 1.5h-.1c-.5 0-1-.3-1.2-.8l.4-.5c.1.5.4.8.8.9.5 0 .8-.4.8-.9v-.1c0-.2-.1-.5-.3-.6l-.5-.4c-.6-.3-1-.9-1-1.5-.1-.7.4-1.3 1.1-1.4h.1c.5 0 .9.3 1.1.7l-.4.4zm1.4-1h.6v5.2h-.6V2.6zm3.4 5.1h-.6V3h-1.3v-.4h3V3H64v4.7zm5.2-5.1l-1.4 2.9v2.3h-.6V5.5l-1.5-2.9h.6l1.1 2.2 1.1-2.2h.7zm9.9.4c.9 0 1.4.8 1.4 2.2s-.5 2.2-1.4 2.2c-.9 0-1.4-.8-1.4-2.2S78.3 3 79.2 3zm0-.5c-1.3 0-2 1-2 2.7-.1.8.2 1.5.6 2.1.4.4.9.7 1.5.6.5 0 1.1-.2 1.4-.6.5-.6.7-1.3.6-2.1-.1-1.7-.8-2.7-2.1-2.7zm5.1 2.4v.5h-1.4v2.3h-.6V2.6h2.1V3h-1.5v1.8l1.4.1zm-71-2.7v.7h.4c1.9.4 2.2.4 2.2 2.7v13.3c-.5-.9-10-16.7-10-16.7H.8v.7h.5c2 .1 2.3.1 2.3 2.4v16.6c0 2-.3 2-2 2.3l-.7.1v.8h7v-.8l-.8-.1c-1.7-.3-2-.3-2-2.3v-14L16 25.1h1.5V5.4c0-2 .3-2 1.8-2.5h.3v-.7h-6.3zm24.2 7.4c-1.5 0-2.9.7-3.8 1.9V.5h-.2l-4.2 1.7V3h.8c.6 0 .9.3.9 1.8V19c0 3-.2 4.2-.9 6v.1l.8.4 1.9-2.2c.8 1.5 2.3 2.3 4 2.3 3.5 0 6.2-3.7 6.2-8.4s-2.2-7.6-5.5-7.6zm-1 14.4c-2.2 0-2.8-1.2-2.8-5.3v-5.3c1-1.1 1.7-1.5 2.6-1.5 2.3 0 4.1 2.8 4.1 6.5S38.9 24 36.5 24zm59.4-1.5l-.1.1c-.4.6-.6.6-.9.6-.3 0-.6-.6-.6-1.4v-7c0-1.9-.3-2.7-1.3-3.6-1.8-1.5-4-2.2-6.3-2.1-2.7 0-9.4 3.9-11.2 8.4V.6l-4.3 1.6V3h.8c.5 0 .8.3.8 1.6v19.6l-1.6.2v.9H77v-.9l-1.6-.2c0-3.4.2-4.3 2-6.9l3.7 6.9-1.5.2v.9H86c.5.2 1.1.3 1.7.3 1.7-.1 3.3-1 4.1-2.5.1 1.7.9 2.5 2.2 2.5 1.3 0 1.7-.8 2.7-2.1v-.1l-.8-.9zm-12.2-1c0 .9.3 1.9.9 2.6h-.4l-5-9.1c.9-1.1 3.2-3 5-3.3.5-.1.8-.1.9 0 .3.3.7.5 1.1.4.2 0 1.1.1 2-1.2.1-.2.3-.2.5-.2 2.1 0 2.9 2.4 3 4-3.1 1.1-8 2.8-8 6.8zm7.9.1c-.9 1.1-1.9 1.7-2.8 1.7-1.3 0-2.4-1.1-2.4-2.5v-.1c0-2.8 2.8-3.7 5.1-4.5h.1v5.4zm-62.3-.8v.1c-1.2 1.8-2.2 2.4-3.6 2.4s-4.1-2-4.6-5l9.2-2.5v-.1c-.4-3.8-2.6-6.1-5.7-6.1s-6.3 3.9-6.3 8.6 2.7 7.4 6.5 7.4c2.5 0 4.2-1.3 5.5-4v-.1l-1-.7zm-4.8-9.7c1.5 0 2.4 1.1 2.4 2.8s-.3 1.3-1.9 1.8l-4.1 1c0-3.5 1.4-5.6 3.6-5.6zM68.3 16c-3.3-1.5-3.6-1.7-3.6-3 .1-1.1 1-1.9 2.1-1.9 0 0 1-.1 1.1.4.2.9 1.2 1.4 2 1.1.6-.1 1-.7 1-1.3.1-.9-1.1-1.8-2.7-1.8-3.4 0-5.9 2-5.9 4.6s2 3.4 3.9 4.3c1.9.9 3.3 1.5 3.3 3.2-.1 1.4-1.3 2.5-2.7 2.5-1.5 0-2-.8-2.1-1.8-.1-1.1-1-1.3-1.7-1.4-.8 0-1.5.7-1.5 1.5v.1c0 .2 0 .3.1.4-.1.3-.4.4-.6.4-.3 0-.6-.6-.6-1.4v-7c0-1.9-.3-2.7-1.3-3.6-2.1-1.7-4.9-2.5-7.6-2-1.5.3-3.9 2.2-5.1 5.2-.1-2.4-.3-3.4-1.1-5l-3 1.4v.6h.5c.9 0 1.3 1.1 1.3 3.7v9l-1.6.3v.8h6v-.8l-1.7-.3c0-.3.1-3.5.1-3.5.4-7.3 2-8.1 2.7-8.5.4-.3 1-.4 1.5-.3.3.3.7.5 1.1.4.2 0 1.1.1 2-1.2.1-.2.3-.2.5-.2 2.1 0 2.9 2.4 3 4h.1c-3 1-8 2.6-8 6.7-.1 2.2 1.6 4 3.8 4.1h.3c1.7-.1 3.3-1 4.1-2.5.1 1.7.9 2.5 2.2 2.5 1.3 0 1.4-.5 2.2-1.5.8 1 2.4 1.5 4.3 1.5 3 0 5.4-2.1 5.4-4.8S70.7 17 68.3 16zm-10.6 5.7c-.9 1.1-1.9 1.7-2.8 1.7-1.3 0-2.4-1.1-2.4-2.5v-.1c0-2.8 2.8-3.7 5.1-4.5h.1v5.4z"/></svg>