<svg xmlns="http://www.w3.org/2000/svg" viewBox="0 0 155.7 61.9"><path d="M95.3 45l-1.5.2v15.3h1.8c3 0 4-1.6 5.1-4.5l.7.2-1.1 5.5a7.4 7.4 0 0 0-2.6-.3h-7.3v-.8l1.3-.2V45.2l-1.3-.2v-.9h4.9v.9zm9.1 15.4l1 .2v.9h-3.8v-.9l1.1-.2v-8.6q0-.9-.6-.9h-.5v-.7l2.8-1.1v11.3zm-.9-13.8a1.4 1.4 0 0 1 0-2.8 1.3 1.3 0 0 1 1.1 1.4 1.2 1.2 0 0 1-1.1 1.4zm5.4 4.6a3.5 3.5 0 0 1 2.9-1.8c2.4 0 3.2 2.1 3.2 4.6v6.5l1 .2v.9h-3.8v-.9l1.1-.2V54c0-2.2-.7-3.4-1.9-3.4a3.1 3.1 0 0 0-2.5 1.7v8.2l1.1.2v.9h-3.9v-.9l1.1-.2v-7.4c0-1.6-.2-2.1-.8-2.1h-.3v-.9l2.1-1a3.8 3.8 0 0 1 .7 2.1zm11.9 10.7c-2.6 0-4.4-2.3-4.4-5.8s2.2-6.8 4.8-6.8 2.9.9 2.9 2.1a1.3 1.3 0 0 1-1.1 1.4 1.6 1.6 0 0 1-1.3-1.4c-.2-1-.2-1-.9-1s-2.7 2-2.7 4.7 1.5 5.3 3.5 5.3 1.6-.5 2.4-1.9l.6.5c-1 1.9-2.3 2.9-3.8 2.9zm11.1-6.4c0 3.5-.9 5.5-2.5 5.5s-2.6-1.7-2.6-5.5 1-5.2 2.7-5.2 2.4 1.9 2.4 5.2zm2 .2c0-3.6-1.9-6.4-4.4-6.4s-4.7 2.8-4.7 6.2 2 6.3 4.6 6.3 4.5-2.8 4.5-6.1zm2.9 4.7l1.1.2v.9H134v-.9l1.1-.2V46.5c0-1.2-.2-1.6-.7-1.6h-.4v-.8l2.8-1.3v17.6zm4.7-9.2a3.5 3.5 0 0 1 2.9-1.8c2.4 0 3.2 2.1 3.2 4.6v6.5l1 .2v.9h-3.8v-.9l1.1-.2V54c0-2.2-.7-3.4-1.9-3.4a3.1 3.1 0 0 0-2.5 1.7v8.2l1.1.2v.9h-3.9v-.9l1.1-.2v-7.4c0-1.6-.2-2.1-.8-2.1h-.3v-.9l2.1-1a4.8 4.8 0 0 1 .7 2.1zm-85-47.9v4.9c0 1.2 0 1.5.3 1.9a1.6 1.6 0 0 0 1.4.8 1.5 1.5 0 0 0 1.5-1 5.4 5.4 0 0 0 .2-1.7V3.3h.9v4.8a4.1 4.1 0 0 1-.4 2.3 2.3 2.3 0 0 1-2.2 1.2 2.3 2.3 0 0 1-2.4-1.5 5 5 0 0 1-.2-2V3.3h.9zm11.3 8.1h-.9l-3.8-6.6v6.6h-.9V3.3h.9l3.8 6.6V3.3h.9v8.1zm1.6-8.1h.9v8.2h-.9V3.3zm5 6.5l2.4-6.5h.8l-3 8.1h-.5l-2.6-8.1h.9zm7.7-2.9v.7h-2.4v3.1h2.8v.7h-3.7V3.3h3.3V4h-2.4v2.9h2.4zm2.6 0V4h.9c.7 0 1 .4 1 1.3a1.6 1.6 0 0 1-.5 1.3 1.1 1.1 0 0 1-.9.3h-.5zm-.9 4.5h.9V7.7h.8l2 3.7h1l-2.1-3.9a1.5 1.5 0 0 0 .7-.5 2.5 2.5 0 0 0 .6-1.7 2.1 2.1 0 0 0-.8-1.8 2.6 2.6 0 0 0-1.4-.2h-1.7v8.1zm8.3-6.5a1.1 1.1 0 0 0-1.1-1 1.1 1.1 0 0 0-1 1.3c0 .7.2 1 1.1 1.6l1.2 1a2.4 2.4 0 0 1 .5 1.4 2.2 2.2 0 0 1-2.1 2.4 2 2 0 0 1-1.9-1.2l.6-.8a1.4 1.4 0 0 0 1.3 1.2 1.3 1.3 0 0 0 1.2-1.5 1.2 1.2 0 0 0-.4-1l-.8-.7a2.6 2.6 0 0 1-1.5-2.4A2 2 0 0 1 91.1 3a1.7 1.7 0 0 1 1.7 1.1zm2.2-1.6h.9v8.2h-.9V3.3zm5.3 8.1h-.9V4h-2v-.7h4.8V4h-1.9v7.4zm8.2-8.1l-2.2 4.5v3.6h-.9V7.8l-2.3-4.5h1l1.8 3.5 1.8-3.5h.8zm15.6.6c1.4 0 2.2 1.3 2.2 3.5s-.8 3.5-2.2 3.5-2.2-1.3-2.2-3.5.8-3.5 2.2-3.5zm0-.8c-2 0-3.2 1.6-3.2 4.2a4.7 4.7 0 0 0 1 3.3 2.8 2.8 0 0 0 2.3 1 2.6 2.6 0 0 0 2.2-1 4.7 4.7 0 0 0 1-3.3c-.1-2.6-1.3-4.2-3.3-4.2zm8 3.8v.8h-2.2v3.7h-.9V3.3h3.3V4h-2.4v2.9h2.2zM19.7 2.6v1.1h.6c3 .6 3.4.7 3.4 4.2v21C23 27.5 8 2.6 8 2.6H0v1.1h.8c3.1.3 3.5.3 3.5 3.9v26.1c0 3.2-.5 3.2-3.1 3.6l-1.1.2v1.2h11v-1.2l-1.2-.2c-2.6-.4-3.1-.5-3.1-3.6V11.6L24 38.7h2.4v-31c0-3.1.4-3.2 2.8-3.9h.5V2.6h-10zm38.1 11.8a7.3 7.3 0 0 0-6 3V0h-.3l-6.6 2.6v1.2h1.2c1 0 1.4.4 1.4 2.9v22.4c0 4.8-.3 6.6-1.4 9.5v.2l1.3.7 3-3.5a6.9 6.9 0 0 0 6.3 3.6c5.5 0 9.8-5.8 9.8-13.2s-3.5-12-8.7-12zM56.2 37c-3.4 0-4.4-1.9-4.4-8.4v-8.3c1.5-1.7 2.6-2.4 4.1-2.4 3.6 0 6.4 4.4 6.4 10.3S59.9 37 56.2 37zm93.6-2.3l-.2.2c-.7.9-1 1-1.4 1s-.9-.9-.9-2.2v-11c0-3-.5-4.3-2-5.6a14.6 14.6 0 0 0-10-3.3c-4.3-.2-14.9 5.9-17.7 12.9V.1l-6.7 2.5v1.3h1.3c.8 0 1.2.4 1.2 2.5v30.9l-2.5.3V39h9.2v-1.4l-2.5-.3c0-5.3.3-6.7 3.2-10.9l5.8 10.9-2.3.3V39h10.1a7.6 7.6 0 0 0 2.7.5 7.8 7.8 0 0 0 6.5-4c.2 2.6 1.4 4 3.4 4s2.7-1.2 4.2-3.3V36l-1.5-1.3zM130.5 33a6.4 6.4 0 0 0 1.4 4.1h-.6l-7.9-14.3c1.4-1.8 5.1-4.8 7.9-5.2.8-.1 1.3-.2 1.4 0a2.1 2.1 0 0 0 1.8.7c.3 0 1.8.2 3.1-1.9a.7.7 0 0 1 .8-.3c3.3 0 4.6 3.8 4.7 6.3-4.8 1.7-12.6 4.3-12.6 10.7zm12.5.3c-1.4 1.7-3 2.6-4.4 2.6a3.8 3.8 0 0 1-3.7-4.1c0-4.4 4.4-5.9 8-7.1h.1v8.6zm-98.2-1.4v.2c-1.9 2.8-3.5 3.8-5.7 3.8s-6.5-3.2-7.2-7.9l14.5-3.9v-.2c-.7-6-4.1-9.6-9-9.6s-10 6.1-10 13.5 4.3 11.7 10.2 11.7c3.9 0 6.6-2 8.7-6.3V33zm-7.5-15.2c2.3 0 3.8 1.8 3.8 4.4s-.5 2.1-3 2.8l-6.5 1.6c0-5.5 2.2-8.8 5.7-8.8zm69 7.7c-5.2-2.3-5.7-2.6-5.7-4.7a3.2 3.2 0 0 1 3.3-3s1.5-.1 1.8.7a2.6 2.6 0 0 0 3.2 1.8 1.9 1.9 0 0 0 1.5-2c.1-1.4-1.7-2.9-4.3-2.9-5.3 0-9.3 3.1-9.3 7.2s3.2 5.3 6.2 6.7 5.2 2.4 5.2 5.1a4.1 4.1 0 0 1-4.2 3.9c-2.3 0-3.1-1.2-3.3-2.9s-1.6-2.1-2.7-2.2a2.4 2.4 0 0 0-2.4 2.5 1.7 1.7 0 0 0 .1.7 1.2 1.2 0 0 1-1 .7c-.5 0-.9-.9-.9-2.2v-11c0-3-.5-4.3-2-5.6A14.9 14.9 0 0 0 79.9 14c-2.4.5-6.2 3.4-8 8.2-.1-3.8-.5-5.3-1.8-7.8v-.2l-4.7 2.2v.9h.8c1.4 0 2.1 1.8 2.1 5.9v14.1l-2.5.4v1.2h9.4v-1.2l-2.6-.4c0-.4.1-5.5.1-5.5.6-11.5 3.2-12.7 4.3-13.4a3.1 3.1 0 0 1 2.4-.5 2.1 2.1 0 0 0 1.8.7c.3 0 1.8.2 3.1-1.9a.7.7 0 0 1 .8-.3c3.3 0 4.6 3.8 4.7 6.3h.1c-4.8 1.5-12.6 4.1-12.6 10.6a6.2 6.2 0 0 0 6.4 6.4 7.8 7.8 0 0 0 6.5-4c.2 2.6 1.4 4 3.4 4s2.2-.8 3.4-2.3c1.3 1.5 3.8 2.3 6.8 2.3 4.8 0 8.5-3.3 8.5-7.5s-2.3-6.2-6-7.8zm-16.8 9c-1.4 1.7-3 2.6-4.4 2.6a3.8 3.8 0 0 1-3.7-4.1c0-4.4 4.4-5.9 8-7.1h.1v8.6zm66.2 9a2.9 2.9 0 1 1-2.9-2.9 2.9 2.9 0 0 1 2.9 2.9zm-5.3 0a2.4 2.4 0 1 0 2.5-2.4 2.4 2.4 0 0 0-2.5 2.4zm1.4-1.7h1.6a.8.8 0 0 1 .5.8 1 1 0 0 1-.7.9l1 1.6h-.6l-.9-1.4h-.3v1.5h-.5v-3.4h-.1zm.8 1.5a.6.6 0 0 0 .7-.6.5.5 0 0 0-.5-.5h-.4v1.1h.2z" fill="#fff"/></svg>