<svg baseProfile="tiny" xmlns="http://www.w3.org/2000/svg" viewBox="0 0 160 62"><path fill="#fff" d="M99.6 45l-1.5.2v15.3c.6.1 1 .1 1.8.1 3 0 4-1.6 5.1-4.5l.7.2-1.1 5.5c-1.2-.3-1.3-.3-2.6-.3h-7.3v-.9l1.3-.2v-15.2l-1.3-.2v-.9h4.9v.9zM108.7 60.4l1 .2v.9h-3.8v-.9l1.1-.2v-8.6c0-.6-.2-.9-.6-.9-.2 0-.3 0-.5.1v-.8l2.8-1.1v11.3zm-.9-13.8c-.6 0-1.2-.6-1.2-1.4 0-.8.6-1.4 1.2-1.4s1.1.6 1.1 1.4c.1.8-.5 1.4-1.1 1.4zM113.2 51.2c.6-1.1 1.8-1.8 2.9-1.8 2.4 0 3.2 2.1 3.2 4.6v6.5l1 .2v.9h-3.8v-.9l1.1-.2v-6.5c0-2.2-.7-3.4-1.9-3.4-1 0-1.9.7-2.5 1.7v8.2l1.1.2v.9h-3.9v-.9l1.1-.2v-7.4c0-1.6-.2-2.1-.8-2.1h-.3v-.9l2.1-1c.4.7.7 1.2.7 2.1zM125.1 61.9c-2.6 0-4.4-2.3-4.4-5.8 0-3.7 2.2-6.8 4.8-6.8 1.6 0 2.9.9 2.9 2.1 0 .8-.5 1.4-1.1 1.4-.6 0-1.1-.6-1.3-1.4-.2-1-.2-1-.9-1-1.5 0-2.7 2-2.7 4.7 0 3 1.5 5.3 3.5 5.3 1 0 1.6-.5 2.4-1.9l.6.5c-1 1.9-2.3 2.9-3.8 2.9zM136.2 55.5c0 3.5-.9 5.5-2.5 5.5-1.8 0-2.6-1.7-2.6-5.5 0-3.2 1-5.2 2.7-5.2 1.5-.1 2.4 1.9 2.4 5.2zm2 .2c0-3.6-1.9-6.4-4.4-6.4-2.6 0-4.7 2.8-4.7 6.2 0 3.5 2 6.3 4.6 6.3 2.4.1 4.5-2.8 4.5-6.1zM141.1 60.4l1.1.2v.9h-3.9v-.9l1.1-.2v-13.9c0-1.2-.2-1.6-.7-1.6-.1 0-.2 0-.4.1v-.9l2.8-1.3v17.6zM145.8 51.2c.6-1.1 1.8-1.8 2.9-1.8 2.4 0 3.2 2.1 3.2 4.6v6.5l1 .2v.9h-3.8v-.9l1.1-.2v-6.5c0-2.2-.7-3.4-1.9-3.4-1 0-1.9.7-2.5 1.7v8.2l1.1.2v.9h-3.9v-.9l1.1-.2v-7.4c0-1.6-.2-2.1-.8-2.1h-.3v-.9l2.1-1c.4.7.6 1.2.7 2.1zM60.8 3.3v4.9c0 1.2 0 1.5.3 1.9.3.5.8.8 1.4.8.7 0 1.3-.4 1.5-1 .1-.4.2-.7.2-1.7v-4.9h.9v4.8c0 1.3-.1 1.8-.4 2.3-.4.8-1.2 1.2-2.2 1.2-1.2 0-2-.5-2.4-1.5-.2-.5-.2-.9-.2-2v-4.8h.9zM72.1 11.4h-.9l-3.8-6.6v6.6h-.9v-8.1h.9l3.8 6.6v-6.6h.9zM73.7 3.3h.9v8.2h-.9zM78.7 9.8l2.4-6.5h.8l-3 8.1h-.5l-2.6-8.1h.9zM86.4 6.9v.7h-2.4v3.1h2.8v.7h-3.7v-8.1h3.3v.7h-2.4v2.9zM89 6.9v-2.9h.9c.7 0 1 .4 1 1.3 0 .6-.2 1.1-.5 1.3-.2.2-.4.3-.9.3h-.5zm-.9 4.5h.9v-3.7h.8l2 3.7h1l-2.1-3.9c.3-.1.4-.2.7-.5.4-.4.6-1.1.6-1.7 0-.8-.3-1.5-.8-1.8-.3-.2-.7-.2-1.4-.2h-1.7v8.1zM96.4 4.9c-.2-.7-.6-1-1.1-1-.6 0-1 .5-1 1.3 0 .7.2 1 1.1 1.6.7.5.9.7 1.2 1 .3.4.5.9.5 1.4 0 1.4-.9 2.4-2.1 2.4-.9 0-1.5-.4-1.9-1.2l.6-.8c.2.8.7 1.2 1.3 1.2.7 0 1.2-.6 1.2-1.5 0-.4-.1-.8-.4-1-.2-.2-.2-.2-.8-.7-1.2-.8-1.5-1.4-1.5-2.4 0-1.2.8-2.2 1.9-2.2.8 0 1.3.3 1.7 1.1l-.7.8zM98.6 3.3h.9v8.2h-.9zM103.9 11.4h-.9v-7.4h-2v-.7h4.8v.7h-1.9zM112.1 3.3l-2.2 4.5v3.6h-.9v-3.6l-2.3-4.5h1l1.8 3.5 1.8-3.5zM127.7 3.9c1.4 0 2.2 1.3 2.2 3.5s-.8 3.5-2.2 3.5c-1.4 0-2.2-1.3-2.2-3.5s.8-3.5 2.2-3.5zm0-.8c-2 0-3.2 1.6-3.2 4.2 0 1.5.3 2.5 1 3.3.6.7 1.3 1 2.3 1 .9 0 1.7-.3 2.2-1 .7-.8 1-1.8 1-3.3-.1-2.6-1.3-4.2-3.3-4.2zM135.7 6.9v.8h-2.2v3.7h-.9v-8.1h3.3v.7h-2.4v2.9zM24 2.6v1.1l.6.1c3 .6 3.4.7 3.4 4.2v20.9c-.7-1.4-15.7-26.3-15.7-26.3h-8v1.1l.8.1c3.1.2 3.5.2 3.5 3.8v26.1c0 3.2-.5 3.2-3.1 3.6l-1.1.2v1.2h11v-1.2l-1.2-.2c-2.6-.4-3.1-.5-3.1-3.6v-22.1c.8 1.3 17.2 27.1 17.2 27.1h2.4v-31c0-3.1.4-3.2 2.8-3.9l.5-.1v-1.1h-10zM62.1 14.4c-2.5 0-4.4 1-6 3v-17.4l-.3.1-6.6 2.5v1.2l.3-.1c.5-.1.7-.1.9-.1 1 0 1.4.4 1.4 2.9v22.6c0 4.8-.3 6.6-1.4 9.5l-.1.2 1.3.7s2.6-3.1 3-3.5c1.4 2.4 3.6 3.6 6.3 3.6 5.5 0 9.8-5.8 9.8-13.2.1-7.2-3.4-12-8.6-12zm-1.6 22.6c-3.4 0-4.4-1.9-4.4-8.4v-8.3c1.5-1.7 2.6-2.4 4.1-2.4 3.6 0 6.4 4.4 6.4 10.3-.1 5.4-2.4 8.8-6.1 8.8zM154.1 34.7l-.2.2c-.7.9-1 1-1.4 1-.5 0-.9-.9-.9-2.2v-11c0-3-.5-4.3-2-5.6-4.2-3.4-8.6-3.4-10-3.3-4.3-.2-14.9 5.9-17.7 12.9v-26.6l-6.7 2.5v1.3l.3-.1c.3-.1.6-.1 1-.1.8 0 1.2.4 1.2 2.5v31.1c-.3 0-2.5.3-2.5.3v1.4h9.2v-1.4s-2.1-.3-2.5-.3c0-5.3.3-6.7 3.2-10.9l5.8 10.9c-.5.1-2.3.3-2.3.3v1.4h10.1c.8.3 1.7.5 2.7.5 2.6 0 5.1-1.6 6.5-4 .2 2.6 1.4 4 3.4 4 1.1 0 2.7-1.2 4.2-3.3l.1-.2-1.5-1.3zm-19.3-1.7c0 1.6.5 3 1.4 4.1-.3 0-.5-.1-.6-.1l-7.9-14.3c1.4-1.8 5.1-4.8 7.9-5.2.8-.1 1.3-.2 1.4 0 .5.8 1.8.7 1.8.7.3 0 1.8.2 3.1-1.9 0 0 .1-.3.8-.3 3.3 0 4.6 3.8 4.7 6.3-4.8 1.7-12.6 4.3-12.6 10.7zm12.5.3c-1.4 1.7-3 2.6-4.4 2.6-2.1 0-3.7-1.7-3.7-4.1 0-4.4 4.4-5.9 8-7.1h.1v8.6zM49.1 31.9l-.1.2c-1.9 2.8-3.5 3.8-5.7 3.8-3.6 0-6.5-3.2-7.2-7.9.4-.1 14.5-3.9 14.5-3.9v-.2c-.7-6-4.1-9.6-9-9.6-5.5 0-10 6.1-10 13.5 0 6.8 4.3 11.7 10.2 11.7 3.9 0 6.6-2 8.7-6.3l.1-.2-1.5-1.1zm-7.5-15.2c2.3 0 3.8 1.8 3.8 4.4 0 1.3-.5 2.1-3 2.8 0 0-5.2 1.3-6.5 1.6 0-5.5 2.2-8.8 5.7-8.8zM110.6 24.4c-5.2-2.3-5.7-2.6-5.7-4.7 0-1.6 1.5-3 3.3-3 0 0 1.5-.1 1.8.7.1.2.7 2.3 3.2 1.8 1.1-.2 1.5-1.2 1.5-2 .1-1.4-1.7-2.9-4.3-2.9-5.3 0-9.3 3.1-9.3 7.2 0 3.9 3.2 5.3 6.2 6.7 2.7 1.2 5.2 2.4 5.2 5.1 0 2.1-1.9 3.9-4.2 3.9-2.3 0-3.1-1.2-3.3-2.9-.2-1.7-1.6-2.1-2.7-2.2-1.3 0-2.3.9-2.4 2.5 0 .3 0 .4.1.7-.4.6-.7.7-1 .7-.5 0-.9-.9-.9-2.2v-11c0-3-.5-4.3-2-5.6-2.5-2.3-7.6-4.1-11.9-3.2-2.4.5-6.2 3.4-8 8.2-.1-3.8-.5-5.3-1.8-7.8l-.1-.2-4.7 2.2v.9l.5-.1h.3c1.4 0 2.1 1.8 2.1 5.9v14.2c-.3 0-2.5.4-2.5.4v1.2h9.4v-1.2s-2.3-.3-2.6-.4c0-.4.1-5.5.1-5.5.6-11.5 3.2-12.7 4.3-13.4.9-.6 2.3-.7 2.4-.5.5.8 1.8.7 1.8.7.3 0 1.8.2 3.1-1.9 0 0 .1-.3.8-.3 3.3 0 4.6 3.8 4.7 6.3h.1c-4.8 1.5-12.6 4.1-12.6 10.6 0 3.8 2.7 6.4 6.5 6.4 2.6 0 5.1-1.6 6.5-4 .2 2.6 1.4 4 3.4 4 .9 0 2.2-.8 3.4-2.3 1.3 1.5 3.8 2.3 6.8 2.3 4.8 0 8.5-3.3 8.5-7.5-.1-3.3-2.3-6.2-6-7.8zm-16.8 9c-1.4 1.7-3 2.6-4.4 2.6-2.1 0-3.7-1.7-3.7-4.1 0-4.4 4.4-5.9 8-7.1h.1v8.6z"/><path fill="none" d="M0 0h160v61.9h-160z"/><path fill="#fff" d="M160 42.4c0 1.6-1.3 2.9-2.9 2.9-1.6 0-2.9-1.3-2.9-2.9 0-1.6 1.3-2.9 2.9-2.9 1.6 0 2.9 1.3 2.9 2.9zm-5.3 0c0 1.3 1.1 2.4 2.4 2.4 1.3 0 2.4-1.1 2.4-2.4 0-1.3-1.1-2.4-2.3-2.4-1.4 0-2.5 1.1-2.5 2.4zm1.4-1.7h.9c.4 0 .6 0 .7.1.3.1.5.4.5.8s-.3.8-.7.9l1 1.6h-.6l-.9-1.5h-.3v1.5h-.5v-3.4zm.8 1.5c.5 0 .7-.2.7-.6 0-.3-.2-.5-.5-.5h-.4v1.1h.2z"/></svg>