<svg xmlns="http://www.w3.org/2000/svg" viewBox="0 0 182.99 62.29"><defs><style>.cls-1{fill:#231f20;}</style></defs><path class="cls-1" d="M8.67 53.55a4.53 4.53 0 0 0-3.23-1.4 4.38 4.38 0 0 0 0 8.75 4.64 4.64 0 0 0 3.2-1.4V61a5.45 5.45 0 0 1-3.15 1 5.47 5.47 0 1 1 0-10.94 5.11 5.11 0 0 1 3.16 1v1.46zm4.47-2.31h5.48v1.09h-4.3v3.14h4.18v1.09h-4.18v4.15h4.31v1.09h-5.49V51.23zm9.86-.45l8.24 8.64v-8.2h1.18v11l-8.24-8.62v8.15H23v-11zm17 11h-1.2v-9.46h-2.55v-1.09h6.31v1.09H40v9.48zm6.34-10.57h5.48v1.09H47.5v3.14h4.18v1.09h-4.17v4.15h4.31v1.09h-5.49V51.23zm11 10.57h-1.18V51.23h1.53c2 0 3.87.53 3.87 2.92a2.76 2.76 0 0 1-2.65 2.92l3.37 4.74h-1.45l-3.2-4.64h-.29v4.64zm0-5.68h.36c1.33 0 2.68-.25 2.68-1.89s-1.28-1.91-2.69-1.91h-.35v3.8zm17.23-3.8v3.14h3.52v1.09h-3.53v5.24h-1.17V51.23h4.81v1.09h-3.64zM93 56.53a5.51 5.51 0 1 1-5.51-5.48A5.48 5.48 0 0 1 93 56.53zm-9.84 0a4.33 4.33 0 1 0 4.33-4.37 4.37 4.37 0 0 0-4.33 4.37zm15.31 5.29h-1.19V51.23h1.53c2 0 3.87.53 3.87 2.92a2.77 2.77 0 0 1-2.68 2.92l3.37 4.74H102l-3.2-4.64h-.34v4.64zm0-5.68h.36c1.33 0 2.68-.25 2.68-1.89s-1.28-1.91-2.69-1.91h-.35v3.8zm18.85 5.68h-1.18v-9.49h-2.55v-1.09h6.31v1.09h-2.58v9.48zm6.35-10.57h5.48v1.09h-4.31v3.14H129v1.09h-4.18v4.15h4.31v1.09h-5.49V51.23zm14.43 2.06a1.94 1.94 0 0 0-1.82-1.15 1.68 1.68 0 0 0-1.75 1.64c0 .91.94 1.33 1.65 1.66l.7.31c1.37.6 2.54 1.29 2.54 3a3.34 3.34 0 0 1-6.62.53l1.15-.32a2.18 2.18 0 0 0 2.12 2 2.13 2.13 0 0 0 2.17-2.06c0-1.23-1-1.65-1.95-2.1l-.64-.28c-1.24-.56-2.3-1.19-2.3-2.71a2.77 2.77 0 0 1 3-2.69 3 3 0 0 1 2.65 1.55l-.94.6zm8.36 8.51h-1.18v-9.49h-2.55v-1.09H149v1.09h-2.58v9.48zm7.54 0h-1.18V51.23H154v10.58zm4.84-11l8.25 8.64v-8.22h1.18v11L160 53.66v8.15h-1.18v-11zM183 56.49a5 5 0 0 1-1.09 3.73A5.23 5.23 0 0 1 178 62a5.47 5.47 0 1 1 4.54-8.65l-.85.8a4.3 4.3 0 0 0-3.63-2 4.39 4.39 0 0 0-4.32 4.42 4.26 4.26 0 0 0 1.23 3 4.45 4.45 0 0 0 3 1.35c1.84 0 3.77-1.35 3.77-3.31h-3.14v-1.12h4.4zM.24 43.13V.82h6.35a27.9 27.9 0 0 1 6.77.66 10.15 10.15 0 0 1 4.3 2.22 11.5 11.5 0 0 1 2.82 4 12.18 12.18 0 0 1 1.07 4.93 10 10 0 0 1-3.48 7.7 10.22 10.22 0 0 1 5.31 4 11.37 11.37 0 0 1 2 6.63 11.27 11.27 0 0 1-3.51 8.38 11.5 11.5 0 0 1-4.74 2.93 27.56 27.56 0 0 1-7.2.79H.24zM6.62 19h2q3.56 0 5.22-1.58a6.11 6.11 0 0 0 1.66-4.64 5.82 5.82 0 0 0-1.7-4.53 7.08 7.08 0 0 0-4.93-1.57H6.62V19zm0 18.14h3.94q4.33 0 6.36-1.7a5.88 5.88 0 0 0 2.14-4.66A6 6 0 0 0 17 26.17q-2-1.83-7.15-1.83H6.62v12.78zM39.8.82v25.46q0 5.45 1.78 8a8.72 8.72 0 0 0 7.48 3.64 8.75 8.75 0 0 0 7.51-3.64q1.78-2.44 1.78-8V.82h6.38v27.24a15.24 15.24 0 0 1-4.17 11 15.42 15.42 0 0 1-11.51 4.82 15.34 15.34 0 0 1-15.63-15.82V.82h6.38zM89.2 25.1l13.1 18h-7.81L82.41 25.81h-1.15v17.32h-6.39V.82h7.48q8.38 0 12.11 3.15a11.57 11.57 0 0 1 4.11 9.26A12 12 0 0 1 96 21a11.49 11.49 0 0 1-6.79 4.14zm-7.94-4.85h2q9.07 0 9.07-6.93 0-6.49-8.82-6.49h-2.26v13.42zM181.75 7.1l-5.18 3.07a8.89 8.89 0 0 0-2.77-3.29 6.46 6.46 0 0 0-3.53-.88 6.53 6.53 0 0 0-4.41 1.51 4.67 4.67 0 0 0-1.75 3.73q0 3.1 4.6 5l4.22 1.76a18 18 0 0 1 7.53 5 11.46 11.46 0 0 1 2.38 7.36 12.94 12.94 0 0 1-3.84 9.69 13.34 13.34 0 0 1-9.73 3.84 13 13 0 0 1-9.1-3.28 15.06 15.06 0 0 1-4.41-9.19l6.43-1.42q.43 3.73 1.53 5.15a7.29 7.29 0 0 0 10.71.74 6.91 6.91 0 0 0 2-5.07 7.09 7.09 0 0 0-.34-2.26 5.75 5.75 0 0 0-1.09-1.88 8.5 8.5 0 0 0-1.88-1.61 18.35 18.35 0 0 0-2.74-1.44l-4.08-1.7q-8.68-3.67-8.69-10.73a10.18 10.18 0 0 1 3.65-8 13.17 13.17 0 0 1 9.06-3.2q7.32 0 11.43 7.1zm-63.54 29.3A18.84 18.84 0 0 1 112 21.85 18.82 18.82 0 0 1 117.79 8a19.85 19.85 0 0 1 23.67-3.19A21 21 0 0 0 127.81 0a21.55 21.55 0 0 0-15.67 6.41 20.73 20.73 0 0 0-6.55 15.34q0 10.17 7.18 16.44a22.37 22.37 0 0 0 28.65.93 19.57 19.57 0 0 1-9.93 2.56 19.26 19.26 0 0 1-13.28-5.3z"/><path class="cls-1" d="M131.74 3.78a17.58 17.58 0 0 0-11.56 4.1A15.39 15.39 0 0 1 127.72 6a14.93 14.93 0 0 1 11.12 4.6 15.49 15.49 0 0 1 4.53 11.4 15.56 15.56 0 0 1-4.57 11.33 15.23 15.23 0 0 1-11.23 4.6 14.71 14.71 0 0 1-7.92-2.26A18.12 18.12 0 0 0 149.81 22a17.71 17.71 0 0 0-5.29-12.9 17.36 17.36 0 0 0-12.77-5.32z"/></svg>