<svg xmlns="http://www.w3.org/2000/svg" viewBox="0 0 265 58"><defs><style>.b{fill:#191e2a;}</style></defs><path class="b" d="M179.78 36a5 5 0 0 1-3.42 6.19l-3 .88a5 5 0 0 1-6.19-3.42l-.88-3a5 5 0 0 1 3.42-6.19l3-.88A5 5 0 0 1 178.9 33zM62.15 51l-.88-3a5 5 0 0 0-6.19-3.42l-3 .88a5 5 0 0 0-3.42 6.19l.88 3A5 5 0 0 0 52.88 58h2.9l3-.85A5 5 0 0 0 62.15 51zm-6.06-21a5 5 0 0 0-6.19-3.42l-3 .88a5 5 0 0 0-3.42 6.19l.88 3a5 5 0 0 0 6.19 3.42l3-.88A5 5 0 0 0 57 33zM45.64 55.72l-.88-3a5 5 0 0 0-6.19-3.42l-3 .88a5 5 0 0 0-3.42 6.19l.44 1.63h13.14a4.92 4.92 0 0 0-.09-2.28zm48-17.18a5 5 0 0 0-6.19-3.42l-3 .88A5 5 0 0 0 81 42.2l.88 3a5 5 0 0 0 6.19 3.42l3-.88a5 5 0 0 0 3.42-6.19zm-1.08 14.12l-3 .88A5 5 0 0 0 85.94 58h13.37l-.56-1.92a5 5 0 0 0-6.19-3.42zm-15.28-9.38a5 5 0 0 0-6.19-3.42l-3 .88a5 5 0 0 0-3.42 6.19l.88 3a5 5 0 0 0 6.15 3.47l3-.88a5 5 0 0 0 3.42-6.19zM22.55 53.89l-3 .88A5 5 0 0 0 16.16 58h12.78l-.2-.69a5 5 0 0 0-6.19-3.42zm-9.88-22.75l3-.88a5 5 0 0 0 3.42-6.19l-.88-3a5 5 0 0 0-6.19-3.42l-3 .88a5 5 0 0 0-3.42 6.15l.88 3a5 5 0 0 0 6.19 3.46zM16.6 2.67l.88 3a5 5 0 0 0 6.19 3.42l3-.88a5 5 0 0 0 3.42-6.19L29.54 0H16.6a4.94 4.94 0 0 0 0 2.67zm99.25 51.76l-.88-3a5 5 0 0 0-6.19-3.43l-3 .88a5 5 0 0 0-3.46 6.12l.85 3h12.35a5 5 0 0 0 .33-3.57zm-92.29-15A5 5 0 0 0 17.37 36l-3 .88a5 5 0 0 0-3.42 6.19l.88 3A5 5 0 0 0 18 49.52l3-.88a5 5 0 0 0 3.42-6.19zM22.5 23.09a5 5 0 0 0 6.19 3.42l3-.88a5 5 0 0 0 3.42-6.19l-.88-3A5 5 0 0 0 28.08 13l-3 .88A5 5 0 0 0 21.62 20zM2 54.15l3-.88a5 5 0 0 0 3.42-6.19L7.54 44a5 5 0 0 0-6.19-3.42L0 41v13.3a5 5 0 0 0 2-.15zM40.18 4.36l3-.88A5 5 0 0 0 46.64 0H33.72l.28.95a5 5 0 0 0 6.18 3.41zM3.11 28.69l-.88-3A5 5 0 0 0 0 22.78v12a5 5 0 0 0 3.11-6.09zm4.7-14.38l3-.88a5 5 0 0 0 3.42-6.19l-.88-3A5 5 0 0 0 7.2.79l-3 .88A5 5 0 0 0 .74 7.86l.88 3a5 5 0 0 0 6.19 3.46zm230.46 39.8a5 5 0 0 0-6.19-3.42l-3 .88a5 5 0 0 0-3.42 6.19l.02.24h13.62a4.94 4.94 0 0 0-.15-.84zm-22 1.16l-3 .88a5 5 0 0 0-2.7 1.85h11.57a5 5 0 0 0-5.91-2.72zm.73-13.94a5 5 0 0 0-6.19-3.42l-3 .88a5 5 0 0 0-3.47 6.21l.88 3a5 5 0 0 0 6.19 3.42l3-.88a5 5 0 0 0 3.42-6.19zm44.84.77a5 5 0 0 0-3.42 6.19l.88 3a5 5 0 0 0 5.7 3.5V41.2h-.12zM255.17 19l3-.88a5 5 0 0 0 3.46-6.12l-.88-3a5 5 0 0 0-6.19-3.42l-3 .88a5 5 0 0 0-3.42 6.19l.88 3a5 5 0 0 0 6.15 3.35zm-48.94 14.53l3-.88a5 5 0 0 0 3.42-6.19l-.88-3a5 5 0 0 0-6.15-3.46l-3 .88a5 5 0 0 0-3.42 6.19l.88 3a5 5 0 0 0 6.15 3.46zm53.6-9.77l-3 .88a5 5 0 0 0-3.42 6.19l.88 3a5 5 0 0 0 6.19 3.42l3-.88a4.92 4.92 0 0 0 1.52-.76v-10.3a5 5 0 0 0-5.17-1.56zm-4.68 28.78l-.88-3a5 5 0 0 0-6.19-3.42L245 47a5 5 0 0 0-3.42 6.19l.88 3a4.94 4.94 0 0 0 1 1.81h9.72a5 5 0 0 0 1.97-5.47zM161.92 52l-3 .88a5 5 0 0 0-3.64 5.12h13.56l-.74-2.54a5 5 0 0 0-6.18-3.46zm-16.34 4.72l-3 .88a5 5 0 0 0-.89.36h8.79a5 5 0 0 0-4.9-1.2zm1-14.51a5 5 0 0 0-6.19-3.42l-3 .88a5 5 0 0 0-3.42 6.19l.88 3a5 5 0 0 0 6.15 3.51l3-.88a5 5 0 0 0 3.42-6.19zm43.08-3.94l3-.88a5 5 0 0 0 3.42-6.19l-.88-3a5 5 0 0 0-6.19-3.42l-3 .88a5 5 0 0 0-3.42 6.19l.88 3a5 5 0 0 0 6.2 3.46zm-4.78 15.31l-.88-3a5 5 0 0 0-6.19-3.42l-3 .88a5 5 0 0 0-3.42 6.19l.88 3a4.92 4.92 0 0 0 .29.73h11.53a5 5 0 0 0 .8-4.34zm15.46-7.77a5 5 0 0 0-6.19-3.42l-3 .88a5 5 0 0 0-3.42 6.19l.88 3a5 5 0 0 0 6.16 3.54l3-.88a5 5 0 0 0 3.42-6.19zm-69.15.85a5 5 0 0 0-6.19-3.37l-3 .88a5 5 0 0 0-3.42 6.19l.88 3a5 5 0 0 0 6.19 3.42l3-.88a5 5 0 0 0 3.42-6.19zm53.41-25.88l3-.88a5 5 0 0 0 3.42-6.19l-.88-3A5 5 0 0 0 184 7.25l-3 .88a5 5 0 0 0-3.42 6.19l.88 3a5 5 0 0 0 6.14 3.46zm25.72-15.94l.88 3a5 5 0 0 0 6.19 3.42l3-.88a5 5 0 0 0 3.42-6.19l-.88-3a4.91 4.91 0 0 0-.5-1.19h-10.88a5 5 0 0 0-1.23 4.84zm-47.39 32.69a5 5 0 0 0-6.19-3.42l-3 .88a5 5 0 0 0-3.42 6.19l.88 3a5 5 0 0 0 6.19 3.42l3-.88a5 5 0 0 0 3.42-6.19zm32-25a5 5 0 0 0 6.24 3.47l3-.88a5 5 0 0 0 3.42-6.19l-.88-3a5 5 0 0 0-6.19-3.42l-3 .88a5 5 0 0 0-3.42 6.19zM179.46 3l3-.88A5 5 0 0 0 185.3 0h-11.86a5 5 0 0 0 6.02 3zm-17.4 19.09a5 5 0 0 0 6.19 3.42l3-.88a5 5 0 0 0 3.42-6.19l-.88-3a5 5 0 0 0-6.14-3.44l-3 .88a5 5 0 0 0-3.46 6.12zm-9.78 8l3-.88a5 5 0 0 0 3.46-6.21l-.88-3a5 5 0 0 0-6.19-3.42l-3 .88a5 5 0 0 0-3.42 6.19l.88 3a5 5 0 0 0 6.16 3.46zm64-4.69a5 5 0 0 0 6.19 3.42l3-.88a5 5 0 0 0 3.42-6.19l-.88-3a5 5 0 0 0-6.19-3.42l-3 .88a5 5 0 0 0-3.42 6.19zM250.2 1.82l3-.88A5 5 0 0 0 255 0h-10.19a5 5 0 0 0 5.39 1.82zm-17.92 19a5 5 0 0 0 6.19 3.42l3-.88a5 5 0 0 0 3.42-6.19l-.88-3a5 5 0 0 0-6.19-3.42l-3 .88a5 5 0 0 0-3.42 6.19zm-5.07-17.56a5 5 0 0 0 6.19 3.42l3-.88a5 5 0 0 0 3.53-5.8h-13.64v.22zm22 28.76A5 5 0 0 0 243 28.6l-3 .88a5 5 0 0 0-3.42 6.19l.88 3a5 5 0 0 0 6.19 3.42l3-.88a5 5 0 0 0 3.42-6.19zm-16 4.63a5 5 0 0 0-6.21-3.42l-3 .88a5 5 0 0 0-3.42 6.19l.88 3a5 5 0 0 0 6.19 3.42l3-.88a5 5 0 0 0 3.42-6.19zM156 1.13l.88 3a5 5 0 0 0 6.19 3.42l3-.88a5 5 0 0 0 3.48-6.15l-.16-.52h-13.55a4.93 4.93 0 0 0 .16 1.13zM70.55 5.91l.88 3a5 5 0 0 0 6.19 3.42l3-.88a5 5 0 0 0 3.46-6.15l-.88-3A4.94 4.94 0 0 0 81.79 0h-8.52a5 5 0 0 0-2.72 5.91zm6.19 21.43a5 5 0 0 0 6.19 3.42l3-.88a5 5 0 0 0 3.42-6.19l-.88-3a5 5 0 0 0-6.19-3.42l-3 .88a5 5 0 0 0-3.42 6.19zm10-26.11l.88 3a5 5 0 0 0 6.19 3.42l3-.88A5 5 0 0 0 100.3.61l-.18-.61H86.6a4.92 4.92 0 0 0 .17 1.22zM39.59 34.77a5 5 0 0 0-6.19-3.42l-3 .88a5 5 0 0 0-3.42 6.19l.88 3A5 5 0 0 0 34 44.89l3-.89a5 5 0 0 0 3.42-6.19zm5.62-13l3-.88a5 5 0 0 0 3.42-6.19l-.88-3a5 5 0 0 0-6.19-3.42l-3 .88a5 5 0 0 0-3.42 6.19l.88 3a5 5 0 0 0 6.18 3.39zm21.13 13.09l3-.88a5 5 0 0 0 3.42-6.19l-.88-3a5 5 0 0 0-6.19-3.42l-3 .88a5 5 0 0 0-3.42 6.19l.88 3a5 5 0 0 0 6.19 3.42zm73.52-29.75l.88 3a5 5 0 0 0 6.19 3.42l3-.88a5 5 0 0 0 3.42-6.19l-.88-3a4.91 4.91 0 0 0-.68-1.46h-10.43a5 5 0 0 0-1.5 5.11zM55 13.69a5 5 0 0 0 6.19 3.42l3-.88A5 5 0 0 0 67.67 10l-.88-3a5 5 0 0 0-6.19-3.42l-3 .88a5 5 0 0 0-3.42 6.19zm55-10.7l3-.88A5 5 0 0 0 115.9 0H104a5 5 0 0 0 6.06 3zm14.52 10.52a5 5 0 0 0 6.19 3.42l3-.88a5 5 0 0 0 3.42-6.19l-.88-3a5 5 0 0 0-6.19-3.42l-3 .88a5 5 0 0 0-3.42 6.19zm10.75 7.79l-3 .88a5 5 0 0 0-3.42 6.19l.88 3a5 5 0 0 0 6.19 3.42l3-.88a5 5 0 0 0 3.42-6.19l-.88-3a5 5 0 0 0-6.13-3.41zM93 22.65a5 5 0 0 0 6.19 3.42l3-.88a5 5 0 0 0 3.42-6.19l-.88-3a5 5 0 0 0-6.19-3.42l-3 .88a5 5 0 0 0-3.42 6.19zm27.59 16.63l3-.88a5 5 0 0 0 3.41-6.19l-.88-3a5 5 0 0 0-6.19-3.42l-3 .88a5 5 0 0 0-3.42 6.19l.88 3a5 5 0 0 0 6.16 3.42zm-10.64-5.43a5 5 0 0 0-6.19-3.42l-3 .88a5 5 0 0 0-3.42 6.19l.88 3a5 5 0 0 0 6.11 3.5l3-.88a5 5 0 0 0 3.42-6.19zM109.18 18a5 5 0 0 0 6.19 3.42l3-.88a5 5 0 0 0 3.42-6.19l-.88-3a5 5 0 0 0-6.19-3.42l-3 .88A5 5 0 0 0 108.3 15z"/></svg>