<svg xmlns="http://www.w3.org/2000/svg" viewBox="0 0 526 338"><defs><style>.a{fill:url(#a);}.b{mask:url(#b);}.c{fill:#231f20;opacity:0.08;}.d{filter:url(#c);}</style><linearGradient id="a" x1="263" y1="339" x2="263" y2="1" gradientUnits="userSpaceOnUse"><stop offset="0" stop-color="#fff"/><stop offset=".3"/></linearGradient><filter id="c" filterUnits="userSpaceOnUse" color-interpolation-filters="sRGB"><feColorMatrix values="-1 0 0 0 1 0 -1 0 0 1 0 0 -1 0 1 0 0 0 1 0"/></filter><mask id="b" x="0" y="0" width="526" height="338" maskUnits="userSpaceOnUse"><path class="d a" d="M0 0h526v338H0z"/></mask></defs><path class="b c" d="M87.67 338H10.54Q0 301.25 0 258.8A246.64 246.64 0 0 1 77.94 76.29 256.38 256.38 0 0 1 264.37 0a249.82 249.82 0 0 1 162.39 57.26 236.2 236.2 0 0 0-281.64 38A224 224 0 0 0 76.2 260a224.88 224.88 0 0 0 11.47 78zM526 250.58a210.71 210.71 0 0 0-62.81-142.28A206 206 0 0 0 311.26 45h-.12A208 208 0 0 0 173.6 93.78a183.11 183.11 0 0 1 89.71-22.37 177.63 177.63 0 0 1 132.3 54.73 184.3 184.3 0 0 1 53.9 135.63A185.08 185.08 0 0 1 434.74 338h78A215.54 215.54 0 0 0 526 270.67v-20.09z"/></svg>