<svg xmlns="http://www.w3.org/2000/svg" width="180" height="142"><path fill="#6d6d69" d="M94.3 42.2c-.2-.4-.2-.7-.1-1 0-.1 0-.1.1-.2.2-.4.7-.5 1.4-.2-.1.1-1.1 1.8-1.4 1.4zm4.6 3c-.7-.8-3.9-1.7-4.7-.8.8.3 1.899.6 2.5 1.2.899.9 1.6 1.8 2.7 2.3.5.3.399-.6.1-1.4-.2-.6-.5-1.2-.6-1.3zm45.8 35.8c0 26.7-21.7 48.4-48.4 48.4-3.8 0-7.5-.5-11-1.301l-1.9-7.899c4.1 1.399 8.4 2.1 12.9 2.1l2.9-.1h-.2c-2.7-.5-1.5-3.7-1.3-5.7.1-1.1.8-2 1.1-2.9 1.4-3.8 2.2-8.1-1.5-10.6-1.7-1.1-1.8-1.9-2.8-3.6-.9-1.601-2-3.2-2.2-4.9-.1-.6 0-1.2.3-1.9.2-.5.5-1 1-1.5 3.9-4.2-.9-4.1-3.3-5.7-1.4-.9-2-2.7-3.3-3.7-2.9-2.4-10.5-2.2-10.7-6.9-.1-1.899-2.2-8.3-3.9-9.1-.4 1.1-.1 2.2-.8 3-.5-.4-.5-.8-.6-1.4-.3-1.6-.1-2-.6-3.5-1.3-4.6 3.9-8.1 5.2-11.8.8-2.2.8-5.4-1.2-6-11.5 7.2-19.4 20.2-19.4 35 0 4.3.6 8.4 1.8 12.2l-7.8-1.9c-.7-3.3-1.1-6.8-1.1-10.3 0-26.7 21.7-48.4 48.4-48.4s48.4 21.7 48.4 48.4zm-7.1.2c-2 .6-3.3-1.5-4.199-3.8-.7-1.801-.7-3.7-1.4-5.4-.4-1.1-.5-2-.6-3.3-.101-1.2 0-2.4 0-3.5 0-1.6-.7-3.6-.5-5.1 0-.1.199-.5.399-.9-.399-.7-.899-1.4-1.399-2.1 0 .3 0 .6-.101.8-.2.5-.899.5-2.2-.8-1.5-1.4-2.1-4.1-2.899-6.1-5.4-5.1-12.101-8.8-19.601-10.4 1.301.9 2.301 2.3 3.601 3 .2.1-1 4.6-2.4 4.5-1.2-.1-2.7-2.5-3.2-3.5-.6-1-1.6-1.4-2.6-1.9-1.2-.5-3.2-.3-2.3-1.7.1-.2.3-.4.5-.7.3-.3.6-.5 1-.6-1.101-.1-2.3-.2-3.4-.2-4.6 0-9 .8-13.1 2.2.5 2.8 6.1 3.7 8.6 3.4l1 .2c.5.3 1.3.1 1.8.3l-3.6 2.4c-.2.2-2.2 2.9-1.2 3 .8.1 2.4.2 3.101.8.899.7.399 1.6 1 2.2.199.2.399.4.699.5 1.301-1.2.5-5.4 1.5-6 .9-.3 2 0 2.801.5l-.101 1.2c1.5.7 2.4.1 4 1.2l2.7 2.2c-.5 1.3-2.6 1.2-2.8 2.5-.101.5 1 2 .899 2.1-1.1 1.3-3.399.3-4.899 2-1.2 1.3-1.601 3.2-2.601 4.6-1 1.3-2.8 2.1-3.199 3.8-.4 1.5 1.6 2.9 0 4.2-.7-1.3-.601-3.2-2.101-3.9-1.3-.6-7.4 0-8.1 1.1-.9 1.3-1.5 4.3-.7 5.8.4.8 2.2 2.601 3.3 1.7 1.2-1 1.4-3.1 3.5-1.8-3.4 4.3.8 2.7 2.3 5 .801 1.3-.899 3.1.5 4.1 1.4 1 2.7-.6 4.2 1.101 1.9-3.4 7-3.2 10.5-2.2 1.7.499 2.7 2.899 4.7 3.299l2 .1c2.7.4 1.7 3.801 3.6 4.801 1.301.699 4.2 0 5.801.199 1.5.101 2.8.801 2.699 2.601 0 1-.899 2.1-1.399 3-.7 1.3-1.101 2.6-1.8 3.8-.4.9-1.101 1.6-1.7 2.4-.601.899-1 1.899-2 2.399-1.101.7-2.601.9-3.5 1.9-2.7 3.1-6.2 5.8-9.601 8.1-1.6 1.2-2.699 5-4.899 5.601 20.899-1.701 37.399-19.301 37.399-40.701zm-51 14.5c2-2 2.1-5.101.3-6.9-1.8-1.8-4.9-1.6-6.9.4l-11 11.8-28-6.7-3.8 3.8 22.6 12.7-11.6 12.4-10.4-2.5-1.6 1.6 7.9 5.3c-1.2 1.2-1.3 3.101-.2 4.301 1.1 1.1 3 1 4.3-.2l5.2 7.899 1.6-1.6-2.5-10.4 12.8-12 13 23.7 3.8-3.8-6.9-29.1 11.4-10.7z"/></svg>