<svg xmlns="http://www.w3.org/2000/svg" width="180" height="142"><path fill="#6d6d69" d="M141.1 130.2c0 1.6-.899 1.8-1.8 1.8h-98.7c-1.6 0-1.8-.9-1.8-1.8v-2.9c0-1.6.9-1.8 1.8-1.8h98.7c1.601 0 1.8.9 1.8 1.8v2.9zm-86.4-11.6c.8 0 1.8-.199 1.8-1.8v-15.5c0-.8-.2-1.8-1.8-1.8h-13.8c-.8 0-1.8.2-1.8 1.8v15.5c0 .8.2 1.8 1.8 1.8h13.8zm21 0c.8 0 1.8-.199 1.8-1.8v-26.1c0-.8-.2-1.8-1.8-1.8h-13.8c-.8 0-1.8.199-1.8 1.8v26.1c0 .8.2 1.8 1.8 1.8h13.8zm21 0c.8 0 1.8-.199 1.8-1.8v-36.6c0-.8-.2-1.8-1.8-1.8h-13.7c-.8 0-1.8.199-1.8 1.8v36.6c0 .8.2 1.8 1.8 1.8h13.7zm21 0c.8 0 1.8-.199 1.8-1.8v-50.8c0-.8-.2-1.8-1.8-1.8h-13.7c-.8 0-1.8.2-1.8 1.8v50.8c0 .8.2 1.8 1.8 1.8h13.7zm21.2 0c.8 0 1.8-.199 1.8-1.8v-64.4c0-.8-.2-1.8-1.8-1.8h-13.8c-.8 0-1.8.2-1.8 1.8v64.4c0 .8.2 1.8 1.8 1.8h13.8z"/></svg>