<svg xmlns="http://www.w3.org/2000/svg" width="180" height="142"><g><path fill="#6d6d69" d="M84.6 96.7c1.3 0 2.4.399 3.2 1.399.9.9 1.3 2 1.3 3.2v11.101c0 .399-.1.8-.4 1.1-.3.3-.7.5-1.1.5s-.8-.2-1.1-.5-.4-.7-.4-1.1v-9.9h-.8v27.5c0 .5-.2 1-.6 1.4-.4.399-.9.6-1.4.6-.6 0-1.1-.2-1.5-.6-.4-.4-.6-.9-.6-1.4v-16h-1.8v15.9c0 .5-.2 1-.6 1.399-.4.4-.9.601-1.5.601-.5 0-1-.2-1.4-.601-.4-.399-.6-.899-.6-1.399v-27.5h-.8v9.899c0 .4-.1.8-.4 1.101-.3.3-.6.5-1.1.5-.4 0-.8-.2-1.1-.5-.3-.301-.5-.7-.5-1.101v-11.1c0-1.2.5-2.3 1.4-3.2.9-.9 2-1.4 3.2-1.4h8.6m-4.9-1.699c1 0 1.8-.301 2.5-1 .7-.7 1-1.5 1-2.5s-.3-1.801-1-2.5c-.7-.7-1.5-1-2.5-1s-1.9.3-2.5 1c-.7.699-1 1.5-1 2.5s.3 1.899 1 2.5c.6.6 1.5 1 2.5 1"/><path fill="#6d6d69" d="M97.5 35.4c1.3 0 2.3.4 3.2 1.4.899.9 1.3 2 1.3 3.2v11c0 .4-.1.8-.4 1.1-.3.3-.699.5-1.1.5s-.8-.2-1.1-.5c-.3-.3-.4-.7-.4-1.1v-9.9h-.8v27.5c0 .5-.2 1-.601 1.4-.399.4-.899.6-1.399.6-.601 0-1.101-.2-1.5-.6-.4-.4-.601-.9-.601-1.4v-16h-1.8v15.9c0 .5-.2 1-.6 1.4-.4.4-.9.6-1.5.6-.5 0-1-.2-1.4-.6-.4-.4-.6-.9-.6-1.4v-27.4h-.8v9.9c0 .4-.1.8-.4 1.1-.3.3-.6.5-1.1.5-.4 0-.8-.2-1.1-.5-.3-.3-.5-.7-.5-1.1v-11.1c0-1.2.5-2.3 1.4-3.2.9-.9 2-1.4 3.2-1.4h8.6m-4.799-1.8c1 0 1.8-.3 2.5-1s1-1.5 1-2.5-.3-1.8-1-2.5-1.5-1.1-2.5-1.1-1.9.3-2.5 1.1c-.7.7-1 1.5-1 2.5s.3 1.9 1 2.5c.6.7 1.5 1 2.5 1"/><path fill="#6d6d69" d="M58.7 96.7c1.3 0 2.4.399 3.2 1.399.9.9 1.3 2 1.3 3.2v11.101c0 .399-.1.8-.4 1.1-.3.3-.7.5-1.1.5-.4 0-.8-.2-1.1-.5-.3-.3-.4-.7-.4-1.1v-9.9h-.8v27.5c0 .5-.2 1-.6 1.4-.4.399-.9.6-1.4.6-.6 0-1.1-.2-1.5-.6-.4-.4-.6-.9-.6-1.4v-16h-1.8v15.9c0 .5-.2 1-.6 1.399-.4.4-.9.601-1.5.601-.5 0-1-.2-1.4-.601-.4-.399-.6-.899-.6-1.399v-27.5h-.8v9.899c0 .4-.1.8-.4 1.101-.3.3-.6.5-1.1.5-.4 0-.8-.2-1.1-.5-.3-.301-.5-.7-.5-1.101v-11.1c0-1.2.5-2.3 1.4-3.2s2-1.4 3.2-1.4h8.6m-4.8-1.699c1 0 1.8-.301 2.5-1 .7-.7 1-1.5 1-2.5s-.3-1.801-1-2.5c-.7-.7-1.5-1-2.5-1s-1.9.3-2.5 1c-.7.699-1 1.5-1 2.5s.3 1.899 1 2.5c.6.6 1.4 1 2.5 1"/><path fill="#6d6d69" d="M29.4 96.7c1.3 0 2.4.399 3.2 1.399.9.9 1.3 2 1.3 3.2v11.101c0 .399-.1.8-.4 1.1s-.7.5-1.1.5-.8-.2-1.1-.5c-.3-.3-.4-.7-.4-1.1v-9.9h-.9v27.5c0 .5-.2 1-.6 1.4-.4.4-.9.6-1.4.6-.6 0-1.1-.2-1.5-.6-.4-.4-.6-.9-.6-1.4v-16h-1.8v15.9c0 .5-.2 1-.6 1.399-.4.4-.9.601-1.5.601-.5 0-1-.2-1.4-.601-.4-.399-.6-.899-.6-1.399v-27.5h-.8v9.899c0 .4-.1.8-.4 1.101-.3.3-.6.5-1.1.5-.4 0-.8-.2-1.1-.5-.3-.301-.5-.7-.5-1.101v-11.1c0-1.2.5-2.3 1.4-3.2s2-1.4 3.2-1.4h8.7m-4.9-1.699c1 0 1.8-.301 2.5-1 .7-.7 1-1.5 1-2.5s-.3-1.801-1-2.5c-.7-.7-1.5-1-2.5-1s-1.9.3-2.5 1c-.7.699-1 1.5-1 2.5s.3 1.899 1 2.5c.7.6 1.5 1 2.5 1"/><path fill="#6d6d69" d="M19.9 48.1c.2.7.3 1.1.4 1.2l.1.4c0 .7-.3 1.2-1 1.4l-.4.1c-.7 0-1.2-.3-1.4-1l-.5-2c-.3-1.1-.6-2.2-1-3.4-.4-1.2-.8-2.7-1.4-4.5h-.8l4.9 16.5h-3.9v12.5c0 .5-.2.9-.5 1.2-.3.3-.8.5-1.3.5s-.9-.2-1.2-.5c-.3-.3-.5-.7-.5-1.2v-12.5h-1.9v12.5c0 .5-.2.9-.5 1.2s-.7.5-1.2.5-.9-.2-1.2-.5c-.3-.3-.5-.7-.5-1.2v-12.5h-4.3l4.9-16.5h-.9c-.6 1.8-1 3.3-1.3 4.5-.3 1.2-.7 2.3-1 3.4-.3 1.1-.5 1.7-.6 2-.2.7-.7 1-1.4 1l-.4-.1c-.7-.2-1-.7-1-1.3 0-.2 0-.3.1-.5.1-.1.2-.5.4-1.2s.4-1.6.7-2.6c.3-1 .6-2.1 1-3.3.3-1.2.7-2.3 1-3.4.2-.9.8-1.6 1.6-2.3.8-.7 1.6-1 2.5-1h5.7c.9 0 1.8.3 2.5 1 .8.7 1.3 1.4 1.6 2.3.3 1.1.6 2.3 1 3.4.3 1.2.7 2.3 1 3.3.3 1 .5 1.9.7 2.6m-9.6-14.5c1 0 1.8-.3 2.5-1s1-1.5 1-2.6c0-1-.3-1.8-1-2.5s-1.5-1.1-2.5-1.1-1.9.4-2.6 1.1c-.7.7-1.1 1.6-1.1 2.5 0 1 .4 1.9 1.1 2.6.7.7 1.6 1 2.6 1"/><path fill="#6d6d69" d="M49.5 48.1c.2.7.3 1.1.4 1.2l.1.4c0 .7-.3 1.2-1 1.4l-.4.1c-.7 0-1.2-.3-1.4-1l-.5-2c-.3-1.1-.6-2.2-1-3.4-.4-1.2-.8-2.7-1.4-4.5h-.8l4.9 16.5h-3.9v12.5c0 .5-.2.9-.5 1.2s-.8.5-1.2.5c-.4 0-.9-.2-1.2-.5-.3-.3-.5-.7-.5-1.2v-12.5h-1.8v12.5c0 .5-.2.9-.5 1.2-.3.3-.7.5-1.2.5s-.9-.2-1.2-.5c-.3-.3-.5-.7-.5-1.2v-12.5h-4.3l4.9-16.5h-.8c-.6 1.8-1 3.3-1.3 4.5-.3 1.2-.7 2.3-1 3.4-.3 1.1-.5 1.7-.6 2-.2.7-.7 1-1.4 1l-.4-.1c-.7-.2-1-.7-1-1.3 0-.2 0-.3.1-.5.1-.1.2-.5.4-1.2s.4-1.6.7-2.6c.3-1 .6-2.1 1-3.3.3-1.2.7-2.3 1.1-3.4.2-.9.8-1.6 1.6-2.3.8-.7 1.6-1 2.5-1h5.7c.9 0 1.8.3 2.5 1 .8.7 1.3 1.4 1.6 2.3.3 1.1.6 2.3 1 3.4.3 1.2.7 2.3 1 3.3.3 1 .1 1.9.3 2.6m-9.6-14.5c1 0 1.8-.3 2.5-1s1-1.5 1-2.6c0-1-.3-1.8-1-2.5s-1.5-1.1-2.5-1.1-1.9.4-2.6 1.1c-.7.7-1.1 1.5-1.1 2.5s.4 1.9 1.1 2.6c.7.7 1.6 1 2.6 1"/><path fill="#6d6d69" d="M77.8 48.1c.2.7.3 1.1.4 1.2l.1.4c0 .7-.3 1.2-1 1.4l-.4.1c-.7 0-1.2-.3-1.4-1l-.5-2c-.3-1.1-.6-2.2-1-3.4-.4-1.2-.8-2.7-1.4-4.5h-.8l4.9 16.5h-3.9v12.5c0 .5-.2.9-.5 1.2-.3.3-.8.5-1.2.5-.5 0-.9-.2-1.2-.5-.3-.3-.5-.7-.5-1.2v-12.5h-1.8v12.5c0 .5-.2.9-.5 1.2-.3.3-.7.5-1.2.5s-.9-.2-1.2-.5c-.3-.3-.5-.7-.5-1.2v-12.5h-4.3l4.9-16.5h-.8c-.6 1.8-1 3.3-1.3 4.5-.3 1.2-.7 2.3-1 3.4-.3 1.1-.5 1.7-.6 2-.2.7-.7 1-1.4 1l-.7-.1c-.7-.2-1-.7-1-1.3 0-.2 0-.3.1-.5.1-.1.2-.5.4-1.2s.4-1.6.7-2.6c.3-1 .6-2.1 1-3.3.3-1.2.7-2.3 1.1-3.4.2-.9.8-1.6 1.6-2.3.8-.7 1.6-1 2.5-1h5.6c.9 0 1.8.3 2.5 1 .8.7 1.3 1.4 1.6 2.3.3 1.1.6 2.3 1 3.4.3 1.2.7 2.3 1 3.3.3 1 .5 1.9.7 2.6m-9.6-14.5c1 0 1.8-.3 2.5-1s1-1.5 1-2.6c0-1-.3-1.8-1-2.5s-1.5-1.1-2.5-1.1-1.9.4-2.6 1.1c-.7.7-1.1 1.5-1.1 2.5s.4 1.9 1.1 2.6c.7.7 1.6 1 2.6 1"/><path fill="#6d6d69" d="M179.4 82.4c.199.699.3 1.1.399 1.199l.101.401c0 .7-.301 1.2-1 1.4l-.4.1c-.7 0-1.2-.3-1.4-1l-.5-2c-.3-1.1-.6-2.2-1-3.3-.399-1.2-.8-2.7-1.399-4.5h-.8l4.899 16.5h-3.9v12.5c0 .5-.2.899-.5 1.2-.301.3-.801.5-1.2.5-.4 0-.9-.2-1.2-.5-.3-.301-.5-.7-.5-1.2v-12.6h-1.8v12.5c0 .5-.2.9-.5 1.2s-.7.5-1.2.5-.9-.2-1.2-.5-.5-.7-.5-1.2v-12.5h-4.3l4.9-16.5h-.8c-.6 1.801-1 3.301-1.3 4.5-.3 1.2-.7 2.301-1 3.301-.3 1.1-.5 1.699-.6 2-.2.699-.7 1-1.4 1l-.4-.101c-.7-.2-1-.7-1-1.3 0-.2 0-.3.1-.5.1-.1.2-.5.4-1.2.199-.7.399-1.6.699-2.6.301-1 .601-2.101 1-3.3.301-1.2.7-2.301 1.101-3.4.2-.9.8-1.6 1.6-2.3.8-.7 1.601-1 2.5-1h5.7c.9 0 1.8.3 2.5 1 .8.7 1.3 1.399 1.6 2.3.301 1.1.601 2.3 1 3.4.301 1.199.7 2.3 1 3.3-.1 1.2.1 2 .3 2.7m-9.5-14.5c1 0 1.8-.3 2.5-1 .699-.7 1-1.5 1-2.6 0-1-.301-1.8-1-2.5-.7-.7-1.5-1.1-2.5-1.1s-1.9.4-2.601 1.1c-.7.7-1.1 1.5-1.1 2.5s.399 1.9 1.1 2.6c.701.7 1.501 1 2.601 1"/><path fill="#c7c8ca" d="M118.3 128.5v-9.1c.9 0 1.7-.101 2.5-.2.8-.101 1.4-.4 2-.8.601-.4 1.101-.7 1.5-1.101.4-.399.8-.899 1.2-1.6.3-.7.6-1.3.8-1.8s.4-1.2.5-2.2c.101-.9.3-1.7.3-2.3.101-.601.101-1.5.2-2.601 0-1.1.101-2 .101-2.6v-3.101c0-4.6.8-8.5 2.3-11.6 1.5-3.2 3.8-5.4 6.8-6.6-6.1-2.7-9.1-10.9-9.1-24.4v-2.8c0-.7-.101-1.5-.101-2.3-.1-.8-.2-1.5-.3-2s-.3-1-.5-1.6c-.2-.6-.5-1-.8-1.3s-.7-.6-1.101-1c-.399-.4-1-.5-1.6-.7-.6-.1-1.3-.3-2.1-.4-.801-.1-1.601-.1-2.601-.1v-9.297c5.5 0 9.8.7 12.8 2s5.2 3.5 6.601 6.5c1.3 3 2 7.3 2 12.8v5.4c0 .6 0 1.5.1 2.7 0 1.2.101 2.1.2 2.7.1.7.2 1.4.4 2.3.199.9.399 1.6.699 2.1.301.5.7 1 1.101 1.6.399.5.899.9 1.5 1.101.6.2 1.3.3 2 .3v12.2c-.9 0-1.601.1-2.3.3-.7.2-1.2.4-1.601.7-.399.3-.8.7-1.1 1.2s-.5 1-.7 1.6c-.1.6-.2 1.2-.3 2-.101.7-.101 1.5-.101 2.3v4.3c0 3.7-.199 6.9-.6 9.7-.4 2.7-1 5.3-2 7.601-1 2.3-2.2 4.199-3.8 5.6-1.601 1.4-3.601 2.6-6.101 3.4-2.496.698-5.396 1.098-8.796 1.098z"/></g></svg>