<svg xmlns="http://www.w3.org/2000/svg" width="180" height="142"><path fill="#6d6d69" d="M52.7 68.9c-.6-.4-1.5-.6-2.2-1 0-.9-.1-1.6-.3-2.2l-.4-1.1-.2-1.6c-.1-.4-.3-.8-.3-1.2-.2-.9-.4-1.6-1-2.2-.2-.2-.5-.3-.7-.6.1 0 .2 0 .3-.1-.5-.3-1-.6-1.3-1l-.2-.3c-.2-.3-.6-.6-.6-1 0 0-.1-.3.2-1 .3-.7.5-.6.5-.7.2 0 2.1.1 2.4-.3.2-.3 0-.7.1-1.1.1-.2.6-.5.3-.8.5-.2.2-.9.2-1.2.2-.2.8-.3.7-.3-.2-.1-.7-1.1-.7-1.5 0-.2.1-.7.2-1l.1-.1s0-.6-.1-1.3c-.1-.7-.6-2.7-.8-3.2-.2-.4-.5-.7-.6-.7-.2-.1-.9-.6-1.2-.6-.2 0-.3-.1-.5-.2-.6-.2-1.4-.5-2.1-.5h-1.9c-1.8.1-2.7 1.3-3.3 2.9-.6 1.5-1 3.3-1.1 5 0 .7 0 1.4-.2 2 .2.1 0 .3 0 .5 0 .1.1.2 0 .3l-.2.3c.2 0 0 .2 0 .2.1 0 .1 0 .1.1-.2.3-.4.6-.7.9h.1v.1l.2.1c0 .1-.4.2-.3.3h.1l-.2.2c.1 0 .2 0 .1.1l-.4.2c.1 0 .2 0 .2.1s-.1 0-.1.1h.1v.1c-.2.2.1.1.2.3-.4.1-.6.1-.7.1.1 0 .2.1.1.1-.2 0-.4.1-.6 0 0 .1.1.2 0 .2v.1h-.1v.2c-.2 0-.4-.1-.4 0v.1h-.1v.1c-.2.1-.4-.2-.5 0-.1.1.2.2 0 .3.2 0 .2.1.3.3h-.2v.1h-.1c0 .1.3.1.3.1l-.3.2v.2l.6.3-.9.1.4.2c-.2.3-.5.6-.7 1-.3.5-.4 1.2-.8 1.8-.1.1 0 .2 0 .3-.6.5-.9 1-1.1 1.9-.2.9-.2 1.7-.3 2.7l-.2 1.3v.9c0 .6-.2 1.1-.3 1.6-.3 1.1-.5 2.5-.8 3.4v.5c.2 1.2 1.1 1.7 2 2.3.3.2.6.4 1 .601.3.199.9.5 1 .699v.4c-.1 1.1-.3 2.1-.6 3.1-.4 1.7-.8 3.4-.8 5.301.2 0 .5 0 .7.1-.1.5 0 1.1 0 1.6l.2 7c.1 1.5.3 3 .3 4.4 0 .9 0 1.7.1 2.6.5.2 1.1.301 1.7.2.1.7 0 1.5 0 2.2-.3 3.2-2.2 5.8-1.5 9.4.1.399.3.8.3 1.199v.301c0 .3.2.5.3.8s.1.6.2.8c.2.8.3 1.7.4 2.5.1.3.2.5.2.8.1.7.2 1.4.2 2.2l-.3.2c-.1.8-1 1.5-1 2.399l.1.601c.1.399 0 .899 0 1.399 0 .601-.1 1.2-.1 1.9.6.1 1.2.3 1.8.3l.9-.2c.3-.1.6-.1.9-.3-.1-.1-.1-.2-.1-.3.6 0 .7.3 1 .6l.4.4c.7.5 1.6.5 2.7.6 1.6.101 3.6.2 4.7-.5.1-.1.3-.3.5-.3l.7-.1c.7-.101 1.6-.2 1.7-.7l-.1-.6c-1.5-.7-3.1-.9-4.2-2-.7-.801-1.4-1.7-1.8-2.801-.1-.399-.3-.8-.4-1.1v-.8s-.1-.5-.1-.8c-.1-1.2-.1-2.801 0-3.7 0-.4-.1-.9-.1-1.2 0-.1.1-.2.1-.4.1-.5.1-1.199.1-1.6 0-.1-.1-.2-.1-.2l.1-1.3v-.6c.1-1.301-.2-2.7-.3-3.9 0-.7 0-1.3.3-1.9.4-1 .8-1.899.9-3 .5-.1 1 0 1.5 0 1.2-.1 2.2-.399 3.1-.8l-.1-3.3v-4.8c-.1-2.101.1-4.2 0-6.2.3-.1.7-.4.7-.8v-.601l-.1-1.3c0-1 0-2.2-.1-3 0-.2-.2-.399-.1-.6.2.3.5.5.8.7l.4.3c.5.2.8-.101 1-.3.2-.301.3-.5.3-1 0-.4-.1-1.101-.1-1.601 0-.3-.2-.7-.1-.899l.2-.301c.5-.8.5-2.3.2-3.3.1-.1.2-.2.2-.3-.1-.5-.1-1-.3-1.4l-.7-1.097c.4-.8.7-1.7 1.2-2.4l-.1-.2c-.2-.1 0-.2 0-.5zm61.5 8.9c-.101-1.1 0-2.2 0-3.3.2-3.9.6-7.8.399-11.5-.1-1-.3-1.9-.5-2.9l-.3-.9-.3-1.3c-.3-1.3-.8-2.4-1.3-3.5l-.601-1c-.399-.7-.8-1.3-1.399-1.8-.101-.1-.3-.2-.5-.4-.3-.3-.7-.5-1.101-.9 0-.1.101-.2 0-.4-.399-.5-.8-1-1.1-1.6h-.5c0-.6-.1-1.2 0-1.8.1-.3.4-.6.6-.9.2-.2.7-2.7.4-4.4-.1-.6-1.2-2.2-2.1-3-.301-.3-1.4-.7-1.7-.8s-.5-.1-.7-.1c-.3-.1-1.1-.2-1.3-.1l-1.7.1c-.3 0-.5.1-.8.2-.601.2-1 .4-1.5.6-.3.2-2.2 1.3-2.101 1.6.101.3.301 1 .4 1.2.1.2-.2.5-.3.8-.2.6-.5 2.2-.5 2.6 0 .4.3.5.399.6.101.1.4.3.4.4.2.8-.9 2.1-.9 2.5 0 .4.5.4.9.4 0 .5 0 1.1.4 1.3-.101.1 0 .3 0 .5l.5.3c-.101 1.1.5 1.3 1.6 1.4.5 0 1.1-.1 1.6 0 .301.1.5.3.601.4.2.1.399.3.5.5-.2.6-.4 1.3-.8 1.9-.2.3-.301.5-.5.9-.101.1-.101.3-.101.5-.1.3-.399.6-.6.9-.5.9-1.101 1.8-1.601 2.8s-.899 1.9-1.5 2.9c-.199.4-.5.7-.5 1.1l.101.7c0 .5 0 1.2-.101 1.7l-.199.6-.196 1.2c-.2 1-.8 2-.8 3.3-.7-.1-.801.6-1.4.6l-.8-.3-.601.2c-.199 0-.399 0-.699.101-.4.099-.8.299-1.3.299-.2 0-.5 0-.7.1-.2.101-.2.301-.3.4-.4.1-.7 0-1.1 0-.3.1-.4.3-.6.3-.5.101-1.2-.2-1.6-.1l-.6.1h-.8c-.3 0-.6.101-.8 0-.3 0-.6-.2-.9-.399-.6-.301-1.1-.5-1.6-.9-.4-.3-.6-.5-1.2-.6-.2-.2-.2-.4-.3-.6-.4-.5-1.2-.6-1.8-.9-.6-.3-1-.7-1.4-1 .1-.6.6-1.1.5-1.8 0-.2-.2-.4-.3-.6s-.1-.5-.2-.7l-1.2-1.6-.5-1.3-.3-.3c-.2-.3-.3-.8-.4-1.2s-.3-.8-.5-1.1c-.3-.8-.5-1.6-.8-2.3l-1-2.2c-.4-.8-.7-1.5-1-2.2.2-.3.6-.3.9-.5.2-.2.2-.4.3-.7.4-.1.8-.1 1.1-.1.9 0 1.6.1 1.8-.6 0-.2-.1-.3 0-.5.1-.3.5-.2.7-.5.1-.2-.1-.3-.1-.5.2 0 .5 0 .6-.1.2-.3-.1-.9.2-1.1.4.1.9 0 1.1-.2 0-.7-.3-1.2-.6-1.7-.2-.3-.4-.6-.3-1s.5-.6.8-.8c-.4-.5-.3-1.6-.5-2.2-.2-.5-.6-.9-.9-1.3.5-.4 1.2-.8 1.2-1.7-.7.2-.9-.3-1.6-.3-.1 0-1-.1-4-.6l-5.1 1-.8.8c-.1.1-.2.4-.3.6-.3.5-.7 1.2-.7 1.8-.1.6 0 1.2 0 2h.1v.099l.1.6c.1.2.1 0 .3.1 0 .2.1.5.2.7.1.2.2.3.3.4.2.4.2.9.3 1.5 0 .2.1 0 .2 0-.1.6-.2 1.2-.7 1.4-.1.2-.3.2-.4.2-.1.3-.3.5-.4.7-.1.2-.3.5-.3.7-.5.4-.9.8-1.3 1.2l-1.5 1c-.7.5-1.3 1.2-1.7 2-.1.3-.3.5-.5.7l-.3.7c-.3.7-.6 1.6-.6 2.4 0 .4.1.8.1 1.3l.1 4.2c0 .8.2 1.6.3 2.3.1.8.3 1.5.4 2.2.1.9 0 1.9 0 2.9 0 2.1 0 3.899-.1 5.899-.2 3.9-.3 7.801-.7 11.4 1.3.4 2.9.6 4.3 1-.1 2 .2 4 .3 6 .1 1-.2 2.2-.3 3.4 0 .6-.1 1.1-.2 1.699-.3 2.5-.2 5.4-.4 7.9-.3 3.5.6 7.1.5 10.6 0 .601-.1 1.101 0 1.601.1.399.3.7.5 1.1.1.2.2.4.3.5.1.2.3.3.3.601.1.6-.2 1.399-.2 1.899-.1.5.1.9.2 1.4l.4 1.7c.1.5.4.899.3 1.5.3.199.8.199 1.2.199.4.101.9.2 1.3.2s.7-.399 1-.5c.4.101.9.5 1.3.7 1 .4 3.1.4 4.8.4 1 0 2.5 0 3.4-.4.5-.2 1.1-.5.5-.9-.3-.899-1.4-1-2.1-1.5.5-.1 1-.1 1.6-.1 1.4-.1 3.1-.2 4-1 0-.2-.2-.3-.3-.4-.1-.8-1.1-1-2-1.1-.6-.1-1.3-.1-1.8-.2s-1.2-.6-1.6-1l-.3-.2c-.1-.1-.1-.199-.2-.199-.2-.101-.4-.101-.5-.301-.1-.199-.1-.399-.1-.6-.1-.4-.4-.8-.6-1.2-.2-.399-.4-.8-.6-1.1.4-.101.8-.101 1.1-.2.5-.8.7-1.8.9-2.7.2-1 .4-2 .6-3.1.4-2 .7-4.2.9-6.3.3-2.2.5-4.4.6-6.601l.4-7.8c.1-1.3 0-2.6-.2-3.8.4-.2 1.2-.2 1.5-.601-.1-1.199-.3-2.5-.5-3.699l-.3-2.301c-.2-1.6-.5-3.3-.4-4.8 0-.6 0-.899.3-1.2.1-.1.3-.199.4-.399.1-.3 0-.5.2-.8.4.199.7.399 1 .6l2 1.2c.3.2.7.399 1.2.399.4-.6.6-1.5.9-2.199.2.1.3.199.5.1.3 0 .5-.4.7-.2 0 .3-.1.8.3.9.3 0 .4 0 .6-.101.1.301.1.5.5.5 0 .2-.1.301 0 .4.3.1.7.1.9-.1.3.3 1 .199 1-.301.2 0 .4 0 .6-.1.3-.1.4-.3.7-.3.2-.101.3-.3.5-.5l.5 1.3c.4 0 .8-.3 1.101-.4h.5c.199 0 .5-.3.899-.1l.3-.2c.2-.1.5 0 .7 0 0 1.5-.5 3-.6 4.601-.101 1.1 0 2.199.2 3.199.1.705.2 1.205.4 1.805.101.199.2.3.2.5l.1.8c.2 1.6.7 3.2 2.5 3.399.2 2.5.5 5.101 1 7.7.101.601.2 1.2.301 1.9l.599 5.801c.2 1.2.4 2.4.7 3.6.6 2.301 1.2 4.601 2 6.7.399 1.101.8 2.101 1.3 3.101.2.399.8.899 1.4 1 0 .199-.2.399-.301.6-.399.4-.5.5-.8 1l-.2.4c-.3.399-1.199.399-1.8.5l-1.1.1c-.8 0-1.5 0-1.7.6-.1.2-.1.4-.1.601-.101.1-.2.1-.2.3 0 .1-.101.3 0 .4.2.199.6.3.899.399l1.2.2c-.5.3-1.3.4-2.1.5-.2 0-.5 0-.7.1l-.6.5c-.098.099-.098.299-.098.499-.2.2-.3.4-.2.601.2.6 1.601.7 2.4.8 1.1.1 2.2.1 3.1 0 2.2-.1 4.101-.4 5.301-1.2.5.101 1 .3 1.5.5.8-.1 1.899-.2 2.699-.399.4-.101.7-.101.801-.301.199-.399-.2-1.1 0-1.699.399-.2.899-.2 1.199-.4 0-.5.101-1.1 0-1.7l-.199-.6s.199-.3.199-.5c.101-.3 0-.7 0-1.101-.1-.8-.3-1.199-.399-1.8-.2-.6-.4-1-.601-1.5-.199-.5-.199-.8-.699-1.1-.2-1.3.1-2.7-.2-4.101-.101-.399-.5-1-.5-1.399-.101-.7.1-1.4 0-2.2-.2-2.8-.2-5.9-.5-8.6-.101-.7-.2-1.5-.4-2.2-.1-.2-.2-.5-.2-.7s.101-.3.2-.5l.3-1.7.301-1.7c0-.199 0-.399.1-.6s.3-.4.4-.6c.398-.601.698-1.301.698-2.201.9-.2 1.9 0 2.9 0v-.5c.1-.7.1-1.5.1-2.2.4-.2.9-.2 1.2-.6-.399-2.601-.6-5.5-1-8.101-.8-.699-1-1.599-1.1-2.499zm34.8 34.1c-.1-1.7-.3-13.2-.4-13.9l-.5-.1c0-.2 0-.4-.1-.4-2.1 0-4 .1-5.9.2-.8-1.7-1.5-3.4-2.899-4.5 0-.5.1-.9.1-1.3l-.3-2.7c0-.5.2-1.101.4-1.601.399-1.6.8-3.199.399-5.1l.101-.2-.2-1.2c0-.3.1-.6.1-1v-1.199l.101-.601s-.102-.299-.102-.499.101-.3.101-.5v-1.1l.1-.601c.1-.699.2-1.199.2-2 0-.8.2-1.3.2-1.899 0-.5.1-1.2 0-1.7.199-.3.399-.6.699-.9.2-.3.5-.7.601-1l.2-1.1.3-.6c.1-.4.2-.9.1-1.3-.1-.5-.399-.9-.399-1.3 0-.2.1-.6 0-.9-.101-.9-.601-1.5-.9-2.4-.2-.7-.2-1.4-.3-2 0-.2-.101-.4-.2-.6-.1-.3-.1-.6-.1-.9s-.101-.7-.101-1c-.2-2.1-.5-4.1-.6-6-.101-1.4-.2-2.8-.4-4.1-.2-1.2-1.2-2.7-1.5-3-.3-.3-2-1-4-.9-2 0-4.1 1.1-4.2 1.2l-.699.7c-.101.1-.4.1-.5.3-.101.3-.301.5-.101.9-.5.5-.7 1.4-.6 2.5 0 .1 0 .1-.101.1l.2.5c.101.2.101.4.101.5 0 .6-1 1.7-1.101 1.9-.1.3.5.4.8.5 0 .3-.1.4-.1.6.1.2.2.2.3.3l-.3.4c0 .1.2.4.3.6.101.3-.1.7 0 .9.2.6 1 .2 1.601.4 0 0 .199.3.199.7l-.199.9c.1-.1.399-.5.5-.8l.3-.6c.3.2-.101.5-.101.7h.2c0 .1.101.2 0 .4-.1.3-.2.6-.2.5l.4-.6c.1-.2.1-.3.2-.3.1.2 0 .5-.101.7-.1.1-.199.2-.199.3 0 0 .3-.2.3-.1-.4.9-2 1.5-2.8 2.2l-.301.4c-.1.1-.3.2-.399.4 0 .3.3.5.5.7l.3.6v.3c0 .1.2 0 .1.2-.5 1-1.3 1.9-1.699 3l-.4 1.3c-.1.3-.3.5-.4.7-.1.2-.3.4-.399.7-.2 1 0 2-.101 3.2-.1.5-.199.9-.1 1.4.1 1.399.9 2.5 1.2 3.8.1.2.3.4.3.7s-.3.7-.4 1.1l-.199.7c-.2.4-.4.8-.7 1.1-.101.2-.3.4-.3.5.199.101.5.101.8.301 0 .6-.3.699-.5 1.1-.101.3-.101.7-.2 1.1.3.2.7.2 1 .5.2 0 .2-.1.3 0-.3 1.2-.6 2.301-.899 3.4-.2.9-.4 1.7-.9 2.3l-.4.7-.6.8s.1.601.1.8v1.7000000000000002l.5.601.5.699c.2.2.5.301.601.601.1.3 0 .7-.101 1-.199 2.3-.399 4.7-.6 6.899l-.1 1.2c-.101.2 0 .5 0 .7.3.1.6.2 1 .2.1 2.899 0 6.1.199 9.1 0 .8 0 1.4.5 1.7 1.2 0 2.601-.1 3.7-.1.2 1.399.2 2.899.3 4.399 0 .9 0 1.8-.199 2.7-.2.8-.4 1.5-.801 2-.399.6-1.199.9-1.8 1.3l-.899.601c-.301.199-.5.5-.9.699-.1-.399-.6-.1-.9-.1l-.1.4c-1.1.199-3.1.1-3.1 1.1 0 .1-.2.2-.101.3.601.601 1.8.7 2.8.9l-.1.399c.2.2.5.601.8.601.601.2 1.4.2 2.2.2 1.2 0 2.4 0 3.6-.101.601-.1 1-.1 1.4-.3.5-.2.8-.4 1.2-.6.899.699 3.2.6 4.1 0 .101-.5-.1-1 0-1.4l.101-.4c.1-.8-.2-1.6-.4-2.1-.1-.2-.1-.4-.1-.5l-.301-.3-.1-.7c-.1-1.4.2-2.5.6-3.4.2-.399.301-.899.4-1.3.5-1.7 1.2-3.3 1.7-4.899 3.1-.2 6.7-.2 9.7-.5.198-.3.098-.9.098-1.5zm-10.8-14c-.101-1.101.2-2.5.3-3.4.1-.1.5-.1.5-.3l.7.5.3.7.6 2.3c-.8.1-1.8.2-2.4.2z"/></svg>