<svg xmlns="http://www.w3.org/2000/svg" width="180" height="142"><style type="text/css"><![CDATA[
	.st0{fill:#137CBD;}
	.st1{fill-rule:evenodd;clip-rule:evenodd;fill:#FF934A;}
]]></style><g id="Layer_2"><path class="st1" d="M179.9 116h-.2v.2c-.2 0-.3 0-.4.1l.1.3c-.2.2-.7 1.1-1 1-.5-.2.1-.5 0-.8-.2-.2-.7-.3-.8-.6.1-.1.3-.2.4-.2v-.4l.1-.2-.1-.2v-.2l-.3-.4c0-.1 0-.2-.1-.2l-.2-.1c0 .1.1.2.1.2l-.4-.6c0-.1 0-.2-.1-.2l-.2-.3h.2c0 .2 0 .2.1.3.1-.1.3.1.4.1 0 .1 0 .1.1.1l.1-.1c0 .1.1.1.1.3v.1h-.1c.1.1.2.2.2.3h-.1l.1.2h-.1v.1s.1 0 .1.1v.1h.2v.1l.2.1c0-.1-.1-.2 0-.3.2.1.2.3.3.5.2.1.4.3.7.2l.5-.2.1.1c.1.2 0 .4 0 .5zm-2.6 1.7l.2-.2h.2c0 .1 0 .1.1.2v.1l.1.2-.5.6-.4.3.3.2c-.1 0-.1 0-.2.1l-.1-.1c-.2.1-.4.2-.5.3-.1 0-.1-.1-.2 0l.1.2v.3h-.3l.2.1-.2.6-.6.5c-.4 0-.6-.1-.9-.2v-.1h-.1c-.1.1-.3.1-.4-.1h.1v-.1h.1l-.1-.1c.1 0 .1 0 .2.1l-.1-.2c.1 0 .2.1.2 0 0 0-.1-.1-.1-.2l.4-.3v-.1l.5-.3.5-.3c0-.1 0-.1.1-.2l.3-.1c.1 0 .4-.3.4-.4v-.3c.1 0 .3-.1.3-.2l.1-.4.1-.2c0-.1 0 .1.2.3zm-88.7-58c-.1.1-.2.2-.3.2l-.1-.2h-.3c-.2-.3 0-.3.1-.5 0 .1.1.2.2.2 0-.1 0-.2.1-.3h.2c0 .2 0 .3-.1.4.1.1.2.1.2.2zm-1.1-1.3h-.7c0 .2-.1.2-.2.3l-.1-.1c0-.1.1-.2.2-.2h.4c.1 0 .2-.2.3-.3l.3-.1v-.1h.1c-.1.1-.1.2 0 .4-.3 0-.3 0-.3.1zm86.7-6.1l-.1.1c-.2.1-.5.1-.7 0 0-.1 0-.1-.1-.2h-.1v-.1c-.1.1-.2.1-.4.1 0-.1-.1-.1-.2-.1l.1.2s-.1 0-.1.1l.3.1.1-.1h.2c.1.2 0 .3.2.3.1 0 .2 0 .2-.1 0 0 0 .1-.1.1.1 0 .1 0 .2-.1l.1.4-.1.2c.2 0 .2.2.4.3v.2h.2c0 .5-.3.4-.7.3-.1 0-.3 0-.4-.1v-.1h-.2l-.1.2-.7.3c-.1 0-.2 0-.3.1l-.3.2h-.3c-.1.1-.1.2-.2.2h-.2c-.1.1-.2.3-.3.3l-.4.1-.1.2-.4.1c0 .1 0 .2-.1.2l-.1.1h-.1c-.2-.1-.2-.3-.3-.4-.2-.1-.9 0-1.1.1-.2.1-.4.3-.5.4l-.1-.1.1-.4h-.2l-.4.3v.2c-.1 0-.1 0-.2.1l-.2-.3c-.1.1-.2.1-.2.2-.2 0-.3.2-.4.3l.1.2c-.1.1-.2.1-.2.2l.1.1c-.2.3-.5.3-.6.8.2.1.4.1.7.2v.1c-.1.2-.3.2-.3.4l.1.3h.2c0 .1.1.2 0 .3 0 .1-.2.2-.2.1 0 0-.1 0-.1-.1l.1-.2h-.1c-.2.1-.6.6-.4 1 0 .1.1.1.2.2-.2.4-.3.1-.7.2-.2 0-.5.3-.5.6l.1.1v.1c-.3.1-.5.2-.7.3v.4c-.1.2-.6.8-.9.8l-.2-.6v-.3c-.1-.1-.1-.2-.2-.4l-.2-.9c-.1-.4-.2-.8-.1-1.2v-.3l.5-.5.2-.3c0-.1 0-.1-.1-.2.5-.1 1-.4 1.3-.8l.2-.3.9-.7c.1-.1.1-.2.1-.3.2-.2.6-.2.8-.3 0 0 .2-.4.3-.4l-.1-.1.2-.3v-.3c.2-.1.4-.1.6-.1l-.1-.1-.5-.1-.6.2-.1.6c-.1 0-.2.1-.2.1-.3.2-.8.8-1.1.7l.1-.3h-.2v-.1c.1-.2.3-.3.2-.5-.2 0-.3.1-.5.2-.1-.4-1.2 0-1.4.1v.2c-.1 0-.3.2-.3.3v.2c-.2.1-1.1.5-.9.9.1.1.3.1.4.1 0 0 0 .1.1.1l-.5.1c-.2 0-.4-.1-.5-.1l-.2.2-.1-.1c-.2.1-.4.3-.6.1l.4-.2c-.1-.2-.3-.3-.6-.3-.1 0-.1 0-.2.1-.1-.1-.2-.1-.2-.2-.2 0-.4 0-.5.1v.2l-.1.1-.3-.1h-.4c-.2 0-.4-.1-.5 0 0 .1 0 .1-.1.2-.3 0-.2-.1-.3-.3-.4 0-1.1 0-1.4.1-.2.1-.4.2-.5.4l-.1.2-.4.2c-.1.1-.2.3-.2.4l-.6.4-.9.8-.3.3c-.2.2-.8.3-.8.7l.1.1h.7l-.1.5c.2 0 .3-.2.5-.1 0 .1-.1.1-.1.1v.1c.3 0 .6 0 .7-.2v-.2l.7.1c.2.1.4.5.7.6l-.1.2s.1 0 .1.1 0 .2-.1.3c.1 0 .1 0 .2.1-.2.3-.4.6-.5 1l.1.3-.2 1.1-.5.5-.1.3-.3.3-.2.4-.7.8c-.2.2-.2.3-.5.5-.2.1-.2.3-.3.4-.2.2-.4.3-.7.4l-.4.1s0-.1-.1-.1c-.2-.1-.2 0-.3-.2l-.3.1.1-.1h-.1c-.1 0-.9.9-1 1 0 .1 0 .5-.1.6h-.2l-.3.3c-.2.2-.4 0-.6.4 0 .1-.1.1 0 .2l.4.3c.2.2.4.5.5.8l.1.9h.1c-.1.2-.1.4-.3.5h-.2c-.1 0-.1.1-.2.2l-.2-.1c-.2 0-.3.2-.5.3-.1 0-.1 0-.2.1 0-.2-.1-.4-.1-.5l.2-.5-.1-.2v-.2h-.2l.2-.1c.1 0 .1 0 .2.1 0-.2-.2-.4-.3-.5l-.2.1c0-.1-.1-.2-.2-.2l-.2.2c0-.2-.2-.3-.3-.4.1-.2.2-.2.3-.3l-.1-.1.1-.4c-.1-.2-.4 0-.6-.3l-.4.1c-.2.1-.5.2-.7.4-.1.1-.2.3-.4.2l.3-.3h-.2v-.1c.2-.2.3-.3.4-.5 0-.2-.3-.3-.6-.3l-.4.5c-.1.1-.3.1-.4.1l-.2.4h-.2c-.1 0-.1.1-.1.1l-.1-.2h-.1c-.1.1-.2.3-.2.4l.1.2c.1.2.5.1.7.2 0 .2-.1.4 0 .5h.3c.2-.1.3-.4.6-.4.1 0 .2.2.4.2h.5l-.1.3c-.3-.1-.7 0-.9.2v.2h-.1s0-.1-.1-.1h-.1l-.4.8c.2.1.5.3.6.5l.1.3.2.2v.3l.2.1.1.2c.1.1.2.1.2.2v.1l-.2.1c.1.1.2.2.2.4-.2.1-.7.2-.8.4.2.1.3-.1.6-.1.1.1.1.2.3.2l-.2.2h.1c0 .1-.2.6-.3.7 0 0-.1 0-.1-.1-.1.2-.4.8-.5.8-.1 0-.2 0-.2.1s.1.4 0 .6l-.2.1-.1.3s-.2.2-.3.2c-.1 0-.2-.1-.2 0v.3l-.2.2c-.2.1-.4.1-.5.3v.2c-.2 0-.3 0-.3.2-.1 0-.2-.1-.2-.1-.1.1-.2.2-.4.2v-.1c-.4 0-.3.2-.5-.1 0 .2 0 .3-.2.4h-.1c0 .1 0 .1-.1.2-.1 0-.2 0-.3.1h-.2c-.1 0-.1.1-.1.1h-.2l-.3.1h-.1l-.1.2.2.2v.1l-.3.1-.2-.3c0-.2.1-.2.1-.3h-.1l-.1.1c-.2 0-.3-.1-.4-.2 0 .1 0 .1-.1.1h-.2c-.1.1-.2.1-.2.2s0 .1-.1.2h-.3c0 .3-.3.3-.4.5-.1.1-.2.4-.2.6l.4.4.1.3.3.2c.1.1.2.2.3.4l.2.1c0 .1 0 .2.1.3.1.1.2.2.2.3.1.4.2.8.3 1.1l-.1.2v.5c-.1.3-.4.2-.5.4-.2.2-.3.4-.6.1 0 .2 0 .5-.1.6h-.1s-.1.1-.1.2c-.1 0-.2.1-.2.1-.2.1-.1.3-.4.3 0-.2 0-.6.1-.7 0-.1 0-.1-.1-.1l-.4-.2h-.4c.1-.1.1-.1 0-.3-.1 0-.1.1-.3.1l-.2-.6c-.1 0-.1 0-.2-.1l-.2-.2c-.1-.1-.2 0-.3 0l-.2-.1v-.4c-.3 0-.4 0-.5.1.1.2 0 .2 0 .4v.3c-.1.3-.6 1-.3 1.5h.3c0 .1 0 .3.1.4h.1c.1.5 0 .9.7.9.1.1.2.3.3.3h.1l.3.4.2.2v1c0 .2.2.2.2.3l.2.4h-.4c-.2-.2-.4-.3-.6-.4-.1-.1-.2-.1-.4-.2l-.2-.4-.2-.2c-.1-.1 0-.2 0-.3 0-.1-.1-.2-.1-.2-.1-.3-.1-.5-.1-.8-.1 0-.2.1-.2 0h-.1c0-.2 0-.2-.1-.3h-.1c-.1-.2-.2-.3-.4-.5 0 0-.1 0-.1.1-.1-.3.1-.7.2-1 0 0-.1 0-.1-.1-.1-.1.1-.6.2-.7h-.1c0-.2.1-.5 0-.8l-.4-.8c0-.3-.1-.6-.1-1-.2-.1-.2-.4-.3-.5-.1.5-.2.4-.5.6-.1.1-.1.3-.3.2v-.1c-.1 0-.1 0-.1.1l-.1-.1v-.1l-.3.1s-.1 0-.1-.1l.2-.6c0-.4-.1-.8-.3-1 0 0 0 .1-.1.1l-.2-.1h.2c0-.1-.1-.3-.2-.4h-.2v-.1h-.1c-.4-.1-.3-1-.6-1.2-.1 0-.1.1-.3.1l-.2-.2v.1l.1.3c-.1 0-.1 0-.2.2h-.1l-.1-.2c0 .1 0 .2-.1.2h-.1v-.1s0 .1-.1.1c0 0-.1 0-.1-.1v.1h-.2c0-.1 0-.2-.1-.2l-.1.2h-.1c0-.1 0-.1-.1-.2l-.2.2-.5.2c0 .1 0 .2.1.2-.1.2-.2.4-.4.5l-.5.2-.5.6c-.1.1-.1.1-.2.1l-.3.3-.3.2-.2.4-.4.1c0 .1-.1.2-.2.3-.1-.1-.2 0-.3 0 0 .1-.1.2-.1.2v.8c.3.3-.1.8-.2 1.2 0 .2.1.4 0 .6h-.3l-.1.4.1.1-.4.1-.1.3c-.1.1-.3.2-.4.2l-.3-.3-.2-.6-.4-.9-.2-.3-.1-.4c-.1-.3-.2-.6-.3-.8-.2-.4-.4-.7-.5-1.2l-.2-1.1-.1-.8.2-.3-.2-.3c0-.1-.1-.4 0-.5h-.2v.2c.2.3-.2.4-.4.5l-.2.1c-.2 0-.9-.7-1-.9.3-.1.4.1.6-.1.1-.1.1-.1.1-.2-.4.1-.9-.1-1-.3l-.2-.2-.3-.1c0-.1-.1-.2-.1-.4-.1 0-.2 0-.2-.1 0-.2 0-.3-.1-.4-.2 0-1.1.3-1.2 0-.2 0-.2.1-.3.1h-.5l-.6.1-.4-.1h-.8l-.1-.1h-.4l-.3-.1c0-.2-.1-.2-.2-.4 0-.1 0-.2-.1-.3-.1 0-.1 0-.2-.1-.2-.1-.4 0-.6.1l-.3.3c-.2 0-.2-.1-.3-.2l-.6-.2c-.1-.1-.2-.2-.2-.3-.2-.1-.4-.1-.5-.3-.1-.1-.3-.4-.3-.6v-.2c-.1-.1-.2-.2-.3-.4-.1.1-.4.1-.4-.1v-.2l-.2.3c-.1 0-.4 0-.4.1v.2h-.1l-.1.1h.30000000000000004c.1.3.2.6.4 1h.2v.1c.1.2.3.2.4.3 0 .1 0 .1-.1.1 0 0 0 .1.1.1-.1.2 0 .2 0 .4.1 0 .1 0 .1.1 0 .2.1.4.2.5.1 0 .1 0 .1-.2-.1-.2 0-.6.1-.7h.1c0 .1.1.1.1.1v.5c0 .2-.2.2-.1.4.1 0 .1 0 .1.1h.4l.1-.1c.1.1.7.1.8 0v-.1h.2c0-.1.1-.1.1-.1 0-.1.1-.2.1-.2.2-.2.4-.3.5-.5.1-.1.2-.2.2-.3 0 .2 0 .3-.1.4h.1v.4c0 .2.2.3.4.4l.5.3h.3l.3.4c.1.1.3.1.3.2-.1.2-.2.3-.3.4-.1.1-.2.1-.2.2l-.2.4h-.3c-.1.2 0 .5 0 .7-.3 0-.5.1-.6.3 0 .1 0 .2-.1.2l-.5.1c-.2.1-.1.3-.2.4l-.1.1h-.4l-.6.2-.4.3-.1.3c-.4.2-.9.2-1.4.5-.1.1-.1.2-.3.3-.1.1-.3 0-.4 0l-.6.3h-.5c-.1.1-.2.2-.3.2-.3.2-.8.3-1-.1v-.4l-.3-.9c0-.1 0-.2.1-.2 0-.1 0-.2-.1-.4s-.3-.5-.4-.6l-.2-.1c-.2-.3-.3-.6-.5-1l-.5-.4-.3-.4-.1-.8-.3-.6-.6-.4c.1-.3-.1-.5-.3-.7l-.5-.8c-.1-.1-.2-.2-.2-.3h-.2c0-.2.1-.5.2-.7 0 0-.1 0-.1-.1l-.4-1c.2-.1.2-.4.3-.6v-.2c.2-.3.3-.8.5-1l-.1-.6.1-.3-.1-.2c.1-.1.2-.1.2-.2v-.1s0-.1-.1-.1l-.2.2-.5-.1c-.1.1-.2.1-.3.3-.1 0-.4.1-.7.1-.2 0-.2-.2-.4-.3-.2-.1-.4-.2-.7-.1l-.1.4h-.1c-.1-.1-.3 0-.5 0l-.1-.3-.1.1c-.1 0-.1-.1-.3-.1l-.1.1v-.1c0-.1 0-.1.1-.1h-.4v-.1s.1 0 .1-.1l-.2-.1v-.3l-.4-.1v-.1s0-.1.1-.1l.2.1v-.1l-.1-.1c.1 0 .1 0 .2-.1h-.1v-.1s0-.1-.1-.1l.1-.1s.1 0 .1-.1c-.2 0-.3 0-.5.1 0-.1 0-.2.1-.3.1 0 .1 0 .1-.1.1-.1.3-.2.4-.2 0 .1.2.1.3.1h.1l-.1.1h.5v-.1c.2 0 .4 0 .5-.1h-.3l-.1-.2s0-.1.1-.1h.6c.2 0 .3.2.6 0v-.1l.9-.4c.4-.1.6.1 1-.1l.2.3c.1 0 .3-.1.3 0l.2.3c.2-.1.3.1.5.1l.7.1.3-.1.6.1c.4-.1.7-.3.6-.8l-.1-.3c-.1-.2-.5-.2-.7-.4v-.1l-.3-.2-.5-.4c-.1 0-.2 0-.2-.1-.1 0-.1-.1-.2-.2h-.2l-.3-.3c.1 0 .3 0 .4-.1 0-.2.1-.3.2-.4.1 0 .2 0 .2-.1l-.3-.3v-.1c.3 0 .6-.1.7-.3 0 0 0-.1-.1-.1l-.5.1h-.4l-.1.1c-.2 0-.4.1-.7.1l-.2.1h-.1s-.1 0-.1-.1c0 .1-.1.2-.1.2h-.5c.2.1.5.3.6.5.2 0 .3-.1.4-.1h.3l-.1.2h-.2c-.1 0-.1-.1-.2 0l-.2.1h-.3c-.3.1-.1.2-.6.2.2-.5-.1-.4-.4-.5l.6-.3s0-.1-.1-.1c-.3 0-.6.1-.8-.2l.1-.1-.1-.1v.1c-.7 0-.5.3-.9.5-.1.1-.3.1-.3.2l.1.1-.1.3c-.4 0-.4.3-.5.7v.2s-.2 0-.2.1-.1.2-.1.4l-.2.1v.1c.2 0 .3.4.5.5l.4.2-.1.2c-.3 0-.2-.1-.5 0h-.3l-.1.2-.3.1c-.1.1-.1.2-.2.2v-.2l.2-.1c-.1 0-.2 0-.3-.1l-.5-.2c-.1 0-.1.1-.3.1 0-.1 0-.1-.1-.1-.2.2-.1.1-.4.1.1.2.2.2.3.3l-.1-.1c0-.1-.1-.1-.1-.1h-.1l.1.2h-.1c0-.1-.1-.2-.3-.2 0 .1.1.1.2.2h-.2c0-.2-.2-.2-.3-.3h.1c0 .1-.1.1-.1.1l.1.1s-.1.1-.1.2c.1.2.3.4.4.5v0h-.1c0 .1 0 .1.1.2l-.2.1c.1 0 .7.3.7.4 0 .1 0 .1.1.2l-.1.1c0-.1-.1-.2-.2-.2s-.2.1-.2.1c-1.9.4-1.9.4-1.8.5h.1v.1c-.1 0-.1 0-.1.1h-.1v-.1c-.1 0-.1 0-.2-.1v.1c.1.2.2.3.2.5-.1 0-.1-.1-.2 0 0 0 0 .1-.1.1 0-.1-.1-.3-.2-.2l-.1.1-.1-.1v-.3c-.1-.1-.1-.2-.2-.2l.1-.2.3-.1c.2 0 .4.3.6.1-.2 0-.3-.1-.4-.2-.2-.1-.4 0-.6 0l-.2-.3c.1 0 .1 0 .2-.1-.2 0-.4-.1-.5-.3v-.2c-.1-.1-.3-.1-.3-.3h.1c0-.1 0-.1-.1-.2l.1-.2v-.4c.1 0 .1 0 .1-.1l-.2-.1-.2-.2c-.2-.2-.5-.3-.7-.4l-.2-.2-.3-.1c-.1 0-.1.1-.2 0-.1-.2-.3-.3-.5-.5h.2c-.5-.1-.2-.5-.6-.7 0 .1-.1.2-.1.2-.1 0-.1.1-.1.1l-.2-.4c.1 0 .1 0 .1-.1 0 0 0-.1-.1-.1h-.3v.1c-.2 0-.4.1-.4.1v.1h.1c0 .1 0 .1.1.2 0 .1-.1.1-.1.1.1.4.2.4.5.6.1 0 .2.1.2.1.1.1.1.3.1.4.1.2.3.4.4.5.2.2.6 0 .7.1v.1l-.2.1.1.1c.5.1 1 .4 1.3.8 0 .1-.1.2-.1.2l-.2-.1v-.1c-.1-.1-.4 0-.4-.2-.2 0-.3.3-.3.5l.3.2v.2l-.1.1c-.2 0-.2 0-.3.1v.2c-.1 0-.2.2-.3.3h-.2v-.1c.1-.1.1-.1.1-.2l.1-.1h.1c0-.1-.2-.8-.3-.8h-.1c-.1 0-.2-.1-.2-.1v-.2l-.1-.1c-.1 0-.1 0-.2.1h.1s0-.1-.1-.1h-.2c-.1-.4-.3-.3-.6-.4l-.9-.7-.7-1.1c-.3-.1-.5-.1-.8 0l-.1.1c-.1 0-.2 0-.2.1-.3.2-.4.4-.8.5-.2 0-.3-.2-.4-.2h-.2c-.3 0-.3-.2-.6 0-.4.3 0 .5-.2.9-.1.1-.4.1-.5.3 0 0 0 .1-.1.1-.2.1-.5 0-.7.3l.1.1c-.2.1-.6.5-.6.8l.1.3.2.1c-.2.1-.5.3-.5.6v.1c-.2 0-.4 0-.5.2l-.2.3-.1-.1-.2.1h-.9l-.2.1c-.2.1-.3 0-.3.2v0c-.2.1-.4-.1-.4-.3h-.1c0-.2-.2-.4-.5-.3-.1 0-.2.1-.2.1h-.2c-.2 0-.3 0-.4.1l.1-.3v-.3c0-.1 0-.2.1-.3h-.2v-.1c.1 0 .1 0 .2-.1v-.1c0 .1-.1.1-.1.1-.1 0-.1 0-.1-.1s.1-.2.1-.4c.3-.2.4-1.1.2-1.5 0-.1.1-.4.1-.4 0-.1-.1-.2-.3-.3v-.1c.1-.1.2-.2.3-.2h.1c0-.1 0-.1.1-.2.2-.1.4 0 .6.1l.5-.1s.5.1.6.1c.3 0 .8.1.9-.1.2.1.4.2.7.1.1-.2.2-.5.2-.7h.1v-.1h-.1c0-.2 0-.4.1-.5l.2.2c0-.2-.1-.2-.2-.4 0-.1.1-.2.1-.2-.1-.3-.1-.1-.3-.3l-.2-.3s0-.1.1-.1l-.3-.2s0-.1.1-.1h-.2c-.2-.2-.5-.2-.8-.2v-.1l-.2-.1h.1c.1 0 .1 0 .1-.1h-.2v-.1c.2 0 .3-.1.4-.1h.2v-.1h.2l.1.2.5-.1v.1h.2c-.1-.1 0-.2 0-.3-.1-.1-.2-.2-.2-.3h.4v.2c.3-.1.5.1.8-.1h-.1v-.1c.1-.2.4-.1.6-.3.2-.1.1-.4.2-.6.1 0 .2-.1.2-.1h.2l.3-.2h.4c0-.1-.1-.1-.1-.1l.4-.3.2-.5h.2c.1 0 .1.1.1.1v.1h-.1v.2c.1 0 .2.1.3 0 .1-.1.1-.1.1-.2h-.1v-.1h-.1v-.3c.2-.1.5-.2.7-.1 0 .1.1.1.1.1s-.1 0-.1-.1v-.1c.1-.1.3-.1.5-.1v.1c.1 0 .1 0 .2.1-.1-.1 0-.1 0-.2h.3s-.1 0-.1-.1v-.1h.1l-.1-.1.1-.1h-.2c.1 0 .1 0 .2-.1 0-.1-.1-.2-.2-.3v-.4c-.1 0-.1 0-.1-.1v.1h-.1l.1-.2c0-.2-.2-.3 0-.5.1 0 .2.1.2.1l.2-.2c0 .1 0 .1.1.2h.1v-.3h.4c0 .1 0 .2.1.3h.3c.1 0 0 .2-.1.3h-.1s0-.1-.1-.1c0 0-.1 0-.1.1.1.2-.1.2-.1.3h-.1v.1c-.1.1-.1.2-.2.4.1 0 .3.2.2.4.1 0 .1 0 .1.1h.5v.1l-.2.2h.2v.1h.1c.1-.1.7-.4.8-.3.1.2.2.1.4.2v.2c.1 0 .2.1.4.1v-.3c.6 0 1-.3 1.5-.5.1 0 .5-.1.5 0l.1.2c.3.1.5-.1.7-.2v-.3c.2 0 .5.1.6 0v-.2h.1c-.1-.1-.2-.8-.1-1l.2-.1v-.2l.2-.2.5-.1v.1c.1.1.2.1.2.2l.1.2c.2.2.5.1.6-.1-.1-.3 0-.5.1-.8h-.1l-.1.1-.2-.1v-.3h-.1c0-.1 0-.2-.1-.3.1 0 .1 0 0-.1.2 0 .3-.1.5-.2h.2v-.1c.1 0 .2 0 .3.1l.1-.1c.1.1.2 0 .4 0l.8.1c.1 0 .2-.1.2-.1l-.1-.2v-.1h.1s.1.1.1 0v-.1h.2c.1-.1.1-.2.2-.2s.2.1.4.1c0 0 .1 0 .1-.1-.3-.5-.6 0-.9-.4 0-.1.1-.2 0-.2v.1c-.2 0-.4.1-.5.2 0 0-.1 0-.1-.1-.1 0-.1 0-.1.1-.1 0-.1 0-.2-.1v-.1c0 .1 0 .1-.1.2l-.3.1-.1-.1c0 .1-.2.1-.3.2-.1 0-.2.1-.3.2h-.2c-.1 0-.3.2-.4.1-.1 0-.1-.1-.1-.2 0 0 0-.1.1-.1-.1 0-.2 0-.3.1v-.1c-.1 0-.2 0-.3-.1-.2-.1-.3-.3-.2-.7v-.2l-.2-.3c0-.1.1-.2.1-.4 0 0-.1-.1-.2-.1.1-.2.1-.3.3-.4v-.1h.3c.3-.1.1-.3.3-.5 0 0 0 .1.1.1h.1c.1-.2.9-1 1.1-1h.2v-.1l-.1-.1c0-.1.1-.2 0-.3 0 0 0-.1-.1-.1-.3 0-.3-.1-.5-.2-.1 0-.5.1-.5.1l-.3-.2-.4.4c-.1.1-.2 0-.3.2l.1.2c0 .1-.2.2-.3.2l.2.2c-.9-.1-.9.1-1 .2-.2.1-.4.2-.5.4l-.1-.1c-.1.1-.1.2-.2.2-.2.1-.3.1-.4.3h-.2v.2l-.1.1c-.1 0-.1 0-.2-.1 0 .3.1.3 0 .6h-.1c0 .2.1.6 0 .7.1 0 .2.1.2.1h.1c.1.2.2.3.4.4 0 .1.1.1.1.3h-.1c0 .1-.4.3-.5.3-.1-.1-.6-.2-.6-.1v.1c.2-.1.3.1.5.2.2 0 .3-.2.5-.1v-.1h.1v.1h-.1v.1c-.1 0-.2.1-.2.2h-.1v-.2c-.2.1 0 .3-.3.3v.1h-.3c0 .1.3.4.1.6h-.1v.1h.1v.2l-.1.2v.2l-.3.6-.1-.1h-.4v.1h-.1c-.1 0-.1.1-.2.2 0 .1.1.1 0 .2l-.1.1c-.2-.1-.4.1-.7 0l.1-.2c-.1-.1-.2-.2-.3-.4 0 0 .1 0 .1-.1v-.1h.1v-.1c-.2-.2-.3-.3-.4-.6h-.1c0-.2-.1-.3-.1-.4l.1-.3h-.2v-.1h-.1c0-.1 0-.4-.1-.4l.1-.2c-.2.1-.2 0-.3-.2v-.2s-.1 0-.1.1c0 .2 0 .3-.1.4-.1.1-.2 0-.2 0-.1 0-.1.1-.2.2l-.6.5c-.1.1-.5.1-.6.1 0-.1 0-.1-.1-.1l-.1.1h-.1l.1-.1c-.2 0-.3-.1-.5-.2l-.1-.2c0-.1.1-.1 0-.2h.1v.1c0-.1.1 0 .2 0 0 0 0-.1.1-.1h-.2v-.1l.2-.1h-.2c0-.1.1-.1.1-.1l-.1.1c0-.1 0-.1-.1-.1v.1h-.2v0h-.1v-.2l.1-.2v0h.1c.1 0 .2 0 .2-.1l-.2.1s-.1 0-.1-.1v-.1c.1 0 .1-.1.1-.2-.2 0-.3.1-.4-.1.1-.1.2-.1.2-.2l-.1-.1h-.2v-.1c0-.1.1-.2.2-.2-.1 0-.1-.1-.2-.2l.1-.4h.3l-.2-.1v-.1c.2-.1.3-.2.4-.1l.2-.2c.2 0 .4.1.5 0-.1 0-.2-.1-.3-.2l.1-.1c.2 0 .4 0 .6.1 0-.2.3-.5.4-.4 0 0 .1 0 .1.1l.3-.3v-.2c.1-.2.4-.4.5-.5.1 0 .2.1.3 0v-.1c.1-.1.2-.3.4-.4h.2v-.2h-.1c.1-.2.1-.4.4-.4v-.2h.2c0-.2-.1-.2-.1-.3l.1-.2h.3l-.1-.2.5-.2c-.1 0-.1 0-.1-.1.1 0 .1-.1.2-.2.1 0 .2 0 .2.1 0-.1.1-.1.2-.1v-.1c-.1 0-.1-.1-.1-.1l.2-.2c0 .1.1.1.2.2l.1-.1c0-.1 0-.2-.1-.2.1 0 .2 0 .3-.1l-.1-.1.1-.1.3-.3c.2-.2.3.1.4-.4l.1.1c.2-.1.3 0 .5.1.1-.1.2-.5.3-.5v.1l-.1.3c.1-.1.2-.2.3-.4.2 0 .3-.1.4-.2l.2.2c.2-.6.3-.3.7-.1 0-.2.2-.4.3-.5h.2c.3-.2.3-.4.8-.4-.2.2-.4.3-.4.7h.1c.1-.3.4-.6.7-.8v.5c.2-.1.4-.3.4-.5.1 0 .3-.1.4 0-.1.2-.2.3-.2.5h.2c0-.2.1-.4.3-.5l.5.3h.3l.1.1v.1c-.2.2-.6.2-1 .2l.5.4c.3 0 .4-.1.6 0 .1 0 .2 0 .2-.1l.3-.2c0 .4.3.4.6.5v.2l.2-.1c.3 0 .6 0 1 .1l.6.2c.1 0 .2.1.4.1.2.2.4.4.6.5.2.1.4.1.7.2l.6.3c0 .2 0 .3.1.4 0 .3-.2.5-.4.6-.9.7-2.3 0-3.2-.2-.1 0-.2 0-.4-.1s-.2-.4-.6-.2l.6.6.5.2c.2.2.1.5-.1.5 0 .1.3.9.4.9l.5.1c0 .1.1.2.1.2l.4.1c.3.1.7.1.5-.4h-.3c-.1 0-.3-.3-.3-.4.1-.1.1-.2.3-.2.3.2.7.4 1.1.5h.4c.1 0 .1 0 .2.1.2-.3-.2-.5-.2-.8.3-.4.9-.3 1.2-.8.4 0 .7.3 1 .3v-.2c.1-.3.2-.3.1-.7-.1 0-.2-.1-.3-.2l.3-.4c.1-.3-.2-.3-.2-.6.1 0 .2 0 .4.1h.5c.2 0 .4.5.5.7-.4 0-.8 0-.9.4.4.3.5.6 1.1.4.1 0 .2 0 .3-.1.2-.1.1-.5.2-.6l.3-.1c.4-.1.8-.3 1.2-.5l.7-.3c0 .1 0 .1.1.2.4-.1.1-.4.7-.4v.4h-.2v.2c.3.1.3 0 .7 0 0 .1 0 .1.1.1.1-.1.1-.3.3-.4.1-.1.5-.1.6-.1.1 0 .2.1.4.1l.2-.2c.3-.2.5-.2.8-.1l-.2.2c0 .1.2.2.4.2l.1-.3c.3 0 .5 0 .5-.4l-.3-.4c.1-.1.2-.2.3-.2.3-.1.9.1 1.1.2 1 .3 1.9.6 2.6 1.2h.1c.1-.1.3-.4.3-.5-.3 0-.4 0-.5-.3v-.3c-.2-.2-.5-.1-.6-.3.1-.4.5-.2.3-.9h-.3c-.1-.5.6-.6.8-.9l.3-.4c0-.2.1-.4.1-.5l.1-.2c.1 0 .3.1.5.1.3 0 .6-.1.8-.1.2 0 .3-.1.4 0 .3.4-.4 1-.5 1.3.2.1.6.6.5.9-.1.1-.1.2-.2.2v1.1c.1.4.3.3.4.5l-.1.3-.1.3c-.1.2-.3.4-.5.5-.1.1-.3.1-.4.3 0 .1 0 .1.1.2-.1 0-.2.1-.4.1l-.2-.1c-.2-.1-.5-.1-.7 0 .1.3.5.3.9.4h.3c.1 0 .3.1.5 0 .1-.3.5-.3.7-.5.1-.1.1-.2.2-.4l.2-.1.2-.3c0-.3-.1-.4-.2-.6.1-.5 1.2-.5 1.4-.1.1.2-.1.7 0 .7.1.2.6.2.8.1v-.1c-.1-.1-.3-.1-.5-.2v-.2c.1 0 .2-.1.2-.2l-.1-.3c0-.1-.1-.3-.2-.4h-.2c-.2-.1-.5-.3-.7-.2l-.3.1h-.5l-.1-.6.3-.8c0-.3-.4-.6-.5-.8.1-.3.5-.2.7-.4.2-.2.2-.5.2-.8l.3.1v.4c-.1.2-.3.4-.2.7.2.3.7.3 1 .3h.2l.2.2h.3l-.2-.5c-.5 0-.7-.1-.9-.3 0-.1 0-.1.1-.2h.3c.2.1.2.1.5 0v-.3c.8-.4 1.3.4 1.8.6.2.1.5 0 .6-.1v.2l-.3.3-.1.7h.1c0-.1.1-.3.2-.4h.1c.1.2.2.2.1.5l.3-.2c0-.3-.2-.5-.3-.7.1-.2.1-.3.2-.4l-.2-.2c-.2-.1-.4-.1-.5-.4-.2 0-.7-.2-.7-.3v-.4c0-.1-.3-.3-.1-.4.1-.1 1.3-.2 1.6-.2l.5-.1.2.2c.3-.2.6-.4.9-.2-.2.1-.2.2-.3.3.3 0 .7-.2.8-.5 0-.1 0-.1-.1-.2l-.3-.2-.1-.1c0-.1 0-.3.1-.4l1.2-.7.6-.1c.5-.1 1.1-.1 1.6-.3.4-.1.4-.3 1-.3.1 0 .3 0 .3.1l-.1.2c.1 0 .3 0 .4.1.3-.1.6-.1.8-.2l.5.1.2-.1c0-.2 0-.3.1-.4h.4l.3-.2c-.1-.1-.2-.2-.1-.4.1-.1.2-.1.2-.2.4-.3 1.4-.7 2-.3v.1l-.5.3c.2.1.3 0 .5 0 .3 0 .5.1.8 0l-.4.5h.7l.1-.1.1-.1c.9 0 2.1-.1 2.3.6h.4c0 .1.1.2.1.2l-.3.4.3.2-.5.4-.6.2-1.6 1-.6.2c-.4.2-.7.4-1 .8.4 0 .4-.2.6-.3l.6-.1c.3-.1 1.2-.2 1.4-.4v-.2c-.1 0-.1 0-.1-.1s.1-.2.2-.2l.6.4c.3.1.5-.2.7-.1 0 .1 0 .3.1.4l.1.2.1-.1.3-.3c.3 0 .6-.1.8-.1.5 0 1 .1 1.4.1 0 .2-.1.3 0 .5l1 .2c.3 0 .6-.1.8-.1.2 0 .3.2.4.1l.3-.4-.1-.3c.1-.1.3-.2.4-.2.3-.1.6.3.8.3h1l.4.3v.2c-.3 0-1.1.4-1.2.6.7 0 .6.2 1 .4.1 0 .1 0 .2.1l.5.6c.2.2.5.5.8.4.3-.3.4-.8.8-1.1h.1c0 .2.2.3.4.4.1 0 .3.2.5.1l.9-.3c.2 0 .8.4.8.4.2 0 .2-.3.2-.4.1 0 .1-.1.3-.1.1.1.3.3.5.2v-.8c-.1 0-.4.1-.4 0l.1-.1.5-.1c.2 0 .4-.2.5-.3.5 0 1.2.2 1.7.3h.5c-.1.1-.2.2-.4.3h.5l-.1.1c-.2.1-.4.1-.4.3.5 0 .8-.4 1.1-.6.6 0 1.1 0 1.4.3-.2.1-.3.2-.5.2l.5.2c.3.1.6.1.8.2.2.1.3.5.5.5l.8-.1.7-.2c.3-.1 1.5 0 1.7.1.2.1.5.3.6.5l-.1.4c.1.1.4.1.6.2 0 .2 0 .3.1.4l.5-.4h.5c.1 0 .2-.1.4-.1.3-.1.3.2.5.2h.4c.5.1.7-.1 1-.2l.4.4c.3.2.4.1.5.4.2 0 .8 0 .9-.2.1-.2-.1-.4-.2-.6-.1 0-.1 0-.2-.1l.2-.4c.4 0 .9.1 1.3.2v.1l1.3-.1c.2 0 .4.1.5.2.2 0 .4.1.5.1.4.1.8.3 1.1.5v3.4c.6 1 .5 1 .3 1.1zm-78.3 16.4c-.1 0-.1-.1 0 0h0zm14.2 0l-.1-.4h-.5c0 .1 0 .4-.1.5l-.1-.2v-.1h-.1v-.2c0-.1.1-.2.2-.4-.1-.1-.3-.1-.4-.1 0-.1-.1-.2-.2-.2h-.2c0-.3-.2-.4-.2-.6-.1 0-.3 0-.3-.1v-.1c.2 0 .5.1.6 0-.1 0-.2-.1-.2-.1 0-.1.1-.1.1-.1 0-.1 0-.1.1-.2h.2c.2 0 .5 0 .7.1-.1 0-.2-.1-.2-.2.2-.2.2-.3.1-.6l.1-.1-.1-.1c-.1 0-.2 0-.3-.1l-.2.1c-.1 0-.2-.1-.4-.2-.3 0-.5.3-.7.3h-.2c-.1.1-.2.2-.4.3v.1h-.1c-.1.1-.3.2-.5.1l-.2.5c-.1.1-.2.1-.2.2v.1l.2.1c.2.1.2.3.2.5 0-.1 0-.1.1-.2-.1.2-.1.4 0 .5l.1.2h.1c.1.1.2.3.2.4h.1l.3.3.1.2c0 .1.1.1.2.2s.3 0 .4.2v.1c-.5-.2-.5.3-.5.6h-.1v.1c0 .3-.2.6-.1 1l.6.2c.2.5 1 .5 1.5.3.2 0 .4 0 .5-.1.1-.1 0-.6 0-.7v-.2c0-.2.1-.3.1-.4-.1-.1-.2-.1-.2-.2h-.2v-.1s0-.1.1-.1h.2s-.1 0-.1-.1v-.1l.1-.1h-.4c-.1-.2 0-.5.1-.7l.1.2h.2v-.1h.1v.1c.1 0 .1 0 .2-.1h.1v-.1c.1 0 .1 0 .1.1.1 0 .1 0 .1-.1-.5 0-.7 0-.7-.1zm6.5-27l-2.2.6c-.3.1-1 .2-1.1.5l.1.1-.1.1-.2.1c-.1.1-.4 0-.6 0 0 0-.1 0-.1.1v.1l.1.1-.3.3-.3-.1-.1.1.2.1v.1l-.4.4-.6-.2c-.5-.1-.6.3-.9-.2.4-.2.3-.4 1-.4v-.1l-.2-.2c.1-.2.3-.1.5-.3 0-.1-.1-.1-.2-.2l.1-.1c.1-.1.3-.4.4-.4h.3c.2-.2.4-.5.7-.5.6-.2.8.1 1.1-.4.1 0 .2-.1.3 0l.4.1c.2-.1.4-.1.5-.2h.2l.9-.2c.2-.4.4-.3.9-.4h.3c.2 0 .4.2.3.4-.2.5-.6.6-1 .7zm-5.7 2.8l.3.1c-.1.6-.7.3-.5 1.1.1.4.2.8.4.9.1.1.4.2.4.4h-.8c-.1 0-.2.2-.4.1l-.1-.2h-.5c0-.2.2-.2.3-.3v-.1c-.3-.1-.5-.3-.9-.4-.2 0-.2.2-.5.1l-.1-.1c-.1-.2 0-.3.1-.4.1 0 .2.1.3 0 .2-.1.4-.4.4-.5l-.3-.1c.2-.1.3-.3.4-.4h.4c.5 0 .8-.2 1.1-.2zm-15.3-6.6l-.4.2c-.2 0-.3 0-.4.1l-.3.2c-.5 0-1 0-1.5-.1v-.2c.3-.1.4-.2.5-.5-.7 0-1.4.2-1.9-.1.1-.2.2-.2.3-.3l.4-.6c.1.1.2.2.3.4.3.2.6-.2.9.2l.1-.1c.2-.1.2-.4.5-.5 0 .2-.1.4 0 .6h.2c.1-.2.3-.4.5-.4.1 0 .1 0 .2.1l.1.3c.2 0 .5-.1.7 0l.3.1.1.2-.6.4zm-4.1.3c.1-.1.2-.2.3-.2l.3.4c.1.1.3.1.4.1.2.1.4.2.5.4l-.3.1-.5.1c-.2.1-.2.5-.3.7l-.2.4c-.1 0-.3 0-.3.1-.2.2-.3.4-.3.7l-.2.1c-.3.1-1.1-.6-1.3-.7l.1-.2c.4 0 .8 0 1-.3l-.1-.1c-.4 0-.7.1-1.2.2l-.1-.3c.5-.2 1-.2 1.4-.5-.3 0-.6-.2-.8-.3-.2.2-.3.4-.6.5-.3.1-1-.4-1.1-.7l.4-.2-.2-.3-.3.2c-.1-.1-.3-.3-.3-.4.2-.1.3-.2.5-.2h.2l.4-.1c0 .2 0 .3.1.4l.4.1.1-.4c.2-.1.2-.1.3 0 .1.2.4.6.6.7l.1-.1c0-.2-.3-.5-.2-.7l.2-.2c.2 0 .3.1.4.2h.3l.1.1c0 .2-.1.4 0 .5.1-.2.1-.2.2-.1zm-9.1 24.1c.1 0 .5.1.5.1v.2c-.1 0-.2.1-.2.2l-.4.1h-.3c-.1 0-.1 0-.2.1l-.2-.1c-.1 0-.3 0-.4.1v.1c-.3 0-.4-.1-.8 0 0 .4-.2.3-.4.2 0 0-.1.1-.2 0-.2.1-.3.1-.4.3l-.1-.1h-.2c.2-.1.6-.3.6-.6l.2-.1c.2-.1.4 0 .6 0 0-.1.1-.2.2-.3-.1 0-.2.1-.4.1l-.3-.2h-.4l-.1-.1.1-.1c.1-.1.4-.1.5-.3v-.3h-.2c.1-.3.5-.3.9-.3-.1-.2 0-.3 0-.6h-.2l-.2-.2c0-.1.1-.2.2-.3-.3-.1-.2 0-.5.1-.1-.3-.1-.3-.2-.3 0 .1 0 .1-.1.1s-.2 0-.3-.1c0-.2.3-.4.2-.5-.1 0-.1-.1-.1-.2.1 0 .1-.1.1-.1v-.1l-.4.3c-.1-.2.1-.4.2-.5l-.1-.1c0 .1-.1.1-.1.1s-.1 0-.1-.1l.2-.4v-.2s.1 0 .1-.1l-.1-.2c0-.1.1-.1.1-.1h.2l-.1-.3c.1 0 .1 0 .2-.1l-.1-.2.1-.1.2.1.7-.1v.1c-.1.2-.5.2-.6.5.3 0 .9-.1 1.1 0v.1c-.1.2-.2.7-.6.8l.2.1c-.1.1-.3.1-.5.1.3.1.3 0 .5 0 .1 0 .5.3.6.4.1.2 0 .4.2.5l.3.1.3.3c.1.1 0 .4 0 .4.2.3.4.2.1.6h.2c.2-.2.5-.1.6.1v.3c-.1.5-.5.8-.7.8zm-3.1-2.9c.1 0 .1.1.1.2l-.1.1h-.1c.1-.2.1-.2.1-.3zm0 1c-.1.2-.2.2-.4.3.1.1.3.6.2.8 0 .1-.1.2-.2.4h-.3v.1h-.4l-.4.3h-.2c-.1 0-.3.1-.5.1v-.3h-.2v-.2h-.1v-.1h.3s0-.1.1-.2c.1 0 .2 0 .3-.1h-.2s0-.1.1-.1v-.1c.1-.1.1-.1.3-.2v-.1c-.1.1-.5 0-.6-.1 0 0 0-.1.1-.1h.2c0-.1 0-.1.1-.2-.1-.1-.1 0-.2 0v-.1c0-.1.1-.2.1-.2.2.1.4.1.7.1v-.1c.1 0 .2-.1.2-.2h-.19999999999999998c.1-.2.1-.3.4-.4 0 .1.1.1.2.1.2-.1.5-.1.7 0-.2.2-.1.3-.1.6zm7.9 9s-.1.1-.1.2v.2l-.1.3c-.1 0-.2-.1-.3 0l-.1.1c-.4-.1-.1-.4-.2-.8 0-.2-.1-.2-.2-.3.3 0 .4-.1.5-.2.4.1.6.4.5.5zm-.2-1.4v-.2c0 .3.1.8-.1 1h-.1v-.1h-.2s0-.1.1-.1h-.1l.1-.1h0s-.1 0-.1-.1v-.1c.1-.2.4-.3.4-.3zm3.1 3.5c-.1 0-.1.1-.2.2-.3-.1-.6-.3-1-.4-.2-.1-.3 0-.3-.2.1-.3.3-.1.4-.3.3.2.4.2.8.1.1 0 .2-.1.3 0-.1.1-.2.3-.2.5.1 0 .2 0 .2.1zm5.6 1c0 .1 0 .1-.1.2h-.7v-.1c-.2-.1-.5-.1-.6-.1v-.2h.1v-.1s.1 0 .1.1h.1c.1 0 .1 0 .1.1h.4c.1.1.2.1.4.1v.1c0-.1.1-.1.2-.1zm3.7-.1l.5-.2-.3.3.1.1-.5.2v.1l-.3-.1-.1-.2.3-.1v-.1h.3zm-22.3 2.3c.1-.1.2-.2.3-.4.1-.1 0-.2 0-.3 0-.1.3-.4.4-.4.3-.2.6-.2.9-.5.1-.2.3-.8.4-.9l.2-.1c.2.2.2.4.5.4.2.1.8-.1.8-.1.1.2.3.2.6.2.2-.1.2-.2.3-.3.1 0 .4-.1.4-.2 0 0 .1.1.2.1l.5-.4.8-.1c.1 0 .2-.1.2-.1.1 0 .1.1.3 0l.2-.1.9.1c.2 0 .3-.1.5-.2l.3.1.2-.1c.1 0 .2.2.2.2.3.1.6-.2.8-.3h.2c.1 0 .2.1.2.1 0 .1 0 .2.1.2h.1l.3-.2c0 .4-.6.5 0 .9 0 .1 0 .1.1.2 0 .1-.5.5-.6.6 0 .2.2.3.4.4.1 0 .1-.1.2 0v.2l.7.3h.5c.1 0 .2 0 .3.1l.1.1h.3l.4.6c.2.1.7.1 1 .2.2.1.4.4.7.4l.3-.1c.6-.3 0-.5.3-.9.2-.3.9-.6 1.4-.4.2.1.1.2.2.3.1.1.4.1.6.1h.3c.1 0 .1.2.2.3h.6l.8.2s0 .1.1.1h.3c.1 0 .2.1.4.1l.2-.2c.3-.2.7-.3 1.1-.2 0 .1.1.1.2.2.2 0 .3.1.5-.1.3.2.4 0 .6 0l.4 1c-.2.2-.2.6-.3.9h-.1c-.3-.3-.6-.7-.7-1.1-.1 0-.1.1-.2.2.1.4.4.6.5.9l.3.8.6 1.2.3.3-.1.1.1.4.3.2c.2.1.4.5.4.7.1.4 0 1 .2 1.3.1.2.6.3.6.4.2.4.3 1.3.6 1.5v-.2c.1.1.2.2.2.3h.2l.5.5h.2c.1.1.1.3.2.3.2.2.6.2.6.5-.1.1-.3.2-.5.3h.3c.1.2.3.4.5.6h.3l.5-.2c.2 0 .3.1.4.1.1-.1.3-.2.4-.2h.3c.1 0 .2-.2.3-.1.1 0 .2.1.3 0 .3-.1.5-.2.7-.4l.3.1-.1.2v.3c0 .1-.1.2-.1.2v.5l-.3.5-.2.2v.1l-.4.6c0 .1 0 .2-.1.3-.2.5-.6.8-.9 1.2-.1.2-.3.4-.4.5l-1.3.9-1.1 1.2v.2l-.3.1c0 .3-.2.3-.3.4 0 .4-.2.4-.3.6v.3l-.2.1c-.1.1-.2.6-.2.8.1.2.2.3.3.4 0 .1-.1.3-.2.4l.1.1c-.1.3 0 .8.1 1 .1.2.4.2.5.5l-.2.3.1.7-.1.2c.1.2.1.5.1.8 0 0 .1 0 .1.1v.1c0 .1-.1.2-.2.2v.1c-.2.2-.3.5-.6.7l-1.1.5-.7.7-.6.5v.4c.1 0 .2.1.2.2-.1.2 0 .4.1.7h.1v.7c0 .1 0 .1-.1.2l.1.1c-.2.5-.7.4-1.1.7-.2.1-.3.3-.4.4 0 .1.1.1.2.1 0 .3 0 .7-.2.9l-.2.1s.1.2 0 .3l-.5.5c-.5.8-1.1 1.4-1.8 2l-.4.4-.7.1s0 .1-.1.1-.2 0-.3-.1c0 .1-.1.1-.2.2-.1 0-.3-.2-.6-.2l-.2.1c-.2 0-.3-.1-.6 0l-.2.2h-.6c-.1 0-.2.2-.3.3-.1 0-.2-.1-.3-.2 0-.1 0-.1-.1-.2h-.2s0-.1-.1-.1h-.1v.1l-.1-.1.1-.3c-.1-.1-.3-.4-.3-.5h.2c.1-.5-.2-.8-.4-1.2-.2-.4-.3-.8-.5-1.1l-.6-.7c-.1-.2-.1-.4-.2-.5 0-.1.1-.1 0-.2 0-.1-.1-.2-.2-.4 0-.1.1-.2 0-.4l-.1-.3-.2-.7c.3-.3-.2-.8-.4-1-.2-.4-.4-.8-.6-1.1-.1-.2-.3-.3-.4-.6-.1-.3 0-.8 0-1.1.3-.2.2-.8.4-1.2l.2-.2.1-.2c.1 0 .1 0 .2-.1s.2-.4.3-.6v-.5c-.1-.2-.6-.7-.2-.9.1-.4-.1-.4-.2-.7 0-.1 0-.2-.1-.3-.1-.1-.2-.2-.2-.3l-.1-.5c0-.1-.2-.4-.2-.4-.2-.2-.4-.4-.6-.5-.1-.2-.2-.3-.4-.4 0 0 0-.1.1-.1l-.2-.1c-.1-.1-.2-.2-.2-.3l.1-.1c-.1-.1-.1-.1-.2-.1l-.1-.2c.2-.1.3-.3.3-.5h.2c-.1-.1-.2-.2-.3-.2.1 0 .1-.1.1-.3h-.1c.1-.1.2-.3.3-.5v-.2c0-.1 0-.1.1-.2 0-.2-.1-.3-.2-.4l.1-.1v-.1c-.4 0-.3-.1-.4-.3-.1-.1-.3-.1-.3-.1v.1c-.2.1-.4 0-.6 0-.3.3-.9 0-.9-.3 0-.1 0-.1.1-.2h-.1l-.1-.1c-.1-.1-.4-.3-.6-.4-.1 0-.1.1-.1.1-.4 0-.8.1-1.1.1l-.2.2h-.5l-1.1.5c-.1-.1-.4-.3-.5-.3l-.1.1-.4-.1h-.7l-.6.2c-.2.1-.4.2-.5.3-.1 0-.6-.2-.7-.3l-.8-.6-.4-.2c-.2-.1-.3-.3-.6-.4v-.2c-.2 0-.4-.2-.5-.4l.1-.1h-.1v-.2l-.2-.3v-.2c-.2-.1-.4-.2-.5-.3v-.2c-.1 0-.2 0-.2-.1v-.1s-.1 0-.2-.1c0-.2.1-.2.1-.3-.1-.1-.2 0-.4 0l-.2-.1v-.1c-.2-.1-.1.1-.2-.2 0-.1 0-.3.1-.5h.1v-.1c-.2-.1-.1-.4-.5-.5.2-.1.4-.4.5-.6v-.4c.1-.4.4-1.1 0-1.4.2-.2.1-.8-.2-.8l-.1.1c0-.2 0-.5.1-.7.1-.1.2-.2.2-.3l.3-.8c.1-.1.4-.2.4-.4v-.2c0-.2.1-.4.2-.5l.4-.3c.1-.2.2-.6.4-.7.2-.1.4-.1.5-.1.3-.1.8-.6 1-.8.5-.4.1-.6.2-1zm-2.3-22.3v.1c-.1.2-.2.3-.5.2l-.6.4c-.2 0-.4 0-.5.1-.2.1-.2.4-.6.3-.2 0-.4-.1-.5-.1l-.3-.2c-.3-.1-.9.1-1.1-.1.2-.2.4-.2.5-.4-.3 0-.3-.1-.4-.2-.2 0-.5.1-.6.1v-.1c.1-.2.7-.1.9-.3v-.2c-.1-.1-.3-.1-.4-.1-.3 0-.6.3-.8 0v-.1c.1-.1.3-.1.5-.1l-.1-.2c.1-.3.3.2.6 0 0-.1-.1-.2-.2-.2l.1-.1c.3.1.7.1.7.4l-.1.3.2.3.2-.2c.1-.1.2-.1.3-.1v-.4s.1 0 .1-.1c.1.2.2.3.3.4h.1c0-.1 0-.1-.1-.2.1-.1.3-.2.4-.1 0 .1.2.2.3.2 0-.1 0-.2-.1-.3.3 0 .6.1.8 0v-.3c.1 0 .2 0 .3.1.1.2.3.2.5.3v.1c0 .1-.1.2 0 .2l.1.1c.1 0 .3 0 .4.1.1.1 0 .5 0 .6-.1-.2-.2-.2-.4-.2zm-16.3-3c-.2-.2 0-.2.1-.3.1.1 0 .3-.1.3zm-1.1-1.9c.1 0 .3.1.1.2-.1-.1-.1-.2-.1-.2zm-.2.4s0-.1.1-.1l.1.3c-.2-.1-.3-.1-.2-.2zm13.1-5.6c-.2.1-.3 0-.4-.1 0-.1.1-.2.2-.2.2 0 .3.1.4.1l-.1.1s-.1 0-.1.1zm.3 3.6c-.1.1-.1.1-.2.1s-.1 0-.2.1l-.1.1s-.1.1-.2.1c0 0-.2.1-.3.1l.1-.2c0-.1 0-.2.1-.2l.3-.1.3-.3c.1 0 .4.2.3.3-.1 0-.1.1-.2.2.2-.2.2-.2.1-.2zm1.9.1s.1 0 .1.1l-.1-.1c0 .1 0 .1-.1.1h.1c-.1.1-.5.2-.4.3l.2.1c-.1 0-.2.1-.2.1 0 .1.1.1.1.1 0 .1-.2.1-.3.1.1 0 .1 0 .1.1l-.2.1c.1 0 .1.1.1.2h-.1v.1l-.2.1-.1.1h-.1c0 .1-.2.2-.3.3-.1 0-.1.1-.1.1-.1 0-.1 0-.2.1-.1 0-.2.1-.2.2-.1 0-.2.1-.2.1l-.1.2c-.1 0-.2 0-.3-.1l.1.2s-.1.1-.2.1l-.2-.1c.1.1.2.1.2.1l-.3.1-.2-.1h-.2c-.2 0-.4-.1-.4-.2v.1l.3.2h.1c.1.1-.1.2-.1.3v.1c0 .1-.2.1-.2.1-.1.1 0 .1 0 .2s-.1.1-.1.1v.2l.1.1-.1.2s.1.1 0 .2l-.1.1c-.1.1-.1.2-.1.3 0 0-.1.1-.2.1l-.1-.1h-.4l.2.2-.1.1v.2c-.1.1-.3 0-.4 0 0 .1-.1.2-.2.2s-.1-.1-.1-.1c0 .1-.1.2-.2.2.1.1 0 .1 0 .2h-.2c-.1 0 0-.1 0-.2v-.1l.1-.2.1-.3c-.1.1-.3 0-.4 0 0 .1.1.1 0 .2 0 .1-.1.1-.2.2l-.1.1c0 .1.5.1.2.3h-.1l-.1.2c-.1 0-.2.1-.3 0h-.2c-.1 0-.1-.1-.1-.1l.1.2-.2-.1c0 .1 0 .2-.3.2.1 0 .2 0 .3.1.1.1 0 .3 0 .3s-.1.1-.2.1c-.3 0-.2-.1-.6 0h.1c0 .2.2.1.3.2 0 0 .1 0 .1.1 0 0 0 .1.1.1h.1s0 .1-.1.1c0 0 .1 0 .1.1h-.3l-.3.1c-.1 0-.1 0-.2.1l.3.1h.2l.1.1s.1 0 .1.1c0 0 .2.1.1.2h-.6000000000000001l.1.1h.1c.1 0 .2.1.3 0v.1h-.2s0 .1-.1.1h-.2s.1 0 .2.1l-.1.1h-.2c0 .1.1.1.2.1-.1 0-.3 0-.4-.1.1.5.3.5.3.6v.1c-.1 0-.2.1-.2.1-.1.1-.2.1-.2.2 0 0 0 .1.1.2.1 0 .2 0 .3.1-.1.1-.3-.1-.5-.1.1.1.3.1.5.2 0 .1.1.2.2.3 0 .1-.1.2-.3.2h.2l-.1.1c0 .1 0 .1-.1.2v.2h-.1c-.1 0-.3-.1-.3 0v.1l.4.1c-.2.1 0 .1-.1.2 0 0-.1 0-.2.1h.2c-.1 0-.2 0-.3.1 0 .1.2.1.2.1.1 0 .1 0 .2-.1h.1c0 .1-.5.3-.7.3 0 .1.1.1.3.1l.2-.1c0 .1.2.1.1.2v.1h-.4c-.1 0-.2-.1-.4 0l-.2.2-.2-.1-.3.1.1-.3.1-.2s-.1 0-.1.1c0 0-.1.2-.2.2-.1-.1.1-.2.1-.2 0-.1-.1-.1-.2 0l-.1.2s0-.1-.1-.1h-.2l.2-.1s0-.1.1-.1.2-.1.2-.1-.1 0-.1-.1c0 0 0-.1-.1-.1l-.1.1h-.1c-.1 0-.1.1-.1.1 0-.1.2-.2.2-.2h-.1s0-.1-.1-.1-.2.1-.1.2c0 .1-.1.1-.2.1l-.2.1-.2.1h-.2c-.1 0-.1 0-.1.1h-.1v.1c-.2.1-.4 0-.5 0 .1 0 .2-.1.2-.1s0-.1-.1-.2l-.2.1v-.2l-.5-.1c.1 0 .2 0 .2-.1-.2 0-.1 0-.2.1h-.1c-.2.1-.3 0-.3 0l.2-.1s-.1 0-.1-.1.2-.1.2-.3c-.2 0-.2.1-.4.2 0-.1.1-.1.2-.2h.1l-.2.1h-.1c.1 0 .1 0 .1-.1 0 0 0-.1-.1-.1h-.6c-.1 0-.2-.1-.1-.2l.2-.3.1-.1c-.1.1-.2.2-.4.3 0 0 0-.1.1-.2h-.2c-.1-.1.1-.1.1-.2s-.1-.2-.2-.2l-.3.1c.1-.1.2-.2.4-.3-.1 0-.2 0-.2.1l-.3.1c0-.1 0-.2-.1-.2.1 0 .1 0 .2-.1l-.1-.2c.1 0 .2 0 .2-.1.1-.1.3-.1.5-.1h.2l-.1-.1-.1.1-.5.2h-.3s.1 0 .2-.1l.3-.2s.1 0 .1-.1l-.1-.1s.2-.1.3-.1c.1 0 .1.1.1.2.1.1.3.1.4.1l-.1-.1c-.1 0-.1 0-.2-.1-.1 0-.1-.2-.1-.3-.1 0-.2.1-.2 0-.1 0-.1-.1-.1-.2v-.1s-.1 0-.1-.1v.4s0 .1-.1.1c0-.1-.1-.1-.1-.1l-.1.1v.1c0 .1-.1.2-.2.2 0 0-.1.1-.2.1v-.2c.1-.1-.1-.4.2-.4 0 0 0-.1-.1-.1s-.2.1-.3 0l.1-.1v-.1s-.1.1-.2.1-.1 0-.1-.1c.1-.1.3-.2.4-.2l-.3.1c0-.1.1-.3-.1-.3-.1.1-.2.1-.3 0 .1 0 .2-.1.3-.2-.2 0-.2.1-.3 0 0 0-.1 0 0-.1l.2-.1c.2-.1.4-.3.7-.4.1 0 .2-.1.2-.1l.3-.2c.2 0 .4 0 .6-.1.1 0 .1-.1.1-.1h-.4c-.1 0-.1 0-.2.1l-.3.1-.2.2s-.1 0-.1.1l-.4.3-.3.1h-.1s.1 0 .1-.1h-.1c-.1-.1 0-.2.1-.2h.2l.3-.1c-.1 0-.3 0-.4-.1.1-.1.5-.1.6-.1.1-.1 0-.2-.1-.1l-.1.1h-.4l-.1-.1c-.1 0-.2 0-.2-.1.1 0 .2 0 .2-.1.4-.1.7-.1 1.1-.1h.3c-.1-.1-.1-.2-.3-.2h-.4c-.3 0-.7.2-.9.1l.1-.1c.1 0 .1 0 .2-.1l.3-.1.2-.1h.8999999999999999l-.1-.1c0-.1.1-.1.2-.2h-.3c.1.1 0 .1-.1.1h-.30000000000000004v-.1c-.2 0-.3.1-.4.2h-.2c-.1 0-.2.2-.4.2l.1-.2c.1-.1 0-.2.2-.3.1 0 .3.1.4 0-.1 0-.3 0-.3-.1.1 0 .2 0 .4.1h1c-.1-.1-.4-.1-.4-.2l.1-.2h-.1c-.1 0-.2 0-.2.1h-.8l.5-.3h.3l.3-.1h.2c.1 0 .1-.2 0-.2s-.1.1-.3.1l.1-.2.1-.1.1-.1c.1 0 .3 0 .3-.1h-.1s0-.1-.1-.1l-.2.1.1-.1v-.1h0v-.1h.1l-.1-.1s.1 0 .1-.1v-.1l.1-.1h-.2c-.1 0-.1.1-.3.1-.1 0-.1 0-.2.1h-.1c-.1 0-.3 0-.4-.1-.1-.1-.3-.2-.4-.2h-.1l-.4-.1v-.1s-.1 0-.2-.1c.1 0 .1-.2.3-.2.1 0 .1 0 .2.1.1 0 .2-.1.3 0 .1 0 .4.1.5.2.1.1.2.1.3.1.1 0 .3.1.4 0 .1 0 .1-.1.1-.1h-.10000000000000003l-.3-.1c.1 0 .2 0 .2-.1l-.5-.2c.1 0 .3.1.4 0 0-.1-.1-.1-.2-.1h-.1c-.1-.1 0-.1 0-.1-.1 0-.3.2-.4.1l.1-.1s.1 0 .1-.1c.1-.1.2-.1.3-.1h-.2c-.1 0-.2.2-.3.1 0 0 0-.1-.1-.1l.5-.1v-.1l-.4.1h-.1c-.1 0-.1 0-.1-.1.1 0 .2-.2.2-.2-.1 0-.2.1-.2.2v-.1c0 .1-.1.1-.2.1 0 .1 0 .3-.2.3-.2.1-.5 0-.6 0h-.2v-.1l-.1-.1.3-.1.2-.1c.1 0 .1-.1.1-.1s-.1 0-.1.1h-.4c0-.1.3-.2.4-.3 0 0 .1-.1 0-.1l-.4-.1h.7v-.1c0-.1-.1-.2-.2-.2 0-.1.1-.1 0-.2h-.30000000000000004c0-.1.1-.1.2-.2v-.1s.1-.1 0-.1c0 0-.1 0-.1-.1l-.1-.1h-.1s0-.1.1-.1h.1s-.1 0-.1-.1c-.1-.1-.2-.2-.2-.3l-.4.1.4-.2s.1 0 .1-.1-.2-.2-.3-.2c0-.1-.1-.3-.2-.3s-.2 0-.2-.1v-.1c-.1-.1-.2-.2-.2-.4v-.3h-.2l-.1-.1c-.1 0-.2 0-.2-.1 0 0 0-.1-.1-.2l-.3-.1h-.1l-.2.1c0-.1 0-.2-.2-.2l-.3.2-.1-.1s-.1.1-.2.1h-.2s0 .1-.1.1v-.3c-.9-1.1-1-1-1-.9h-.1l-.1-.1c-.1.1 0 .1 0 .2-.3.1-.6-.1-.7-.3l-.1-.1s.1-.1.2-.1.1 0 .2-.1c.1 0 .2 0 .2-.1l-.5-.1c-.1 0-.1-.1 0-.2-.1 0-.1 0-.1.1-.1 0-.2-.1-.2-.1l.1-.1s.1-.1.2-.1h.2c.2 0 .3 0 .5.1.1 0 .2.1.3 0l-.1-.1c-.1 0-.3 0-.3-.1.1-.1.5 0 .6 0 0 0 .1.1.2 0-.1-.2.1-.1.2-.2 0-.1-.1-.1-.2-.2h-.1c-.1 0-.1 0-.2.1h-.6000000000000001l-.2-.1h-.1l.2-.1h-.3l.2-.1-.4-.1h-.2l-.1-.3.3-.1v-.1l.1-.1s.1 0 .1-.1l.3-.1h.2l.2-.1h.1l.2-.1c.1-.1.2-.1.4-.1h.4c.1 0 .2 0 .3-.1h.1c.2 0 .3-.1.3-.2v-.1c0-.1.1-.2.2-.3.1-.1.2-.1.2-.2l-.1-.1c0 .1-.3.2-.5.2-.1 0-.2 0-.2-.1l.2-.3c0-.1-.1-.1 0-.2l.3-.1c.2-.1.3-.2.3-.3.1 0 .2 0 .2-.1 0 0 0-.1.1-.1h.6000000000000001v-.2c.1 0 .2-.1.2-.2h-.1c0-.1.1-.3.2-.3h.2l.3.3c-.1-.1 0-.1 0-.2l-.2-.2.3-.1c.1 0 .1 0 .2-.1h.1c.1 0 .2.1.3 0v-.1c.3-.2.4.3.4.4v-.1c.2 0 .4.2.6.3h.1l-.1-.1-.1-.1c.1 0 .2.1.3 0l-.2-.2c-.1-.1 0-.3.1-.4.2-.1.2.1.3.1h.1s.1 0 .1.1c.1 0 .2 0 .2.1l.4.3s.1-.1 0-.1v-.1c0-.1.1-.3.2-.3h.1c-.1 0-.2 0-.2-.1l-.3-.2s-.2-.1-.1-.1c.2-.1.4 0 .6 0h.2l.1.1c.1 0 .2-.1.2-.1 0-.1-.3-.2-.4-.1l-.3.1c-.1 0-.2 0-.3-.1h-.3s.1-.1.2-.1h.1s.2.1.3 0c-.1 0-.4 0-.3-.1h.4v-.1c.1 0 .2 0 .2.1v.1l.3.1h.30000000000000004c-.1-.1-.1-.2 0-.3h.1s-.3-.1-.2-.2h.1v-.1h.2l-.1-.1.2-.1c.2-.1.6-.2.9-.2l.3.1c.1 0 .1-.1.1-.1h.1c.1 0 .3 0 .2.1-.1.1-.4.2-.6.2l-.3.2h-.2s.1 0 .1.1h-.1l-.3.2s0 .1.1.1c0 0 0-.1.1-.1h.2c0-.1.1-.2.2-.2h.1l.2-.2.3-.1h.1c.1 0 .3-.1.3-.2.1 0 .1 0 .2.1l.1.1.2.1h.6c.1.2-.2.6-.4.7h-.1l-.4.1-.2.1-.1.1h-.1c-.1.1-.1.2-.1.2 0 .1-.2.2-.2.2l.1.1c.1 0 .2-.2.2-.2l.2-.1h.1s.1 0 .1-.1l.4-.1h.1l.1-.1c.1 0 .1 0 .1.1l.1.1c.1.2-.2.3-.2.4 0 0 .1.1.1 0l.4-.5c0-.1-.1-.2-.2-.3l.2-.1c.2 0 .4.2.5.3v.2l.1.3c0 .1 0 .3.1.4v-.30000000000000004c0-.2 0-.3.1-.5v-.2h.1c.1 0 .2-.1.2-.2l-.1-.2c0-.1 0-.1.1-.2l.2-.1.1-.1h.8c0 .1 0 .3-.1.4v.2s.2 0 .2.1-.1.3-.2.4h-.1l-.1.1-.1.2c-.1.1-.3.1-.3.1v.1l.2-.1h.2c.1 0 .1-.1.2-.2h.30000000000000004c.1.1-.2.3-.3.4-.1 0-.3.1-.3.2s.1.1.1.1v.1c0 .1.1.1.1.1h.1v-.1s-.1 0-.1-.1v-.1c0-.1.1-.1.2-.2.1 0 .3-.2.4-.1v.1c0 .1 0 .2-.1.2l-.1.1c0 .2.2.2.2.3l.2.3s.1 0 .1.1c-.1.1-.2.2-.3.2l.1.1h.1s0 .1.1.1l.1.2.1.1v.1c0 .1.1.2.3.2-.1-.1 0-.2.1-.3h.1v-.1h.1s-.1.1 0 .1c.2 0 .3 0 .3.1-.2 0-.4 0-.5.1 0 .1.1.2.3.2l.3-.1h.2c0-.1 0-.2.2-.2h.2l.1.1.1.1s.2.1.2.2-.3.1-.4.1h-.1c-.1.1-.1.1-.3.1h.1l-.1.2v.1c-.1 0-.2 0-.3-.1l.2.2h.2c.1 0 .2 0 .2.1.1 0 .1-.1.1-.1h.2c.1 0 .1 0 .1-.1h.2v.1c-.1.1-.2.1-.3.1l-.2.2c.1 0 .2 0 .2-.1 0 0 .1-.1.2-.1h.1c.1 0 .3-.1.3 0 0 0 0 .1.1.1l.3.2c.1.1 0 .2-.1.2s-.1-.1-.1-.1c-.1 0-.2.1-.2.1-.1 0-.2 0-.3-.1h-.4c.1 0 .2 0 .2.1l-.1.1h.7000000000000001c-.1 0-.1.1-.2.2v.1c-.1 0-.3-.1-.4 0 .2 0 .3.1.5 0 .1-.1 0-.2.3-.2 0 .1.1.1.2.2v.2l.1-.1.4-.2c.1 0 .3 0 .3.1s-.1.2-.2.3h-.30000000000000004l-.4.1h-.3c.1.1.2.1.2.2 0 0-.1 0-.1.1h.1c.1.1 0 .1 0 .2h.3l-.1-.1c.1-.1.4-.1.5-.1h.2c.1 0 .3.3.2.3 0 0-.2.1-.3.1h-.1c0 .1-.1.2-.2.3h-.6000000000000001c-.1 0-.2-.1-.2-.1 0 .5.3.5.4.5l.1-.1h-.30000000000000004c-.2 0-.5.1-.4.2l.1.1h-.3l.2.1c-.1 0-.2.1-.2.1v.1c0 .1-.1.2-.2.2-.1-.1-.3 0-.4 0 0 0 .2 0 .2.1s-.4.1-.2.3h.1c0-.1.1-.2.2-.3l.1-.1c.1 0 .1 0 .2-.1.2 0 .3 0 .4.1l-.2.3c-.1 0-.2 0-.2.1.1 0 .2 0 .3.1 0-.1 0-.1.1-.2l.1-.1s0-.1.1-.1l.2.1c.1 0 .2 0 .2.1l-.1.2s-.1 0-.1.1.1.2.2.2l.1-.1c0-.1 0-.1.1-.2h.5c.1.2.2.1.4.1h.30000000000000004v.1c.1 0 .2 0 .2.1l.2-.1c0 .1 0 .2.1.2v.1c0-.1 0-.2.1-.3.3.1.2.2.3.4h.1v.1c.2-.1.1.1.1.1h.1s0 .1.1.1c.1.1.3.1.2.2 0 0 0 .1-.1.1h-.2c-.1 0-.4-.2-.4-.3l.2.3-.1.1c-.1.1-.3.1-.5.1l-.4-.1-.1-.1h-.1l-.1-.1h-.1l-.3-.1c-.1 0-.1.1-.1.1l-.5-.1c-.2 0-.3.1-.5.2-.2-.1-.4-.1-.7-.2h-.4c0 .1.2.1.3.1h.1c.1 0 .4 0 .3.1l-.2.2.2-.1c.1 0 .1.1.2 0s.2-.1.3-.1c.2 0 .2-.1.3-.1h.1l.1.1c0 .1-.2.3-.3.4-.1 0-.2.1-.2.1-.2 0-.4.1-.5.1.1 0 .2 0 .2.1.2.2-.4.4-.3.5 0 0 .2-.2.3-.2l.1.1c.2 0 .4-.1.5-.2.1 0 .1 0 .2-.1l.1-.1s.1 0 .1.1c0 0-.2.1-.3.1-.1.1 0 .2-.2.2h-.1c-.1 0-.2 0-.2.1v.1l.3-.1h.3c.1 0 .1-.1.2-.2l.2-.2c.1-.1.2-.2.4-.3v.1c.1 0 .3-.1.5-.1h.3l.4-.1c.1 0 .2-.1.3-.2 0 0 0-.1.1-.1v.2h-.1c-.1.1-.2.2-.2.3zm-2.7-3.5zm-.4 1c.1 0 .1-.1.1-.2h.2c.1 0 .3 0 .3.1l-.6.1zm1.4-.2c0 .1-.1.1 0 0-.1.1-.2.1-.3.1l-.2.1c-.1 0-.2 0-.2.1-.1 0-.2.1-.2.1l.1-.1.3-.2c.1 0 .3 0 .5-.1zm.5.7s-.1.1-.2.1l-.1-.1h-1c-.1 0-.3-.1-.2-.2l.4-.2c.3-.1.5.1.7.1h.1l-.3.1c.3.1.5.1.6.2zm-1.2-2.4c-.1 0-.3-.1-.2-.2h.1c.2.1.2.1.1.2zm.2-.4c-.1-.1-.2-.3-.2-.3s.2-.1.2-.2c.1.1.2.2.3.2 0 0 .1-.1.2-.1v.1c-.1.1-.4.3-.5.3zm-.7-.8s-.1-.1-.2-.1-.1 0-.2-.1c0 0-.1 0-.1-.1-.1 0-.1 0-.2-.1s0-.1 0-.2l.2.1c.1.1.2.2.3.2.2.2.3.3.2.3zm-10.1-3.2c-.1 0-.1 0-.2-.1-.2-.1-.3-.2-.4-.4.1 0 .2-.1.2-.1.1 0 .1 0 .2.1.1 0 .2.1.2.2v.3zm-1.6.1c0-.1.1-.1.1-.1.1.1.2.1.2.2-.1 0-.3 0-.3-.1zm-4.1 1.5l-.8-.1c-.5-.1-.8.1-1.2.2l-.1.3.2.2c.4.1.6-.2 1-.2l.2.3v.1c-.5.1-.9.4-1.3.6-.1 0-.2.1-.4.1-.4.2-.3.3-1 .4l.1.5-.3.2c-.6.3-1.1 0-1.8-.1l-.1.2.6.3c-.5.2-1.1 0-1.5 0h-.5v.3c.4 0 1-.1 1.2.2v.3l-.3.2c0 .1-.1.2-.1.4h-.4l-.1.1c.1.1.2.2.2.3-.2.1-.4.1-.6.1l-.5-.1.1.5c-.1.2-.5.2-.8.2-.5-.1-.8-.3-1.2.1.4.2 1.1.2 1.5.3h.5l.1.1v.2l-.2.2-.8.2-.5.2-.3-.4h-.3l-.3-.2v.1l.1.3c-.7 0-.8-.2-1.1-.4h-.1c0 .1.1.2.1.4-.1.1-.1.1-.2.1l-1.2-.1-.4-.3c-.1.1 0 .2-.2.3l-.4-.2c0-.2 0-.3.1-.4l.7-.2c.2 0 .3 0 .4-.1-.2-.1-.5-.4-.5-.6.1-.1.2 0 .4 0s.4 0 .6.1c.2.1.4.4.7.5.2 0 .6.1.8 0v-.1l.1-.1c-.3 0-.7 0-.9-.1v-.5c-.4 0-.7-.2-1.1-.1.1-.3.1-.5.3-.6.2-.1 1-.1 1.3 0 .2.1.4.2.7.2l.2-.1h.2l-.8-.4-.4-.2c-.2-.2-.5-.6-.8-.6l-.1.1-.3-.4v-.2c.2 0 .5 0 .7.1h.6l1 .6h.5l-.2-.2-.5-.2.3-.4.3-.2h.4c.1 0 .2-.1.4-.1l1-.1c-.1-.1-.3-.2-.4-.2-.2-.1-.7-.1-.9-.1-.3.1-.6.2-.8.3h-.6000000000000001l-.3-.2c-.1.1-.2.2-.5.1h-.2l-.3.2c0-.2 0-.3.1-.5l.2-.2v-.1l-.1-.1c-.4-.2-1.3.1-1.6.2-.2.1-.3.2-.5.4-.1 0-.2-.1-.2-.2l.2-.1c0-.1-.1-.2-.2-.3-.3 0-.6-.1-.8-.2 0-.1 0-.2-.1-.4l.2-.2c.3-.2.8 0 1.2-.1.1 0 .4-.1.6-.1.1 0 .2.2.4.2l.2-.3c.1-.1.5-.2.7-.2l.4.1.9.1c.2.1 1.1.4 1.3.3l.1-.1-.3-.2c-.2-.1-.4-.2-.6-.4 0-.1 0-.1.1-.2.2 0 .4-.2.5-.2l.6-.1c.1 0 .2 0 .3-.1l.8.2c.2.1.3.4.6.4 0-.1 0-.1.1-.2-.1-.1-.4-.4-.4-.5l.1-.1.7.2h.4c.2.1.2.2.5.3 0-.2 0-.3-.1-.4h.7c.1.1.3.2.4.4h.1c0-.2-.1-.3-.1-.4.6-.1 1.2.3 1.7.4h1.2000000000000002c.1 0 .2.1.4.1h.3l.4.2h.4l.3.2-.1.2c-.4-.5-.6-.3-1-.2zm-13.3 1.6l.2.1c.1.2.1.4.2.5h.4v-.3l.1-.1c.1.1.4.3.4.4v.5l.2.2c.4 0 .6-.1.9.2l-.3-.1c-.4.3-.8.2-1 .7l-.5-.2-.1.2.1.3c0 .1-.1.1-.2.1l-.5-.3c0 .1 0 .3-.1.4-.4 0-.8-.1-1.1-.2h-.1l-.4-.4c-.1-.1-.3-.2-.3-.4l.4-.1c.3-.1 1.1.1 1.3.1-.2-.2-.9-.5-1.3-.5-.1 0-.1 0-.2.1h-.4c-.1 0-.2.2-.4.1l-.4-.4-.3-.2c0-.1 0-.1-.1-.2.4.1.6 0 1 0-.2-.1-.3-.1-.4-.3 0-.1 0-.1.1-.2l.5-.1v-.1l-.4-.4c.2-.1.4-.1.5-.2.1 0 .2.1.4 0 0-.2 0-.2-.1-.4.7.1.7.3 1 .7.1.1.2.2.4.3.2.3.3.2.5.2zm-2.7 2.7c0 .1 0 .2-.1.3-.7.2-1.1.2-1.4-.3-.1-.1-.2-.2-.2-.4v-.1h.3c.4 0 .8.2 1.1.3.1.1.3 0 .3.2zm-1.4 2.3c0 .1.1.3 0 .4l-.2.3c-.1.1 0 .4.1.5l-.1.1h-.4c-.3 0-.7.2-.8-.2.1-.1.1-.2.3-.2v-.1c0-.1-.1-.1-.1-.1-.2-.1-.8.1-1 .1l-.2-.1v-.2c.2 0 .3-.1.4-.1-.1-.2-.1-.3 0-.5.4 0 .6.5.9.5h.1c0-.2-.3-.4-.4-.6.4-.2.6.2.9.2v-.2s.1 0 .1-.1c.3 0 .3 0 .4.3zm-1.3-1.7l-.5-.5h-.3c-.6-.1-1.5.2-1.7-.4l.1-.1c.3 0 .4.1.8.1 0-.5-.6-.6-1.1-.7v-.30000000000000004c.3 0 .8-.1 1.1 0 .2.1.2.4.4.4.1 0 .3 0 .4.1.7.1.8.1 1.1.7.1.2.2.3.2.5s-.2.3-.5.2zm-3 2.9c-.1.1-.2 0-.4 0-.1 0-.3 0-.4.1l-.8-.1c-.6.2-1.2.8-2.1.6-.2 0-.3-.1-.5-.2 0-.1 0-.1-.1-.2l.4-.1c.1 0 .1 0 .2-.1l.9-.1c0-.1.1-.2.1-.2-.3 0-.6 0-.9-.1-.1 0-.2.1-.4.1l-.6.1c-.1 0-.1 0-.2.1l-.4-.2c-.2.2-.6 0-.7-.1v-.1l.2-.2.9-.1-.5-.2c0-.1 0-.2-.1-.3.2 0 .7-.3 1-.2l.4.3c.1 0 .2-.1.4-.1.3 0 .5.5.7.6h.8c.1 0 .2-.1.4-.1 0-.4-.3-.6-.6-.8.2-.1.2-.2.3-.3l.3-.1c.1 0 .1 0 .1.1.2.1.2.6.3.9.3.1.5.2.7.3 0-.1-.1-.2 0-.4.3 0 .5.1.7.3.2.2.1.7-.1.8zm-2.3-2.6c-.3 0-1.1.1-1.2-.1 0-.1 0-.1-.1-.2 0 0 0-.1.1-.1l.3-.1h.7c.3 0 .5.1.7.1-.2.1-.4.3-.5.4zm-3 .4c-.1.2 0 .3.1.5h-.4l-.2.3h-.2c0-.2-.2-.6-.4-.5-.1.2-.2.4-.3.5l-.2.1c0 .1 0 .1-.1.2l-.2.2c-.4 0-.4-.2-.6-.3-.3.1-.3.3-.7 0v-.3l.6-.2.2-.2c.1-.1.2-.1.4-.2.1-.1.2-.3.4-.3l.8-.1h.5l.2-.1h.2c.2 0 .4.1.4.2-.2 0-.4.1-.5.2zm-2.5 2.7c.3 0 .6.3.9.4.3.1.6-.1 1-.1.3.1.8.4 1 .6l-.1.1c-.3.1-1.2.4-1.5.6-.2.2-.4.4-.6.5-.1 0-.2.1-.4.1 0 .7-.1.8-.8.8-.1.3-.4.4-.8.3-.1-.3-.3-.6-.6-.7-.3-.1-.6 0-.7-.2l.4-.3-.1-.5c.2 0 .2-.1.3-.2.1-.2.4-.3.4-.6-.1-.2-.3-.3-.4-.6.5 0 1.1 0 1.5-.1.3 0 .4-.1.5-.1zm23.3 5.9c.2 0 .3.1.4.2v.5c-.1.2-.7.4-1 .2-.3-.2 0-.7.2-.8.2 0 .3 0 .4-.1zm-2.2 4l-.3.2c-.2-.1-.6 0-.8-.2-.2-.2-.2-.4-.6-.4 0 0 0 .1-.1.1v.2l-1 .4c0-.2 0-.3-.1-.4l-.8.1c.1-.2.3-.3.5-.4-.2-.5.1-1 .3-1.4l.3.2c0 .1 0 .1-.1.2.1.1.1.1.3.1l.1-.2.7.4c.4.2.7 0 .6.7.2 0 .4 0 .6.1.3.2.3.2.4.3zm-5.3-9.2l-.8 1.1c-.3 0-.9-.1-1.1 0l.1.1.2.2c-.1.3-.4.4-.7.2 0-.3-.2-.4-.2-.6-.1-.3 0-.7.1-.9h.3l-.2-.3c.1 0 .4 0 .6-.1.3.1.5.1.9.2.3.1.6-.2.8.1zm-2.7-3.3l.5.1h.4l.2.2c0 .1 0 .3-.1.4l-.7-.1h-.2l-.5-.5.4-.1zm-1.4 7.7l.2-.5h.2c.1 0 .8.4.8.5.1.3.2.2.3.4-.1.1-.2.2-.4.2-.4.1-.9-.2-1.2-.3-.2 0-.3 0-.4-.1.2-.1.4-.1.5-.2zm-2.6-1.2c.5.2 1.4.2 1.4.9-.3 0-.5-.1-.7-.2l-.5.2v.3c.2 0 .5-.2.6-.1.1.1.2.1.2.3-.2.1-.2.2-.4.2-.6.1-1.3-.1-1.8-.3-.1-.1-.1-.2-.2-.2h-.2c-.1.3-.3.3-.6.4h-.3l-.3.2c-.3.1-1 .2-1.3.2-.3 0-.9.1-1-.1 0-.1.1-.3 0-.4-.2-.1-.9-.1-1.2-.1-.3-.1-.7-.4-.9-.6.1 0 .2-.1.2-.1h.3l.2-.1h2.4c-.5-.5-1.8-.4-2.7-.4-.3 0-.9-.1-.8-.3.2-.2 1.2-.1 1.5-.3v-.1l-.1-.1-.9.1-.3-.2-.3-.1-.2-.1c0-.6 1.1-1.1 1.5-1.2.2-.1.9-.4.9-.1-.1.2-.1.2-.1.5.4 0 .4-.2.6-.3.2-.1.7.1.8.2v.4c.3 0 .4-.1.6-.2h.3l-.2-.5c.3 0 .6.1.8.3.1.1.1.2.1.3.1.2.2.5.4.6.1 0 .2-.1.2-.1.1-.2-.2-.5-.2-.7-.2-.3-.2-.7-.2-.9.5.1 1.1.2 1.4.6l.1.5c.1.2.2.5.4.6l-.1.6c.3.1.4.3.6.4zm3-2.3c.1 0 .6.2.6.3v.2l-.2.1c-.1.2 0 .8-.5.7l-.4-.2v.1c.1.1.1.2.2.2l-.2.2c-.5 0-.6-.5-1-.7l-.6-.2c-.2-.1-.5-.4-.6-.5l.2-.3c.3.1.4.4.8.4l.4-.4v-.1c-.1 0-.5-.4-.5-.4v-.1h.4c.1 0 .1-.1.3-.1l.2.2c.1 0 .6-.1.6-.2.2 0 .4 0 .5.2 0 .1-.1.1-.2.1l-.1.2-.4.2v.2c.4-.1.4-.1.5-.1zm4.5-2.5c.2 0 .2 0 .2-.2h.3l.2-.1.7.3.2-.2c.3-.2 1.6-.4 2.1-.3l.5.3c.3.1.5.1.7.3-.1 0-.6.2-.5.4l.1.3-1.1.1-.3-.1c0-.1 0-.3-.1-.3l-.2-.1h-.1v.3c-.1 0-.6.1-.8.1l-.5-.2v.2c-.3 0-.6.1-.9 0-.1-.1-.1-.2-.1-.4-.1 0-.3 0-.4.1l-.1.2c-.4.3-.7-.1-.9-.3l-.2.2h-.3c0-.2-.2-.4-.2-.7.4-.4 0-.6-.2-.8 0-.1-.2-.2-.1-.3l.4-.1h.6c.2.1.4.2.7.3l-.6.2-.1.2c.3 0 .6 0 .8.1-.1.3.1.4.2.5zm13.8 8l.5.3c-.1.1-.1.2-.2.2-.2.1-.3-.2-.6 0 .1.1.3.2.3.3-.2 0-.3.1-.4.3l-.3-.2c0 .1 0 .3-.1.4l.1.3c-.1 0-.4-.1-.4-.2l-.1-.2-.2.1c-.1-.1-.1-.1-.2-.3 0-.1 0-.1.1-.2l-.4-.1c-.3-.1-.4-.4-.8-.5-.1.1-.2.1-.2.2l.3.3h-.2c-.1-.1-.2-.2-.4-.3.1.2.2.4.3.5h.3c.1.2.2.5.4.7l.1-.1c.1 0 .2.2.3.3l.3.2h-.1v.1c.2.3.6.2.5.8-.1-.2-.2-.4-.4-.5 0 .3.3.4.3.8h-.2l.2.4c-.2-.1-.4-.2-.5-.4-.6 0-.7-.4-1.1-.6v.3c-.2-.1-.3-.2-.6-.2 0 .4.6.5.8.7.3.2.6.5.7.9l-1.1-.4-.6-.1c-.1-.1-.1-.2-.2-.2h-.3l-.1-.1h-.2c-.2-.1-.4-.1-.5-.3.1-.1.2-.1.2-.2l-.3-.2h-.3c-.2-.1-.4-.3-.4-.6-.3 0-.4-.1-.7-.2 0 .1.1.2 0 .3h-.1l-.5-.1-.2.2c-.4 0-.8-.1-1.1-.2 0-.3.1-.4.4-.5v-.3c.1 0 .7.1.8.2l.2.2v-.3c.3 0 .4-.1.6-.1h.3v-.1c-.1-.1-.5-.5-.4-.5l.6-.4c0-.1.1-.2.1-.2l.3-.3c0-.2-.3-.8-.4-.9-.3-.1-.4-.1-.6-.3 0 0-.2-.3-.2-.4l-.2.2h-.2c-.1 0-.3.1-.5.1 0-.1 0-.2-.1-.3.2 0 .4 0 .5-.1v-.1l-.7-.5h-.2l-.1-.1c0-.4-.3-.3-.5-.5-.1-.1-.2-.1-.2-.2-.1 0-.1 0-.2.1-.1 0-.4-.3-.5-.2h-.1c.1.3.8.2 1 .5v.1l-.2.1c-.4.1-.7-.4-1-.2 0 .2.2.2.1.4-.1-.1-.3-.3-.5-.2-.1 0-.2.1-.2.1-.1-.1-.2-.2-.4-.1h-.2l-.7-.1h-.6l-.2-.1v-.3c-.1 0-.2 0-.3-.1l-.1.2c-.4.1-1.1-.1-1.1-.5.2 0 .9.1 1 0-.4-.4-.9-.3-1.5-.5 0-.3.1-.4.3-.5v-.1c-.1-.1-.2-.1-.2-.2 0-.9 1.4-1.8 2.3-1.4v.1c-.2.1-.7.7-.8.8v.2l.3.2c-.3.5.3.7.5.9v.1l-.3.1v.1c.2 0 .4 0 .6.1 0-.1.2-.3.1-.4.1-.2 0-.2-.2-.3-.1-.1-.1-.2-.2-.2 0-.1.2-.2.2-.2h.4c-.1-.1-.2-.1-.2-.2h-.2l-.2-.1v-.4l.2-.1c.2.1.4 0 .6 0l-.5-.3c.3-.1 1.2-.6 1.7-.3.1.1.2.2.3.4l.3.3-.3.6v.3c.3.1.5 0 .5-.3.2 0 .3 0 .4.1v.3c.1 0 .1 0 .2.1v-.4c.2-.6.8-.3 1.3-.2.2 0 .3-.1.4 0l.2.3.3.2v.1c-.2 0-.4.2-.5.4l.1.1h.1c.1-.1.3-.2.5-.2.1.1.2.3.3.5.1-.2.3-.3.4-.4.3.1.5.1.7.3l-.3.4c.3 0 .4-.1.6-.1v.3l.2.1c.4 0 .6-.3.9.1-.1.2-.4.2-.6.4v.1l.1.1.3-.1h.3c.1 0 .1-.1.2-.2.2 0 .4.3.5.5-.2 0-.4 0-.6.1v.1c.1.2.4.1.6.2.1 0 .1.1.2.2h-.5c-.1 0-.3-.2-.4-.1 0 0 0 .1-.1.1l.3.2v.1h-.4c.1.3.6.3.9.5.1.1.1.3.2.3.3-.1.3 0 .6 0l.4-.1c.2.1.4.3.5.5l-.3.1v.2c.3 0 .6-.1.8 0 0 .1 0 .1-.1.2.3-.4.4-.4.6-.6zm1.2-8.3l.1-.2c.1.1.1.2.1.3-.1 0-.2 0-.2-.1zm.8 3.1c0-.1.1-.1.2-.2.3-.1.5 0 .7.1.1.1.1.1.3.2.1 0 .4.1.3.3-.1.1-.2.2-.4.3h-.3c-.1 0-.2.1-.2.1-.1 0-.3-.1-.3-.2l.1-.1h0c-.1 0-.1 0-.2-.1h0l-.2-.2s0-.1.1-.1h.1c-.1-.1-.2-.1-.2-.1zm-9.4 36.8c-.1.1-.1 0-.2 0s-.2.1-.2.1c-.1 0-.5-.2-.5-.3l.1-.1c.2 0 .7.1.8.3zm.4-10.2zm-.1-.1zm.2.4c-.1-.1-.1-.2-.1-.3l.1.3zm.6 8.8l-.6.1c-.2 0-.3 0-.5-.1-.2 0-.4.1-.7.1l.1-.1c.1 0 .2-.1.2-.2l-.7-.2c0-.1 0-.3-.1-.3-.1-.1-.3 0-.5 0l-.6-.3-.7-.1c.1 0 .2 0 .2-.1v-.1c-.5-.1-.5.1-.8.2h-.3c0 .1-.2.3-.4.2l.1-.1v-.2c.2-.1.4-.2.7-.3h.4c.4 0 .7.1 1 .1h.1l.3.3c.3.1.6.1.8.3.1.1.1.2.2.2.2.1.7.1.8.2 0 0 0 .1-.1.1.7 0 .9.1 1.1.3zm.4.2c.1-.1.1-.1.2-.1l.6.1c.1 0 .2-.1.2-.1h.2s.1 0 .2-.1c.1.2.3.1.5.1.1.3.6.3.8.6 0 .1-.1.2-.2.2-.1-.1-.2-.3-.4-.1 0 0-.1-.1-.2 0-.1 0-.2.2-.3.1l-.1-.1c-.2.1-.3.2-.4.4-.1 0-.2-.2-.3-.3h-.4c-.1 0-.3 0-.4-.1l-.2.1-.3-.2s0-.1.1-.1c.3.1.8.2 1 0-.3-.1-.1-.2-.2-.4-.1.1-.3.1-.4 0zm3.2.7c.3-.1.6-.1.8 0 0 .2-.2.2-.4.2s-.2.1-.4 0v-.2zm.1 6.3c.1 0 .2 0 .3-.1h.1l-.1.4h-.4l.2-.1v-.1c0-.1 0-.1-.1-.1zm3.2-22.1c.2-.1.3-.5.5-.1-.1.3-.7.4-.8 0-.1-.3.3-.5.4-.7l.2.1-.2.4c0 .1-.2.1-.1.3zm3.8 27.8l-.2.5c-.1.2-.6.3-.9.2-.1-.2-.1-.5 0-.8.3 0 1 0 1.1.1zm.4-28.9c0 .2-.1.4-.2.5l-.3-.1v-.2l-.1.1h-.1v-.1c.1-.1.1-.1.1-.3 0-.1-.1-.1-.1-.1h-.1c-.1.2-.4.4-.6.5h-.2v-.1c.3-.1.3-.3.5-.4h-.3c0 .1 0 .1-.1.1h-.1v-.2h-.2c0 .1-.2.2-.4.1l-.6-.1c-.2 0-.3 0-.5.1 0-.1-.1-.1 0-.2.1-.2.4-.2.6-.4-.1 0-.2 0-.3-.1.1-.3.3-.1.4-.3l-.2-.2c.1-.4.6-1.1.9-1.3l.4-.1h.1v.1c-.1 0-.2.1-.2.1.2.4-.4.6-.4 1.1.2 0 .2-.2.4-.3.1 0 .2.1.2.1l-.2.2c.2.1.4.3.6.2 0 0 0-.1.1-.1l.6.1s0 .1-.1.1l-.3.2c0 .1.1.1.2.2.1 0 .2 0 .2-.1h.1v.1c-.2.2-.2.1-.4.2l.1.3c0-.1.1-.1.1-.1h.1c.1.4.1.4.3.4zm2.6-11.1l.2-.2h.1v.1l-.3.1zm-16.1 63.6c-.1 0-.2 0-.3-.1l.2-.8h.2c.1 0 .1.1.1.2l-.2.2.1.2c0 .1 0 .2-.1.3zm-23.7-69.1c0-.1-.2-.3-.1-.4.1 0 .3-.1.3-.1.1.1.1.3 0 .4.4.3.7-.3.8-.3.2-.1.8.1 1 .2.7.3 1.8.8 2.7.6.3 0 .8.3.9.5l-.7.1c0 .1 0 .2-.1.3.5.1 1 .3 1.7.2.3-.1.6-.2.9-.2.3 0 .4.2.5.2.3.1.5.1.7.3v.1c-.1 0-.2.1-.2.1l.4.4v-.3c.1 0 .2 0 .2-.1-.1-.3-.4-.3-.3-.9.2 0 .6-.1.7-.1l.1-.2c.5 0 .6.3 1.2.2.1.2.7.5 1.1.4.1 0 .1-.1.3-.1.5 0 1 0 1.3-.1.2.1.3.3.6.3 0-.1.1-.2 0-.3-.1-.1-.4-.1-.6-.2v-.2c.4-.1.5.1.8.1l.3.1c0 .2-.1.3-.1.4 0 .3.4.4.5.5 0-.3-.2-.7 0-.9h.4l.3-.3.4-.1c0-.1-.1-.3-.2-.3-.1.1-.2.1-.4.1l.1-.2.4-.1c.1.1.2.2.3.2v-.5c-.4.1-.5-.1-.7-.2h-.2c-.3 0-.9-.2-.9-.6l.3-.2c-.1-.1-.2-.2-.4-.3l.3-.5.4.1v-.2c-.1-.1-.2-.1-.2-.3.1 0 .1-.1.2-.2.5-.2 1.1.2 1.2.4.1.2 0 .3 0 .4l.7.6s0 .1-.1.1c-.2 0-.3 0-.3.1s-.1.2-.1.2c.2 0 .2.1.3.1h.3c.2-.1.4.1.5.2-.1.1-.1.2-.2.2 0 .1.1.1.2.2s.1.4.1.6c.4-.1.3-.6.6-.8.3 0 .7.5.6.9h-.3l-.1.3c0 .1.5.6.6.7.1 0 .3-.1.4-.2 0-.4.3-.4.4-.6.1-.2 0-.5.2-.6h.4v-.2l-.4-.3v-.4l.1-.1c.4 0 .6.1.9.2l.3.1.3.3c.1 0 .2-.1.3 0 .1.1.1.4.1.5l-.2.1c-.1 0-.2-.1-.2-.2l-.3.1c.1.5.5.7.7 1.1 0 .3-.4.7-.5.7-.2.1-.3.1-.4.2-.4-.1-.4-.6-.8-.6l-.1.1c.2.1.5.3.6.5h-.4c-.3 0-.4 0-.4-.3-.2 0-.6 0-.7.1v.1l.4.2c-.1.1-.7.8-.9.7l-.4-.3-.3-.1-.3-.1c-.2-.1-.4 0-.6.1l.6.2.4.3c.2.1.6.2.9.2l-.1.4c-.1.2-.6.5-.9.5-.2 0-.3-.1-.4-.2 0 .2.1.4 0 .5-.4 0-.6-.1-.9-.2l-.9-.1.5.3c.4.1.6.1.9.3v.1c-.1.1-.2.1-.4.2-.2 0-.4-.1-.5 0l.3.2c-.1.2-.6.4-.8.6 0 .1.1.2 0 .3-.1.1-.2.1-.3.1-.3.3-.7 1.5-.4 1.9l.7.1c.2.1.4.7.4.9v.4c.3 0 .5-.2.9-.2.5.1 1.1.4 1.4.6.1.1.2.2.2.3l.8.2c.2.1.3.2.4.2.3.1 1.2 0 1.5.2l-.1.5.1.3c.1.3-.1.4-.1.6.2.2.3.2.3.6.3 0 .6.3.7.6.3 0 .3.2.5.3l-.1-.3c0-.1.1-.2.2-.2s.1.2.2.3v-.4c.3-.2 0-.5 0-.8v-.2l-.1-.3h.1c0-.3-.2-.2-.3-.3-.1-.1-.1-.2-.1-.4.8-.1 2.1-1.2 1.4-2.2-.2-.3-.8-.5-.9-.8.2-.1.3-.3.3-.5 0-.1 0-.1.1-.2l.2-.1c0-.1 0-.2-.1-.3l-.1-.2c0-.1.1-.1.1-.3h-.4l.4-.6-.3-.2c-.1-.3.2-.6.4-.5.3 0 .6.2 1 .3.4.1.8-.2 1-.1l.9.6c-.1.1-.1.1 0 .2l.8.3c.2 0 .2-.1.3-.1 0 0 0 .1.1.1v.2c-.4.2.2 1 0 1.3h-.2v.3c.4-.1.6-.3.8.1v.1s0 .1.1.1l.6-.2.2-.3c.2 0 .2.2.3.3 0-.4.2-.5.3-.7-.3-.4-.1-.2.2-.4l.1-.2c.3.1.7.9.9 1.1l-.1.2h.1c.1.5.4.3.5.6-.1 0-.1 0-.2.1l.4.3v.2c-.1 0-.4-.1-.5 0 .1.1.2.4.3.4h.2c.1 0 .5.4.5.5l-.1.3.5-.1c.2 0 .4.2.6.3l.6.1c-.1.2-.3.2-.5.2l-.5.3h-.3c-.1.1-.1.2-.1.4.2-.1.4-.1.5-.2.3-.2.6-.7 1.1-.2l-.1.2s0 .1.1.1l.3-.1c.2 0 .4.2.4.3l-.2.4.2.3-.7.5-.8.1-.4.5c-.3.2-.7.2-1.1.3h-.9c-.3 0-.6.1-.9 0-.2 0-.6-.1-.8 0-.3.1-.3.5-.5.6-.1.1-.4.1-.5.1-.5.3-1.1 1-1.4 1.6l.9-.9c.4-.3.9-.4 1.4-.6.5-.2 1-.2 1.2.3-.1.1-.5.4-.7.4l-.2-.1c-.1 0-.2 0-.3.1.2 0 .3.1.4.3l.3-.1v.1h.1s.1 0 .1.1l-.1.1c-.1.2-.1.2-.2.3h.3v.2h.1c-.1.3.3.2.5.3h-.1c.1 0 .1.1.1.1h.1s.1 0 .1.1c.1 0 .2-.1.3 0v.1h.2l.2-.1c0 .2.1.1.2.1l.1.1h-.1c.1 0 .2 0 .2.1h-.4c-.3 0-.5.2-.7.3l-.1-.1v.1h-.1c0 .1 0 .1-.1.1h-.2v-.1s0 .1-.1.1v-.1h-.1v.2c-.2 0-.2.2-.4.3v.1h-.2v.1h-.1l-.1-.2c0-.2-.1-.3 0-.5 0 0 .1 0 .1-.1l-.2.1.2-.1h0c.1-.1.6-.4.7-.4v.1h.1v-.1c.1 0 .2-.1.4-.1-.2 0-.6-.1-.8 0v-.1c.1 0 .3-.1.3-.3 0 0-.1 0-.1.1 0-.1 0-.1-.1-.1v.1s0 .1-.1.1c-.3 0-.4.2-.6.3 0 0-.1 0-.1-.1v.1l-.2.1c-.1-.1-.2-.1-.3 0h-.1s0 .1.1.1c0 0 0 .1-.1.1h.1v.1c-.1 0-.1.1-.3.1v.1s-.1 0-.1-.1c-.1 0-.1.1-.2.2v-.1l-.2.1v.1h-.1v-.1c0 .1-.1.3-.2.4h-.1v.1h-.1v-.1h-.1v.1h-.1v-.1s-.1 0-.1.1v.1c-.2 0-.2.3-.3.5l.1.1c-.1 0-.2.1-.2.2.2 0 .3.2.3.3h.1c.1 0 .1 0 .2-.1v-.1h-.1s0-.1-.1-.1h.1l.1.2-.4.1v-.1c0 .1-.1.2-.2.2v-.2h-.1v.2c-.6 0-1 .2-1.3.4 0-.1.1-.2.1-.2l-.1.3h-.1c0 .1.1.1.2.1 0 .2-.1.4-.2.5h-.1c0 .2-.2.3-.3.4v-.1c-.2 0-.2-.1-.3-.2l.1-.1c-.1 0-.1.1-.1.1 0 .2.1.5.3.5v.2c0 .1-.1.1-.2.2l-.1.3h-.1l-.1.2v-.1c0-.2.1-.3.2-.4h-.1v-.1h-.1v-.1s-.1 0-.1.1c0 0-.1 0-.1-.1 0 0 0-.1-.1-.1.1 0 .1 0 .2-.1-.1 0-.1-.1-.2 0v-.1h0c.1 0 .1 0 .1-.1h-.1s0-.1.1-.1h0v-.1s-.1 0-.1.1l-.1.1v.1h-.1c.1.3 0 .2 0 .3l.1.2c-.1 0-.1 0-.1-.1l.2.3-.3-.2v.1l-.2-.1v-.1l.1-.1h-.1v.2c.1.1.5.2.5.3 0 .1 0 .1-.1.1l-.2-.2c.1.1.1.2.3.2.1 0 .1 0 .1.1h-.1v.1l-.1-.1.2.2v.1h-.1c0-.1-.1-.1-.2-.2h-.1c.1 0 .2.1.2.2.2 0 .3-.1.3.2v.1h-.1l.1.2v-.1h-.2s0 .1.1.1c0 0-.1 0-.1-.1v.1h-.1v0h.3c0 .1-.1.1 0 .2 0-.1 0-.1.1-.1l.1.1v.1h-.1l-.1.2c-.1 0-.2-.1-.2-.1v.1c-.1 0-.2-.1-.2-.1v.1c.1 0 .2 0 .2.1l-.2.1c-.1 0-.1-.1-.1-.1s0 .1.1.1h.1l.2-.1.1.1-.1.1c-.1 0-.2 0-.4.1l-.3.4c-.1.1-.4.1-.5.1l-.2.3c-.1.2-.4.3-.6.3l-.3.5-.2.5c-.1.4.4.9.5 1.2 0 .1 0 .3.1.4 0 .2.1.3.2.5.1.4-.1.8-.2 1.1v-.1c.6.4.4.4.4.4l-.2-.4c-.3 0-.1-.1-.2-.3 0 0-.1 0-.1-.1v-.2h-.1c-.1-.1-.1-.2-.2-.4.1 0 .1 0 .1-.1v-.1l-.2.1.1-.6c0-.1-.1-.1-.2-.2-.2-.1-.3-.6-.6-.5-.1 0-.2.1-.2.2l-.3.1-.2-.3c-.2 0-.3-.1-.4-.2-.2 0-.3.1-.5 0v.1h-.2l-.1-.2v.2c-.1 0-.4-.1-.6 0l-.2.1c-.1 0-.2-.2-.3-.1 0 0 0 .1-.1.1.1.1.2 0 .3 0 .1 0 .2.1.2.2l-.2.1c0 .2.2.2.3.3h-.3c0-.1-.2-.2-.3-.2v.1s.1 0 .1.1h-.1s0-.1-.1-.1l-.2.1-.2-.1-.1-.1-.3-.2h-.1l.1.1c-.1.1-.2 0-.3 0-.2 0-.5-.2-.8-.1-.1 0-.1.1-.3.1v-.1s-.1 0-.1.1l.1.2c-.2.1-.3.3-.6.4-.2 0-.3-.1-.4 0l.1.1-.5.3.1.1-.2.2.1.8c-.1.1-.2.3-.2.4 0 .1 0 .3-.1.4-.1.5 0 1.4.2 1.7.1.2.3.4.5.7.1.2.2.4.4.6h.4c.1.1.2.2.3.2.3 0 .9-.2 1.2-.3v.1h.2l.1-.1c0-.1-.1-.1-.1-.1.1-.1.3-.1.4-.3v-.2l.1-.1v-.3l.1-.3c.5-.2 1.4-.5 1.9-.2v.2l-.3.3s-.1.4-.2.4h.1l-.1.6-.1-.3v.2h.1v.1l-.1.9c-.1.1-.2.1-.3.3l.1.1v-.1l.2.1c.3-.1.6 0 .9 0l.2-.1s.1 0 .1.1h.5l.2.1v.2l.3.1c.1.2.2.4 0 .6l-.1.2-.1.7-.1.6c.1.3.6.7.8.9 0 .1.1.2.1.2.1.1.2-.1.4.1.3.1.4-.1.6-.2h.2c.1-.1.2-.1.2-.2.1 0 .2 0 .3.1h.4c.3.1.5.4.6.7-.1.1-.1.2-.2.2 0 0 0-.1-.1-.1 0 .1 0 .1-.1.2.1 0 .1 0 .2-.1s.2-.4.5-.3c.1 0 .2.1.2.2l-.1.1c-.2 0-.4 0-.4.2.1.2.1.3.2.4-.1.1-.2.3-.2.4.1.1.1.3.3.4l.3-.1c.1-.2-.2-.6-.3-.7 0 0 .1 0 .1-.1.2-.1.9-.3.9-.4l-.1-.1h-.1l-.1-.1c0-.1.1-.1.2-.1 0 .1.1.3.2.3.3 0 .6.1.7.3 0 .1 0 .2.1.2h.8c.3 0 .4.4.9.3.2 0 .2-.2.4-.3.2-.1.7-.1 1 0h-.4v.1c.2.1.3.1.3.3 0-.1 0-.1.1-.1s.2 0 .3.1c0 0 0 .1.1.1.1.1.2.1.3.1-.2.1-.2.3-.5.4h.3c.1 0 .3-.1.4 0 .3.1.7.3.8.6 0 .2 0 .3.1.5 0 0 0-.1.1-.1.3 0 .6.3.7.5l.1-.1.5.1v-.1c.3-.1.7 0 .9.1l.6.2c.1.1.7.6.7.6h.1c.1.1.1.2.1.3.1.4.1 1 .6 1 0 .1.1.2 0 .3-.2.1-.2.3-.3.4l-.5.4c-.1.2-.1.4-.3.5.2.1.4-.2.6-.2l.2.4h.7c0 .1-.1.1-.1.3.1-.2.4-.3.5-.4.1-.1.1-.3.2-.3s.3 0 .4-.1l.3.2c.3.1.6.1.7.4l.1-.1c.1 0 .3.2.3.4s-.2.1-.1.4c.2-.1.4-.3.7-.4.2 0 .4.2.5.2l.5.1h.8c.5.2.8.7 1.3 1l.8.1c.1 0 .4 1.1.4 1.3-.1.7-.5 1.1-.9 1.5-.1 0-.2.1-.2.1l-.1.3c-.1.2-.3.6-.5.8l-.1-.2h-.1c0 .3-.1.5-.2.8l.1.9c0 .2-.1.5-.1.6v.4c-.2.1-.4.3-.3.6v.3c0 .1-.2.2-.2.2-.1.1-.1.2-.2.4s-.3.3-.3.5v.3c-.3 0-.5.1-.5.4-.3 0-.6.1-.9 0h-.5c0 .2-.1.2-.3.3l-.2.2-.2-.1c-.2 0-.9.5-1 .7-.1.1-.2.3-.4.2v.1c.2.1 0 .4 0 .4l.1.3c.2 1-.4 1-.7 1.5l-.3.6c-.1.2-.3.5-.5.6.1-.3.5-.5.4-.9h-.3l-.1.4c-.1.1-.3.2-.3.3l-.1.6c-.1.3-.4.5-.6.7-.2.2-.3.5-.6.6-.2.1-.3-.1-.4-.1l-.5.1c-.2-.3-.4-.3-.8-.2-.1-.1-.2-.2-.3-.2l-.1.1c.2.3.5.3.7.5 0 .1 0 .1-.1.2-.1.3.2.3.3.4 0 .1.1.2 0 .3l-.3.5c-.1.1-.1.2-.1.3-.2.3-.8.3-1.2.4-.3.1-.6.1-.9 0-.1 0-.3-.1-.3 0-.1.2.1.3.1.4-.1.1-.2.3-.2.4 0 .2.1.2.1.3 0 .1-.1.1-.2.1-.1.1-.4.1-.6.1l-.6-.2s0 .1-.1.1c0 .2.1.3.1.4 0 .1-.1.2 0 .3.1 0 .2.3.4.1l-.1-.1.3-.1c0 .1 0 .2.1.4-.1 0-.1.1-.2 0 0 0 0-.1-.1-.1s-.4 0-.4.1l.3.1c-.2.1-.4.2-.5.3 0 .4.1.4-.2.6l.1.2c-.2 0-.3 0-.5.1-.3.1-.7.5-.5 1 .1.2.3.3.5.4.1 0 .2 0 .3.1.2.7-.6.7-.8 1.1-.1.1-.1.2-.2.2 0 .2.1.3-.1.5-.1.2-.4.1-.6.3-.4.5.1 1 .3 1.4-.2.1-.3 0-.4-.1h-.1c-.1.1-.1.2-.3.2l-.4.1-.1.7h-.2l-.2-.1c.1-.2.2-.3.4-.5l-.1-.1c-.2 0-.4.2-.7.2v-.2c.2 0 .4-.1.6-.2-.1-.1-.3-.1-.5-.1l.1-.3c-.1 0-.2-.1-.2-.2l-.2.1s-.1 0-.1-.1l.1-.2c-.1 0-.1 0-.2.1 0-.1-.1-.1-.1-.1v-.1l.1-.1v-.1l-.3-.2c.2 0 .3-.2.4-.4-.1 0-.2.1-.3 0 0-.1 0-.1-.1-.2l.1-.1c-.1-.1-.1-.1-.1-.3l.2-.1v-.1l-.2.1v-.5l.1-.1v-.3l.4.1v-.2l-.2-.1h-.4v-.1c.1-.1.1-.2.1-.3h.1v-.1c-.2-.2-.3-.1-.5-.2v-.1h-.2v-.1c.2-.1.3-.2.4-.4h.2v.1c-.1 0-.2.1-.2.1v.1c.1-.1.1-.1.1-.2v.2l.2-.3c.1-.4-.1-.3.3-.6-.1 0-.2-.1-.1-.2 0-.1.1-.1.2-.1.1-.1.2-.2.2-.3v-.1c-.1 0-.2-.1-.2-.1v-.3c.1-.3-.1-.3.2-.4 0-.1-.1-.2-.1-.4 0-.1.1-.1.1-.1v-.1c0-.1-.1-.1-.1-.1 0-.1 0-.1.1-.2h-.2c-.1.1-.2.2-.3.1l-.1-.3c-.1-.5.3-.7.3-1 0-.2-.1-.4-.1-.5v-.5l-.1-.3c.1 0 .2 0 .3-.1.1-.6.4-1.1.6-1.7 0-.2.2-.3.2-.4l-.1-.3c.1-.1.1-.2.2-.2v-.2c0-.2-.1-.9-.1-1 0-.1.2-.2.2-.4.1-.2-.1-.3-.1-.5l.1-.6.1-.2c.1-.2.2-.8.1-1.1l.2-.3v-.2c0-.2 0-.5.1-.7l-.1-.1v-.2l.1-.1c.1-.5.2-2.2-.1-2.6l-.4-.2-.1-.3c-.2-.1-.4-.2-.5-.2-.6-.3-1.2-.6-1.6-1.1l-.2-.3v-.4c0-.1-.2-.2-.2-.4-.2-.3-.2-.6-.5-.8 0-.5-.7-1.5-.9-1.8-.1-.2-.2-.4-.3-.5-.2-.2-.4-.2-.6-.3h.2l-.3-.7.9-.9v-.3c-.2.2-.3.4-.6.1.1 0 .1 0 .1-.1 0-.2 0-.4-.1-.6l.3-.2-.1-.1.2-.3v-.4c.3-.1.4-.1.6-.3 0-.1 0-.1-.1-.1v-.1h.2v-.3c.1 0 .4 0 .4-.1l.3-.6-.2-.2.1-.3c0-.2-.1-.3-.1-.4.1 0 .1 0 .1-.1s-.1-.1-.2-.2l.1-.2-.3-.3.1-.3.1.1.2-.2c0-.2-.1-.2-.2-.4.2.1.2.2.3.4l.1-.1-.1-.2.4-.4h.2c.1-.3 0-.6.3-.8l.2-.1c.1 0 .1.1.1.1s.1 0 .1-.1 0-.2.1-.3c.2.1.5 0 .6-.1-.1-.1-.2-.3-.2-.4 0-.1.1-.1.2-.1-.1 0-.1-.1-.1-.1l-.2.1c-.1-.3-.3-.4-.7-.2v.2c-.1 0-.3.1-.4.2.1.1.2.2.2.4l-.4.1-.1-.3v.1c-.2 0-.2-.1-.3-.3l-.6-.1-.1.1c0-.2-.1-.3-.2-.4l.1.1c-.1 0-.2 0-.2-.1.2-.3-.2-.3-.4-.4-.1 1.7-.1 1.6-.1 1.5l-.3-.1v.1c.1 0 .1 0 .1.1l-.1.1c-.1-.2-.3-.1-.4-.4l.1-.2v-.1s-.1 0-.1-.1h.1v-.1c-.1 0-.2-.2-.3-.3-.2-.2-.5-.4-.7-.7v-.1h.1c0-.1-.1-.2-.2-.2 0 .1 0 .1-.1.1-.6 0-.9-.3-1.4-.4l-.5-.1c-.4-.3-.9-1-1.4-1.1-.5-.1-.6.2-1 .3-.1 0-.8-.1-.9-.2l-.6-.3-.4-.1-.6-.3c-.2-.1-.4-.4-.6-.3l-.6-.2c-.1-.1-.2-.3-.4-.4l-.4-.2c-.1-.1-.2-.2-.3-.4l-.1-.1.2-.2-.1-.1c.2-.2 0-.4-.1-.6 0-.1 0-.1.1-.2l-.9-1.1-.3-.2c0-.1 0-.2-.1-.2l-.3-.1-.1-.2h-.2l-.1-.1c-.1-.1 0-.2.1-.3-.1-.2-.2-.2-.3-.2-.1-.4-.3-.2-.4-.5v-.2l-.3-.1c-.3-.2-.9-1.3-.9-1.7l-.3-.1v-.2h-.1s0 .1-.1.1c-.2 0-.3-.1-.4-.2l-.1.4.1.2v.4c.1.2.3.2.5.4l.2.5c.1 0 .2.1.2.1l.1.4h.2c.1.3 0 .5.4.4.1.1.1.3.1.5.1.2.2.4.3.5l.1.4.2-.1c.1.1.1.2.2.4l.2.1c0 .2-.1.2-.2.3h-.1c0-.1 0-.2-.1-.3l-.3-.2c-.2-.1-.6-.4-.7-.6-.1-.1 0-.3 0-.4 0-.1-.1-.3-.2-.4-.1 0-.2 0-.2-.1l-.2-.2c-.3.1-.8-.4-.9-.6.2 0 .4.1.4-.1.2-.2-.1-.5-.2-.6-.1-.1-.5-.3-.5-.4l-.1-.3c0-.1-.1-.1-.2-.1 0-.1 0-.2-.1-.3-.1-.2-.3-.3-.2-.5l-.2-.2v-.2c-.1-.2-.4-.9-.6-.7h-.1v-.1c-.3 0-.3-.1-.5-.2h-.5l-.1-.2v-.2c-.1 0-.1 0-.1-.1 0-.2-.5-.5-.5-.8.1 0 .1-.1 0-.2-.2 0-.2-.1-.3-.2 0-.1-.1-.2 0-.3 0 .1.1.2.2.2-.1-.1-.2-.2-.2-.3v.2s0-.1-.1 0l-.3-.3-.1-.2v-.1l-.3-.5.1-.7c0-.2-.3-.7-.2-1 0-.1.1-.1.1-.1l.1-.2-.1-.2c-.1-.2.1-.4.1-.6.1-.3.1-.7 0-.9h-.1v-.4h.1s-.1 0-.1-.1v.1c0-.4-.3-.5-.2-.9l.5.1c.2 0 .5-.1.5.2l-.2.2.2.1c0-.2.2-.3.2-.6 0-.1-.1-.2-.1-.4-.1-.2-.4-.2-.3-.5-.1 0-.1.1-.3.1l-.1-.3c-.1 0-.1.1-.3.1-.2-.1-.2-.3-.2-.5-.2 0-.4 0-.6-.1 0-.1-.1-.2-.1-.2-.2.1-.5.2-.6-.1 0-.1.1-.3.2-.3-.1-.1-.2-.1-.3-.1l.2-.2c.1-.1.2-.1.2-.2-.2 0-.4.1-.5 0v-.3h-.2c-.1-.2-.2-.3-.2-.6-.2 0-.2.1-.3.2-.2-.2-.4-.4-.4-.7.1-.1.2-.2.2-.3l-.1-.2v.1l-.3.1s-.1 0-.1-.1v-.4l-.2-.4c-.3 0-.3.1-.5.1 0-.2.1-.4 0-.4-.1-.3-.4-.4-.6-.6.1-.1-.1-.2-.1-.4l.1-.1c-.2-.1-.2-.1-.3-.3l-.3-.2-.3-.6h-.1c-.1.3.1.5.1.7-.3 0-.3-.2-.4-.4-.1.1-.2 0-.4 0 .1.1.2.1.2.3-.1 0-.3 0-.4.1-.3-.1-.4-.4-.6-.5h-.2c-.2 0-.4-.2-.5-.3.1 0 .2-.1.2-.1 0-.1-.1-.1-.1-.1l-.3.1-.6-.1v-.2c-.2 0-.2 0-.3.1h-.5c-.2 0-.5.1-.7 0-.2-.1-.2-.2-.3-.3-.1.1-.1.1-.3.1l-.5-.4c-.3-.1-.5-.1-.7-.3l-.3.1v.2c-.1 0-.2.1-.2.2.3.2.4 0 .2.5l-.5-.1c-.2 0-.2.2-.3.3l-.3.1c-.3.2-.3.2-.7.3 0-.2.1-.2.2-.3 0-.2-.1-.2-.2-.3 0-.1.1-.1.2-.2.1-.5.1-.7.4-.8.2-.1.5.1.6 0-.2-.1-.4-.4-.7-.3l-.5.4-.3.1-.2.2c-.1 0-.1 0-.2.1.2.5-.7.3-.7.9l.1.1c.2 0 .3 0 .4.1-.1.2-.3.2-.4.3l-.3.3-.5.1-.6.4.1.2c-.1.2-.4.2-.7.3-.1 0-.3.1-.4.2l-.1.2c-.2.2-.7.3-1 .1.1-.1.5-.5.7-.5h.3v-.3l.5-.3.1-.5.2-.2c0-.1 0-.2.1-.3l-.6.1-.1-.2c-.1 0-.2.1-.2.1 0 .1.1.2 0 .3-.2.1-.3-.3-.5-.4-.4-.1-.4.1-.6.2-.1 0-.4.1-.4 0-.1-.2 0-.4 0-.6 0-.1-.1-.4-.2-.5-.1.1-.8.3-.9.2-.1 0-.5-.5-.5-.5.1 0 .1-.1.1-.2.2 0 .5.2.7.1-.1-.1-.1-.2-.2-.2l-.3.1-.7-.3-.2-.4c.1 0 .1 0 .2-.1v-.2s.1 0 .1-.1 0-.2.1-.2l.2-.2.4-.4c.1 0 .5.2.5.2.2 0 .2-.2.4-.3.1-.1.5-.1.7-.1 0 0 .1 0 .1-.1 0-.3-.1-.5-.2-.7h.2v-.1c0-.2 0-.3-.1-.3l-.4.2-.4.3c-.2 0-.4-.1-.5-.1h-.6c-.3.1-.6-.1-.8-.2v-.3h.1c.2 0 .3 0 .4-.1-.4-.1-.9-.2-1.3-.4v-.1c.3-.1.7-.2 1-.4.4-.1.7-.5 1.2-.3v.3c.5.1.9.2 1.2-.2.2 0 .5.2.6 0v-.2c-.1 0-.9-.1-.9-.2l-.1-.3-.9-.1c0-.5-1.2-.9-1.6-1 .2-.1.2-.2.3-.4.5 0 1.1 0 1.3-.3l.1-.3c.1-.2.3-.5.5-.6l.8-.3h.5v-.1c-.1-.1-.1-.2-.2-.2v-.1c.4 0 1 0 1.3-.1l.5-.3c.2-.1.4.1.5.2-.1.1-.1.1-.1.2l.3.1.2-.2.3.1c.3 0 .5 0 .8.1.2.1.3.4.5.4h.1c.2 0 .4.1.7 0 .2 0 .4 0 .6-.1.3 0 .5.1.7.2.3 0 .5 0 .8.1l.5.1 1-.1 1.1.5h.4c.2 0 .5.1.7.2.2.1.4.3.7.3l.7.1.4.2c-.1-.1-.1-.3-.3-.4v-.2l.3-.2h.1c.1 0 .1 0 .2-.1.2-.1.4.1.6.1l.3-.2h.1l.2-.1.5-.1.2-.2c.2-.1.5 0 .6 0-.1.2-.2.2-.4.3-.1.1-.2.1-.2.2 0 .2-.2.3-.4.3l-.2.2c-.3.2-.4 0-.6.3l.5.4v-.3c.3-.1.4-.2.5-.4.5 0 .5-.2.9-.3.2 0 .3 0 .5-.1l.2-.2c.2-.1.4-.1.5-.3-.1-.2-.2-.3-.3-.4.6.1.6.7 1.1 1 .1.1.4.3.6.2zm25.3 23.4zm0 0zm-47.2-10.7c-.1 0-.2 0-.3.1l-.1-.1c0-.1.1-.1.2-.2.1 0 .1.1.2.2zm.5-.5h.2l.1.1c0 .1-.1.2-.2.2l-.1-.3zm1.6-.7c.1 0 .3.1.3.2-.1 0-.1 0-.2.1-.1 0-.2-.1-.3 0l-.2.2c-.1 0-.2 0-.2-.1l.2-.2.4-.2zm.3-.1h.2v.1l-.1.1c-.1-.1-.2-.1-.1-.2zm.7-.4c.1-.1.1-.1.2-.1.2 0 .4.1.5.2v.1h-.6c-.2.1-.2.3-.5.2v-.2c.2 0 .2-.1.4-.2zm1.8 20.8c.1 0 .1.1.2.2h-.2c0-.1 0-.1-.1-.2h.1zm1.1.4c-.1.1-.1.1-.2.1 0 0-.1-.1-.1-.2v-.1c.1.1.2.2.3.2zm.1.3c.1 0 .4.1.4.2s0 .1.1.2c-.1.2-.2.1-.4.2 0 0 0 .1-.1.1 0 0-.1 0-.1-.1 0-.2 0-.2-.1-.4l.1-.1c.1 0 .1 0 .1-.1zm1.2-22.8c.1 0 .1-.1.2-.3h.1c.2 0 .3.1.4.2-.2 0-.3 0-.4.1-.2.1-.2.5-.6.3l-.2-.1c0-.2.2-.2.2-.3.1.1.2.2.3.1zm9-.5c.2.1.1.1.4.1 0 .1.1.2.1.4-.1-.1-.2-.1-.3-.1v.2l-.1-.1-.3-.3c.1-.1.1-.2.2-.2zm.6.6c.1.4.1.3 0 .6-.1-.1-.3-.5-.3-.6h.3zm1.2 1.1v.2c0 .1.1.2.2.2v.3c-.2-.1-.5-.4-.6-.5v-.2l-.1-.2c.2 0 .4.1.5.2zm.4 1.4c-.1.1-.1.2-.1.4-.1 0-.2 0-.3.1-.1-.1-.3-.3-.2-.5.1-.1.4-.1.6 0zm1.9 2.1c.3 0 .5.2.8.3.1 0 .3 0 .4.1.2.1.3.4.4.6.3.2.6.2.6.6 0 0 0 .1-.1.1-.3 0-.6-.1-.8-.2v-.1l.1-.2c-.2 0-.3 0-.3.1-.1 0-.1 0-.2-.1v-.1c-.1-.1-.2-.1-.3-.1v-.1s0-.1.1-.1l-.2-.2h-.2c-.1 0-.6-.4-.6-.5.2-.1.2-.1.3-.1zm25.6 60.5c.1.3 0 .4-.1.5h-.1v-.3h-.2v-.2h.4zm1.9 1.6h.1l-.2-.3c-.2-.1-.2 0-.3-.3.1-.1.2-.1.4-.2v-.1c-.2 0-.4.1-.5 0 .1-.3.4-.4.5-.6.1.1.4.1.6.2v.1c-.1.1-.2.2-.1.3.3 0 .4.2.5.4.3.3.5.6 1.2.6v.2l-.7.1-.3-.1h-.6c-.2 0-.3 0-.5.1-.1 0-.2-.2-.3-.1l-.4.1.1-.3c.1-.2.4-.2.5-.1zm38.3-39.1c.1 0 .1 0 .1.1-.1.1-.1.2-.2.2h-.1v-.1l.2-.2zm18.1 13c.1-.1.4-.8.4-1l-.2-.2.1-.2c-.1-.1-.3-.5-.2-.7.1-.2.2-.3.2-.7h.2l.1-.1c.1 0 .1.1.2 0l.1-.1h.4v-.1c.1-.1.2-.1.2-.2h.2l-.1-.1.2-.1c0 .1 0 .1.1.1l.1-.1-.1-.2h.1v-.1l-.1-.3h.1c0 .1 0 .1.1.1 0-.1.1-.1.2-.2s.1-.3.1-.5c.1-.1.1-.1.2 0s.2.1.2.2c.1.2.1.7.2 1l.1.3c0 .1-.1.3-.2.3-.1-.1-.2-.2-.2-.3h-.1c0 .2.1.4.2.5 0 .2-.2.3-.3.4-.1.2 0 .4 0 .5l-.8 2.6c-.1.3-.2 1-.5 1.2h-.4c-.2.1-.3.2-.5.2l-.6-.4v-.2c0-.1-.2-.1-.1-.4 0-.1 0-.2.1-.3l-.3-.5c0-.1.1-.5.2-.5.3.1.4.1.4.1zm18.5-15.8h.2c0-.1.1-.2 0-.3.3.2.4.3.5.7.1.1.1.1.2.3.1.1.2.3.2.4 0 .3-.4.7-.8.6-.1-.1-.2-.4-.3-.6v-.6c0-.1-.1-.1 0-.2v-.3zm14.4 5.7c.2.1.4 0 .6 0 .1.2.2.3.4.4v.2c.1.1.2.2.4.3l.5.3v.2c.2 0 .3.2.4.4h.1v-.2c.2.1.2.2.3.3l.3.1.1.3c.1.1.2.1.4.1.1 0 .3.2.3.3 0 .1-.2.3-.2.3.1.1.1.2.3.2h.2c.1.1 0 .4.2.5h.1c0 .1-.1.2-.1.2l.2-.1c.1 0 .2 0 .2.1.1 0 .1.2.3.3l-.1.5c0 .2.2.7 0 .9l-.2-.2c0 .1 0 .1-.1.2l-.3-.1.1.2c-.1.1-.8-.6-.9-.8l-.3-.2c0-.1 0-.2-.1-.2-.2-.2-.5-.4-.6-.6l-.1-.4c-.2-.2-.3-.5-.5-.8l-.3-.2c0-.1-.1-.2-.1-.2-.2-.4-.2-.7-.7-.8-.1-.4-.2-.6-.5-.8-.2.1-.2 0-.3-.1-.1-.2-.6-.5-.4-.8.3 0 .3.2.4.2zm5 4.1c0-.1 0-.2-.1-.2l-.3-.1.1-.2.1.1.1-.2c.1.2.1.5.4.6 0 0-.1 0-.1.1v.1c.1 0-.1-.1-.2-.2zm-3.7-14.9l-.3.1-.1.2-.4-.2c0-.2-.1-.3 0-.4l.4-.2c0-.1 0-.1.1-.1 0 0 .1 0 .1.1.1-.1.2-.1.3-.1h.1l.1.1c-.1.1-.3.2-.3.4v.1zm4 5l-.1.2s-.3.2-.4.2c.2-.3.5-.5.7-.7v.2s-.1 0-.2.1zm.5 2.1c-.1.1-.5.2-.5.2 0 .1.1.2.2.2-.1.2-.4.1-.4.2-.1-.1-.8-.2-.9-.1-.2.1-.1.3-.1.5l-.2.2v.2c0 .1-.2.4-.3.5 0 0-.5.2-.6.2-.2 0-.4-.2-.5-.1-.2.1-.3.2-.4.3l-.3-.1c-.1 0-.2.1-.2.1-.2-.2-.4-.2-.5-.6l.1.1h.3c.1 0 .2.2.3.1h.1l-.1-.1v-.1c0-.1.2-.5.3-.6l.4-.1c.1 0 .2 0 .3-.1l.2-.3.1-.1c.1-.1.2-.3.3-.3.1 0 .2 0 .2-.1.1-.1.1-.2.2-.2v.1h.3c.1-.1 0-.1-.1-.2v-.1h.2l.3-.5.1-.3.1.1h.1l.1-.1c0 .1.2.2.2.2l-.1.3c.1 0 .2-.1.3 0 0 0 0 .1-.1.1.2.2.5.3.6.5zm-.1-2.5l.1-.3c0-.1 0-.2.1-.3v.1l.1.3c-.1 0-.2.1-.3.2zm-.8 12.4v-.2h.1c0-.1 0-.1.1-.2.1 0 .2 0 .3.1 0 .1 0 .1.1.1h.1v-.1c.2.1.3.2.4.2.1 0 .2-.1.2 0 .1 0 .2.2.2.3.2 0 .9.1 1 0l.1-.2h.1l.1.2h.3c.2 0 .3.1.5.2v.1c.2.3.6.1.9.2 0 .1-.1.2 0 .3l.1.1-.6-.2-.3.1-.9-.1c-.3-.1-.5-.2-.9-.3l-.5.1c-.2 0-.3-.1-.4-.2l-.5-.1.1-.2c-.1 0-.7-.1-.7-.2h.1zm3.9 10.8c-.1-.1-.1-.1-.1-.2.1 0 .2 0 .1.2zm12-6.9s-.1 0-.1-.1v-.1c0-.1 0-.1.1-.1h.1c0 .1 0 .3-.1.3zm1.6 1.1l-.2.1c.1-.1.1-.1.2-.1zm-.5-4.6c.1 0 .1.1.1.1 0 .1-.2.4-.3.4h-.3c.1-.2.2-.4.4-.5h.1zm-4.2 2h.3c0 .1-.1.2-.2.2h-.1c-.1 0-.2 0-.3-.1l-.1-.2v-.1c.2.2.3.3.4.2zm-.3.3h-.2c.1-.1 0-.1 0-.2h.1c.1 0 .2.1.1.2zm-.6-4.5l-.3.1-.2-.3c.2-.1.4 0 .6.1l.2-.1c.3-.1.6.2.7.4v.1l-.5-.3h-.1v.1l-.4-.1zm-.7-2.3c0-.2.1-.3.2-.4.1 0 .1.1.1.2-.1.1-.2.2-.1.4.1-.1.2-.4.4-.3v.2c-.1 0-.2.1-.2.2.1 0 .2.1.2.1v.1l-.3-.1h-.1c0 .3.1.4.2.6-.1-.1-.3-.2-.3-.4v-.2l-.1-.2v-.2zm-4.6-21c0-.1.1-.2.1-.2h.2c.1.2.2.1.4.1v.1c-.1 0-.1.1-.1.1.1 0 .2.1.2.2-.2.2-.2.4-.3.7l-.3.4h-.1l.1-.3h-.2c0 .1-.1.2-.1.2 0-.1.1-.1.1-.3 0-.1 0-.1-.1-.2l.2-.2c0-.2-.1-.2-.1-.3h-.1l-.1.2c-.1 0-.2-.2-.3-.3.2-.2.4-.1.5-.2zm.2 26.6c.1-.1.3-.1.5-.1l.4.3c0 .1 0 .1-.1.1 0 0-.7-.3-.8-.3zm2-.6c-.1.1-.3.1-.4.1l-.1.1h-.2l-.2.1c-.1 0-.3-.1-.6-.1v-.2c.2-.1.4-.1.6 0l.2.1.5-.1v-.1c.1 0 .2-.1.2-.1v-.1h.1l.1.1v.1c-.2 0-.2.1-.2.1zm-.5-26c-.3.1-.2.3-.4.5-.1-.1-.2-.3-.3-.5.2-.1.3-.2.3-.3.2.1.4 0 .5-.2l.4.1c0 .2-.2.4-.3.4h-.2zm2.2 23.3c.1-.1.2-.1.3-.1h.1l.2.2c-.2.3-.5.1-.6-.1zm.6 2.7l-1.1.5c-.3.2-.4.4-.8.4 0-.1.1-.3.1-.3.1-.2.4-.2.6-.3.1-.1.1-.2.2-.2l.9-.1c0-.1 0-.1.1 0zm-3.5-3.8c0 .1 0 .1.1.2h.3l.2-.3c.1 0 .1.1.1.1s.4-.1.5-.1c.1 0 .1-.1.1-.1s.1 0 .1.1v.2l-.2-.1-.3.3-.3.2h-.2v.1c.2.1.5.4.5.6-.1.2 0 .4.2.5v.1c-.2 0-.4 0-.4.2h-.2v-.3l-.3-.3c0-.1.2-.2 0-.4-.2 0-.2 0-.4.1 0 .1.1.2.1.4 0 .1 0 .2-.1.4l.1.2-.1.3s0 .1.1.1l-.4.1c-.1-.1.1-.9 0-1.1h-.3v-.4l.3-.4v-.3c0-.1.1-.2.1-.2h.1c0-.4.1-.7.3-.9l.1.1c.1-.1.1-.2.2-.2.2-.1.3.1.4.1h.3l.3.1s.1 0 .1-.1c.4-.1.5.1.8-.1v-.1c0-.1.2-.2.3-.2 0 .2-.1.3-.2.4-.4.5-.7.2-1.4.2-.5 0-.9-.1-1 .3 0 .1-.1.2 0 .3-.1-.2 0-.2.1-.1zm-1.2 4l-.7.1v-.2l.1-.1h.2c.1 0 .1.2.3 0-.1 0-.1 0-.2-.1v-.1h.1c.1 0 .1 0 .2.1h.2v.1s0-.1.1-.1h.1v.1h.1v.1s-.1-.1-.2-.1c0 .1-.1.1-.2.1v-.1c-.1.1-.1.2-.1.2zm-1.5-.4c.1 0 .2.1.2.1l-.2.2c-.1-.1-.3-.1-.3-.2l.3-.1zm-.1-6.7c.1.1.1.2.1.3-.1 0-.3.1-.4.2-.1 0-.1-.1-.1-.1v-.1c.2-.2.2-.3.4-.3zm-2.4-7.3c.2.1.2.2.5.1v.1c-.1.2-.3.3-.5.4v-.6zm.5 1.4c-.1-.1-.3-.2-.3-.3v-.1c.2-.1.2-.3.3-.5h.2c0 .3-.3.5-.1.8 0 0 0 .1-.1.1zm-.9-2.2c.1.2 0 .5-.1.6-.2-.1-.2-.4-.4-.6h.2c.2-.1.3-.1.3 0zm-.1-5c-.1.1-.1.4-.2.4-.1-.2-.3-.4-.3-.6 0-.2.4-.9.5-1l.3-.2.2.1c-.1.2-.1.5-.2.8-.2.2-.3.4-.3.5zm1.4 5.2c-.1 0-.2-.1-.2-.1 0-.2-.3-.4-.4-.4l.1.2-.1.1c-.1-.1-.2-.3-.5-.3l-.2.1c-.1-.1-.2-.1-.2-.2l.1-.1.2.1h.1c-.2 0-.2-.1-.4-.2 0 0 0 .1-.1.1-.4-.2-.2-.6-.3-.9v-.1l.2.1c.1-.4-.1-1.1.3-1.3.2 0 .3.1.4.1.2 0 .2-.1.3-.1v.1c-.2.3 0 .4.1.6-.1.4-.3.5-.5.7 0 .2-.1.2-.1.3.2.2.1.7.4.7 0-.1.1-.2.1-.2h.1l.2.3h.1l.1-.1c.1 0 .1 0 .2.1l-.2.1c.1 0 .2.1.2.3zm.3.2c.1 0 .2 0 .3-.1h.1l.2.7-.2-.1v-.2c-.2 0-.4-.1-.4-.3zm1.1 2.7l-.2.3h-.1c0-.1-.1-.3-.2-.3l-.2.3c0 .2.3.4 0 .6 0 0-.1 0-.1-.1v-.2h-.1s0 .1-.1.1c-.2 0-.4-.2-.5-.4-.1-.3.2-.4 0-.6-.1 0-.1-.1-.3-.1-.1.1-.1.2-.3.2v-.1c-.2 0-.3.3-.3.5l-.1-.1c0-.1.1-.4.2-.4s.2 0 .3-.1c.1-.2.2-.2.4-.2.1.1.1.1.1.2.1 0 .2 0 .2-.1s.1-.2.1-.2l.1.1c0-.1 0-.2.1-.3 0 0 0 .1.1.1l.2-.1v-.4c.2.1.4.4.3.7h.1v.1c.2.2.3.3.3.5zm.5 5.3c.3 0 .7 0 .9.1l.1.2c-.1 0-.2 0-.3.1v.2c.1.1.3.3.3.5l-.1.2.5.5h-.5c-.3.2-.2.6-.2.9h-.2c-.1.2-.3.4-.5.5l.1.1c0 .1 0 .1.1.2h-.1s.1.1.1.2c-.1.2-.3.5-.5.6-.1 0-.3.2-.4.1-.1-.1 0-.3-.2-.5l-.2.1h-.1l-.4-.3c0 .1-.1.2-.1.2-.2 0-.3.1-.4.1 0-.2 0-.3-.1-.4-.1.1-.2.1-.4.2l-.1-.1h-.3c0-.3 0-.7-.1-.9l-.3-.2h.1l-.2-.2c0-.1.1-.2 0-.3 0 0-.1 0-.1-.1-.1-.3.1-.5.2-.6 0-.1 0-.2.1-.2s.1.1.1.2c.1.2.3.3.5.4l.3-.1.2.1c.2 0 .3-.3.4-.3.3-.1.4.2.6.2l.2-.1c.1 0 .2 0 .3-.1.1 0 .3-.3.3-.5v-.2l.2-.2c.1-.3.1-.4.2-.6zm5-21.3c.2-.2.4-.2.7-.4l.2-.3.2-.1c.2-.2.4-.7.4-1.1l-.1-.1.1-.1v-.3c.1-.1.1-.2.2-.2l.1.2c.1 0 .2 0 .3-.1v-.1c-.1 0-.1 0-.1-.1l.1-.1c.1 0 .2.1.2.1v.5l.1.1c.1.1.2.4.2.6 0 .2-.2.3-.2.4v.2c-.6.2-.1.4-.3.9-.1.2-.4.5-.1.7-.2.1-.2.2-.3.4-.1 0-.2.1-.2.1l.1-.4c-.1 0-.4.2-.5.3 0 .1 0 .2-.1.3h-.1v-.2c-.2 0-.2.2-.3.3h-.5c0-.1-.2-.2-.3-.2 0 .1 0 .1-.1.2l.2.1c-.3.1-.4.2-.5.5l-.4-.2v-.3c.1-.1.2-.1.2-.2-.1.1-.3 0-.4 0l-.3.1h-.1c-.2.1-.4.1-.5.2v-.1c-.2 0-.2.1-.2.3-.2-.1-.4-.1-.6 0l-.1-.1c0-.1 0-.1.1-.2.5 0 .6-.5.9-.7.1-.1.2 0 .2.1.4 0 .8-.1 1.1-.2 0 .1 0 .1.1.2.1 0 .2-.1.3-.2 0-.4.2-.4.4-.6v-.4c.1-.1.2-.1.3-.1v.1l-.2.1c-.3 0-.3 0-.2.1zm3.2-8.9l.3.9.3.5c-.3-.1-.5-.4-.9-.2-.1.3-.3.7-.1 1.1.1.3.6.5.4.9 0-.2-.1-.4-.4-.4-.2.1-.2.3-.3.5l-.1-.4.2-.3-.1-.3c0-.1.1-.2.2-.3.1-.2-.1-.4-.2-.6.2-.2.3-1.4.2-1.7-.1-.2-.2-.2-.2-.4-.1-.3.2-.5 0-.8.1-.1.4-.1.5-.3.1 0 .1.1.1.2.3.5-.1.7 0 1.2-.1.1 0 .2.1.4zm1.1 5l-.4.2-.2-.1c-.2.1-.4.4-.5.6-.3 0-.7-.5-1-.4-.1.1-.2.1-.2.2l-.1-.2c-.1 0-.2.1-.2.2l.5.3h-.3c-.1.1-.1.2-.3.3-.1-.1 0-.2 0-.4-.1 0-.1 0-.2-.1v-.2l.4-.3v-.1s-.1 0-.1-.1c0 0 0-.1.1-.1.1.1.2.2.4.1v-.4c.1 0 .2-.1.2-.1v-.4c0-.3-.2-.3 0-.5.3.2 1 1.2 1.5 1 .1-.1.2-.2.3-.2 0 .1-.1.2-.1.2 0 .2.2.4.2.5zm7.3 31.6c.1.2.1.4.2.4h.4c0 .1-.1.1-.1.1 0 .1.3.1.4.2 0 0-.1 0-.1.1.1 0 .3.1.4.2 0 .1.1.1 0 .2-.1 0-.2 0-.3-.1 0-.1 0-.1-.1-.1l-.6-.1h-.5l-.2-.2-.3-.2-.4-.6-.5-.1-.2-.1c-.1 0-.2 0-.3.1l-.2-.1c0 .1 0 .2.1.2h-.2v.1h-.6c.2.1.4.1.5.3l-.3.2h-.9c-.2-.2-.3-.4-.5-.5-.1-.1-.3 0-.5 0 0-.2.1-.2.1-.3l-.3-.3.2-.1-.1-.1c-.3-.1-.3-.6-.6-.8-.4-.3-1.1-.3-1.5-.5v-.2c-.5.2-.4-.3-.5-.4-.2.2-.1.5-.4.5l-.1-.2h.1c0-.3-.3-.2-.4-.4v-.1c.1 0 .3.1.3 0 .1 0 .1-.1.2-.2.1.1.2.1.3 0v-.2c-.2 0-.6.1-.9 0-.2-.1-.1-.3-.2-.4-.1 0-.2-.1-.4-.1l.1-.1v-.2c.3 0 .3-.2.5-.2.1 0 .7.2.9.3l.1.2c0 .1 0 .2-.1.2 0 .2.1.5.2.6v-.1c0 .2.1.4.3.4.3-.1.4-.3.5-.6.2 0 .3 0 .4-.1v-.2l.3-.2c.2 0 .8.3 1 .4l1.8.6c.3.1.5.3.8.3.1.3.4.3.6.5 0 .1-.1.2 0 .3.2.1.4.2.6.2h.3c.1.1.2.2.2.3l-.4.1c.1.3.2.4.4.5.4.5.5.6.5.6zm2-1.9l.2.1c0 .1 0 .1-.1.2-.1 0-.1 0-.2.1l.1.1s0 .1-.1.1h-.3c-.1.3-.5.4-.9.4 0-.1-.1-.1-.2-.1h-.1l-.4-.2v-.1c.2 0 .5.1.7 0v-.1c.1.2.4.2.5.1.1-.1.1-.2.1-.2h.2v-.3c.4-.1.4-.1.5-.1zm.7 11.5v-.3s.1 0 .1-.1v-.1c.2.2 0 .4-.1.5zm-21 .2l.2.3c0 .1.1.1.2.1l.1.1v-.2l.1.1h.1v-.3c-.1-.2-.2-.3-.4-.5l-.1-.2c-.1-.2.2-.4.2-.6v-.4c0-.1.1-.3.2-.4 0 .1 0 .2.1.3l.1-.1.2-.3.2-.1.2-.1c.1-.1.3-.3.5-.4l.5-.1.2-.1.1-.1.4-.1.1-.1v-.1h.3c.2-.1.4-.2.5-.2.1 0 .2-.1.3-.2.1-.1.1-.2.2-.4 0 0 0-.1.1-.1h.1c.1 0 .1-.1.1-.2 0 0 .1 0 .1-.1h-.1v-.1c0-.1 0-.2.1-.3v-.1c.1-.1.2-.1.2-.2s0-.1.1-.1l.1.1v.1l.2.2s.1.1.1 0v-.2h.1v-.1s-.1 0-.2-.1c0-.1.1-.1 0-.2.1-.1.1 0 .2 0 0 0 .1.1.2.1v-.1c.1 0 .1-.1.1-.2 0 0-.1.1-.1 0v-.1c0-.1.2-.2.2-.2h.1s0-.1.1-.1c0 0 .1.1.2 0l-.1-.1c.1-.1.1-.1.2-.1h.1l.1.1c0-.1 0-.1.1-.2v-.1h.1s0 .1.1.1c0-.1.1-.2.2-.2h.2l.4.3.1.1h.1l-.1.1v.30000000000000004c.1 0 0-.2.2-.2v-.1h.4v.1s.1-.1.2-.1v.1c.1-.1.1-.1.1-.2v-.1c-.1-.1-.1-.1-.2-.1 0-.1.1-.2.2-.3 0 0 0-.1.1-.1s.2 0 .2-.1c-.1 0-.1-.1 0-.2l.1-.1c.1 0 .1 0 .1-.1h.1c0-.1 0-.1.1-.2h.7999999999999999s.1-.1.2-.1v-.1c0-.1 0-.2-.2-.2h-.2v0c.1 0 .1-.1.1-.1l.2.1h.2l.2.2c.1 0 .2-.1.2-.1l.1.1h.2c.2-.1.3.2.4.1l.3-.1v.1h.2c0 .1 0 .2.1.2h.1c0-.1-.1-.2 0-.2s.1.1.1.1h.1l.2.1c0 .1-.1.1-.2.2v.2l-.1.1c-.1-.2-.2.1-.3.1 0 .1-.1.2 0 .2v.1l-.3.4v.1l.2.1.2.1s0 .1.1.1c.1.1.2.1.2.2.1-.1.3.1.4.2h.1c.1 0 .1 0 .1.1 0 0 .1.1.1.2h.2l.4.1.1.2c.1.1.1 0 .2 0s.2.1.2.1c.1 0 .3 0 .4-.1l.2-.2.2-.5v-.1c0-.1 0-.2.2-.3l-.1-.3v-.5c.1 0 .1-.1.1-.2v-.1c0-.1.1-.1.2-.2l-.2-.1.1-.1.1-.2s.1 0 .1-.1c.1-.2.1-.4.2-.5h.1s0 .1.1.1c0 0 .1 0 .1.1v.1c0 .1.1.2.2.3 0 0 0 .1-.1.1.2.1.2.2.3.4v.6c0 .1.1.2.2.2 0-.1.1-.1.2-.1h.1l.1.2.3.2v.2h-.1c.1.1.1.2.1.3v.2l.3.3v.4c0 .1 0 .2.1.3 0 .3 0 .3.2.4.1 0 .1.1.2 0 0 .1.1.1.2.1.1.1 0 .1 0 .2l.1.1.1.1c.1.1.2.1.3.1h.1c0 .1.2.1.1.2h-.1v.2l.1.1v.1c.1 0 .1.1.2.2v.30000000000000004s.1.1.2.1v-.2c.1.1.1.2.2.2h.1s0-.1.1-.1c0 0 0 .1.1.1v.5c.1.1.1 0 .2 0-.1.2.2.3.3.4v.1c0 .1.1.1.1.1.1.1.2.1.2.3.2 0 .1.2.2.3v.1s0 .1.1.1v.6000000000000001s0 .1-.1.1l.1.2c.1.1.1.2.1.3 0 0 0 .1.1.1v.1c0 .1 0 .2-.1.2 0 .1 0 .1-.1.2s-.1.3-.1.5c0 0 0 .1-.1.1v.1c0 .2 0 .3-.1.5-.1 0-.1.1-.1.2 0 0 0 .1-.1.1-.1.1-.1.4-.3.4l-.2.2-.3.6c-.1.1-.2.2-.1.3l-.1.1v.1c-.1 0-.1.1-.1.2-.1.1-.2.2-.2.4l-.1.6v.5h-.1l-.1.1h-.9c-.2 0-.2.3-.4.4l-.3.1h-.1c0 .1.1.1.1.1l-.1.1-.1-.1h-.1l-.3-.3s0-.1.1-.1l-.1-.1c-.1 0-.2.1-.2 0 .1 0 .2-.2.1-.3l-.1-.1-.2.1c0 .1-.1.1-.1.1l-.1.1c-.1.1-.1.2-.3.3h-.1c-.2-.1-.3-.2-.4-.3h-.30000000000000004c-.1-.2-.2 0-.3 0 0 0-.1-.1-.1-.2h-.1c-.1 0-.2 0-.2-.1-.1-.1-.1-.1-.1-.2-.1-.1-.3-.2-.3-.4.1-.1.1-.3 0-.5v-.1h-.1l-.1-.1-.2-.2h-.2l.1-.2v-.3l-.1-.2-.1-.1-.1.4s0 .1-.1.1h-.1c0 .1-.1.1-.2.1v-.2h.1c.1 0 .2-.1.1-.3v-.30000000000000004l.2-.2c0-.1 0-.1-.1-.1l.1-.1s0-.1-.1-.1v-.1c0 .1-.1.2-.2.3l-.1.1c0 .1 0 .1-.1.1s-.1 0-.2.1c-.1 0-.2.1-.2.2l-.2.3s-.1.1 0 .1c0 0 .1.1 0 .1 0 .1-.1.1-.2 0l-.3-.3h.1v-.2l-.1-.3-.1-.1c0-.1 0-.2-.1-.2-.1-.1-.3-.1-.3-.2v-.3h-.1v-.1s-.1-.1-.2-.1h-.2l-.3-.1h-.2l-.3-.2h-1l-.4.1-.1.1h-.1l-.7.3h-.5l-.7.4h-.1c-.2 0-.1.2-.2.4v.1h-.1l-.2.1h-.1l-.2-.1c-.1 0-.2.1-.2.1h-.1l-.2-.1c-.1 0-.3 0-.4.1h-.4c-.1 0-.2 0-.3.1-.1 0-.1.2-.2.3v.1c-.1 0-.3 0-.3.1v.1h-.1s0 .1-.1.1h-.1s-.1.2-.2 0c0 .1-.1 0-.2 0h-.1l-.6-.1v-.1c0-.1-.1-.1-.2-.1h-.30000000000000004v-.4h.2c.1-.1.1-.2.2-.2 0 0 0-.2-.1-.3v-.1l-.1-.6c-.1-.3-.3-.5-.4-.7 0-.2 0-.4-.1-.6-.2 0-.2-.2-.2-.3 0-.1-.1-.1-.1-.1l-.1-.1-.1-.5-.1-.1c-.1-.2-.3-.3-.4-.4-.3.1-.3.1-.3-.1zm12.9 5l.2.1c0 .1-.1.1-.2.1h-.7000000000000001v-.1c.4 0 .5 0 .7-.1zm3.5 2.6c0 .1 0 .2-.1.2-.1-.2 0-.2.1-.2zm2 .4c-.1-.1-.1-.2-.1-.3 0 0 .1.2.1.3zm-1.8.6v-.5c.1 0 .2.1.3 0l.2.1c.2.1.3.2.5.2 0-.1.1-.1.3-.1h.30000000000000004l.1-.1c.1 0 .1.1.1.2v.30000000000000004c0 .2-.1.3-.2.4 0 .1-.1.2-.1.2v.3h-.1v-.1c-.2 0-.3.2-.4.4l-.5-.1s0-.1.1-.1l-.2-.2c-.1-.1-.1-.2-.1-.3v-.30000000000000004c-.1 0-.2-.1-.3-.3z"/><path class="st0" d="M95.5 53.5c0-2.5-2-4.6-4.6-4.6-2.5 0-4.6 2-4.6 4.6 0 .9.3 1.7.7 2.4 1.3 2.2 3.2 5.4 3.8 8.4.6-3 2.5-6.1 3.8-8.4.6-.6.9-1.5.9-2.4zm-4.6 3c-1.6 0-3-1.3-3-3s1.3-3 3-3c1.6 0 3 1.3 3 3s-1.3 3-3 3zm2-3c0 1.1-.9 2-2 2s-2-.9-2-2 .9-2 2-2 2 .9 2 2z"/><path class="st0" d="M45.7 61.4c0-2.5-2-4.6-4.6-4.6-2.5 0-4.6 2-4.6 4.6 0 .9.3 1.7.7 2.4 1.3 2.2 3.2 5.4 3.8 8.3.6-3 2.5-6.1 3.8-8.3.6-.7.9-1.5.9-2.4zm-4.6 2.9c-1.6 0-3-1.3-3-3 0-1.6 1.3-3 3-3 1.6 0 3 1.3 3 3s-1.3 3-3 3zm2-3c0 1.1-.9 2-2 2s-2-.9-2-2 .9-2 2-2 2 .9 2 2z"/><path class="st0" d="M157.5 97.2c0-2.5-2-4.6-4.6-4.6-2.5 0-4.6 2-4.6 4.6 0 .9.3 1.7.7 2.4 1.3 2.2 3.2 5.4 3.8 8.3.6-3 2.5-6.1 3.8-8.3.6-.6.9-1.5.9-2.4zm-4.6 2.9c-1.6 0-3-1.3-3-3 0-1.6 1.3-3 3-3 1.6 0 3 1.3 3 3s-1.3 3-3 3zm2-2.9c0 1.1-.9 2-2 2s-2-.9-2-2 .9-2 2-2 2 .9 2 2z"/><path class="st0" d="M154 50.9c0-2.5-2-4.6-4.6-4.6-2.5 0-4.6 2-4.6 4.6 0 .9.3 1.7.7 2.4 1.3 2.2 3.2 5.4 3.8 8.4.6-3 2.5-6.1 3.8-8.4.6-.7.9-1.5.9-2.4zm-4.6 2.9c-1.6 0-3-1.3-3-3s1.3-3 3-3c1.6 0 3 1.3 3 3s-1.3 3-3 3zm2-3c0 1.1-.9 2-2 2s-2-.9-2-2 .9-2 2-2c1.1.1 2 .9 2 2z"/><path class="st0" d="M134.8 53.5c0-2.5-2-4.6-4.6-4.6-2.5 0-4.6 2-4.6 4.6 0 .9.3 1.7.7 2.4 1.3 2.2 3.2 5.4 3.8 8.4.6-3 2.5-6.1 3.8-8.4.6-.6.9-1.5.9-2.4zm-4.6 3c-1.6 0-3-1.3-3-3s1.3-3 3-3c1.6 0 3 1.3 3 3s-1.3 3-3 3zm2-3c0 1.1-.9 2-2 2s-2-.9-2-2 .9-2 2-2 2 .9 2 2z"/><path class="st0" d="M86.7 74.5c0-2.5-2-4.6-4.6-4.6-2.5 0-4.6 2-4.6 4.6 0 .9.3 1.7.7 2.4 1.3 2.2 3.2 5.4 3.8 8.3.6-3 2.5-6.1 3.8-8.3.7-.7.9-1.5.9-2.4zm-4.5 2.9c-1.6 0-3-1.3-3-3 0-1.6 1.3-3 3-3 1.6 0 3 1.3 3 3s-1.4 3-3 3zm2-3c0 1.1-.9 2-2 2s-2-.9-2-2 .9-2 2-2 2 .9 2 2z"/><path class="st0" d="M61.4 97.2c0-2.5-2-4.6-4.6-4.6-2.5 0-4.6 2-4.6 4.6 0 .9.3 1.7.7 2.4 1.3 2.2 3.2 5.4 3.8 8.3.6-3 2.5-6.1 3.8-8.3.6-.6.9-1.5.9-2.4zm-4.6 2.9c-1.6 0-3-1.3-3-3 0-1.6 1.3-3 3-3 1.6 0 3 1.3 3 3s-1.3 3-3 3zm2-2.9c0 1.1-.9 2-2 2s-2-.9-2-2 .9-2 2-2 2 .9 2 2z"/></g></svg>