<?xml version="1.0" encoding="utf-8"?>
<!-- Generator: Adobe Illustrator 15.0.2, SVG Export Plug-In . SVG Version: 6.00 Build 0)  -->
<!DOCTYPE svg PUBLIC "-//W3C//DTD SVG 1.1//EN" "http://www.w3.org/Graphics/SVG/1.1/DTD/svg11.dtd">
<svg version="1.1" xmlns="http://www.w3.org/2000/svg" xmlns:xlink="http://www.w3.org/1999/xlink" x="0px" y="0px" width="180px"
	 height="142px" viewBox="0 0 180 142" style="enable-background:new 0 0 180 142;" xml:space="preserve">
<style type="text/css">
<![CDATA[
	.st0{fill:#4A3B13;}
]]>
</style>
<g id="Layer_1">
</g>
<g id="Layer_2">
	<path class="st0" d="M93,74.2c-0.1-0.2-0.1-0.5-0.1-0.7c0,0,0-0.1,0-0.1c0.1-0.2,0.4-0.3,0.9-0.1C93.9,73.4,93.2,74.5,93,74.2z
		 M96,76.2c-0.5-0.5-2.6-1.1-3.1-0.5c0.5,0.2,1.3,0.4,1.7,0.8c0.6,0.6,1.1,1.2,1.7,1.5c0.3,0.2,0.2-0.4,0.1-0.9
		C96.3,76.6,96.1,76.3,96,76.2z M126.1,99.7c0,17.5-14.3,31.8-31.8,31.8c-2.5,0-4.9-0.3-7.3-0.9l-1.2-5.2c2.7,0.9,5.5,1.4,8.5,1.4
		c0.6,0,1.3,0,1.9-0.1c0,0-0.1,0-0.1,0c-1.8-0.3-1-2.4-0.8-3.7c0.1-0.7,0.5-1.3,0.8-1.9c0.9-2.5,1.5-5.3-1-6.9
		c-1.1-0.7-1.2-1.2-1.8-2.4c-0.6-1.1-1.3-2.1-1.4-3.2c0-0.4,0-0.8,0.2-1.2c0.1-0.3,0.3-0.6,0.6-1c2.6-2.8-0.6-2.7-2.2-3.7
		c-0.9-0.6-1.3-1.7-2.1-2.4c-1.9-1.6-6.9-1.5-7-4.6c0-1.2-1.4-5.5-2.6-6c-0.3,0.8,0,1.4-0.5,2c-0.3-0.3-0.3-0.5-0.4-0.9c0,0,0,0,0,0
		c0,0,0,0,0,0c-0.2-1.1-0.1-1.3-0.4-2.3c-0.9-3,2.6-5.3,3.4-7.8c0.5-1.5,0.5-3.5-0.8-3.9c-7.7,4.8-12.9,13.3-12.9,23
		c0,2.8,0.4,5.5,1.2,8l-5.1-1.2c-0.5-2.2-0.7-4.5-0.7-6.8c0-17.5,14.3-31.8,31.8-31.8C111.9,67.9,126.1,82.2,126.1,99.7z
		 M121.5,99.8c-1.3,0.4-2.1-1-2.7-2.5c-0.4-1.2-0.5-2.4-0.9-3.6c-0.3-0.7-0.4-1.3-0.4-2.2c-0.1-0.8,0-1.6,0-2.3c0-1-0.4-2.4-0.3-3.3
		c0-0.1,0.1-0.3,0.3-0.6c-0.3-0.5-0.6-0.9-0.9-1.4c0,0.2,0,0.4,0,0.5c-0.2,0.3-0.6,0.3-1.5-0.5c-1-0.9-1.3-2.7-1.9-4
		c-3.5-3.3-8-5.8-12.9-6.8c0.8,0.6,1.5,1.5,2.4,2c0.2,0.1-0.7,3-1.6,2.9c-0.8,0-1.8-1.7-2.1-2.3c-0.4-0.6-1.1-0.9-1.7-1.2
		c-0.8-0.3-2.1-0.2-1.5-1.1c0.1-0.1,0.2-0.3,0.4-0.5c0.2-0.2,0.4-0.3,0.7-0.4c-0.7-0.1-1.5-0.1-2.2-0.1c-3,0-5.9,0.5-8.6,1.4
		c0.3,1.8,4,2.4,5.6,2.2l0.6,0.1c0.4,0.2,0.8,0.1,1.2,0.2c-0.7,0.7-1.7,0.9-2.4,1.6c0,0,0,0,0,0c-0.2,0.2-1.5,1.9-0.8,2
		c0.6,0,1.6,0.1,2,0.5c0.6,0.5,0.2,1,0.6,1.5c0.1,0.2,0.3,0.3,0.5,0.3c0.9-0.8,0.3-3.5,1-3.9c0.6-0.2,1.3,0,1.9,0.3
		c0,0.2,0,0.6-0.1,0.8c1,0.4,1.6,0.1,2.6,0.8c0.6,0.4,1.1,1,1.8,1.5c-0.3,0.8-1.7,0.8-1.9,1.7c-0.1,0.3,0.7,1.3,0.6,1.4
		c-0.7,0.9-2.2,0.2-3.2,1.3c-0.8,0.9-1.1,2.1-1.7,3c-0.6,0.9-1.8,1.4-2.1,2.5c0,0,0,0,0,0c-0.3,1,1,1.9,0,2.8
		c-0.5-0.8-0.4-2.1-1.4-2.6c-0.8-0.4-4.8,0-5.4,0.8c-0.6,0.9-1,2.8-0.4,3.8c0.3,0.5,1.5,1.7,2.1,1.1c0.8-0.7,0.9-2.1,2.3-1.2
		c-2.2,2.8,0.5,1.7,1.5,3.3c0.5,0.8-0.6,2.1,0.3,2.7c0.9,0.6,1.8-0.4,2.8,0.7c1.3-2.2,4.6-2.1,6.9-1.4c1.1,0.3,1.8,1.9,3.1,2.2
		c0.4,0.1,0.9,0,1.3,0c1.8,0.3,1.1,2.5,2.4,3.2c0.9,0.5,2.8,0,3.8,0.1c1,0.1,1.8,0.5,1.8,1.7c0,0.7-0.6,1.4-0.9,2
		c-0.4,0.8-0.7,1.7-1.2,2.5c-0.3,0.6-0.7,1-1.1,1.6c-0.4,0.6-0.6,1.2-1.3,1.6c-0.8,0.4-1.7,0.6-2.3,1.3c-1.8,2-4.1,3.8-6.3,5.3
		c-1.1,0.8-1.8,3.3-3.2,3.7C110.6,125.5,121.4,113.9,121.5,99.8z M87.9,109.4c1.3-1.3,1.4-3.3,0.2-4.5c-1.2-1.2-3.2-1.1-4.5,0.2
		l-7.3,7.8L58,108.5l-2.5,2.5l14.9,8.3l-7.6,8.2l-6.8-1.6l-1,1l5.2,3.5c-0.8,0.8-0.9,2.1-0.1,2.8c0.7,0.7,2,0.7,2.8-0.1l0,0l3.4,5.2
		l1-1l-1.6-6.8l8.4-7.9l8.5,15.6l2.5-2.5l-4.5-19.1L87.9,109.4z"/>
</g>
</svg>
