<?xml version="1.0" encoding="utf-8"?>
<!-- Generator: Adobe Illustrator 15.0.2, SVG Export Plug-In . SVG Version: 6.00 Build 0)  -->
<!DOCTYPE svg PUBLIC "-//W3C//DTD SVG 1.1//EN" "http://www.w3.org/Graphics/SVG/1.1/DTD/svg11.dtd">
<svg version="1.1" xmlns="http://www.w3.org/2000/svg" xmlns:xlink="http://www.w3.org/1999/xlink" x="0px" y="0px" width="180px"
	 height="142px" viewBox="0 0 180 142" style="enable-background:new 0 0 180 142;" xml:space="preserve">
<style type="text/css">
<![CDATA[
	.st0{fill:#4A3B13;}
]]>
</style>
<g id="Layer_1">
</g>
<g id="Layer_2">
	<path class="st0" d="M94.3,42.2c-0.2-0.4-0.2-0.7-0.1-1c0-0.1,0-0.1,0.1-0.2c0.2-0.4,0.7-0.5,1.4-0.2
		C95.6,40.9,94.6,42.6,94.3,42.2z M98.9,45.2c-0.7-0.8-3.9-1.7-4.7-0.8c0.8,0.3,1.9,0.6,2.5,1.2c0.9,0.9,1.6,1.8,2.7,2.3
		c0.5,0.3,0.4-0.6,0.1-1.4C99.3,45.9,99,45.3,98.9,45.2z M144.7,81c0,26.7-21.7,48.4-48.4,48.4c-3.8,0-7.5-0.5-11-1.3l-1.9-7.9
		c4.1,1.4,8.4,2.1,12.9,2.1c1,0,1.9-0.1,2.9-0.1c-0.1,0-0.1,0-0.2,0c-2.7-0.5-1.5-3.7-1.3-5.7c0.1-1.1,0.8-2,1.1-2.9
		c1.4-3.8,2.2-8.1-1.5-10.6c-1.7-1.1-1.8-1.9-2.8-3.6c-0.9-1.6-2-3.2-2.2-4.9c-0.1-0.6,0-1.2,0.3-1.9c0.2-0.5,0.5-1,1-1.5
		c3.9-4.2-0.9-4.1-3.3-5.7c-1.4-0.9-2-2.7-3.3-3.7c-2.9-2.4-10.5-2.2-10.7-6.9c-0.1-1.9-2.2-8.3-3.9-9.1c-0.4,1.1-0.1,2.2-0.8,3
		c-0.5-0.4-0.5-0.8-0.6-1.4c0,0,0,0,0,0c0,0,0,0,0,0c-0.3-1.6-0.1-2-0.6-3.5c-1.3-4.6,3.9-8.1,5.2-11.8c0.8-2.2,0.8-5.4-1.2-6
		C62.9,53.2,55,66.2,55,81c0,4.3,0.6,8.4,1.8,12.2l-7.8-1.9c-0.7-3.3-1.1-6.8-1.1-10.3c0-26.7,21.7-48.4,48.4-48.4
		C123,32.6,144.7,54.3,144.7,81z M137.6,81.2c-2,0.6-3.3-1.5-4.2-3.8c-0.7-1.8-0.7-3.7-1.4-5.4c-0.4-1.1-0.5-2-0.6-3.3
		c-0.1-1.2,0-2.4,0-3.5c0-1.6-0.7-3.6-0.5-5.1c0-0.1,0.2-0.5,0.4-0.9c-0.4-0.7-0.9-1.4-1.4-2.1c0,0.3,0,0.6-0.1,0.8
		c-0.2,0.5-0.9,0.5-2.2-0.8c-1.5-1.4-2.1-4.1-2.9-6.1c-5.4-5.1-12.1-8.8-19.6-10.4c1.3,0.9,2.3,2.3,3.6,3c0.2,0.1-1,4.6-2.4,4.5
		c-1.2-0.1-2.7-2.5-3.2-3.5c-0.6-1-1.6-1.4-2.6-1.9c-1.2-0.5-3.2-0.3-2.3-1.7c0.1-0.2,0.3-0.4,0.5-0.7c0.3-0.3,0.6-0.5,1-0.6
		c-1.1-0.1-2.3-0.2-3.4-0.2c-4.6,0-9,0.8-13.1,2.2c0.5,2.8,6.1,3.7,8.6,3.4l1,0.2c0.5,0.3,1.3,0.1,1.8,0.3c-1.1,1-2.5,1.4-3.6,2.4
		c0,0,0,0,0,0c-0.2,0.2-2.2,2.9-1.2,3c0.8,0.1,2.4,0.2,3.1,0.8c0.9,0.7,0.4,1.6,1,2.2c0.2,0.2,0.4,0.4,0.7,0.5
		c1.3-1.2,0.5-5.4,1.5-6c0.9-0.3,2,0,2.8,0.5c-0.1,0.3,0,0.9-0.1,1.2c1.5,0.7,2.4,0.1,4,1.2c1,0.6,1.7,1.6,2.7,2.2
		c-0.5,1.3-2.6,1.2-2.8,2.5c-0.1,0.5,1,2,0.9,2.1c-1.1,1.3-3.4,0.3-4.9,2c-1.2,1.3-1.6,3.2-2.6,4.6c-1,1.3-2.8,2.1-3.2,3.8
		c0,0,0,0,0,0c-0.4,1.5,1.6,2.9,0,4.2c-0.7-1.3-0.6-3.2-2.1-3.9c-1.3-0.6-7.4,0-8.1,1.1c-0.9,1.3-1.5,4.3-0.7,5.8
		c0.4,0.8,2.2,2.6,3.3,1.7c1.2-1,1.4-3.1,3.5-1.8c-3.4,4.3,0.8,2.7,2.3,5c0.8,1.3-0.9,3.1,0.5,4.1c1.4,1,2.7-0.6,4.2,1.1
		c1.9-3.4,7-3.2,10.5-2.2c1.7,0.5,2.7,2.9,4.7,3.3c0.7,0.1,1.4,0,2,0.1c2.7,0.4,1.7,3.8,3.6,4.8c1.3,0.7,4.2,0,5.8,0.2
		c1.5,0.1,2.8,0.8,2.7,2.6c0,1-0.9,2.1-1.4,3c-0.7,1.3-1.1,2.6-1.8,3.8c-0.4,0.9-1.1,1.6-1.7,2.4c-0.6,0.9-1,1.9-2,2.4
		c-1.1,0.7-2.6,0.9-3.5,1.9c-2.7,3.1-6.2,5.8-9.6,8.1c-1.6,1.2-2.7,5-4.9,5.6C121.1,120.2,137.6,102.6,137.6,81.2z M86.6,95.7
		c2-2,2.1-5.1,0.3-6.9C85.1,87,82,87.2,80,89.2L69,101L41,94.3l-3.8,3.8l22.6,12.7l-11.6,12.4l-10.4-2.5l-1.6,1.6l7.9,5.3
		c-1.2,1.2-1.3,3.1-0.2,4.3c1.1,1.1,3,1,4.3-0.2l0,0l5.2,7.9l1.6-1.6l-2.5-10.4l12.8-12l13,23.7l3.8-3.8l-6.9-29.1L86.6,95.7z"/>
</g>
</svg>
