<?xml version="1.0" encoding="utf-8"?>
<!-- Generator: Adobe Illustrator 15.0.2, SVG Export Plug-In . SVG Version: 6.00 Build 0)  -->
<!DOCTYPE svg PUBLIC "-//W3C//DTD SVG 1.1//EN" "http://www.w3.org/Graphics/SVG/1.1/DTD/svg11.dtd">
<svg version="1.1" xmlns="http://www.w3.org/2000/svg" xmlns:xlink="http://www.w3.org/1999/xlink" x="0px" y="0px" width="180px"
	 height="142px" viewBox="0 0 180 142" style="enable-background:new 0 0 180 142;" xml:space="preserve">
<style type="text/css">
<![CDATA[
	.st0{fill:#008A2C;}
]]>
</style>
<g id="guides">
</g>
<g id="Layer_2">
	<g>
		<g>
			<path class="st0" d="M52.7,68.9c-0.6-0.4-1.5-0.6-2.2-1c0-0.9-0.1-1.6-0.3-2.2c-0.1-0.4-0.3-0.7-0.4-1.1
				c-0.1-0.5-0.1-1.1-0.2-1.6c-0.1-0.4-0.3-0.8-0.3-1.2c-0.2-0.9-0.4-1.6-1-2.2c-0.2-0.2-0.5-0.3-0.7-0.6c0.1,0,0.2,0,0.3-0.1
				c-0.5-0.3-1-0.6-1.3-1c-0.1-0.1-0.1-0.2-0.2-0.3c-0.2-0.3-0.6-0.6-0.6-1c0,0-0.1-0.3,0.2-1c0.3-0.7,0.5-0.6,0.5-0.7
				c0.2,0,2.1,0.1,2.4-0.3c0.2-0.3,0-0.7,0.1-1.1c0.1-0.2,0.6-0.5,0.3-0.8c0.5-0.2,0.2-0.9,0.2-1.2c0.2-0.2,0.8-0.3,0.7-0.3
				c-0.2-0.1-0.7-1.1-0.7-1.5c0-0.2,0.1-0.7,0.2-1c0,0,0.1-0.1,0.1-0.1s0-0.6-0.1-1.3c-0.1-0.7-0.6-2.7-0.8-3.2
				c-0.2-0.4-0.5-0.7-0.6-0.7c-0.2-0.1-0.9-0.6-1.2-0.6c-0.2,0-0.3-0.1-0.5-0.2c-0.6-0.2-1.4-0.5-2.1-0.5c-0.7,0-1.4,0-1.9,0
				c-1.8,0.1-2.7,1.3-3.3,2.9c-0.6,1.5-1,3.3-1.1,5c0,0.7,0,1.4-0.2,2c0.2,0.1,0,0.3,0,0.5c0,0.1,0.1,0.2,0,0.3
				c-0.1,0.1-0.1,0.2-0.2,0.3c0.2,0,0,0.2,0,0.2c0.1,0,0.1,0,0.1,0.1c-0.2,0.3-0.4,0.6-0.7,0.9l0.1,0l0,0.1c0,0.1,0.1,0,0.2,0.1
				c0,0.1-0.4,0.2-0.3,0.3c0.1,0,0.1-0.1,0.1,0c0,0.1-0.2,0.1-0.2,0.2c0.1,0,0.2,0,0.1,0.1c-0.1,0.1-0.3,0.1-0.4,0.2h0v0
				c0.1,0,0.2,0,0.2,0.1c0,0.1-0.1,0-0.1,0.1l0.1,0l0,0.1c-0.2,0.2,0.1,0.1,0.2,0.3C36.8,56,36.6,56,36.5,56c0.1,0,0.2,0.1,0.1,0.1
				c-0.2,0-0.4,0.1-0.6,0c0,0.1,0.1,0.2,0,0.2l0,0.1l-0.1,0c0,0.1,0,0.2,0,0.2c-0.2,0-0.4-0.1-0.4,0l0,0.1l-0.1,0v0.1
				c-0.2,0.1-0.4-0.2-0.5,0c-0.1,0.1,0.2,0.2,0,0.3c0.2,0,0.2,0.1,0.3,0.3c0,0-0.1,0-0.2,0l0,0.1l-0.1,0c0,0.1,0.3,0.1,0.3,0.1
				c-0.1,0.1-0.2,0.1-0.3,0.2l0,0.1l0,0.1c0.2,0.1,0.4,0.2,0.6,0.3c-0.3,0.1-0.6,0-0.9,0.1c0.1,0.1,0.3,0.1,0.4,0.2
				c-0.2,0.3-0.5,0.6-0.7,1c-0.3,0.5-0.4,1.2-0.8,1.8c-0.1,0.1,0,0.2,0,0.3c-0.6,0.5-0.9,1-1.1,1.9c-0.2,0.9-0.2,1.7-0.3,2.7
				c0,0.4-0.2,0.9-0.2,1.3c0,0.3,0,0.6,0,0.9c0,0.6-0.2,1.1-0.3,1.6c-0.3,1.1-0.5,2.5-0.8,3.4V74c0.2,1.2,1.1,1.7,2,2.3
				c0.3,0.2,0.6,0.4,1,0.6c0.3,0.2,0.9,0.5,1,0.7c0,0.1,0,0.3,0,0.4c-0.1,1.1-0.3,2.1-0.6,3.1c-0.4,1.7-0.8,3.4-0.8,5.3
				c0.2,0,0.5,0,0.7,0.1c-0.1,0.5,0,1.1,0,1.6c0.1,2.3,0.1,4.7,0.2,7c0.1,1.5,0.3,3,0.3,4.4c0,0.9,0,1.7,0.1,2.6
				c0.5,0.2,1.1,0.3,1.7,0.2c0.1,0.7,0,1.5,0,2.2c-0.3,3.2-2.2,5.8-1.5,9.4c0.1,0.4,0.3,0.8,0.3,1.2c0,0.1,0,0.2,0,0.3
				c0,0.3,0.2,0.5,0.3,0.8c0.1,0.3,0.1,0.6,0.2,0.8c0.2,0.8,0.3,1.7,0.4,2.5c0.1,0.3,0.2,0.5,0.2,0.8c0.1,0.7,0.2,1.4,0.2,2.2
				c-0.1,0.1-0.2,0.1-0.3,0.2c-0.1,0.8-1,1.5-1,2.4c0,0.2,0.1,0.4,0.1,0.6c0.1,0.4,0,0.9,0,1.4c0,0.6-0.1,1.2-0.1,1.9
				c0.6,0.1,1.2,0.3,1.8,0.3c0.3,0,0.6-0.2,0.9-0.2c0.3-0.1,0.6-0.1,0.9-0.3c-0.1-0.1-0.1-0.2-0.1-0.3c0.6,0,0.7,0.3,1,0.6
				c0.1,0.1,0.3,0.3,0.4,0.4c0.7,0.5,1.6,0.5,2.7,0.6c1.6,0.1,3.6,0.2,4.7-0.5c0.1-0.1,0.3-0.3,0.5-0.3c0.2-0.1,0.5,0,0.7-0.1
				c0.7-0.1,1.6-0.2,1.7-0.7c0-0.2-0.1-0.4-0.1-0.6c-1.5-0.7-3.1-0.9-4.2-2c-0.7-0.8-1.4-1.7-1.8-2.8c-0.1-0.4-0.3-0.8-0.4-1.1
				c0-0.3,0-0.5,0-0.8c0-0.3-0.1-0.5-0.1-0.8c-0.1-1.2-0.1-2.8,0-3.7c0-0.4-0.1-0.9-0.1-1.2c0-0.1,0.1-0.2,0.1-0.4
				c0.1-0.5,0.1-1.2,0.1-1.6c0-0.1-0.1-0.2-0.1-0.2c0-0.4,0.1-0.9,0.1-1.3c0-0.2,0-0.4,0-0.6c0.1-1.3-0.2-2.7-0.3-3.9
				c0-0.7,0-1.3,0.3-1.9c0.4-1,0.8-1.9,0.9-3c0.5-0.1,1,0,1.5,0c1.2-0.1,2.2-0.4,3.1-0.8c0-1.1-0.1-2.2-0.1-3.3
				c-0.1-1.6,0.1-3.2,0-4.8c-0.1-2.1,0.1-4.2,0-6.2c0.3-0.1,0.7-0.4,0.7-0.8c0-0.2,0-0.4,0-0.6c0-0.4-0.1-0.9-0.1-1.3
				c0-1,0-2.2-0.1-3c0-0.2-0.2-0.4-0.1-0.6c0.2,0.3,0.5,0.5,0.8,0.7c0.2,0.1,0.3,0.3,0.4,0.3c0.5,0.2,0.8-0.1,1-0.3
				c0.2-0.3,0.3-0.5,0.3-1c0-0.4-0.1-1.1-0.1-1.6c0-0.3-0.2-0.7-0.1-0.9c0-0.1,0.2-0.2,0.2-0.3c0.5-0.8,0.5-2.3,0.2-3.3
				c0.1-0.1,0.2-0.2,0.2-0.3c-0.1-0.5-0.1-1-0.3-1.4c-0.2-0.4-0.5-0.7-0.7-1.1c0.4-0.8,0.7-1.7,1.2-2.4c0-0.1-0.1-0.1-0.1-0.2
				C52.5,69.3,52.7,69.2,52.7,68.9z M114.2,77.8c-0.1-1.1,0-2.2,0-3.3c0.2-3.9,0.6-7.8,0.4-11.5c-0.1-1-0.3-1.9-0.5-2.9
				c-0.1-0.3-0.2-0.6-0.3-0.9c-0.1-0.4-0.2-0.9-0.3-1.3c-0.3-1.3-0.8-2.4-1.3-3.5c-0.2-0.3-0.4-0.7-0.6-1c-0.4-0.7-0.8-1.3-1.4-1.8
				c-0.1-0.1-0.3-0.2-0.5-0.4c-0.3-0.3-0.7-0.5-1.1-0.9c0-0.1,0.1-0.2,0-0.4c-0.4-0.5-0.8-1-1.1-1.6c-0.2,0-0.3,0-0.5,0
				c0-0.6-0.1-1.2,0-1.8c0.1-0.3,0.4-0.6,0.6-0.9c0.2-0.2,0.7-2.7,0.4-4.4c-0.1-0.6-1.2-2.2-2.1-3c-0.3-0.3-1.4-0.7-1.7-0.8
				c-0.3-0.1-0.5-0.1-0.7-0.1c-0.3-0.1-1.1-0.2-1.3-0.1c-0.2,0-1.5,0.1-1.7,0.1c-0.3,0-0.5,0.1-0.8,0.2c-0.6,0.2-1,0.4-1.5,0.6
				c-0.3,0.2-2.2,1.3-2.1,1.6c0.1,0.3,0.3,1,0.4,1.2c0.1,0.2-0.2,0.5-0.3,0.8c-0.2,0.6-0.5,2.2-0.5,2.6c0,0.4,0.3,0.5,0.4,0.6
				c0.1,0.1,0.4,0.3,0.4,0.4c0.2,0.8-0.9,2.1-0.9,2.5c0,0.4,0.5,0.4,0.9,0.4c0,0.5,0,1.1,0.4,1.3c-0.1,0.1,0,0.3,0,0.5
				c0.1,0.2,0.4,0.1,0.5,0.3c-0.1,1.1,0.5,1.3,1.6,1.4c0.5,0,1.1-0.1,1.6,0c0.3,0.1,0.5,0.3,0.6,0.4c0.2,0.1,0.4,0.3,0.5,0.5
				c-0.2,0.6-0.4,1.3-0.8,1.9c-0.2,0.3-0.3,0.5-0.5,0.9c-0.1,0.1-0.1,0.3-0.1,0.5c-0.1,0.3-0.4,0.6-0.6,0.9
				c-0.5,0.9-1.1,1.8-1.6,2.8c-0.5,1-0.9,1.9-1.5,2.9c-0.2,0.4-0.5,0.7-0.5,1.1c0,0.2,0.1,0.5,0.1,0.7c0,0.5,0,1.2-0.1,1.7
				c0,0.2-0.2,0.4-0.2,0.6c-0.1,0.4-0.1,0.8-0.2,1.2c-0.2,1-0.8,2-0.8,3.3c-0.7-0.1-0.8,0.6-1.4,0.6c-0.3,0-0.5-0.3-0.8-0.3
				c-0.2,0-0.4,0.2-0.6,0.2c-0.2,0-0.4,0-0.7,0.1c-0.4,0.1-0.8,0.3-1.3,0.3c-0.2,0-0.5,0-0.7,0.1c-0.2,0.1-0.2,0.3-0.3,0.4
				c-0.4,0.1-0.7,0-1.1,0c-0.3,0.1-0.4,0.3-0.6,0.3c-0.5,0.1-1.2-0.2-1.6-0.1c-0.2,0-0.4,0.1-0.6,0.1c-0.2,0-0.5,0-0.8,0
				c-0.3,0-0.6,0.1-0.8,0c-0.3,0-0.6-0.2-0.9-0.4c-0.6-0.3-1.1-0.5-1.6-0.9c-0.4-0.3-0.6-0.5-1.2-0.6c-0.2-0.2-0.2-0.4-0.3-0.6
				c-0.4-0.5-1.2-0.6-1.8-0.9c-0.6-0.3-1-0.7-1.4-1c0.1-0.6,0.6-1.1,0.5-1.8c0-0.2-0.2-0.4-0.3-0.6c-0.1-0.2-0.1-0.5-0.2-0.7
				c-0.3-0.6-0.9-1-1.2-1.6c-0.2-0.4-0.3-0.9-0.5-1.3c-0.1-0.1-0.2-0.2-0.3-0.3c-0.2-0.3-0.3-0.8-0.4-1.2c-0.1-0.4-0.3-0.8-0.5-1.1
				c-0.3-0.8-0.5-1.6-0.8-2.3c-0.3-0.7-0.7-1.5-1-2.2c-0.4-0.8-0.7-1.5-1-2.2c0.2-0.3,0.6-0.3,0.9-0.5c0.2-0.2,0.2-0.4,0.3-0.7
				c0.4-0.1,0.8-0.1,1.1-0.1c0.9,0,1.6,0.1,1.8-0.6c0-0.2-0.1-0.3,0-0.5c0.1-0.3,0.5-0.2,0.7-0.5c0.1-0.2-0.1-0.3-0.1-0.5
				c0.2,0,0.5,0,0.6-0.1c0.2-0.3-0.1-0.9,0.2-1.1c0.4,0.1,0.9,0,1.1-0.2c0-0.7-0.3-1.2-0.6-1.7c-0.2-0.3-0.4-0.6-0.3-1
				c0.1-0.4,0.5-0.6,0.8-0.8c-0.4-0.5-0.3-1.6-0.5-2.2c-0.2-0.5-0.6-0.9-0.9-1.3c0.5-0.4,1.2-0.8,1.2-1.7c-0.7,0.2-0.9-0.3-1.6-0.3
				c-0.1,0-1-0.1-4-0.6c-3-0.5-5.1,1-5.1,1c-0.2,0.3-0.6,0.5-0.8,0.8c-0.1,0.1-0.2,0.4-0.3,0.6c-0.3,0.5-0.7,1.2-0.7,1.8
				c-0.1,0.6,0,1.2,0,2l0.1,0l0,0.1h0c0.1,0.1,0,0.4,0.1,0.6c0.1,0.2,0.1,0,0.3,0.1c0,0.2,0.1,0.5,0.2,0.7c0.1,0.2,0.2,0.3,0.3,0.4
				c0.2,0.4,0.2,0.9,0.3,1.5c0,0.2,0.1,0,0.2,0c-0.1,0.6-0.2,1.2-0.7,1.4c-0.1,0.2-0.3,0.2-0.4,0.2c-0.1,0.3-0.3,0.5-0.4,0.7
				c-0.1,0.2-0.3,0.5-0.3,0.7c-0.5,0.4-0.9,0.8-1.3,1.2c-0.5,0.4-1,0.6-1.5,1c-0.7,0.5-1.3,1.2-1.7,2c-0.1,0.3-0.3,0.5-0.5,0.7
				c-0.1,0.2-0.2,0.5-0.3,0.7c-0.3,0.7-0.6,1.6-0.6,2.4c0,0.4,0.1,0.8,0.1,1.3c0.1,1.3,0,2.8,0.1,4.2c0,0.8,0.2,1.6,0.3,2.3
				c0.1,0.8,0.3,1.5,0.4,2.2c0.1,0.9,0,1.9,0,2.9c0,2.1,0,3.9-0.1,5.9c-0.2,3.9-0.3,7.8-0.7,11.4c1.3,0.4,2.9,0.6,4.3,1
				c-0.1,2,0.2,4,0.3,6c0.1,1-0.2,2.2-0.3,3.4c0,0.6-0.1,1.1-0.2,1.7c-0.3,2.5-0.2,5.4-0.4,7.9c-0.3,3.5,0.6,7.1,0.5,10.6
				c0,0.6-0.1,1.1,0,1.6c0.1,0.4,0.3,0.7,0.5,1.1c0.1,0.2,0.2,0.4,0.3,0.5c0.1,0.2,0.3,0.3,0.3,0.6c0.1,0.6-0.2,1.4-0.2,1.9
				c-0.1,0.5,0.1,0.9,0.2,1.4c0.1,0.6,0.3,1.1,0.4,1.7c0.1,0.5,0.4,0.9,0.3,1.5c0.3,0.2,0.8,0.2,1.2,0.2c0.4,0.1,0.9,0.2,1.3,0.2
				c0.4,0,0.7-0.4,1-0.5c0.4,0.1,0.9,0.5,1.3,0.7c1,0.4,3.1,0.4,4.8,0.4c1,0,2.5,0,3.4-0.4c0.5-0.2,1.1-0.5,0.5-0.9
				c-0.3-0.9-1.4-1-2.1-1.5c0.5-0.1,1-0.1,1.6-0.1c1.4-0.1,3.1-0.2,4-1c0-0.2-0.2-0.3-0.3-0.4c-0.1-0.8-1.1-1-2-1.1
				c-0.6-0.1-1.3-0.1-1.8-0.2c-0.5-0.1-1.2-0.6-1.6-1c-0.1-0.1-0.2-0.1-0.3-0.2c-0.1-0.1-0.1-0.2-0.2-0.2c-0.2-0.1-0.4-0.1-0.5-0.3
				c-0.1-0.2-0.1-0.4-0.1-0.6c-0.1-0.4-0.4-0.8-0.6-1.2c-0.2-0.4-0.4-0.8-0.6-1.1c0.4-0.1,0.8-0.1,1.1-0.2c0.5-0.8,0.7-1.8,0.9-2.7
				c0.2-1,0.4-2,0.6-3.1c0.4-2,0.7-4.2,0.9-6.3c0.3-2.2,0.5-4.4,0.6-6.6c0.1-2.6,0.3-5.2,0.4-7.8c0.1-1.3,0-2.6-0.2-3.8
				c0.4-0.2,1.2-0.2,1.5-0.6c-0.1-1.2-0.3-2.5-0.5-3.7c-0.1-0.8-0.2-1.5-0.3-2.3c-0.2-1.6-0.5-3.3-0.4-4.8c0-0.6,0-0.9,0.3-1.2
				c0.1-0.1,0.3-0.2,0.4-0.4c0.1-0.3,0-0.5,0.2-0.8c0.4,0.2,0.7,0.4,1,0.6c0.7,0.4,1.3,0.8,2,1.2c0.3,0.2,0.7,0.4,1.2,0.4
				c0.4-0.6,0.6-1.5,0.9-2.2c0.2,0.1,0.3,0.2,0.5,0.1c0.3,0,0.5-0.4,0.7-0.2c0,0.3-0.1,0.8,0.3,0.9c0.3,0,0.4,0,0.6-0.1
				c0.1,0.3,0.1,0.5,0.5,0.5c0,0.2-0.1,0.3,0,0.4c0.3,0.1,0.7,0.1,0.9-0.1c0.3,0.3,1,0.2,1-0.3c0.2,0,0.4,0,0.6-0.1
				c0.3-0.1,0.4-0.3,0.7-0.3c0.2-0.1,0.3-0.3,0.5-0.5c0.2,0.4,0.3,0.9,0.5,1.3c0.4,0,0.8-0.3,1.1-0.4c0.1,0,0.3,0,0.5,0
				c0.2,0,0.5-0.3,0.9-0.1c0.1,0,0.1-0.1,0.3-0.2c0.2-0.1,0.5,0,0.7,0c0,1.5-0.5,3-0.6,4.6c-0.1,1.1,0,2.2,0.2,3.2
				c0.1,0.7,0.2,1.2,0.4,1.8c0.1,0.2,0.2,0.3,0.2,0.5c0.1,0.2,0,0.5,0.1,0.8c0.2,1.6,0.7,3.2,2.5,3.4c0.2,2.5,0.5,5.1,1,7.7
				c0.1,0.6,0.2,1.2,0.3,1.9c0.2,1.9,0.4,3.9,0.6,5.8c0.2,1.2,0.4,2.4,0.7,3.6c0.6,2.3,1.2,4.6,2,6.7c0.4,1.1,0.8,2.1,1.3,3.1
				c0.2,0.4,0.8,0.9,1.4,1c0,0.2-0.2,0.4-0.3,0.6c-0.4,0.4-0.5,0.5-0.8,1c-0.1,0.1-0.1,0.3-0.2,0.4c-0.3,0.4-1.2,0.4-1.8,0.5
				c-0.4,0-0.7,0.1-1.1,0.1c-0.8,0-1.5,0-1.7,0.6c-0.1,0.2-0.1,0.4-0.1,0.6c-0.1,0.1-0.2,0.1-0.2,0.3c0,0.1-0.1,0.3,0,0.4
				c0.2,0.2,0.6,0.3,0.9,0.4c0.4,0.1,0.8,0.1,1.2,0.2c-0.5,0.3-1.3,0.4-2.1,0.5c-0.2,0-0.5,0-0.7,0.1c-0.1,0.1-0.5,0.4-0.6,0.5
				c-0.1,0.1-0.1,0.3-0.1,0.5c-0.2,0.2-0.3,0.4-0.2,0.6c0.2,0.6,1.6,0.7,2.4,0.8c1.1,0.1,2.2,0.1,3.1,0c2.2-0.1,4.1-0.4,5.3-1.2
				c0.5,0.1,1,0.3,1.5,0.5c0.8-0.1,1.9-0.2,2.7-0.4c0.4-0.1,0.7-0.1,0.8-0.3c0.2-0.4-0.2-1.1,0-1.7c0.4-0.2,0.9-0.2,1.2-0.4
				c0-0.5,0.1-1.1,0-1.7c0-0.2-0.2-0.4-0.2-0.6c0-0.2,0.2-0.3,0.2-0.5c0.1-0.3,0-0.7,0-1.1c-0.1-0.8-0.3-1.2-0.4-1.8
				c-0.2-0.6-0.4-1-0.6-1.5c-0.2-0.5-0.2-0.8-0.7-1.1c-0.2-1.3,0.1-2.7-0.2-4.1c-0.1-0.4-0.5-1-0.5-1.4c-0.1-0.7,0.1-1.4,0-2.2
				c-0.2-2.8-0.2-5.9-0.5-8.6c-0.1-0.7-0.2-1.5-0.4-2.2c-0.1-0.2-0.2-0.5-0.2-0.7c0-0.2,0.1-0.3,0.2-0.5c0.1-0.5,0.2-1.2,0.3-1.7
				c0.1-0.6,0.2-1.1,0.3-1.7c0-0.2,0-0.4,0.1-0.6c0.1-0.2,0.3-0.4,0.4-0.6c0.4-0.6,0.7-1.3,0.7-2.2c0.9-0.2,1.9,0,2.9,0
				c0-0.1,0-0.4,0-0.5c0.1-0.7,0.1-1.5,0.1-2.2c0.4-0.2,0.9-0.2,1.2-0.6c-0.4-2.6-0.6-5.5-1-8.1C114.5,79.6,114.3,78.7,114.2,77.8z
				 M149,111.9c-0.1-1.7-0.3-13.2-0.4-13.9c-0.1-0.1-0.4,0-0.5-0.1c0-0.2,0-0.4-0.1-0.4c-2.1,0-4,0.1-5.9,0.2
				c-0.8-1.7-1.5-3.4-2.9-4.5c0-0.5,0.1-0.9,0.1-1.3c0-0.9-0.3-1.8-0.3-2.7c0-0.5,0.2-1.1,0.4-1.6c0.4-1.6,0.8-3.2,0.4-5.1
				c0-0.2,0.2,0,0.1-0.2c0-0.4-0.2-0.8-0.2-1.2c0-0.3,0.1-0.6,0.1-1c0-0.4,0-0.8,0-1.2c0-0.2,0.1-0.4,0.1-0.6c0-0.2-0.1-0.3-0.1-0.5
				c0-0.2,0.1-0.3,0.1-0.5c0-0.4,0-0.7,0-1.1c0-0.2,0.1-0.4,0.1-0.6c0.1-0.7,0.2-1.2,0.2-2c0-0.8,0.2-1.3,0.2-1.9
				c0-0.5,0.1-1.2,0-1.7c0.2-0.3,0.4-0.6,0.7-0.9c0.2-0.3,0.5-0.7,0.6-1c0.1-0.4,0.1-0.7,0.2-1.1c0.1-0.2,0.2-0.4,0.3-0.6
				c0.1-0.4,0.2-0.9,0.1-1.3c-0.1-0.5-0.4-0.9-0.4-1.3c0-0.2,0.1-0.6,0-0.9c-0.1-0.9-0.6-1.5-0.9-2.4c-0.2-0.7-0.2-1.4-0.3-2
				c0-0.2-0.1-0.4-0.2-0.6c-0.1-0.3-0.1-0.6-0.1-0.9c0-0.3-0.1-0.7-0.1-1c-0.2-2.1-0.5-4.1-0.6-6c-0.1-1.4-0.2-2.8-0.4-4.1
				c-0.2-1.2-1.2-2.7-1.5-3c-0.3-0.3-2-1-4-0.9c-2,0-4.1,1.1-4.2,1.2c-0.3,0.2-0.4,0.5-0.7,0.7c-0.1,0.1-0.4,0.1-0.5,0.3
				c-0.1,0.3-0.3,0.5-0.1,0.9c-0.5,0.5-0.7,1.4-0.6,2.5c0,0.1,0,0.1-0.1,0.1c0,0.1,0.1,0.2,0.2,0.5c0.1,0.2,0.1,0.4,0.1,0.5
				c0,0.6-1,1.7-1.1,1.9c-0.1,0.3,0.5,0.4,0.8,0.5c0,0.3-0.1,0.4-0.1,0.6c0.1,0.2,0.2,0.2,0.3,0.3c0,0.1-0.2,0.2-0.3,0.4
				c0,0.1,0.2,0.4,0.3,0.6c0.1,0.3-0.1,0.7,0,0.9c0.2,0.6,1,0.2,1.6,0.4c0,0,0.2,0.3,0.2,0.7s-0.2,0.9-0.2,0.9
				c0.1-0.1,0.4-0.5,0.5-0.8c0.2-0.3,0.2-0.6,0.3-0.6c0.3,0.2-0.1,0.5-0.1,0.7c0,0,0.2,0,0.2,0c0,0.1,0.1,0.2,0,0.4
				c-0.1,0.3-0.2,0.6-0.2,0.5c0,0,0.2-0.3,0.4-0.6c0.1-0.2,0.1-0.3,0.2-0.3c0.1,0.2,0,0.5-0.1,0.7c-0.1,0.1-0.2,0.2-0.2,0.3
				c0,0,0.3-0.2,0.3-0.1c-0.4,0.9-2,1.5-2.8,2.2c-0.1,0.1-0.2,0.3-0.3,0.4c-0.1,0.1-0.3,0.2-0.4,0.4c0,0.3,0.3,0.5,0.5,0.7
				c0.1,0.2,0.2,0.4,0.3,0.6v0.3c0,0.1,0.2,0,0.1,0.2c-0.5,1-1.3,1.9-1.7,3c-0.2,0.4-0.2,0.9-0.4,1.3c-0.1,0.3-0.3,0.5-0.4,0.7
				c-0.1,0.2-0.3,0.4-0.4,0.7c-0.2,1,0,2-0.1,3.2c-0.1,0.5-0.2,0.9-0.1,1.4c0.1,1.4,0.9,2.5,1.2,3.8c0.1,0.2,0.3,0.4,0.3,0.7
				c0,0.3-0.3,0.7-0.4,1.1c-0.1,0.2-0.1,0.5-0.2,0.7c-0.2,0.4-0.4,0.8-0.7,1.1c-0.1,0.2-0.3,0.4-0.3,0.5c0.2,0.1,0.5,0.1,0.8,0.3
				c0,0.6-0.3,0.7-0.5,1.1c-0.1,0.3-0.1,0.7-0.2,1.1c0.3,0.2,0.7,0.2,1,0.5c0.2,0,0.2-0.1,0.3,0c-0.3,1.2-0.6,2.3-0.9,3.4
				c-0.2,0.9-0.4,1.7-0.9,2.3c-0.2,0.2-0.2,0.5-0.4,0.7c-0.1,0.3-0.5,0.5-0.6,0.8c-0.1,0.3,0.1,0.6,0.1,0.8s0,0.5,0,0.8
				c0,0.3,0,0.7,0,0.9c0.1,0.2,0.4,0.4,0.5,0.6c0.2,0.2,0.3,0.5,0.5,0.7c0.2,0.2,0.5,0.3,0.6,0.6c0.1,0.3,0,0.7-0.1,1
				c-0.2,2.3-0.4,4.7-0.6,6.9l-0.1,1.2c-0.1,0.2,0,0.5,0,0.7c0.3,0.1,0.6,0.2,1,0.2c0.1,2.9,0,6.1,0.2,9.1c0,0.8,0,1.4,0.5,1.7
				c1.2,0,2.6-0.1,3.7-0.1c0.2,1.4,0.2,2.9,0.3,4.4c0,0.9,0,1.8-0.2,2.7c-0.2,0.8-0.4,1.5-0.8,2c-0.4,0.6-1.2,0.9-1.8,1.3
				c-0.3,0.2-0.6,0.4-0.9,0.6c-0.3,0.2-0.5,0.5-0.9,0.7c-0.1-0.4-0.6-0.1-0.9-0.1c-0.1,0.1,0,0.3-0.1,0.4c-1.1,0.2-3.1,0.1-3.1,1.1
				c0,0.1-0.2,0.2-0.1,0.3c0.6,0.6,1.8,0.7,2.8,0.9c0.1,0.2-0.2,0.2-0.1,0.4c0.2,0.2,0.5,0.6,0.8,0.6c0.6,0.2,1.4,0.2,2.2,0.2
				c1.2,0,2.4,0,3.6-0.1c0.6-0.1,1-0.1,1.4-0.3c0.5-0.2,0.8-0.4,1.2-0.6c0.9,0.7,3.2,0.6,4.1,0c0.1-0.5-0.1-1,0-1.4
				c0-0.1,0.1-0.3,0.1-0.4c0.1-0.8-0.2-1.6-0.4-2.1c-0.1-0.2-0.1-0.4-0.1-0.5c-0.1-0.1-0.2-0.2-0.3-0.3c-0.1-0.2,0-0.5-0.1-0.7
				c-0.1-1.4,0.2-2.5,0.6-3.4c0.2-0.4,0.3-0.9,0.4-1.3c0.5-1.7,1.2-3.3,1.7-4.9c3.1-0.2,6.7-0.2,9.7-0.5
				C149.1,113.1,149,112.5,149,111.9z M138.2,97.9c-0.1-1.1,0.2-2.5,0.3-3.4c0.1-0.1,0.5-0.1,0.5-0.3c0.2,0.2,0.5,0.3,0.7,0.5
				c0.1,0.2,0.2,0.5,0.3,0.7c0.2,0.7,0.4,1.6,0.6,2.3C139.8,97.8,138.8,97.9,138.2,97.9z"/>
		</g>
	</g>
</g>
</svg>
