<?xml version="1.0" encoding="utf-8"?>
<!-- Generator: Adobe Illustrator 15.0.2, SVG Export Plug-In . SVG Version: 6.00 Build 0)  -->
<!DOCTYPE svg PUBLIC "-//W3C//DTD SVG 1.1//EN" "http://www.w3.org/Graphics/SVG/1.1/DTD/svg11.dtd">
<svg version="1.1" xmlns="http://www.w3.org/2000/svg" xmlns:xlink="http://www.w3.org/1999/xlink" x="0px" y="0px" width="180px"
	 height="142px" viewBox="0 0 180 142" style="enable-background:new 0 0 180 142;" xml:space="preserve">
<style type="text/css">
<![CDATA[
	.st0{fill:#D4440B;}
]]>
</style>
<g id="guides">
</g>
<g id="Layer_2">
	<path class="st0" d="M51.6,113.3V132H35.5v-20.3c7.5-6,19.4-11.3,19.4-11.3v-3.9c0-0.8-0.2-2.6-0.7-3.4c-0.4-0.8-1.9-0.9-2.7-3.3
		c-1.6-5.5,0.7-5.6,0.9-5.6c0,0,0,0,0,0c0.1-2.6,0.3-5.8,1.5-7.3c1.4-1.9,5-3.3,7.3-3.3c0.1,0,0.2,0,0.3,0c0.1,0,0.2,0,0.3,0
		c2.3,0,5.9,1.4,7.3,3.3c1.2,1.5,1.4,4.7,1.5,7.3c0,0,0,0,0,0c0.2,0,2.4,0.1,0.9,5.6c-0.6,2-2.5,2.5-2.9,3.3
		c-0.4,0.8-0.7,2.6-0.7,3.4v3.9c0,0,0,0,0.1,0c-4.8,2.6-10.2,5.9-14.6,9.5l-1.6,1.3V113.3z M144.5,111.7c-3.3-2.8-8.3-5.6-12.4-7.8
		c-4-2.1-7.2-3.5-7.2-3.5v-3.9c0-0.8,0.3-2.6,0.7-3.4c0.4-0.8,2.3-1.3,2.9-3.3c1.6-5.4-0.6-5.6-0.9-5.6h0c-0.1-2.6-0.3-5.8-1.5-7.3
		c-1.4-1.9-5-3.3-7.3-3.3c-0.1,0-0.2,0-0.3,0c-0.1,0-0.2,0-0.3,0c-2.3,0-5.9,1.4-7.3,3.3c-1.2,1.5-1.4,4.7-1.5,7.3h0
		c-0.2,0-2.5,0.1-0.9,5.6c0.7,2.4,2.2,2.5,2.7,3.3c0.4,0.8,0.7,2.6,0.7,3.4v3.8c6.5,3.5,11.6,6.7,15.1,9.6l1.6,1.3v2V132h15.9V111.7
		z M107.9,103.1c-0.3-0.1-0.5-0.3-0.8-0.4c-4.9-2.5-8.7-4.2-8.7-4.2v-5.1c0-1,0.3-3.4,0.9-4.5c0.6-1,3.1-1.7,3.8-4.4
		c2.1-7.1-0.9-7.3-1.2-7.3h0c-0.2-3.4-0.4-7.6-1.9-9.7c-1.9-2.5-6.6-4.4-9.6-4.4c-0.1,0-0.2,0-0.4,0c-0.1,0-0.2,0-0.4,0
		c-3,0-7.7,1.9-9.6,4.4c-1.5,2-1.8,6.2-1.9,9.7h0c-0.3,0-3.3,0.2-1.2,7.3c0.9,3.2,3,3.3,3.5,4.4c0.6,1.1,0.9,3.5,0.9,4.5v5.1
		c0,0-3.7,1.7-8.7,4.3c-5.2,2.7-11.7,6.5-16.7,10.6v5.7v13h68.2v-13v-5.7C119.9,109.7,113.3,105.9,107.9,103.1z"/>
</g>
</svg>
