<?xml version="1.0" encoding="utf-8"?>
<!-- Generator: Adobe Illustrator 15.0.2, SVG Export Plug-In . SVG Version: 6.00 Build 0)  -->
<!DOCTYPE svg PUBLIC "-//W3C//DTD SVG 1.1//EN" "http://www.w3.org/Graphics/SVG/1.1/DTD/svg11.dtd">
<svg version="1.1" xmlns="http://www.w3.org/2000/svg" xmlns:xlink="http://www.w3.org/1999/xlink" x="0px" y="0px" width="180px"
	 height="142px" viewBox="0 0 180 142" style="enable-background:new 0 0 180 142;" xml:space="preserve">
<style type="text/css">
<![CDATA[
	.st0{fill:#24D186;}
	.st1{fill:#CDC9BC;}
	.st2{fill:#008A2C;}
	.st3{fill:#756E5E;}
]]>
</style>
<g id="Layer_1">
</g>
<g id="Layer_2">
	<path class="st2" d="M84.6,96.7c1.3,0,2.4,0.4,3.2,1.4c0.9,0.9,1.3,2,1.3,3.2v11.1c0,0.4-0.1,0.8-0.4,1.1c-0.3,0.3-0.7,0.5-1.1,0.5
		c-0.4,0-0.8-0.2-1.1-0.5c-0.3-0.3-0.4-0.7-0.4-1.1v-9.9h-0.8v27.5c0,0.5-0.2,1-0.6,1.4c-0.4,0.4-0.9,0.6-1.4,0.6
		c-0.6,0-1.1-0.2-1.5-0.6c-0.4-0.4-0.6-0.9-0.6-1.4V114h-1.8v15.9c0,0.5-0.2,1-0.6,1.4c-0.4,0.4-0.9,0.6-1.5,0.6
		c-0.5,0-1-0.2-1.4-0.6c-0.4-0.4-0.6-0.9-0.6-1.4v-27.5h-0.8v9.9c0,0.4-0.1,0.8-0.4,1.1c-0.3,0.3-0.6,0.5-1.1,0.5
		c-0.4,0-0.8-0.2-1.1-0.5c-0.3-0.3-0.5-0.7-0.5-1.1v-11.1c0-1.2,0.5-2.3,1.4-3.2c0.9-0.9,2-1.4,3.2-1.4H84.6 M79.7,94.9
		c1,0,1.8-0.3,2.5-1c0.7-0.7,1-1.5,1-2.5c0-1-0.3-1.8-1-2.5c-0.7-0.7-1.5-1-2.5-1c-1,0-1.9,0.3-2.5,1c-0.7,0.7-1,1.5-1,2.5
		c0,1,0.3,1.9,1,2.5C77.8,94.5,78.7,94.9,79.7,94.9"/>
	<path class="st2" d="M97.5,35.4c1.3,0,2.3,0.4,3.2,1.4c0.9,0.9,1.3,2,1.3,3.2V51c0,0.4-0.1,0.8-0.4,1.1c-0.3,0.3-0.7,0.5-1.1,0.5
		c-0.4,0-0.8-0.2-1.1-0.5C99.1,51.8,99,51.4,99,51v-9.9h-0.8v27.5c0,0.5-0.2,1-0.6,1.4c-0.4,0.4-0.9,0.6-1.4,0.6
		c-0.6,0-1.1-0.2-1.5-0.6c-0.4-0.4-0.6-0.9-0.6-1.4V52.6h-1.8v15.9c0,0.5-0.2,1-0.6,1.4c-0.4,0.4-0.9,0.6-1.5,0.6
		c-0.5,0-1-0.2-1.4-0.6c-0.4-0.4-0.6-0.9-0.6-1.4V41.1h-0.8V51c0,0.4-0.1,0.8-0.4,1.1c-0.3,0.3-0.6,0.5-1.1,0.5
		c-0.4,0-0.8-0.2-1.1-0.5c-0.3-0.3-0.5-0.7-0.5-1.1V39.9c0-1.2,0.5-2.3,1.4-3.2c0.9-0.9,2-1.4,3.2-1.4H97.5 M92.7,33.5
		c1,0,1.8-0.3,2.5-1c0.7-0.7,1-1.5,1-2.5c0-1-0.3-1.8-1-2.5c-0.7-0.7-1.5-1.1-2.5-1.1c-1,0-1.9,0.3-2.5,1.1c-0.7,0.7-1,1.5-1,2.5
		c0,1,0.3,1.9,1,2.5C90.8,33.2,91.7,33.5,92.7,33.5"/>
	<path class="st2" d="M58.7,96.7c1.3,0,2.4,0.4,3.2,1.4c0.9,0.9,1.3,2,1.3,3.2v11.1c0,0.4-0.1,0.8-0.4,1.1c-0.3,0.3-0.7,0.5-1.1,0.5
		c-0.4,0-0.8-0.2-1.1-0.5c-0.3-0.3-0.4-0.7-0.4-1.1v-9.9h-0.8v27.5c0,0.5-0.2,1-0.6,1.4c-0.4,0.4-0.9,0.6-1.4,0.6
		c-0.6,0-1.1-0.2-1.5-0.6c-0.4-0.4-0.6-0.9-0.6-1.4V114h-1.8v15.9c0,0.5-0.2,1-0.6,1.4c-0.4,0.4-0.9,0.6-1.5,0.6
		c-0.5,0-1-0.2-1.4-0.6c-0.4-0.4-0.6-0.9-0.6-1.4v-27.5h-0.8v9.9c0,0.4-0.1,0.8-0.4,1.1c-0.3,0.3-0.6,0.5-1.1,0.5
		c-0.4,0-0.8-0.2-1.1-0.5c-0.3-0.3-0.5-0.7-0.5-1.1v-11.1c0-1.2,0.5-2.3,1.4-3.2c0.9-0.9,2-1.4,3.2-1.4H58.7 M53.9,94.9
		c1,0,1.8-0.3,2.5-1c0.7-0.7,1-1.5,1-2.5c0-1-0.3-1.8-1-2.5c-0.7-0.7-1.5-1-2.5-1c-1,0-1.9,0.3-2.5,1c-0.7,0.7-1,1.5-1,2.5
		c0,1,0.3,1.9,1,2.5C52,94.5,52.8,94.9,53.9,94.9"/>
	<path class="st2" d="M29.4,96.7c1.3,0,2.4,0.4,3.2,1.4c0.9,0.9,1.3,2,1.3,3.2v11.1c0,0.4-0.1,0.8-0.4,1.1c-0.3,0.3-0.7,0.5-1.1,0.5
		c-0.4,0-0.8-0.2-1.1-0.5c-0.3-0.3-0.4-0.7-0.4-1.1v-9.9H30v27.5c0,0.5-0.2,1-0.6,1.4c-0.4,0.4-0.9,0.6-1.4,0.6
		c-0.6,0-1.1-0.2-1.5-0.6c-0.4-0.4-0.6-0.9-0.6-1.4V114h-1.8v15.9c0,0.5-0.2,1-0.6,1.4c-0.4,0.4-0.9,0.6-1.5,0.6
		c-0.5,0-1-0.2-1.4-0.6c-0.4-0.4-0.6-0.9-0.6-1.4v-27.5h-0.8v9.9c0,0.4-0.1,0.8-0.4,1.1c-0.3,0.3-0.6,0.5-1.1,0.5
		c-0.4,0-0.8-0.2-1.1-0.5c-0.3-0.3-0.5-0.7-0.5-1.1v-11.1c0-1.2,0.5-2.3,1.4-3.2c0.9-0.9,2-1.4,3.2-1.4H29.4 M24.5,94.9
		c1,0,1.8-0.3,2.5-1c0.7-0.7,1-1.5,1-2.5c0-1-0.3-1.8-1-2.5c-0.7-0.7-1.5-1-2.5-1c-1,0-1.9,0.3-2.5,1c-0.7,0.7-1,1.5-1,2.5
		c0,1,0.3,1.9,1,2.5C22.7,94.5,23.5,94.9,24.5,94.9"/>
	<path class="st0" d="M19.9,48.1c0.2,0.7,0.3,1.1,0.4,1.2l0.1,0.4c0,0.7-0.3,1.2-1,1.4L19,51.2c-0.7,0-1.2-0.3-1.4-1
		c-0.1-0.2-0.2-0.9-0.5-2c-0.3-1.1-0.6-2.2-1-3.4c-0.4-1.2-0.8-2.7-1.4-4.5h-0.8l4.9,16.5h-3.9v12.5c0,0.5-0.2,0.9-0.5,1.2
		c-0.3,0.3-0.8,0.5-1.3,0.5c-0.5,0-0.9-0.2-1.2-0.5c-0.3-0.3-0.5-0.7-0.5-1.2V56.8H9.5v12.5c0,0.5-0.2,0.9-0.5,1.2
		c-0.3,0.3-0.7,0.5-1.2,0.5c-0.5,0-0.9-0.2-1.2-0.5c-0.3-0.3-0.5-0.7-0.5-1.2V56.8H1.8l4.9-16.5H5.8c-0.6,1.8-1,3.3-1.3,4.5
		c-0.3,1.2-0.7,2.3-1,3.4c-0.3,1.1-0.5,1.7-0.6,2c-0.2,0.7-0.7,1-1.4,1l-0.4-0.1c-0.7-0.2-1-0.7-1-1.3c0-0.2,0-0.3,0.1-0.5
		c0.1-0.1,0.2-0.5,0.4-1.2c0.2-0.7,0.4-1.6,0.7-2.6c0.3-1,0.6-2.1,1-3.3C2.6,41,3,39.9,3.3,38.8c0.2-0.9,0.8-1.6,1.6-2.3
		c0.8-0.7,1.6-1,2.5-1h5.7c0.9,0,1.8,0.3,2.5,1c0.8,0.7,1.3,1.4,1.6,2.3c0.3,1.1,0.6,2.3,1,3.4c0.3,1.2,0.7,2.3,1,3.3
		C19.5,46.5,19.7,47.4,19.9,48.1 M10.3,33.6c1,0,1.8-0.3,2.5-1c0.7-0.7,1-1.5,1-2.6c0-1-0.3-1.8-1-2.5c-0.7-0.7-1.5-1.1-2.5-1.1
		c-1,0-1.9,0.4-2.6,1.1C7,28.2,6.6,29.1,6.6,30c0,1,0.4,1.9,1.1,2.6C8.4,33.3,9.3,33.6,10.3,33.6"/>
	<path class="st0" d="M49.5,48.1c0.2,0.7,0.3,1.1,0.4,1.2l0.1,0.4c0,0.7-0.3,1.2-1,1.4l-0.4,0.1c-0.7,0-1.2-0.3-1.4-1
		c-0.1-0.2-0.2-0.9-0.5-2c-0.3-1.1-0.6-2.2-1-3.4c-0.4-1.2-0.8-2.7-1.4-4.5h-0.8l4.9,16.5h-3.9v12.5c0,0.5-0.2,0.9-0.5,1.2
		c-0.3,0.3-0.8,0.5-1.2,0.5s-0.9-0.2-1.2-0.5c-0.3-0.3-0.5-0.7-0.5-1.2V56.8h-1.8v12.5c0,0.5-0.2,0.9-0.5,1.2
		c-0.3,0.3-0.7,0.5-1.2,0.5c-0.5,0-0.9-0.2-1.2-0.5c-0.3-0.3-0.5-0.7-0.5-1.2V56.8h-4.3l4.9-16.5h-0.8c-0.6,1.8-1,3.3-1.3,4.5
		c-0.3,1.2-0.7,2.3-1,3.4c-0.3,1.1-0.5,1.7-0.6,2c-0.2,0.7-0.7,1-1.4,1l-0.4-0.1c-0.7-0.2-1-0.7-1-1.3c0-0.2,0-0.3,0.1-0.5
		c0.1-0.1,0.2-0.5,0.4-1.2c0.2-0.7,0.4-1.6,0.7-2.6c0.3-1,0.6-2.1,1-3.3c0.3-1.2,0.7-2.3,1.1-3.4c0.2-0.9,0.8-1.6,1.6-2.3
		c0.8-0.7,1.6-1,2.5-1h5.7c0.9,0,1.8,0.3,2.5,1c0.8,0.7,1.3,1.4,1.6,2.3c0.3,1.1,0.6,2.3,1,3.4c0.3,1.2,0.7,2.3,1,3.3
		S49.3,47.4,49.5,48.1 M39.9,33.6c1,0,1.8-0.3,2.5-1c0.7-0.7,1-1.5,1-2.6c0-1-0.3-1.8-1-2.5c-0.7-0.7-1.5-1.1-2.5-1.1
		c-1,0-1.9,0.4-2.6,1.1c-0.7,0.7-1.1,1.5-1.1,2.5c0,1,0.4,1.9,1.1,2.6C38,33.3,38.9,33.6,39.9,33.6"/>
	<path class="st0" d="M77.8,48.1c0.2,0.7,0.3,1.1,0.4,1.2l0.1,0.4c0,0.7-0.3,1.2-1,1.4l-0.4,0.1c-0.7,0-1.2-0.3-1.4-1
		c-0.1-0.2-0.2-0.9-0.5-2c-0.3-1.1-0.6-2.2-1-3.4c-0.4-1.2-0.8-2.7-1.4-4.5h-0.8l4.9,16.5h-3.9v12.5c0,0.5-0.2,0.9-0.5,1.2
		c-0.3,0.3-0.8,0.5-1.2,0.5c-0.5,0-0.9-0.2-1.2-0.5c-0.3-0.3-0.5-0.7-0.5-1.2V56.8h-1.8v12.5c0,0.5-0.2,0.9-0.5,1.2
		c-0.3,0.3-0.7,0.5-1.2,0.5c-0.5,0-0.9-0.2-1.2-0.5c-0.3-0.3-0.5-0.7-0.5-1.2V56.8h-4.3l4.9-16.5h-0.8c-0.6,1.8-1,3.3-1.3,4.5
		c-0.3,1.2-0.7,2.3-1,3.4c-0.3,1.1-0.5,1.7-0.6,2c-0.2,0.7-0.7,1-1.4,1L59,51.1c-0.7-0.2-1-0.7-1-1.3c0-0.2,0-0.3,0.1-0.5
		c0.1-0.1,0.2-0.5,0.4-1.2c0.2-0.7,0.4-1.6,0.7-2.6c0.3-1,0.6-2.1,1-3.3c0.3-1.2,0.7-2.3,1.1-3.4c0.2-0.9,0.8-1.6,1.6-2.3
		c0.8-0.7,1.6-1,2.5-1H71c0.9,0,1.8,0.3,2.5,1c0.8,0.7,1.3,1.4,1.6,2.3c0.3,1.1,0.6,2.3,1,3.4c0.3,1.2,0.7,2.3,1,3.3
		S77.6,47.4,77.8,48.1 M68.2,33.6c1,0,1.8-0.3,2.5-1c0.7-0.7,1-1.5,1-2.6c0-1-0.3-1.8-1-2.5c-0.7-0.7-1.5-1.1-2.5-1.1
		c-1,0-1.9,0.4-2.6,1.1c-0.7,0.7-1.1,1.5-1.1,2.5c0,1,0.4,1.9,1.1,2.6C66.3,33.3,67.2,33.6,68.2,33.6"/>
	<path class="st3" d="M179.4,82.4c0.2,0.7,0.3,1.1,0.4,1.2l0.1,0.4c0,0.7-0.3,1.2-1,1.4l-0.4,0.1c-0.7,0-1.2-0.3-1.4-1
		c-0.1-0.2-0.2-0.9-0.5-2c-0.3-1.1-0.6-2.2-1-3.3c-0.4-1.2-0.8-2.7-1.4-4.5h-0.8l4.9,16.5h-3.9v12.5c0,0.5-0.2,0.9-0.5,1.2
		c-0.3,0.3-0.8,0.5-1.2,0.5s-0.9-0.2-1.2-0.5c-0.3-0.3-0.5-0.7-0.5-1.2V91.1h-1.8v12.5c0,0.5-0.2,0.9-0.5,1.2
		c-0.3,0.3-0.7,0.5-1.2,0.5c-0.5,0-0.9-0.2-1.2-0.5c-0.3-0.3-0.5-0.7-0.5-1.2V91.1h-4.3l4.9-16.5h-0.8c-0.6,1.8-1,3.3-1.3,4.5
		c-0.3,1.2-0.7,2.3-1,3.3c-0.3,1.1-0.5,1.7-0.6,2c-0.2,0.7-0.7,1-1.4,1l-0.4-0.1c-0.7-0.2-1-0.7-1-1.3c0-0.2,0-0.3,0.1-0.5
		c0.1-0.1,0.2-0.5,0.4-1.2c0.2-0.7,0.4-1.6,0.7-2.6c0.3-1,0.6-2.1,1-3.3c0.3-1.2,0.7-2.3,1.1-3.4c0.2-0.9,0.8-1.6,1.6-2.3
		c0.8-0.7,1.6-1,2.5-1h5.7c0.9,0,1.8,0.3,2.5,1c0.8,0.7,1.3,1.4,1.6,2.3c0.3,1.1,0.6,2.3,1,3.4c0.3,1.2,0.7,2.3,1,3.3
		C179,80.9,179.2,81.7,179.4,82.4 M169.9,67.9c1,0,1.8-0.3,2.5-1c0.7-0.7,1-1.5,1-2.6c0-1-0.3-1.8-1-2.5c-0.7-0.7-1.5-1.1-2.5-1.1
		c-1,0-1.9,0.4-2.6,1.1c-0.7,0.7-1.1,1.5-1.1,2.5c0,1,0.4,1.9,1.1,2.6C168,67.6,168.8,67.9,169.9,67.9"/>
	<g>
		<path class="st1" d="M118.3,128.5v-9.1c0.9,0,1.7-0.1,2.5-0.2c0.8-0.1,1.4-0.4,2-0.8c0.6-0.4,1.1-0.7,1.5-1.1
			c0.4-0.4,0.8-0.9,1.2-1.6c0.3-0.7,0.6-1.3,0.8-1.8c0.2-0.5,0.4-1.2,0.5-2.2c0.1-0.9,0.3-1.7,0.3-2.3c0.1-0.6,0.1-1.5,0.2-2.6
			c0-1.1,0.1-2,0.1-2.6c0-0.6,0-1.6,0-2.8c0-0.1,0-0.2,0-0.3c0-4.6,0.8-8.5,2.3-11.6c1.5-3.2,3.8-5.4,6.8-6.6
			c-6.1-2.7-9.1-10.9-9.1-24.4c0-1.1,0-2.1,0-2.8c0-0.7-0.1-1.5-0.1-2.3c-0.1-0.8-0.2-1.5-0.3-2c-0.1-0.5-0.3-1-0.5-1.6
			c-0.2-0.6-0.5-1-0.8-1.3c-0.3-0.3-0.7-0.6-1.1-1s-1-0.5-1.6-0.7c-0.6-0.1-1.3-0.3-2.1-0.4c-0.8-0.1-1.6-0.1-2.6-0.1V37
			c5.5,0,9.8,0.7,12.8,2s5.2,3.5,6.6,6.5c1.3,3,2,7.3,2,12.8c0,0.5,0,1.4,0,2.6c0,1.2,0,2.2,0,2.8c0,0.6,0,1.5,0.1,2.7
			c0,1.2,0.1,2.1,0.2,2.7c0.1,0.7,0.2,1.4,0.4,2.3c0.2,0.9,0.4,1.6,0.7,2.1c0.3,0.5,0.7,1,1.1,1.6c0.4,0.5,0.9,0.9,1.5,1.1
			c0.6,0.2,1.3,0.3,2,0.3v12.2c-0.9,0-1.6,0.1-2.3,0.3c-0.7,0.2-1.2,0.4-1.6,0.7c-0.4,0.3-0.8,0.7-1.1,1.2c-0.3,0.5-0.5,1-0.7,1.6
			c-0.1,0.6-0.2,1.2-0.3,2c-0.1,0.7-0.1,1.5-0.1,2.3s0,1.6,0,2.5c0,0.8,0,1.3,0,1.8c0,3.7-0.2,6.9-0.6,9.7c-0.4,2.7-1,5.3-2,7.6
			s-2.2,4.2-3.8,5.6c-1.6,1.4-3.6,2.6-6.1,3.4C124.6,128.1,121.7,128.5,118.3,128.5z"/>
	</g>
</g>
</svg>
