<?xml version="1.0" encoding="utf-8"?>
<!-- Generator: Adobe Illustrator 15.0.2, SVG Export Plug-In . SVG Version: 6.00 Build 0)  -->
<!DOCTYPE svg PUBLIC "-//W3C//DTD SVG 1.1//EN" "http://www.w3.org/Graphics/SVG/1.1/DTD/svg11.dtd">
<svg version="1.1" xmlns="http://www.w3.org/2000/svg" xmlns:xlink="http://www.w3.org/1999/xlink" x="0px" y="0px" width="180px"
	 height="142px" viewBox="0 0 180 142" style="enable-background:new 0 0 180 142;" xml:space="preserve">
<style type="text/css">
<![CDATA[
	.st0{fill:#AA17BA;}
	.st1{fill:#137CBD;}
	.st2{fill:#CDC9BC;}
	.st3{fill:#756E5E;}
]]>
</style>
<g id="guides">
</g>
<g id="Layer_1">
	<path class="st1" d="M87,96.8c1.3,0,2.4,0.4,3.2,1.4c0.9,0.9,1.3,2,1.3,3.2v11.1c0,0.4-0.1,0.8-0.4,1.1c-0.3,0.3-0.7,0.5-1.1,0.5
		c-0.4,0-0.8-0.2-1.1-0.5c-0.3-0.3-0.4-0.7-0.4-1.1v-9.9h-0.8V130c0,0.5-0.2,1-0.6,1.4c-0.4,0.4-0.9,0.6-1.4,0.6
		c-0.6,0-1.1-0.2-1.5-0.6c-0.4-0.4-0.6-0.9-0.6-1.4v-15.9h-1.8V130c0,0.5-0.2,1-0.6,1.4c-0.4,0.4-0.9,0.6-1.5,0.6
		c-0.5,0-1-0.2-1.4-0.6c-0.4-0.4-0.6-0.9-0.6-1.4v-27.5h-0.8v9.9c0,0.4-0.1,0.8-0.4,1.1c-0.3,0.3-0.6,0.5-1.1,0.5
		c-0.4,0-0.8-0.2-1.1-0.5c-0.3-0.3-0.5-0.7-0.5-1.1v-11.1c0-1.2,0.5-2.3,1.4-3.2c0.9-0.9,2-1.4,3.2-1.4H87 M82.2,95
		c1,0,1.8-0.3,2.5-1c0.7-0.7,1-1.5,1-2.5c0-1-0.3-1.8-1-2.5c-0.7-0.7-1.5-1-2.5-1c-1,0-1.9,0.3-2.5,1c-0.7,0.7-1,1.5-1,2.5
		c0,1,0.3,1.9,1,2.5C80.3,94.7,81.2,95,82.2,95"/>
	<path class="st1" d="M100,35.5c1.3,0,2.3,0.4,3.2,1.4c0.9,0.9,1.3,2,1.3,3.2v11.1c0,0.4-0.1,0.8-0.4,1.1c-0.3,0.3-0.7,0.5-1.1,0.5
		c-0.4,0-0.8-0.2-1.1-0.5c-0.3-0.3-0.4-0.7-0.4-1.1v-9.9h-0.8v27.5c0,0.5-0.2,1-0.6,1.4c-0.4,0.4-0.9,0.6-1.4,0.6
		c-0.6,0-1.1-0.2-1.5-0.6c-0.4-0.4-0.6-0.9-0.6-1.4V52.8h-1.8v15.9c0,0.5-0.2,1-0.6,1.4c-0.4,0.4-0.9,0.6-1.5,0.6
		c-0.5,0-1-0.2-1.4-0.6c-0.4-0.4-0.6-0.9-0.6-1.4V41.2h-0.8v9.9c0,0.4-0.1,0.8-0.4,1.1c-0.3,0.3-0.6,0.5-1.1,0.5
		c-0.4,0-0.8-0.2-1.1-0.5c-0.3-0.3-0.5-0.7-0.5-1.1V40c0-1.2,0.5-2.3,1.4-3.2c0.9-0.9,2-1.4,3.2-1.4H100 M95.2,33.7
		c1,0,1.8-0.3,2.5-1c0.7-0.7,1-1.5,1-2.5c0-1-0.3-1.8-1-2.5c-0.7-0.7-1.5-1.1-2.5-1.1c-1,0-1.9,0.3-2.5,1.1c-0.7,0.7-1,1.5-1,2.5
		c0,1,0.3,1.9,1,2.5C93.3,33.3,94.1,33.7,95.2,33.7"/>
	<path class="st1" d="M58.7,96.8c1.3,0,2.4,0.4,3.2,1.4c0.9,0.9,1.3,2,1.3,3.2v11.1c0,0.4-0.1,0.8-0.4,1.1c-0.3,0.3-0.7,0.5-1.1,0.5
		c-0.4,0-0.8-0.2-1.1-0.5c-0.3-0.3-0.4-0.7-0.4-1.1v-9.9h-0.8V130c0,0.5-0.2,1-0.6,1.4c-0.4,0.4-0.9,0.6-1.4,0.6
		c-0.6,0-1.1-0.2-1.5-0.6c-0.4-0.4-0.6-0.9-0.6-1.4v-15.9h-1.8V130c0,0.5-0.2,1-0.6,1.4c-0.4,0.4-0.9,0.6-1.5,0.6
		c-0.5,0-1-0.2-1.4-0.6c-0.4-0.4-0.6-0.9-0.6-1.4v-27.5h-0.8v9.9c0,0.4-0.1,0.8-0.4,1.1c-0.3,0.3-0.6,0.5-1.1,0.5
		c-0.4,0-0.8-0.2-1.1-0.5c-0.3-0.3-0.5-0.7-0.5-1.1v-11.1c0-1.2,0.5-2.3,1.4-3.2c0.9-0.9,2-1.4,3.2-1.4H58.7 M53.9,95
		c1,0,1.8-0.3,2.5-1c0.7-0.7,1-1.5,1-2.5c0-1-0.3-1.8-1-2.5c-0.7-0.7-1.5-1-2.5-1c-1,0-1.9,0.3-2.5,1c-0.7,0.7-1,1.5-1,2.5
		c0,1,0.3,1.9,1,2.5C52,94.7,52.8,95,53.9,95"/>
	<path class="st1" d="M29.4,96.8c1.3,0,2.4,0.4,3.2,1.4c0.9,0.9,1.3,2,1.3,3.2v11.1c0,0.4-0.1,0.8-0.4,1.1c-0.3,0.3-0.7,0.5-1.1,0.5
		c-0.4,0-0.8-0.2-1.1-0.5c-0.3-0.3-0.4-0.7-0.4-1.1v-9.9H30V130c0,0.5-0.2,1-0.6,1.4c-0.4,0.4-0.9,0.6-1.4,0.6
		c-0.6,0-1.1-0.2-1.5-0.6c-0.4-0.4-0.6-0.9-0.6-1.4v-15.9h-1.8V130c0,0.5-0.2,1-0.6,1.4c-0.4,0.4-0.9,0.6-1.5,0.6
		c-0.5,0-1-0.2-1.4-0.6c-0.4-0.4-0.6-0.9-0.6-1.4v-27.5h-0.8v9.9c0,0.4-0.1,0.8-0.4,1.1c-0.3,0.3-0.6,0.5-1.1,0.5
		c-0.4,0-0.8-0.2-1.1-0.5c-0.3-0.3-0.5-0.7-0.5-1.1v-11.1c0-1.2,0.5-2.3,1.4-3.2c0.9-0.9,2-1.4,3.2-1.4H29.4 M24.5,95
		c1,0,1.8-0.3,2.5-1c0.7-0.7,1-1.5,1-2.5c0-1-0.3-1.8-1-2.5c-0.7-0.7-1.5-1-2.5-1c-1,0-1.9,0.3-2.5,1c-0.7,0.7-1,1.5-1,2.5
		c0,1,0.3,1.9,1,2.5C22.7,94.7,23.5,95,24.5,95"/>
	<path class="st0" d="M19.9,48.2c0.2,0.7,0.3,1.1,0.4,1.2l0.1,0.4c0,0.7-0.3,1.2-1,1.4L19,51.3c-0.7,0-1.2-0.3-1.4-1
		c-0.1-0.2-0.2-0.9-0.5-2c-0.3-1.1-0.6-2.2-1-3.4c-0.4-1.2-0.8-2.7-1.4-4.5h-0.8l4.9,16.5h-3.9v12.5c0,0.5-0.2,0.9-0.5,1.2
		c-0.3,0.3-0.8,0.5-1.3,0.5c-0.5,0-0.9-0.2-1.2-0.5c-0.3-0.3-0.5-0.7-0.5-1.2V56.9H9.5v12.5c0,0.5-0.2,0.9-0.5,1.2
		c-0.3,0.3-0.7,0.5-1.2,0.5c-0.5,0-0.9-0.2-1.2-0.5c-0.3-0.3-0.5-0.7-0.5-1.2V56.9H1.8l4.9-16.5H5.8c-0.6,1.8-1,3.3-1.3,4.5
		c-0.3,1.2-0.7,2.3-1,3.4c-0.3,1.1-0.5,1.7-0.6,2c-0.2,0.7-0.7,1-1.4,1l-0.4-0.1c-0.7-0.2-1-0.7-1-1.3c0-0.2,0-0.3,0.1-0.5
		c0.1-0.1,0.2-0.5,0.4-1.2c0.2-0.7,0.4-1.6,0.7-2.6c0.3-1,0.6-2.1,1-3.3C2.6,41.1,3,40,3.3,38.9c0.2-0.9,0.8-1.6,1.6-2.3
		c0.8-0.7,1.6-1,2.5-1h5.7c0.9,0,1.8,0.3,2.5,1c0.8,0.7,1.3,1.4,1.6,2.3c0.3,1.1,0.6,2.3,1,3.4c0.3,1.2,0.7,2.3,1,3.3
		C19.4,46.7,19.7,47.5,19.9,48.2 M10.3,33.7c1,0,1.8-0.3,2.5-1c0.7-0.7,1-1.5,1-2.6c0-1-0.3-1.8-1-2.5c-0.7-0.7-1.5-1.1-2.5-1.1
		c-1,0-1.9,0.4-2.6,1.1c-0.7,0.7-1.1,1.5-1.1,2.5c0,1,0.4,1.9,1.1,2.6C8.4,33.4,9.3,33.7,10.3,33.7"/>
	<path class="st0" d="M49.5,48.2c0.2,0.7,0.3,1.1,0.4,1.2l0.1,0.4c0,0.7-0.3,1.2-1,1.4l-0.4,0.1c-0.7,0-1.2-0.3-1.4-1
		c-0.1-0.2-0.2-0.9-0.5-2c-0.3-1.1-0.6-2.2-1-3.4c-0.4-1.2-0.8-2.7-1.4-4.5h-0.8l4.9,16.5h-3.9v12.5c0,0.5-0.2,0.9-0.5,1.2
		c-0.3,0.3-0.8,0.5-1.2,0.5s-0.9-0.2-1.2-0.5c-0.3-0.3-0.5-0.7-0.5-1.2V56.9h-1.8v12.5c0,0.5-0.2,0.9-0.5,1.2
		c-0.3,0.3-0.7,0.5-1.2,0.5c-0.5,0-0.9-0.2-1.2-0.5c-0.3-0.3-0.5-0.7-0.5-1.2V56.9h-4.3l4.9-16.5h-0.8c-0.6,1.8-1,3.3-1.3,4.5
		c-0.3,1.2-0.7,2.3-1,3.4c-0.3,1.1-0.5,1.7-0.6,2c-0.2,0.7-0.7,1-1.4,1l-0.4-0.1c-0.7-0.2-1-0.7-1-1.3c0-0.2,0-0.3,0.1-0.5
		c0.1-0.1,0.2-0.5,0.4-1.2c0.2-0.7,0.4-1.6,0.7-2.6c0.3-1,0.6-2.1,1-3.3c0.3-1.2,0.7-2.3,1.1-3.4c0.2-0.9,0.8-1.6,1.6-2.3
		c0.8-0.7,1.6-1,2.5-1h5.7c0.9,0,1.8,0.3,2.5,1c0.8,0.7,1.3,1.4,1.6,2.3c0.3,1.1,0.6,2.3,1,3.4c0.3,1.2,0.7,2.3,1,3.3
		C49,46.7,49.3,47.5,49.5,48.2 M39.9,33.7c1,0,1.8-0.3,2.5-1c0.7-0.7,1-1.5,1-2.6c0-1-0.3-1.8-1-2.5c-0.7-0.7-1.5-1.1-2.5-1.1
		c-1,0-1.9,0.4-2.6,1.1c-0.7,0.7-1.1,1.5-1.1,2.5c0,1,0.4,1.9,1.1,2.6C38,33.4,38.9,33.7,39.9,33.7"/>
	<path class="st0" d="M77.8,48.2c0.2,0.7,0.3,1.1,0.4,1.2l0.1,0.4c0,0.7-0.3,1.2-1,1.4l-0.4,0.1c-0.7,0-1.2-0.3-1.4-1
		c-0.1-0.2-0.2-0.9-0.5-2c-0.3-1.1-0.6-2.2-1-3.4c-0.4-1.2-0.8-2.7-1.4-4.5h-0.8l4.9,16.5h-3.9v12.5c0,0.5-0.2,0.9-0.5,1.2
		c-0.3,0.3-0.8,0.5-1.3,0.5c-0.5,0-0.9-0.2-1.2-0.5c-0.3-0.3-0.5-0.7-0.5-1.2V56.9h-1.8v12.5c0,0.5-0.2,0.9-0.5,1.2
		c-0.3,0.3-0.7,0.5-1.2,0.5c-0.5,0-0.9-0.2-1.2-0.5c-0.3-0.3-0.5-0.7-0.5-1.2V56.9h-4.3l4.9-16.5h-0.8c-0.6,1.8-1,3.3-1.3,4.5
		c-0.3,1.2-0.7,2.3-1,3.4c-0.3,1.1-0.5,1.7-0.6,2c-0.2,0.7-0.7,1-1.4,1L59,51.2c-0.7-0.2-1-0.7-1-1.3c0-0.2,0-0.3,0.1-0.5
		c0.1-0.1,0.2-0.5,0.4-1.2c0.2-0.7,0.4-1.6,0.7-2.6c0.3-1,0.6-2.1,1-3.3c0.3-1.2,0.7-2.3,1.1-3.4c0.2-0.9,0.8-1.6,1.6-2.3
		c0.8-0.7,1.6-1,2.5-1H71c0.9,0,1.8,0.3,2.5,1c0.8,0.7,1.3,1.4,1.6,2.3c0.3,1.1,0.6,2.3,1,3.4c0.3,1.2,0.7,2.3,1,3.3
		C77.4,46.7,77.6,47.5,77.8,48.2 M68.2,33.7c1,0,1.8-0.3,2.5-1c0.7-0.7,1-1.5,1-2.6c0-1-0.3-1.8-1-2.5c-0.7-0.7-1.5-1.1-2.5-1.1
		c-1,0-1.9,0.4-2.6,1.1c-0.7,0.7-1.1,1.5-1.1,2.5c0,1,0.4,1.9,1.1,2.6C66.3,33.4,67.2,33.7,68.2,33.7"/>
	<path class="st3" d="M179.4,82.6c0.2,0.7,0.3,1.1,0.4,1.2l0.1,0.4c0,0.7-0.3,1.2-1,1.4l-0.4,0.1c-0.7,0-1.2-0.3-1.4-1
		c-0.1-0.2-0.2-0.9-0.5-2c-0.3-1.1-0.6-2.2-1-3.3c-0.4-1.2-0.8-2.7-1.4-4.5h-0.8l4.9,16.5h-3.9v12.5c0,0.5-0.2,0.9-0.5,1.2
		c-0.3,0.3-0.8,0.5-1.2,0.5s-0.9-0.2-1.2-0.5c-0.3-0.3-0.5-0.7-0.5-1.2V91.3h-1.8v12.5c0,0.5-0.2,0.9-0.5,1.2
		c-0.3,0.3-0.7,0.5-1.2,0.5c-0.5,0-0.9-0.2-1.2-0.5c-0.3-0.3-0.5-0.7-0.5-1.2V91.3h-4.3l4.9-16.5h-0.8c-0.6,1.8-1,3.3-1.3,4.5
		c-0.3,1.2-0.7,2.3-1,3.3c-0.3,1.1-0.5,1.7-0.6,2c-0.2,0.7-0.7,1-1.4,1l-0.4-0.1c-0.7-0.2-1-0.7-1-1.3c0-0.2,0-0.3,0.1-0.5
		c0.1-0.1,0.2-0.5,0.4-1.2c0.2-0.7,0.4-1.6,0.7-2.6c0.3-1,0.6-2.1,1-3.3c0.3-1.2,0.7-2.3,1.1-3.4c0.2-0.9,0.8-1.6,1.6-2.3
		c0.8-0.7,1.6-1,2.5-1h5.7c0.9,0,1.8,0.3,2.5,1c0.8,0.7,1.3,1.4,1.6,2.3c0.3,1.1,0.6,2.3,1,3.4c0.3,1.2,0.7,2.3,1,3.3
		C179,81,179.2,81.8,179.4,82.6 M169.9,68.1c1,0,1.8-0.3,2.5-1c0.7-0.7,1-1.5,1-2.6c0-1-0.3-1.8-1-2.5c-0.7-0.7-1.5-1.1-2.5-1.1
		c-1,0-1.9,0.4-2.6,1.1c-0.7,0.7-1.1,1.5-1.1,2.5c0,1,0.4,1.9,1.1,2.6C168,67.7,168.8,68.1,169.9,68.1"/>
	<g>
		<path class="st2" d="M118.3,128.6v-9.1c0.9,0,1.7-0.1,2.5-0.2c0.8-0.1,1.4-0.4,2-0.8c0.6-0.4,1.1-0.7,1.5-1.1
			c0.4-0.4,0.8-0.9,1.2-1.6c0.3-0.7,0.6-1.3,0.8-1.8c0.2-0.5,0.4-1.2,0.5-2.2c0.1-0.9,0.3-1.7,0.3-2.3c0.1-0.6,0.1-1.5,0.2-2.6
			c0-1.1,0.1-2,0.1-2.6c0-0.6,0-1.6,0-2.8c0-0.1,0-0.2,0-0.3c0-4.6,0.8-8.5,2.3-11.6c1.5-3.2,3.8-5.4,6.8-6.6
			c-6.1-2.7-9.1-10.9-9.1-24.4c0-1.1,0-2.1,0-2.8c0-0.7-0.1-1.5-0.1-2.3c-0.1-0.8-0.2-1.5-0.3-2c-0.1-0.5-0.3-1-0.5-1.6
			c-0.2-0.6-0.5-1-0.8-1.3c-0.3-0.3-0.7-0.6-1.1-1c-0.4-0.3-1-0.5-1.6-0.7s-1.3-0.3-2.1-0.4c-0.8-0.1-1.6-0.1-2.6-0.1v-9.1
			c5.5,0,9.8,0.7,12.8,2s5.2,3.5,6.6,6.6c1.3,3,2,7.3,2,12.8c0,0.5,0,1.4,0,2.6c0,1.2,0,2.2,0,2.8c0,0.6,0,1.5,0.1,2.7
			c0,1.2,0.1,2.1,0.2,2.7c0.1,0.7,0.2,1.4,0.4,2.3c0.2,0.9,0.4,1.6,0.7,2.1c0.3,0.5,0.7,1,1.1,1.6c0.4,0.5,0.9,0.9,1.5,1.1
			c0.6,0.2,1.3,0.3,2,0.3V89c-0.9,0-1.6,0.1-2.3,0.3c-0.7,0.2-1.2,0.4-1.6,0.7c-0.4,0.3-0.8,0.7-1.1,1.2c-0.3,0.5-0.5,1-0.7,1.6
			c-0.1,0.6-0.2,1.2-0.3,2c-0.1,0.7-0.1,1.5-0.1,2.3s0,1.6,0,2.5c0,0.8,0,1.3,0,1.8c0,3.7-0.2,6.9-0.6,9.7c-0.4,2.7-1,5.3-2,7.6
			s-2.2,4.2-3.8,5.6c-1.6,1.4-3.6,2.6-6.1,3.4C124.6,128.2,121.7,128.6,118.3,128.6z"/>
	</g>
</g>
</svg>
