<?xml version="1.0" encoding="utf-8"?>
<!-- Generator: Adobe Illustrator 15.0.2, SVG Export Plug-In . SVG Version: 6.00 Build 0)  -->
<!DOCTYPE svg PUBLIC "-//W3C//DTD SVG 1.1//EN" "http://www.w3.org/Graphics/SVG/1.1/DTD/svg11.dtd">
<svg version="1.1" xmlns="http://www.w3.org/2000/svg" xmlns:xlink="http://www.w3.org/1999/xlink" x="0px" y="0px" width="180px"
	 height="142px" viewBox="0 0 180 142" style="enable-background:new 0 0 180 142;" xml:space="preserve">
<style type="text/css">
<![CDATA[
	.st0{fill:#137CBD;}
]]>
</style>
<g id="guides">
</g>
<g id="Layer_2">
	<path class="st0" d="M90.5,39.7c-25.5,0-46.2,20.7-46.2,46.2c0,25.5,20.7,46.2,46.2,46.2c25.5,0,46.2-20.7,46.2-46.2
		C136.7,60.4,116,39.7,90.5,39.7z M50.9,85.8c0-13.3,6.6-25.1,16.7-32.2c1.7,0.7,1.7,3.7,0.9,5.8c-1.3,3.7-6.3,7-5.1,11.5
		c0.4,1.5,0.3,1.9,0.6,3.4c0,0,0,0,0,0c0,0,0,0,0,0c0.1,0.6,0.1,1,0.6,1.4c0.7-0.8,0.4-1.8,0.8-2.9c1.7,0.8,3.7,7,3.8,8.9
		c0.2,4.6,7.6,4.4,10.4,6.7c1.2,1,1.8,2.7,3.2,3.6c2.4,1.6,7,1.4,3.2,5.5c-2.6,2.9-0.6,5.4,0.9,8c0.9,1.7,1,2.4,2.7,3.5
		c3.6,2.4,2.8,6.6,1.4,10.3c-0.4,1-1,1.8-1.1,2.9c-0.1,0.9-0.4,2.2-0.5,3.2C68.1,124.8,50.9,107.3,50.9,85.8z M94.8,125.1
		c0.8-1.2,1.4-2.4,2.2-3c3.2-2.3,6.7-4.9,9.3-7.9c0.9-1,2.3-1.2,3.4-1.9c1-0.5,1.3-1.5,1.9-2.4c0.5-0.8,1.2-1.5,1.6-2.3
		c0.6-1.2,1.1-2.5,1.7-3.7c0.5-0.8,1.3-1.9,1.4-2.9c0-1.7-1.2-2.4-2.7-2.5c-1.5-0.1-4.3,0.5-5.6-0.2c-1.9-1-0.8-4.3-3.5-4.7
		c-0.6-0.1-1.3,0.1-2-0.1c-2-0.4-2.9-2.8-4.6-3.2c-3.4-1-8.3-1.2-10.2,2.1c-1.5-1.7-2.7-0.1-4.1-1.1c-1.4-1,0.3-2.8-0.5-4
		c-1.5-2.3-5.5-0.7-2.2-4.9c-2.1-1.3-2.2,0.8-3.4,1.8c-1,0.9-2.8-0.9-3.2-1.6c-0.8-1.4-0.3-4.3,0.6-5.6c0.8-1.1,6.7-1.7,7.9-1.1
		c1.5,0.7,1.4,2.6,2.1,3.8c1.5-1.3-0.4-2.6,0-4.1c0,0,0,0,0,0c0.4-1.6,2.2-2.4,3.1-3.7c1-1.4,1.4-3.2,2.6-4.5
		c1.5-1.6,3.7-0.6,4.8-1.9c0.1-0.1-1-1.5-0.9-2c0.2-1.3,2.3-1.2,2.8-2.5c-0.9-0.6-1.7-1.5-2.6-2.2c-1.6-1.1-2.5-0.5-3.9-1.1
		c0.1-0.3,0-0.9,0.1-1.2c-0.8-0.4-1.9-0.7-2.7-0.5c-1,0.6-0.2,4.7-1.5,5.8c-0.3-0.1-0.5-0.2-0.7-0.5c-0.6-0.7-0.1-1.5-0.9-2.2
		c-0.6-0.5-2.2-0.7-3-0.7c-1-0.1,0.9-2.7,1.1-2.9c0,0,0,0,0,0c1-1,2.5-1.3,3.5-2.3c-0.5-0.2-1.2-0.1-1.7-0.3l-0.9-0.2
		c-2.5,0.3-8.4-0.7-8.3-3.7c4.6-1.8,9.5-2.9,14.7-2.9c2.3,0,4.5,0.2,6.7,0.6L96.7,47l2.3,0.4L97.8,47c5.2,1,10,2.9,14.3,5.7
		c1.4,1.5,2.6,3.2,3.7,5c1.1,2,1.6,5.2,3.2,6.7c1.3,1.2,1.9,1.2,2.2,0.7c0.5-1.1-0.9-3.8-1-5c0.2,0,0.3,0,0.5,0
		c1.1,1.2,2,2.6,2.9,3.9c-0.2,0.7-1.3,2.7-1.4,3.2c-0.2,1.4,0.5,3.4,0.5,4.9c0,1.1-0.1,2.3,0,3.4c0.1,1.2,0.2,2.1,0.6,3.2
		c0.6,1.7,0.7,3.6,1.3,5.3c1,2.6,2.5,5,5.1,3.2c0.1-0.3,0.2-0.6,0.3-0.9C129.7,106.5,114.4,123,94.8,125.1z M86.6,49.9
		c-0.2-0.4-0.2-0.7-0.1-1c0-0.1,0-0.1,0.1-0.1c0.2-0.4,0.7-0.5,1.4-0.2C87.8,48.6,86.8,50.3,86.6,49.9z M91.6,54.1
		c0.3,0.8,0.4,1.7-0.1,1.4c-1-0.6-1.7-1.4-2.6-2.3c-0.6-0.6-1.7-0.9-2.5-1.2c0.8-0.9,3.9,0,4.6,0.8C91.2,52.9,91.4,53.5,91.6,54.1z
		 M100.5,51.4c0.2,0.1-1,4.4-2.3,4.4c-1.2-0.1-2.6-2.5-3.1-3.4c-0.6-0.9-1.6-1.4-2.6-1.9c-1.1-0.5-3.1-0.3-2.2-1.6
		c0.1-0.2,0.3-0.4,0.5-0.7c1-1,3.5-0.8,4.7-0.5C97.6,48.2,98.8,50.4,100.5,51.4z"/>
</g>
</svg>
