<svg xmlns="http://www.w3.org/2000/svg" viewBox="0 0 48 48"><path fill="#fff" d="M48 24c0-1.8-1-3.4-2.4-4.3 1-1.4 1.3-3.2.6-4.9-.7-1.6-2.2-2.8-3.9-3 .4-1.7 0-3.5-1.3-4.8-1.2-1.2-3.1-1.7-4.8-1.3-.2-1.7-1.4-3.2-3-3.9-1.6-.7-3.5-.4-4.9.6C27.4 1 25.8 0 24 0c-1.8 0-3.4 1-4.3 2.4-1.4-1-3.3-1.3-4.9-.6-1.7.7-2.8 2.2-3 3.9-1.7-.4-3.5.1-4.8 1.3-1.3 1.3-1.7 3.1-1.3 4.8-1.7.2-3.2 1.4-3.9 3-.7 1.7-.4 3.5.6 4.9C1 20.6 0 22.2 0 24s1 3.4 2.4 4.3c-1 1.4-1.3 3.2-.6 4.9.7 1.6 2.2 2.8 3.9 3-.4 1.7 0 3.5 1.3 4.8 1.2 1.2 3.1 1.7 4.8 1.3.2 1.7 1.4 3.2 3 3.9 1.6.7 3.5.4 4.9-.6.9 1.4 2.5 2.4 4.3 2.4 1.8 0 3.4-1 4.3-2.4 1.4 1 3.3 1.3 4.9.6 1.7-.7 2.8-2.2 3-3.9 1.7.4 3.5-.1 4.8-1.3 1.3-1.3 1.7-3.1 1.3-4.8 1.7-.2 3.2-1.4 3.9-3 .7-1.7.4-3.5-.6-4.9C47 27.4 48 25.8 48 24zm-14.3 8.3c.4.4.4 1 0 1.4-.2.2-.4.3-.7.3s-.5-.1-.7-.3L24 25.4l-8.3 8.3c-.2.2-.4.3-.7.3s-.5-.1-.7-.3c-.4-.4-.4-1 0-1.4l8.3-8.3-8.3-8.3c-.4-.4-.4-1 0-1.4.4-.4 1-.4 1.4 0l8.3 8.3 8.3-8.3c.4-.4 1-.4 1.4 0 .4.4.4 1 0 1.4L25.4 24l8.3 8.3z"/></svg>