<?xml version="1.0" standalone="no"?>
<!DOCTYPE svg PUBLIC "-//W3C//DTD SVG 20010904//EN"
 "http://www.w3.org/TR/2001/REC-SVG-20010904/DTD/svg10.dtd">
<svg version="1.0" xmlns="http://www.w3.org/2000/svg"
 width="700.000000pt" height="700.000000pt" viewBox="0 0 700.000000 700.000000"
 preserveAspectRatio="xMidYMid meet">
<metadata>
Created by potrace 1.11, written by Peter Selinger 2001-2013
</metadata>
<g transform="translate(0.000000,700.000000) scale(0.100000,-0.100000)"
fill="#000000" stroke="none">
<path d="M0 5965 l0 -1035 230 0 230 0 0 -1430 0 -1430 -230 0 -230 0 0 -1035
0 -1035 1475 0 1475 0 0 1035 0 1035 -230 0 -230 0 0 568 0 567 43 -65 c23
-36 481 -757 1017 -1603 l975 -1537 1237 0 1238 0 0 1035 0 1035 -230 0 -230
0 0 1430 0 1430 230 0 230 0 0 1035 0 1035 -1475 0 -1475 0 0 -1035 0 -1035
230 0 230 0 0 -567 c0 -312 -4 -563 -8 -557 -5 5 -463 726 -1018 1602 l-1009
1592 -1237 0 -1238 0 0 -1035z m3500 -752 c591 -933 1083 -1706 1092 -1717 16
-20 17 20 18 752 l0 772 -235 0 -235 0 2 943 3 942 1383 3 1382 2 0 -945 0
-945 -230 0 -230 0 0 -1520 0 -1520 230 0 230 0 0 -945 0 -945 -1167 0 -1168
1 -1075 1696 c-591 933 -1083 1706 -1092 1717 -16 20 -17 -20 -18 -751 l0
-773 235 0 235 0 -2 -942 -3 -943 -1382 -3 -1383 -2 0 945 0 945 230 0 230 0
0 1520 0 1520 -230 0 -230 0 0 945 0 945 1168 0 1167 -1 1075 -1696z"/>
<path d="M230 5965 l0 -805 230 0 230 0 0 -1660 0 -1660 -230 0 -230 0 0 -805
0 -805 1245 0 1245 0 0 805 0 805 -230 0 -230 0 1 1078 c0 983 1 1075 16 1054
8 -12 546 -858 1193 -1880 l1178 -1857 1061 -3 1061 -2 0 805 0 805 -230 0
-230 0 0 1660 0 1660 230 0 230 0 0 805 0 805 -1245 0 -1245 0 0 -805 0 -805
230 0 230 0 -1 -1077 c0 -1017 -1 -1077 -17 -1054 -9 14 -546 860 -1194 1880
l-1176 1856 -1061 3 -1061 2 0 -805z"/>
</g>
</svg>
