<svg version="1.1" id="Layer_1" xmlns="http://www.w3.org/2000/svg" xmlns:xlink="http://www.w3.org/1999/xlink" x="0" y="0" viewBox="0 0 6000 6000" style="enable-background:new 0 0 6000 6000" xml:space="preserve"><style>.st2,.st3,.st4,.st5,.st6,.st7,.st8{fill:none;stroke:#333;stroke-width:32;stroke-linecap:round;stroke-linejoin:round;stroke-miterlimit:10}.st3,.st4,.st5,.st6,.st7,.st8{stroke:#333}.st4,.st5,.st6,.st7,.st8{stroke-width:35.145}.st5,.st6,.st7,.st8{stroke:#333}.st6,.st7,.st8{stroke:#333;stroke-width:29.0322}.st7,.st8{stroke-width:32.098}.st8{stroke-width:32.5476}</style><defs><path id="SVGID_1_" d="M0 0h6000v6000H0z"/></defs><clipPath id="SVGID_00000046319860059415957280000010047246091854206354_"><use xlink:href="#SVGID_1_" style="overflow:visible"/></clipPath><path style="clip-path:url(#SVGID_00000046319860059415957280000010047246091854206354_);fill:none;stroke:#333;stroke-width:32;stroke-linecap:round;stroke-linejoin:round;stroke-miterlimit:10" d="m973.9 2598-344.5 181.2 65.8-383.7-278.8-271.7 385.2-56 172.3-349.1 172.3 349.1 385.2 56-278.7 271.7 65.8 383.7z"/><g style="clip-path:url(#SVGID_00000046319860059415957280000010047246091854206354_)"><path class="st2" d="M5588.5 1057.1c-49.4 287-299.5 505.4-600.6 505.4-336.6 0-609.4-272.8-609.4-609.4 0-336.5 272.8-609.4 609.4-609.4 208.2 0 392 104.4 502 263.8"/><path class="st2" d="m5135.9 361.9-249 140.8 48.6 86.1-106 178.8-264.9 79.5 106 344.4 291.4 106V1430M5438.3 542.7l-105.4 118.9"/><path class="st2" d="m4973 973.3-140.7-62.9-106.2 61.1 241.7 156 240.7-94.9-102 264.9 120.5-62.6 146.8-268.2 183.1-80.7c16.5-7.3 29.4-20.9 35.9-37.7 6.5-16.9 6-35.7-1.4-52.1-14.9-33.1-53.2-48.5-86.9-35.1L4973 973.3z"/><path class="st2" d="m5309.5 839-215.6-135.1-107.8 55.7 195.8 130.3"/></g><g style="clip-path:url(#SVGID_00000046319860059415957280000010047246091854206354_)"><path class="st3" d="M679.4 4293.7h149.5c41.3 0 74.8-33.5 74.8-74.8v-174.4l-99.7-99.7v-448.5c0-82.6-67-149.5-149.5-149.5H6.6c-82.5 0-149.5 66.9-149.5 149.5v448.5l-99.7 99.7v174.4c0 41.2 33.5 74.8 74.8 74.8h149.5"/><path class="st3" d="M803.9 4493H-143C6.6 4343.5 6.6 4144.1 6.6 4144.1h647.9c-.1 0-.1 224.3 149.4 348.9z"/><circle class="st3" cx="330.5" cy="3620.9" r="149.5"/><circle class="st3" cx="19" cy="3784.4" r="12.5"/><path class="st3" d="M554.8 3448h149.5v98.1H554.8zM255.7 3489v-142.2M405.3 3491v-144.2M255.7 3944.8v-193.1M405.3 3944.8v-189M-142.9 3944.8h946.8M-242.6 4044.5H903.6M-167.9 4144.1h996.8M-68.2 4393.3h797.4"/></g><g style="clip-path:url(#SVGID_00000046319860059415957280000010047246091854206354_)"><path class="st3" d="m2348.7 5862.2-364.4 682.5c-12.9 24.3-8.5 54.2 10.9 73.6 19.5 19.5 49.4 24 73.7 11l684.6-365.1"/><path class="st3" d="M2789.9 6245.7c-53.7 53.7-191.6 2.9-308.1-113.5-116.4-116.5-167.2-254.3-113.5-308.2 53.7-53.7 191.6-2.8 308.1 113.5 116.4 116.6 167.2 254.5 113.5 308.2zM2861.3 6011.1c107.5-107.4 281.7-107.4 389.1 0M2601.8 5751.7c107.5-107.4 107.5-281.7 0-389.1M2951.6 5791.1l194.5-64.8M2821.9 5661.4l64.8-194.6M2832 5810.8c-10.8 10.9-28.4 10.9-39.2 0-10.8-10.8-10.8-28.4 0-39.3 10.8-10.8 28.4-10.8 39.2 0 10.9 10.9 10.9 28.4 0 39.3zM2419.9 5648.5c-10.8 10.9-28.4 10.9-39.2 0-10.8-10.8-10.8-28.3 0-39.2 10.8-10.8 28.4-10.8 39.2 0 10.8 10.9 10.8 28.4 0 39.2zM3072.8 5580.3c-10.8 10.8-28.4 10.8-39.2 0-10.8-10.9-10.8-28.4 0-39.2 10.8-10.8 28.4-10.8 39.2 0 10.8 10.8 10.8 28.4 0 39.2zM3036 6135c-10.8 10.8-28.4 10.8-39.2 0-10.8-10.8-10.8-28.4 0-39.2 10.8-10.8 28.4-10.8 39.2 0 10.9 10.8 10.9 28.4 0 39.2z"/></g><g style="clip-path:url(#SVGID_00000046319860059415957280000010047246091854206354_)"><path class="st3" d="M327.9 6214.7H-210l-44.8-717.2h627.6zM-299.6 5318.2h717.2v179.3h-717.2zM372.8 5318.2h-627.6l44.8-134.5h537.9zM-243.6 5676.8h605.2M-226.8 5945.8h572.5M-53.1 5811.3H171"/></g><g style="clip-path:url(#SVGID_00000046319860059415957280000010047246091854206354_)"><path class="st2" d="m1590.6 1586.8 39.3-510.5c6.7-100.5 90.2-178.7 191-178.7s184.3 78.1 191 178.7l39.3 510.5M1633.2 1102.2h375.3M1616.2 1306.9h409.3M1600.2 1511.6h441.3M1744.1 1784.5V913.6M1897.6 1741.9V913.6M1897.6 2074.4h-76.8c-84.4 0-189.4-59-233.3-131.1L1309.2 1486l-76.8-76.8 205.7 41.1c27.6 5.5 64.5 28.1 81.8 50.2l352.1 445.9 25.6 128z"/><path class="st2" d="m1795.3 1844.2 332.6-332.6 76.8-153.5 17.4 192c4.5 49.2-12.3 124.2-37.4 166.8l-171.4 291.4c-21.4 36.4-73.5 66.1-115.7 66.1"/></g><g style="clip-path:url(#SVGID_00000046319860059415957280000010047246091854206354_)"><circle class="st3" cx="3871.8" cy="5906.3" r="283.5"/><circle class="st3" cx="4934.8" cy="5906.3" r="283.5"/><path class="st3" d="m4332.5 5906.4 402.7-541.8-544.5 187.4-318.9 354.3h460.7l-230.4-566.9M4934.8 5906.3l-248-673.2 141.7-35.4M4013.6 5339.4h212.6"/></g><g style="clip-path:url(#SVGID_00000046319860059415957280000010047246091854206354_)"><path class="st2" d="M416.8 4673.6v112.1M416.8 4926.1v112.1M599.7 4856.4H487.5M347.2 4856.4H235"/></g><g style="clip-path:url(#SVGID_00000046319860059415957280000010047246091854206354_)"><path class="st2" d="M904.8 2881.6v112.1M904.8 3134.1v112.1M1087.7 3064.4H975.5M835.2 3064.4H723"/></g><g style="clip-path:url(#SVGID_00000046319860059415957280000010047246091854206354_)"><path class="st2" d="M5567.8 3190.6v112.1M5567.8 3443.1v112.1M5750.7 3373.4h-112.2M5498.2 3373.4H5386"/></g><g style="clip-path:url(#SVGID_00000046319860059415957280000010047246091854206354_)"><path class="st2" d="M1539.8 431.6v112.1M1539.8 684.1v112.1M1722.7 614.4h-112.2M1470.2 614.4H1358"/></g><g style="clip-path:url(#SVGID_00000046319860059415957280000010047246091854206354_)"><path class="st2" d="M3993.8 319.6v112.1M3993.8 572.1v112.1M4176.7 502.4h-112.2M3924.2 502.4H3812"/></g><path style="clip-path:url(#SVGID_00000046319860059415957280000010047246091854206354_);fill:none;stroke:#333;stroke-width:32;stroke-linecap:round;stroke-linejoin:round;stroke-miterlimit:10" d="m755.8 5894.2 142.7 48.2-142.7 48.2-48.2 142.7-48.2-142.7-142.6-48.2 142.6-48.2 48.2-142.6zM1945.8 3532.2l142.7 48.2-142.7 48.2-48.2 142.7-48.2-142.7-142.6-48.2 142.6-48.2 48.2-142.6zM3834.8 2511.2l142.7 48.2-142.7 48.2-48.2 142.7-48.2-142.7-142.6-48.2 142.6-48.2 48.2-142.6zM5375.8 5418.2l142.7 48.2-142.7 48.2-48.2 142.7-48.2-142.7-142.6-48.2 142.6-48.2 48.2-142.6zM2350.8 767.2l142.7 48.2-142.7 48.2-48.2 142.7-48.2-142.7-142.6-48.2 142.6-48.2 48.2-142.6z"/><g style="clip-path:url(#SVGID_00000046319860059415957280000010047246091854206354_)"><path class="st3" d="M4685.3 4895.8c-52.4 0-95-42.5-95-95 0-52.4 42.5-95 95-95"/><path class="st3" d="M4875.2 5038.2h-95c-52.4 0-95-42.5-95-95v-284.9c0-52.4 42.5-95 95-95h95v474.9zM5587.4 4895.8c52.4 0 95-42.5 95-95 0-52.4-42.5-95-95-95"/><path class="st3" d="M5397.5 5038.2h95c52.4 0 95-42.5 95-95v-284.9c0-52.4-42.5-95-95-95h-95v474.9z"/><path class="st3" d="M4804 4563.4c0-183.6 148.8-332.4 332.4-332.4 183.5 0 332.4 148.8 332.4 332.4"/></g><g style="clip-path:url(#SVGID_00000046319860059415957280000010047246091854206354_)"><path class="st3" d="M-602.9 3031.3h-120.4c-33.3 0-60.2-26.9-60.2-60.2v-270.9c0-49.9 40.4-90.3 90.3-90.3h90.3v421.4zM179.7 3031.3h120.4c33.3 0 60.2-26.9 60.2-60.2v-270.9c0-49.9-40.4-90.3-90.3-90.3h-90.3v421.4zM59.3 3031.3h-541.8v-331.1c0-49.9 40.4-90.3 90.3-90.3H-31c49.8 0 90.3 40.4 90.3 90.3v331.1z"/><path class="st3" d="M179.7 2248.7v782.6h-782.6v-782.6M-362.1 2248.7h301"/><path class="st3" d="M-482.5 2068.1h120.4v301h-120.4zM-61.1 2068.1H59.3v301H-61.1zM-482.5 2790.5H59.3M-783.5 2790.5h180.6M179.7 2790.5h180.6"/><path class="st3" d="M-482.5 2248.7h-120.4c-33.2 0-60.2-27-60.2-60.2v-361.2c0-99.8 80.9-180.6 180.6-180.6H59.3c99.8 0 180.6 80.8 180.6 180.6v361.2c0 33.2-26.9 60.2-60.2 60.2H59.3"/></g><g style="clip-path:url(#SVGID_00000046319860059415957280000010047246091854206354_)"><path class="st3" d="M1663.8 5897.3c53.9-168.7 91.1-350.5-27.2-504.6-46.5-60.5-115.1-104.3-189.4-121.3-79.1-18.1-139.2 2.3-210.3 34.1M1009.7 5246.9c-15.7-86.1-12.5-129.6 51.3-190.5 7.2-6.9 65.3 73 69.1 83.9 11.4 32.7 5.2 72.4 5.2 106.6"/><path class="st3" d="M1304 5264.6c-14.1-83.3-27.6-162.7-18-248.2 7.2-64.2 27.7-128.2 68-178.6 110.3-137.9 365-137.9 505.2-47.6 141.9 91.3 192 268.5 191.1 428.7.1-16.2-41.7-55.2-52.3-68.1-50.8-61.4-112.7-153.5-201.1-156.2-78.2-2.3-91.1 62.6-76.1 129 22.5 99.5 108.6 158.2 183.9 217.5 95.7 75.3 145.8 159.8 156.8 283.7 11.7 131.2 2.6 276.4-107.1 364.5-86.5 69.5-203.6 88.1-310.8 98.5h-557.5c-7 0 0-30.3.8-34.3 11.2-60.1 68.3-61.4 118.8-60.9-27.1-48.1-46-88.8-45.5-145.5.4-50.9 7.2-106 27.2-153.1"/><path class="st3" d="M1291.8 5694H960.2c-25.3 0-45.8-20.5-45.8-45.8 0-25.3 20.5-45.8 45.8-45.8h131.9c.5 0-7.1-43.2-8.8-46.7-11.4-23.1-53.2-52.3-79.8-54.3-7.9-.6-15.1 4-22 7.9-42.6 24.3-95.4 27.1-142.6 14-47.2-13.2-89.3-41.2-125.1-74.7 15.2 14.3 54.5-99.6 56.9-107.3 14-45.8 38-88.3 72.9-121.9 41.5-39.9 94.7-54.1 148.7-68M1136.9 5166.8c100 49 85.2 121.5 100 208.6"/><path class="st3" d="M1289.9 6087.9c0-2.4.4-4.9.5-7.3 1.4-51.3 38.4-69.2 73.4-73 20.8-2.3 41.9-2.1 65.3-2.1 0 0-43.8-20.1-43.9-20.2-64.6-29.7-112.3-96.7-115.1-166.2-1.3-32.5 5.1-64.8 12.5-96.6 20.6-88.6 96.7-92.7 174.8-92.7"/></g><g style="clip-path:url(#SVGID_00000046319860059415957280000010047246091854206354_)"><path class="st3" d="M-194.1 446.7H905.6v902.5h-1101c.1-169.2 1.3-902.5 1.3-902.5zM-75.3 446.7V1347"/><path class="st3" d="M141 1194.5V633.1l205.5 561.4V633.1M477.4 633.9v450.8c0 60.6 49.2 109.8 109.8 109.8h0c60.6 0 109.8-49.2 109.8-109.8V633.9M-134.8 589.1v61.5M-134.8 1145.2v61.5M905.6 1179.2h344.7L1013.8 728l236.5-451.2H697.1v149.1M905.6 446.7 697.1 276.8"/></g><g style="clip-path:url(#SVGID_00000046319860059415957280000010047246091854206354_)"><path class="st3" d="M6670.4 4293.7h149.5c41.3 0 74.8-33.5 74.8-74.8v-174.4l-99.7-99.7v-448.5c0-82.6-67-149.5-149.5-149.5h-647.9c-82.5 0-149.5 66.9-149.5 149.5v448.5l-99.7 99.7v174.4c0 41.2 33.5 74.8 74.8 74.8h149.5"/><path class="st3" d="M6794.9 4493H5848c149.5-149.5 149.5-348.9 149.5-348.9h647.9s0 224.3 149.5 348.9z"/><circle class="st3" cx="6321.5" cy="3620.9" r="149.5"/><circle class="st3" cx="6010" cy="3784.4" r="12.5"/><path class="st3" d="M6545.8 3448h149.5v98.1h-149.5zM6246.7 3489v-142.2M6396.3 3491v-144.2M6246.7 3944.8v-193.1M6396.3 3944.8v-189M5848.1 3944.8h946.8M5748.4 4044.5h1146.2M5823.1 4144.1h996.8M5922.8 4393.3h797.4"/></g><g style="clip-path:url(#SVGID_00000046319860059415957280000010047246091854206354_)"><path class="st3" d="M6318.9 6214.7H5781l-44.8-717.2h627.6zM5691.4 5318.2h717.2v179.3h-717.2zM6363.8 5318.2h-627.6l44.8-134.5h537.9zM5747.4 5676.8h605.2M5764.2 5945.8h572.5M5937.9 5811.3H6162"/></g><g style="clip-path:url(#SVGID_00000046319860059415957280000010047246091854206354_)"><path class="st3" d="M5388.1 3031.3h-120.4c-33.3 0-60.2-26.9-60.2-60.2v-270.9c0-49.9 40.4-90.3 90.3-90.3h90.3v421.4zM6170.7 3031.3h120.4c33.3 0 60.2-26.9 60.2-60.2v-270.9c0-49.9-40.4-90.3-90.3-90.3h-90.3v421.4zM6050.3 3031.3h-541.8v-331.1c0-49.9 40.4-90.3 90.3-90.3H5960c49.8 0 90.3 40.4 90.3 90.3v331.1z"/><path class="st3" d="M6170.7 2248.7v782.6h-782.6v-782.6M5628.9 2248.7h301"/><path class="st3" d="M5508.5 2068.1h120.4v301h-120.4zM5929.9 2068.1h120.4v301h-120.4zM5508.5 2790.5h541.8M5207.5 2790.5h180.6M6170.7 2790.5h180.6"/><path class="st3" d="M5508.5 2248.7h-120.4c-33.2 0-60.2-27-60.2-60.2v-361.2c0-99.8 80.9-180.6 180.6-180.6h541.8c99.8 0 180.6 80.8 180.6 180.6v361.2c0 33.2-26.9 60.2-60.2 60.2h-120.4"/></g><g style="clip-path:url(#SVGID_00000046319860059415957280000010047246091854206354_)"><path class="st3" d="M5796.9 446.7h1099.8v902.5h-1101c0-169.2 1.2-902.5 1.2-902.5zM5915.7 446.7V1347"/><path class="st3" d="M6132 1194.5V633.1l205.5 561.4V633.1M6468.4 633.9v450.8c0 60.6 49.2 109.8 109.8 109.8h0c60.6 0 109.8-49.2 109.8-109.8V633.9M5856.2 589.1v61.5M5856.2 1145.2v61.5M6896.6 1179.2h344.7L7004.8 728l236.5-451.2h-553.2v149.1M6896.6 446.7l-208.5-169.9"/></g><g style="clip-path:url(#SVGID_00000046319860059415957280000010047246091854206354_)"><path class="st3" d="m2348.7-137.8-364.4 682.5c-12.9 24.3-8.5 54.2 10.9 73.6 19.5 19.5 49.4 24 73.7 11l684.6-365.1"/><path class="st3" d="M2789.9 245.7c-53.7 53.7-191.6 2.9-308.1-113.5-116.4-116.5-167.2-254.3-113.5-308.2 53.7-53.7 191.6-2.8 308.1 113.5 116.4 116.6 167.2 254.5 113.5 308.2zM2861.3 11.1c107.5-107.4 281.7-107.4 389.1 0M2601.8-248.3c107.5-107.4 107.5-281.7 0-389.1M2951.6-208.9l194.5-64.8M2821.9-338.6l64.8-194.6M2832-189.2c-10.8 10.9-28.4 10.9-39.2 0-10.8-10.8-10.8-28.4 0-39.3 10.8-10.8 28.4-10.8 39.2 0 10.9 10.9 10.9 28.4 0 39.3zM2419.9-351.5c-10.8 10.9-28.4 10.9-39.2 0-10.8-10.8-10.8-28.3 0-39.2 10.8-10.8 28.4-10.8 39.2 0 10.8 10.9 10.8 28.4 0 39.2zM3072.8-419.7c-10.8 10.8-28.4 10.8-39.2 0-10.8-10.9-10.8-28.4 0-39.2 10.8-10.8 28.4-10.8 39.2 0 10.8 10.8 10.8 28.4 0 39.2zM3036 135c-10.8 10.8-28.4 10.8-39.2 0-10.8-10.8-10.8-28.4 0-39.2 10.8-10.8 28.4-10.8 39.2 0 10.9 10.8 10.9 28.4 0 39.2z"/></g><g style="clip-path:url(#SVGID_00000046319860059415957280000010047246091854206354_)"><path class="st3" d="M327.9 214.7H-210l-44.8-717.2h627.6z"/><path class="st3" d="M-299.6-681.8h717.2v179.3h-717.2zM372.8-681.8h-627.6l44.8-134.5h537.9zM-243.6-323.2h605.2M-226.8-54.2h572.5M-53.1-188.7H171"/></g><g style="clip-path:url(#SVGID_00000046319860059415957280000010047246091854206354_)"><circle class="st3" cx="3871.8" cy="-93.7" r="283.5"/><circle class="st3" cx="4934.8" cy="-93.7" r="283.5"/><path class="st3" d="m4332.5-93.6 402.7-541.8L4190.7-448 3871.8-93.7h460.7l-230.4-566.9M4934.8-93.7l-248-673.2 141.7-35.4M4013.6-660.6h212.6"/></g><path style="clip-path:url(#SVGID_00000046319860059415957280000010047246091854206354_);fill:none;stroke:#333;stroke-width:32;stroke-linecap:round;stroke-linejoin:round;stroke-miterlimit:10" d="m755.8-105.8 142.7 48.2L755.8-9.4l-48.2 142.7L659.4-9.4 516.8-57.6l142.6-48.2 48.2-142.6zM635.8 1693.2l142.7 48.2-142.7 48.2-48.2 142.7-48.2-142.7-142.6-48.2 142.6-48.2 48.2-142.6zM5375.8-581.8l142.7 48.2-142.7 48.2-48.2 142.7-48.2-142.7-142.6-48.2 142.6-48.2 48.2-142.6z"/><g style="clip-path:url(#SVGID_00000046319860059415957280000010047246091854206354_)"><path class="st3" d="M1663.8-102.7c53.9-168.7 91.1-350.5-27.2-504.6-46.5-60.5-115.1-104.3-189.4-121.3-79.1-18.1-139.2 2.3-210.3 34.1M1009.7-753.1c-15.7-86.1-12.5-129.6 51.3-190.6 7.2-6.9 65.3 73 69.1 83.9 11.4 32.7 5.2 72.4 5.2 106.6"/><path class="st3" d="M1304-735.4c-14.1-83.3-27.6-162.7-18-248.2 7.2-64.2 27.7-128.2 68-178.6 110.3-137.9 365-137.9 505.2-47.6 141.9 91.3 192 268.5 191.1 428.7.1-16.2-41.7-55.2-52.3-68.1-50.8-61.4-112.7-153.5-201.1-156.2-78.2-2.3-91.1 62.6-76.1 129 22.5 99.5 108.6 158.2 183.9 217.5 95.7 75.3 145.8 159.8 156.8 283.7 11.7 131.2 2.6 276.4-107.1 364.5-86.5 69.5-203.6 88.1-310.8 98.5h-557.5c-7 0 0-30.3.8-34.3 11.2-60.1 68.3-61.4 118.8-60.9-27.1-48.1-46-88.8-45.5-145.5.4-50.9 7.2-106 27.2-153.1"/><path class="st3" d="M1291.8-306H960.2c-25.3 0-45.8-20.5-45.8-45.8 0-25.3 20.5-45.8 45.8-45.8h131.9c.5 0-7.1-43.2-8.8-46.7-11.4-23.1-53.2-52.3-79.8-54.3-7.9-.6-15.1 4-22 7.9-42.6 24.3-95.4 27.1-142.6 14-47.2-13.2-89.3-41.2-125.1-74.7 15.2 14.3 54.5-99.6 56.9-107.3 14-45.8 38-88.3 72.9-121.9 41.5-39.9 94.7-54.1 148.7-68M1136.9-833.2c100 49 85.2 121.5 100 208.6"/><path class="st3" d="M1289.9 87.9c0-2.4.4-4.9.5-7.3 1.4-51.3 38.4-69.2 73.4-73 20.8-2.3 41.9-2.1 65.3-2.1 0 0-43.8-20.1-43.9-20.2-64.6-29.7-112.3-96.7-115.1-166.2-1.3-32.5 5.1-64.8 12.5-96.6 20.6-88.6 96.7-92.7 174.8-92.7"/></g><g style="clip-path:url(#SVGID_00000046319860059415957280000010047246091854206354_)"><path class="st3" d="M6318.9 214.7H5781l-44.8-717.2h627.6z"/><path class="st3" d="M5691.4-681.8h717.2v179.3h-717.2zM6363.8-681.8h-627.6l44.8-134.5h537.9zM5747.4-323.2h605.2M5764.2-54.2h572.5M5937.9-188.7H6162"/></g><g style="clip-path:url(#SVGID_00000046319860059415957280000010047246091854206354_)"><path class="st4" d="m2573.8 999.7-36.9 36.9c-101.8 101.8-101.8 266.9 0 368.8 101.8 101.9 266.9 101.9 368.8 0l36.9-36.9M3016.4 557.2l-295 295M3532.7 778.5l36.8-37c101.8-101.8 101.8-266.9 0-368.8-101.8-101.8-266.9-101.8-368.8 0l-36.9 36.9M3090.1 1220.9 3385 925.8"/><path class="st4" d="m3422 962.8-110.6-110.6 147.5-147.5 110.6 110.6zM3090.1 630.9l-110.6-110.6L3127 372.8l110.6 110.6zM3163.9 557.2 3385 778.5M2979.5 1405.3l-110.7-110.6 147.6-147.5 110.6 110.6zM2647.6 1073.5 2537 962.8l147.5-147.5 110.6 110.6zM2721.4 999.7l221.2 221.2"/><path class="st3" d="m2573.8 999.7-36.9 36.9c-101.8 101.8-101.8 266.9 0 368.8 101.8 101.9 266.9 101.9 368.8 0l36.9-36.9M3016.4 557.2l-295 295M3532.7 778.5l36.8-37c101.8-101.8 101.8-266.9 0-368.8-101.8-101.8-266.9-101.8-368.8 0l-36.9 36.9M3090.1 1220.9 3385 925.8"/><path class="st3" d="m3422 962.8-110.6-110.6 147.5-147.5 110.6 110.6zM3090.1 630.9l-110.6-110.6L3127 372.8l110.6 110.6zM3163.9 557.2 3385 778.5M2979.5 1405.3l-110.7-110.6 147.6-147.5 110.6 110.6zM2647.6 1073.5 2537 962.8l147.5-147.5 110.6 110.6zM2721.4 999.7l221.2 221.2"/></g><g style="clip-path:url(#SVGID_00000046319860059415957280000010047246091854206354_)"><path class="st3" d="M1060.3 4476.1h97V4767h-97z"/><circle class="st3" cx="1302.7" cy="4500.4" r="145.5"/><path class="st3" d="M2025 4432c-10.4 24.7-36.5 30.7-61.2 20.4-24.7-10.4-33.9-44.4-23.5-69.1 200.8-315.2-2-413.4-128.5-222.3-193.9 292.9-458.8 178.6-247.5-214.1 257.6-478.8-473.9-415.7-455.5 522.2"/><circle class="st3" cx="1302.7" cy="4500.4" r="48.5"/></g><g style="clip-path:url(#SVGID_00000046319860059415957280000010047246091854206354_)"><path class="st5" d="m3733.7 5484.5-306.6 94.4 94.4-306.6 565.8-565.8 212.2 212.2z"/><path class="st5" d="m4087.3 4706.5 145.5-145.5c36.7-36.7 96.7-36.7 133.4 0l78.8 78.8c36.7 36.7 36.7 96.7 0 133.4l-145.5 145.5M4193.4 4812.6l-506.9 506.9M3521.5 5272.3l47.1 47.2h117.9v117.9l47.2 47.1M3474.3 5437.4l94.3 94.3M4158.1 4635.7l212.2 212.2"/><path class="st3" d="m3733.7 5484.5-306.6 94.4 94.4-306.6 565.8-565.8 212.2 212.2z"/><path class="st3" d="m4087.3 4706.5 145.5-145.5c36.7-36.7 96.7-36.7 133.4 0l78.8 78.8c36.7 36.7 36.7 96.7 0 133.4l-145.5 145.5M4193.4 4812.6l-506.9 506.9M3521.5 5272.3l47.1 47.2h117.9v117.9l47.2 47.1M3474.3 5437.4l94.3 94.3M4158.1 4635.7l212.2 212.2"/></g><g style="clip-path:url(#SVGID_00000046319860059415957280000010047246091854206354_)"><path class="st6" d="M4955.8 3181c289.3 169 483 438.2 570.6 723.5l.1.1L4344 4228.4 4955.8 3181z"/><path class="st6" d="M4871.5 3324.2c224.9 131.4 410.8 397.2 472.2 630.7M5082.2 4015.7l-15-45.3c-18.9-72-102.6-120.9-174.6-102-71.9 18.8-120.9 102.5-102 174.6l13.5 45.8M4567.4 3846l40 23.3c43.8 25.6 58.6 81.8 33 125.6v0c-25.6 43.8-81.8 58.6-125.6 33l-40-23.3"/><circle class="st6" cx="4920.4" cy="3627.4" r="125.8"/><path class="st3" d="M4955.8 3181c289.3 169 483 438.2 570.6 723.5l.1.1L4344 4228.4 4955.8 3181z"/><path class="st3" d="M4871.5 3324.2c224.9 131.4 410.8 397.2 472.2 630.7M5082.2 4015.7l-15-45.3c-18.9-72-102.6-120.9-174.6-102-71.9 18.8-120.9 102.5-102 174.6l13.5 45.8M4567.4 3846l40 23.3c43.8 25.6 58.6 81.8 33 125.6v0c-25.6 43.8-81.8 58.6-125.6 33l-40-23.3"/><circle class="st3" cx="4920.4" cy="3627.4" r="125.8"/></g><g style="clip-path:url(#SVGID_00000046319860059415957280000010047246091854206354_)"><path class="st7" d="M2561.8 1677.9h314.1V2882h-314.1zM2875.9 2096.7H3190V2882h-314.1zM2980.6 2777.3h104.7M2718.9 1782.6v680.6"/><path class="st7" d="M2666.5 2567.9h104.7v209.4h-104.7zM3033 2201.4v471.2M2457.1 1992v732.9M2352.4 1834.9h209.4V2882h-209.4zM3551.5 2842.7l-152 39.3-261.9-1013.8 152.1-39.3z"/><path class="st3" d="M2561.8 1677.9h314.1V2882h-314.1zM2875.9 2096.7H3190V2882h-314.1zM2980.6 2777.3h104.7M2718.9 1782.6v680.6"/><path class="st3" d="M2666.5 2567.9h104.7v209.4h-104.7zM3033 2201.4v471.2M2457.1 1992v732.9M2352.4 1834.9h209.4V2882h-209.4zM3551.5 2842.7l-152 39.3-261.9-1013.8 152.1-39.3z"/></g><g style="clip-path:url(#SVGID_00000046319860059415957280000010047246091854206354_)"><path class="st2" d="M4973.7 2332.5c0-204-165.4-369.4-369.4-369.4h0c-204 0-369.4 165.4-369.4 369.4h0c0 204 165.4 369.4 369.4 369.4h0c204 0 369.4-165.3 369.4-369.4h0zM4604.3 2807.5V2913M4947.3 2675.5l79.2 79.2M5079.2 2332.5h105.6M4947.3 1989.5l79.2-79.1M4604.3 1857.6v-105.5M4261.3 1989.5l-79.1-79.1M4129.4 2332.5h-105.5M4261.3 2675.5l-79.1 79.2"/></g><g style="clip-path:url(#SVGID_00000046319860059415957280000010047246091854206354_)"><path class="st8" d="M3753.7 1334.4c0-31.6-26.3-57.3-58.7-57.3-32.4 0-58.7 25.7-58.7 57.3 0 47.5-39.4 85.9-88 85.9s-88-38.4-88-85.9v-114.6c0-205.6 170.7-372.3 381.3-372.3 210.6 0 381.3 166.7 381.3 372.3v114.6c0 47.5-39.4 85.9-88 85.9s-88-38.4-88-85.9c0-31.6-26.3-57.3-58.7-57.3-32.4 0-58.7 25.7-58.7 57.3v57.3c0 47.5-39.4 85.9-88 85.9s-88-38.4-88-85.9v-57.3z"/><path class="st8" d="M4107.5 1415.9 3841.7 2165l-265.9-750"/><path class="st3" d="M3753.7 1334.4c0-31.6-26.3-57.3-58.7-57.3-32.4 0-58.7 25.7-58.7 57.3 0 47.5-39.4 85.9-88 85.9s-88-38.4-88-85.9v-114.6c0-205.6 170.7-372.3 381.3-372.3 210.6 0 381.3 166.7 381.3 372.3v114.6c0 47.5-39.4 85.9-88 85.9s-88-38.4-88-85.9c0-31.6-26.3-57.3-58.7-57.3-32.4 0-58.7 25.7-58.7 57.3v57.3c0 47.5-39.4 85.9-88 85.9s-88-38.4-88-85.9v-57.3z"/><path class="st3" d="M4107.5 1415.9 3841.7 2165l-265.9-750"/></g><g style="clip-path:url(#SVGID_00000046319860059415957280000010047246091854206354_)"><path class="st3" d="M1542.1 3256.1c0 74.8-67 149.7-149.7 149.7-82.6 0-149.7-67-149.7-149.7 0-82.6 67-149.7 149.7-149.7h149.7v149.7zM2090.9 3056.5c0 74.8-67 149.7-149.7 149.7-82.6 0-149.7-67-149.7-149.7 0-82.6 67-149.7 149.7-149.7h149.7v149.7z"/><path class="st3" d="M1542.1 3156.3v-648.5l548.8-224.5v723.3M1542.1 2682.4l548.8-224.5"/></g><g style="clip-path:url(#SVGID_00000046319860059415957280000010047246091854206354_)"><circle class="st3" cx="4035.4" cy="3399.5" r="138.6"/><path class="st3" d="M4468.6 3258.8c-30.5-93.6-131-144.8-224.6-114.4-12.1 4-23.7 9.2-34.4 15.4 2.6-12.1 4-24.6 4-37.5 0-98.4-79.8-178.2-178.2-178.2-98.4 0-178.2 79.8-178.2 178.2 0 12.9 1.4 25.4 4 37.5-10.7-6.2-22.1-11.4-34.4-15.4-93.6-30.4-194.1 20.8-224.5 114.4-30.4 93.6 20.8 194.1 114.4 224.5 12.2 4 24.6 6.5 36.9 7.8-9.2 8.3-17.7 17.5-25.3 27.9-57.9 79.6-40.2 191.1 39.4 248.9 79.6 57.9 191.1 40.2 248.9-39.4 7.5-10.4 13.7-21.3 18.8-32.6 5 11.3 11.2 22.2 18.8 32.6 57.9 79.6 169.3 97.3 248.9 39.4 79.7-57.8 97.3-169.3 39.4-248.9-7.5-10.4-16-19.6-25.3-27.9 12.3-1.3 24.6-3.8 36.9-7.8 93.6-30.4 144.8-130.9 114.5-224.5z"/></g><g style="clip-path:url(#SVGID_00000046319860059415957280000010047246091854206354_)"><path class="st3" d="M3341.5 3616.2c0 57.4-46.6 103.9-103.9 103.9h-381.1L2648.6 3928v-207.9h-242.5c-57.4 0-103.9-46.6-103.9-103.9v-415.8c0-57.4 46.6-103.9 103.9-103.9h831.5c57.4 0 103.9 46.6 103.9 103.9v415.8z"/><path class="st3" d="M2821.5 3374c-19.2 0-34.6 15.6-34.6 34.6 0 19.2 15.5 34.6 34.6 34.6s34.6-15.5 34.6-34.6c0-19-15.5-34.6-34.6-34.6h0z"/><path class="st3" d="M2821.5 3375c18.6 0 33.6 15.1 33.6 33.6s-15.1 33.6-33.6 33.6-33.6-15.1-33.6-33.6 15-33.6 33.6-33.6m0-1c-19.2 0-34.6 15.6-34.6 34.6 0 19.2 15.5 34.6 34.6 34.6s34.6-15.5 34.6-34.6c0-19-15.5-34.6-34.6-34.6h0zM3029.4 3374c-19.2 0-34.6 15.6-34.6 34.6 0 19.2 15.5 34.6 34.6 34.6s34.6-15.5 34.6-34.6c0-19-15.5-34.6-34.6-34.6h0z"/><path class="st3" d="M3029.4 3375c18.6 0 33.6 15.1 33.6 33.6s-15.1 33.6-33.6 33.6c-18.6 0-33.6-15.1-33.6-33.6s15-33.6 33.6-33.6m0-1c-19.2 0-34.6 15.6-34.6 34.6 0 19.2 15.5 34.6 34.6 34.6s34.6-15.5 34.6-34.6c0-19-15.5-34.6-34.6-34.6h0zM2615.8 3374c-19.1 0-34.6 15.6-34.6 34.6 0 19.2 15.5 34.6 34.6 34.6 19.2 0 34.6-15.5 34.6-34.6 0-19-15.5-34.6-34.6-34.6h0z"/><path class="st3" d="M2615.8 3375c18.6 0 33.6 15.1 33.6 33.6s-15.1 33.6-33.6 33.6-33.6-15.1-33.6-33.6 15-33.6 33.6-33.6m0-1c-19.1 0-34.6 15.6-34.6 34.6 0 19.2 15.5 34.6 34.6 34.6 19.2 0 34.6-15.5 34.6-34.6 0-19-15.5-34.6-34.6-34.6h0z"/></g><g style="clip-path:url(#SVGID_00000046319860059415957280000010047246091854206354_)"><path class="st3" d="M2528.3 5221h-176c-297.9-303.2-132.5-578.8-29.2-760.9 13.5-23.8 11.6-50.9 11.6-71.3 0-10.9-6-37.6-12.2-70.9-19.4-105.1-47.6-337.1 117.7-337.1 165.4 0 137.1 231.9 117.7 336.8-6.2 33.3-12.1 59.4-12.1 70.3 0 20.4-1.9 48.5 11.6 72.3 103.4 182 268.8 457.6-29.1 760.8zM2316.9 4283.9h246.8M2328.2 4449.3h224.3"/><path class="st3" d="M2714.5 4500.7c73.3-66.3 170.5-106.6 277.1-106.6 228.3 0 413.4 185.1 413.4 413.4 0 228.3-185.1 413.4-413.4 413.4-93.1 0-178.9-30.7-248.1-82.6"/><circle class="st3" cx="2936.5" cy="4587.1" r="55.1"/><circle class="st3" cx="3156.9" cy="4642.2" r="55.1"/><circle class="st3" cx="2991.6" cy="4807.6" r="55.1"/></g><g style="clip-path:url(#SVGID_00000046319860059415957280000010047246091854206354_)"><path class="st2" d="M4003.5 4566.6c68.2-64.2 71.4-171.6 7.2-239.7L3574.6 3864c-64.2-68.2-171.6-71.4-239.7-7.2l-308.6 290.7c-34.1 32.1-35.7 85.8-3.6 119.9 43.2 45.9 27.5 23.8 361.4-49.2l261.6 277.8c-91.3 323.8-115.5 310.2-70.7 357.8 32.1 34.1 85.7 35.7 119.9 3.6l308.6-290.8z"/><circle class="st2" cx="3889" cy="4383.2" r="21.2"/><circle class="st2" cx="3885.4" cy="4503.1" r="21.2"/><path class="st2" d="M3768.5 4400.8c-11.7-.3-20.9-10.1-20.6-21.8.3-11.7 10.1-20.9 21.8-20.6 11.7.3 20.9 10.1 20.6 21.8-.3 11.8-10.1 21-21.8 20.6z"/><circle class="st2" cx="3765.6" cy="4499.5" r="21.2"/><path class="st2" d="m3511.1 3982-123.5 116.3M3507.5 4101.9l-116.3-123.4M3518.5 4237.2l29 30.9M3605.7 4329.8l29 30.9"/><path transform="rotate(-43.289 3808.91 4050.813)" class="st2" d="M3766.6 3966.1h84.8v169.6h-84.8z"/></g></svg>
