<svg version="1.1" id="Layer_1" xmlns="http://www.w3.org/2000/svg" xmlns:xlink="http://www.w3.org/1999/xlink" x="0" y="0" viewBox="0 0 6000 6000" style="enable-background:new 0 0 6000 6000" xml:space="preserve"><style>.st1,.st2,.st3,.st39{fill:none;stroke:#333;stroke-width:18;stroke-linecap:round;stroke-linejoin:round;stroke-miterlimit:10;}.st2,.st3,.st39{stroke-width:18.0004;stroke-miterlimit:10.0002}.st3,.st39{stroke-width:18.0006;stroke-miterlimit:10.0003}.st39{stroke-width:17.5;stroke-miterlimit:10}</style><defs><path id="SVGID_1_" d="M0 0h6000v6000H0z"/></defs><clipPath id="SVGID_00000168076271128118174920000011273237529691639681_"><use xlink:href="#SVGID_1_" style="overflow:visible"/></clipPath><g style="clip-path:url(#SVGID_00000168076271128118174920000011273237529691639681_)"><path class="st1" d="m670 294.4-5.7-4c-17.6-13.7-31.5-31.6-40.3-52-23.8-55.1-43.6-110.5-53-170.8-.8-5-1.6-10.3-4.5-14.4-2.9-4-8.4-6.9-13.3-4.3-2.6 1.4-4.2 4.1-5.6 6.7-15.2 27.4-27.2 57.1-30.1 88.2-2.9 31.2 3.9 64 23.2 88.6 17.1 21.8 42.4 35.7 68.6 44.8 30.5 10.7 62.8 17.5 94.1 25.4 41 10.3 85 15.6 125.1 28.3 10.3 3.3 20 9 25.1 18.9 6 11.7-.6 21.6-9.9 28.7-10.4 8-25.6 10.7-38.4 11-16.2.4-32.2-2.9-48.1-5.8-93.9-17.3-201.4-23.7-286.3 27.9-14.5 8.8-27.8 19.3-40.5 30.5-75.9 66.7-124.3 153.5-153.6 249.2-11.1 43-32.7 93.1-30.2 137.7.1 1.9.3 4 1.3 5.6.8 1.3 2 2.3 3.2 3.2 22.5 17.9 45 35.9 67.4 53.9 1.3 1 3.1.4 3.6-1.1 3.4-10.8 23-38.8 26.1-43.1 12.7-17.7 29.1-32.9 47.1-45 57.6-38.9 137.7-37.3 204.6-37.8 23-.1 45.9-4.6 67.9-11.2 48.4-14.7 95.8 1.2 143.5 13.2l43.3-397"/><path class="st1" d="M515.7 143.9c-22.6-19.4-50.4-39.2-81.4-41.2-2-.1-3.5 1.9-2.6 3.8 3.1 6.7 7.7 19.9 8.6 22 18.9 43.1 9.6 88.3 7.6 133.7-1.2 26.7 5.9 45.1 29.8 58.3 22.5 12.4 48.7 16.9 74.1 17.8 31.8 1.1 63.5-3 95.3-2.2 27.4.6 54.7 4.9 81 12.7 25.2 7.4 54.4 27.1 77.4 39.8M455.5 298.2l52.7 90.3"/><path class="st1" d="M858.1 298.2h0c19.8 0 39.4-4.5 57.2-13.1l2.8-1.4c3.8-1.4 4.3-6.8.6-8.7-4.9-2.5-20.7-4-26.2-4.7-21.9-2.9-48.1 2.9-68.9 9.3-17.8 5.5-34.8 13.5-50.5 23.7-15.8 10.3-33.8 21.2-37.5 41.2-3.4 18.6 3.2 39.2 17.8 51.5 15.6 13.2 36.8 16 56.5 17.3 28.4 2 57-1.3 84.5-8.6 11.4-3 30.6-6.1 39.8-13.7 7.4-6.1 4.7-18.5-5-20.3-2.4-.4-4.8-.7-7.3-.6-7.9.2-16.1 1.9-23.9 2.8-14.1 1.6-28.2 3.3-42.4 4.9M760.3 441.2c2.5 12.7 4.5 20.1 13.8 29.6 49.1 49.9 133.6 39.6 196.9 41.9-9.4-.3-21.7 3.7-31.4 5.4-11.4 1.9-22.7 4-33.9 6.9-21.9 5.7-42.9 15.3-60.4 29.9-19.4 16.2-38.4 41.2-39.8 67.4-.6 10.6 2.5 30.6 10.1 38.6 33.9 35.7 98.6 34.6 141.9 19.5 9.3-3.2 18.5-7.6 25.7-14.3 4.6-4.2 8.3-9.4 10.9-15 6.7-14.5 4.9-27.6-1.4-42-8.9-20.4-33-27.7-53.3-30.3-26.2-3.3-54.3 2.8-76 18.2-14.9 10.5-24.7 26.3-35.6 40.6"/><path class="st1" d="M823.2 656.2c20.3-16.6 40-30.7 67.6-29.4 20.6.9 40 7.7 56.9 19.6 18.4 13 36.8 31.9 39.8 55.2 3.1 24.2-11.8 45.4-35.6 50.7-32.5 7.2-80.1-4.8-102.1-30.7-9.8-11.6-21-26.8-29.2-39.5"/><path class="st1" d="M822 666.7c20.3-2.9 38.3-3.4 56.6 7.4 28.3 16.7 39.5 47.7 34.2 79.3-2.2 13.3-11.1 23.5-24.3 27.3-8.2 2.4-17.1.7-25.2-1.3-10-2.4-21.3-6.6-28.5-14.3-6.5-6.9-10.2-16-13.3-24.8-1.9-5.5-3.7-11-5.8-16.4"/><path class="st1" d="M756.5 708.4c-8.7 10.5-18.3 18.2-19.4 32.7-1 13.9 2.9 24.2 10.9 35.8 7.9 11.4 18.5 21 30.8 27.6 13.7 7.3 29 11.2 44.2 14 18.3 3.4 35.8 5.3 54.3 2.7 3.5-.5 7-1.5 9.6-3.8 6.6-5.9 1-18.3-4.6-22.9-7-5.8-17.3-6.9-26-6-16.5 1.8-32.7 5.7-48.5 10.6-13.8 4.3-32.3 8.3-43.5 17.7-17.8 15.1-23.3 43.7-9.8 63.4 26 37.9 85.1 48.8 123.5 24.3 12.1-7.7.8-17.6-8.7-20.5-8-2.4-16.5-2-24.8-1.3-27.4 2.4-54.9 8.2-80.6 18.4-13 5.2-26.2 14.8-28.8 29.7-1.6 8.8 2.4 18.3 7.2 25.5 9 13.7 20.8 21.2 35.7 27.4 18.1 7.6 36.8 13.8 56.5 14.9 6.5.3 13.1.1 19.4-1.3 8.2-1.8 9.2-13.3 1.3-16.3-5.9-2.3-12.7-3.4-19-4-22.2-2.2-44.8-2.2-66.8 1.5-16.1 2.7-36.7 7.1-43 23.5-2.6 6.8 2.2 18.1 4.2 24.6 3.7 11.7 14.8 22.1 22.1 31.8 7.4 9.9 22.3 19.6 32.9 26.2 12.6 7.9 28.1 14 43 15.6 6.9.8 31.3-.1 28.3-11.5-3.5-13.5-21-19.6-32.9-23.8-17-6-35.4-8-53.3-6.5-16.5 1.5-36.5 5.2-49.7 16-9.6 7.9-10.7 16.9-12.3 28.4-2.5 17.4 9 30.1 19.6 42.1 12.9 14.5 26.5 28.5 43.3 38.6 1.5.9 3.1 1.7 4.8 2.3 7.7 2.9 18.3 5 26.4 3.4 13.3-2.6 14.5-16.5 11.3-27.2-5.2-17.6-16.7-33.2-31.9-43.4-16.6-11.2-36.7-15.7-56.4-17.7-10.9-1.1-22.2-.1-31.7 5.9-20.5 12.9-23.8 42.2-18.8 63.9 2.2 9.8 7 18.6 12.8 26.7 5.3 7.5 11.7 14.7 19.1 20.2 8.7 6.4 20.6 6.8 28.8-1.1 3.3-3.2 5-7.8 5.2-12.4.9-18.7-10.6-28.4-22.6-40.4l-18.8-15.1"/><path class="st1" d="M757.8 754.3c-11.9 2.9-23.6 6.7-35.7 8.9-11.6 2.1-23.2.1-34.7 2.1-15.8 2.7-28 14.4-41.3 22.3-15.5 9.1-33.6 10-51.1 13.5-38.1 7.7-75.8 17.3-112.9 28.9-38.8 12.1-75.1 32.5-105.2 60-32.7 29.9-54 68.7-78.5 105-25.1 37-50.4 74.1-70.4 114.1-19.1 38.2-36.9 76.9-56.5 114.8-1.4 2.6 1.5 5.4 4.1 3.9 9.8-5.8 23.8-12.8 28.7-15.8 19.5-11.9 37.6-26.2 57.6-37.1 21.9-11.9 46.2-19.5 71-22s49.8-.2 74.6 3c48.5 6.1 96.6 15 143.9 27.3 23.9 6.2 47.6 13.2 70.9 21.1 10.4 3.5 20.6 7.4 30.9 11.3 6.3 2.5 16.3 6.5 20-1.9.1-.3.3-.7.4-1L749 979.3l26.1-81.2c5.2-16.1 9.8-32.4 13.7-48.8l20.4-84.5M760.3 311.8l22.6-85.1s7.3 47.5 7.5 48.9c2.2 14.2 13.1 23.8 22.5 33.6 11 11.4 23 21.7 34.5 32.5M782.9 226.7c7-11.6 11.6-20.2 24-26.9 18.3-9.8 39.6-11.2 59.8-14.7 22.9-3.9 45.8-7.9 68.8-11.8 10.5-1.8 20.6-9.7 26.2-18.6 9.6-15.1 1.2-32.9-1.9-48.5l-30.1 64M854.4 369.7l109.1-214.5"/><ellipse transform="rotate(-85.399 760.288 548.42) scale(1.00002)" class="st2" cx="760.3" cy="548.4" rx="5.6" ry="11.3"/><ellipse transform="rotate(-85.399 756.575 635.01) scale(1.00002)" class="st2" cx="756.6" cy="635" rx="5.6" ry="11.3"/><ellipse transform="rotate(-85.399 760.276 435.53) scale(1.00002)" class="st2" cx="760.3" cy="435.5" rx="5.6" ry="11.3"/><ellipse transform="rotate(-85.399 756.58 706.507) scale(1.00002)" class="st2" cx="756.6" cy="706.5" rx="5.6" ry="11.3"/><ellipse transform="rotate(-67.469 718.972 902.168)" class="st3" cx="719" cy="902.2" rx="5.6" ry="11.3"/><ellipse transform="rotate(-67.469 688.86 992.472)" class="st3" cx="688.9" cy="992.5" rx="5.6" ry="11.3"/><ellipse transform="rotate(-67.469 662.492 1078.964)" class="st3" cx="662.5" cy="1079" rx="5.6" ry="11.3"/><ellipse transform="rotate(-67.469 639.955 1165.553)" class="st3" cx="640" cy="1165.6" rx="5.6" ry="11.3"/><path class="st1" d="M677.5 1227.7h0c-19.4-14.5-32.5-35.8-36.8-59.6l-.8-4.4"/></g><defs><path id="SVGID_00000078020374685450048840000007039433994882859445_" d="M0 0h6000v6000H0z"/></defs><clipPath id="SVGID_00000068663470615340626520000018383493765853376657_"><use xlink:href="#SVGID_00000078020374685450048840000007039433994882859445_" style="overflow:visible"/></clipPath><g style="clip-path:url(#SVGID_00000068663470615340626520000018383493765853376657_)"><path class="st1" d="m4524.9 1559.9-5.7-4c-17.6-13.7-31.5-31.6-40.3-52-23.8-55.1-43.6-110.5-53-170.8-.8-5-1.6-10.3-4.5-14.4-2.9-4-8.4-6.9-13.3-4.3-2.6 1.4-4.2 4.1-5.6 6.7-15.2 27.4-27.2 57.1-30.1 88.2-2.9 31.2 3.9 64 23.2 88.6 17.1 21.8 42.4 35.7 68.6 44.8 30.5 10.7 62.8 17.5 94.1 25.4 41 10.3 85 15.6 125.1 28.3 10.3 3.3 20 9 25.1 18.9 6 11.7-.6 21.6-9.9 28.7-10.4 8-25.6 10.7-38.4 11-16.2.4-32.2-2.9-48.1-5.8-93.9-17.3-201.4-23.7-286.3 27.9-14.5 8.8-27.8 19.3-40.5 30.5-75.9 66.7-124.3 153.5-153.6 249.2-11.1 43-32.7 93.1-30.2 137.7.1 1.9.3 4 1.3 5.6.8 1.3 2 2.3 3.2 3.2 22.5 17.9 45 35.9 67.4 53.9 1.3 1 3.1.4 3.6-1.1 3.4-10.8 23-38.8 26.1-43.1 12.7-17.7 29.1-32.9 47.1-45 57.6-38.9 137.7-37.3 204.6-37.8 23-.1 45.9-4.6 67.9-11.2 48.4-14.7 95.8 1.2 143.5 13.2l43.3-397"/><path class="st1" d="M4370.7 1409.4c-22.6-19.4-50.4-39.2-81.4-41.2-2-.1-3.5 1.9-2.6 3.8 3.1 6.7 7.7 19.9 8.6 22 18.9 43.1 9.6 88.3 7.6 133.7-1.2 26.7 5.9 45.1 29.8 58.3 22.5 12.4 48.7 16.9 74.1 17.8 31.8 1.1 63.5-3 95.3-2.2 27.4.6 54.7 4.9 81 12.7 25.2 7.4 54.4 27.1 77.4 39.8M4310.5 1563.7l52.6 90.3"/><path class="st1" d="M4713.1 1563.7h0c19.8 0 39.4-4.5 57.2-13.1l2.8-1.4c3.8-1.4 4.3-6.8.6-8.7-4.9-2.5-20.7-4-26.2-4.7-21.9-2.9-48.1 2.9-68.9 9.3-17.8 5.5-34.8 13.5-50.5 23.7-15.8 10.3-33.8 21.2-37.5 41.2-3.4 18.6 3.2 39.2 17.8 51.5 15.6 13.2 36.8 16 56.5 17.3 28.4 2 57-1.3 84.5-8.6 11.4-3 30.6-6.1 39.8-13.7 7.4-6.1 4.7-18.5-5-20.3-2.4-.4-4.8-.7-7.3-.6-7.9.2-16.1 1.9-23.9 2.8-14.1 1.6-28.2 3.3-42.4 4.9M4615.3 1706.7c2.5 12.7 4.5 20.1 13.8 29.6 49.1 49.9 133.6 39.6 196.9 41.9-9.4-.3-21.7 3.7-31.4 5.4-11.4 1.9-22.7 4-33.9 6.9-21.9 5.7-42.9 15.3-60.4 29.9-19.4 16.2-38.4 41.2-39.8 67.4-.6 10.6 2.5 30.6 10.1 38.6 33.9 35.7 98.6 34.6 141.9 19.5 9.3-3.2 18.5-7.6 25.7-14.3 4.6-4.2 8.3-9.4 10.9-15 6.7-14.5 4.9-27.6-1.4-42-8.9-20.4-33-27.7-53.3-30.3-26.2-3.3-54.3 2.8-76 18.2-14.9 10.5-24.7 26.3-35.6 40.6"/><path class="st1" d="M4678.1 1921.7c20.3-16.6 40-30.7 67.6-29.4 20.6.9 40 7.7 56.9 19.6 18.4 13 36.8 31.9 39.8 55.2 3.1 24.2-11.8 45.4-35.6 50.7-32.5 7.2-80.1-4.8-102.1-30.7-9.8-11.6-21-26.8-29.2-39.5"/><path class="st1" d="M4677 1932.2c20.3-2.9 38.3-3.4 56.6 7.4 28.3 16.7 39.5 47.7 34.2 79.3-2.2 13.3-11.1 23.5-24.3 27.3-8.2 2.4-17.1.7-25.2-1.3-10-2.4-21.3-6.6-28.5-14.3-6.5-6.9-10.2-16-13.3-24.8-1.9-5.5-3.6-11-5.8-16.4"/><path class="st1" d="M4611.5 1973.8c-8.7 10.5-18.3 18.2-19.4 32.7-1 13.9 2.9 24.2 10.9 35.8 7.9 11.4 18.5 21 30.8 27.6 13.7 7.3 29 11.2 44.2 14 18.3 3.4 35.8 5.3 54.3 2.7 3.5-.5 7-1.5 9.6-3.8 6.6-5.9 1-18.3-4.6-22.9-7-5.8-17.3-6.9-26-6-16.5 1.8-32.7 5.7-48.5 10.6-13.8 4.3-32.3 8.3-43.5 17.7-17.8 15.1-23.3 43.7-9.8 63.4 26 37.9 85.1 48.8 123.5 24.3 12.1-7.7.8-17.6-8.7-20.5-8-2.4-16.5-2-24.8-1.2-27.4 2.4-54.9 8.2-80.6 18.4-13 5.2-26.2 14.8-28.8 29.7-1.6 8.8 2.4 18.3 7.2 25.5 9 13.7 20.8 21.2 35.7 27.4 18.1 7.6 36.8 13.8 56.5 14.9 6.5.3 13.1.1 19.4-1.3 8.2-1.8 9.2-13.3 1.3-16.3-5.9-2.3-12.7-3.4-19-4-22.2-2.2-44.8-2.2-66.8 1.5-16.1 2.7-36.7 7.1-43 23.5-2.6 6.8 2.2 18.1 4.2 24.6 3.7 11.7 14.8 22.1 22.1 31.8 7.4 9.9 22.3 19.6 32.9 26.2 12.6 7.9 28.1 14 43 15.6 6.9.8 31.3-.1 28.3-11.5-3.5-13.5-21-19.6-32.9-23.8-17-6-35.4-8-53.3-6.5-16.5 1.5-36.5 5.2-49.7 16-9.6 7.9-10.7 16.9-12.3 28.4-2.5 17.4 9 30.1 19.6 42.1 12.9 14.5 26.5 28.5 43.3 38.6 1.5.9 3.1 1.7 4.8 2.3 7.7 2.9 18.3 5 26.4 3.4 13.3-2.6 14.5-16.5 11.3-27.2-5.2-17.6-16.7-33.2-31.9-43.4-16.6-11.2-36.7-15.7-56.4-17.7-10.9-1.1-22.2-.1-31.7 5.9-20.5 12.9-23.8 42.2-18.8 63.9 2.2 9.8 7 18.6 12.8 26.7 5.3 7.5 11.7 14.7 19.1 20.2 8.7 6.4 20.6 6.8 28.8-1.1 3.3-3.2 5-7.8 5.2-12.4.9-18.7-10.6-28.4-22.6-40.4l-18.8-15.1"/><path class="st1" d="M4612.7 2019.8c-11.9 2.9-23.6 6.7-35.7 8.9-11.6 2.1-23.2.1-34.7 2.1-15.8 2.7-28 14.4-41.3 22.3-15.5 9.1-33.6 10-51.1 13.5-38.1 7.7-75.8 17.3-112.9 28.9-38.8 12.1-75.1 32.5-105.2 60-32.7 29.9-54 68.7-78.5 105-25.1 37-50.4 74.1-70.4 114.1-19.1 38.2-36.9 76.9-56.5 114.8-1.4 2.6 1.5 5.4 4.1 3.9 9.8-5.8 23.8-12.8 28.7-15.8 19.5-11.9 37.6-26.2 57.6-37.1 21.9-11.9 46.2-19.5 71-22s49.8-.2 74.6 3c48.5 6.1 96.6 15 143.9 27.3 23.9 6.2 47.6 13.2 70.9 21.1 10.4 3.5 20.6 7.4 30.9 11.3 6.3 2.5 16.3 6.5 20-1.9.1-.3.3-.7.4-1l75.3-233.3 26.1-81.2c5.2-16.1 9.8-32.4 13.7-48.8l20.4-84.5M4615.3 1577.3l22.6-85.1s7.3 47.5 7.5 48.9c2.2 14.2 13.1 23.8 22.5 33.6 11 11.4 23 21.7 34.5 32.5M4637.8 1492.2c7-11.6 11.6-20.2 24-26.9 18.3-9.8 39.6-11.2 59.8-14.7 22.9-3.9 45.8-7.9 68.8-11.8 10.5-1.8 20.6-9.7 26.2-18.6 9.6-15.1 1.2-32.9-1.9-48.5l-30.1 64M4709.3 1635.2l109.2-214.5"/><ellipse transform="rotate(-85.399 4615.27 1813.77) scale(1.00002)" class="st2" cx="4615.3" cy="1813.8" rx="5.6" ry="11.3"/><ellipse transform="rotate(-85.399 4611.558 1900.36) scale(1.00002)" class="st2" cx="4611.6" cy="1900.4" rx="5.6" ry="11.3"/><ellipse transform="rotate(-85.399 4615.258 1700.88) scale(1.00002)" class="st2" cx="4615.3" cy="1700.9" rx="5.6" ry="11.3"/><ellipse transform="rotate(-85.399 4611.563 1971.856) scale(1.00002)" class="st2" cx="4611.6" cy="1971.9" rx="5.6" ry="11.3"/><ellipse transform="rotate(-67.469 4573.873 2167.483)" class="st3" cx="4574" cy="2167.6" rx="5.6" ry="11.3"/><ellipse transform="rotate(-67.469 4543.854 2257.826)" class="st3" cx="4544" cy="2257.9" rx="5.6" ry="11.3"/><ellipse transform="rotate(-67.469 4517.447 2344.41)" class="st3" cx="4517.6" cy="2344.5" rx="5.6" ry="11.3"/><ellipse transform="rotate(-67.469 4494.91 2431)" class="st3" cx="4495.1" cy="2431.1" rx="5.6" ry="11.3"/><path class="st1" d="M4532.5 2493.1h0c-19.4-14.5-32.5-35.8-36.8-59.6l-.8-4.4"/></g><defs><path id="SVGID_00000054262208242471538790000017384033547832042130_" d="M0 0h6000v6000H0z"/></defs><clipPath id="SVGID_00000123408895887503080990000008355075774013777052_"><use xlink:href="#SVGID_00000054262208242471538790000017384033547832042130_" style="overflow:visible"/></clipPath><g style="clip-path:url(#SVGID_00000123408895887503080990000008355075774013777052_)"><path class="st1" d="M1627.1 2661.1h-155.8c-28.5-132.7-258.9-236.2-538.8-236.2s-510.3 103.5-538.8 236.2H237.9v289h1389.2v-289z"/><path class="st1" d="M1499 2763.6h68.1v96.7H1499zM1387.9 2763.6h68.1v96.7h-68.1zM409.9 2763.6H478v96.7h-68.1zM298.7 2763.6h68.1v96.7h-68.1zM510.7 2576.9h843.6M521.3 2577.7h822.4v74.1H521.3zM589.8 2921.3h-47l2.3-242.5h42.4zM536.4 2651.8h58.7v26.9h-58.7zM536.4 2921.3h58.7v28.5h-58.7zM712 2921.3h-46.9l2.2-242.5h42.5zM658.7 2651.8h58.7v26.9h-58.7zM658.6 2921.3h58.7v28.5h-58.7zM834.3 2921.3h-47l2.3-242.5H832zM780.9 2651.8h58.7v26.9h-58.7zM780.9 2921.3h58.7v28.5h-58.7zM956.5 2921.3h-46.9l2.2-242.5h42.5zM903.2 2651.8h58.7v26.9h-58.7zM903.1 2921.3h58.7v28.5h-58.7zM1078.8 2921.3h-47l2.3-242.5h42.4zM1025.4 2651.8h58.7v26.9h-58.7zM1025.4 2921.3h58.7v28.5h-58.7zM1201 2921.3h-46.9l2.2-242.5h42.5zM1147.7 2651.8h58.7v26.9h-58.7zM1147.6 2921.3h58.7v28.5h-58.7zM1323.3 2921.3h-47l2.3-242.5h42.4zM1269.9 2651.8h58.7v26.9h-58.7zM1269.9 2921.3h58.7v28.5h-58.7z"/></g><defs><path id="SVGID_00000005229427139807059940000008683757734494055091_" d="M0 0h6000v6000H0z"/></defs><clipPath id="SVGID_00000018927557372997994100000012284906350637733028_"><use xlink:href="#SVGID_00000005229427139807059940000008683757734494055091_" style="overflow:visible"/></clipPath><g style="clip-path:url(#SVGID_00000018927557372997994100000012284906350637733028_)"><path class="st1" d="M5910.1 5353.1h-155.8c-28.5-132.7-258.9-236.2-538.8-236.2s-510.3 103.5-538.8 236.2h-155.8v289h1389.2v-289h0z"/><path class="st1" d="M5782 5455.6h68.1v96.7H5782zM5670.9 5455.6h68.1v96.7h-68.1zM4692.9 5455.6h68.1v96.7h-68.1zM4581.7 5455.6h68.1v96.7h-68.1zM4793.7 5268.9h843.6M4804.3 5269.7h822.4v74.1h-822.4zM4872.8 5613.3h-47l2.3-242.5h42.4zM4819.4 5343.8h58.7v26.9h-58.7zM4819.4 5613.3h58.7v28.5h-58.7zM4995 5613.3h-46.9l2.2-242.5h42.5zM4941.7 5343.8h58.7v26.9h-58.7zM4941.6 5613.3h58.7v28.5h-58.7zM5117.3 5613.3h-47l2.3-242.5h42.4zM5063.9 5343.8h58.7v26.9h-58.7zM5063.9 5613.3h58.7v28.5h-58.7zM5239.5 5613.3h-46.9l2.2-242.5h42.5zM5186.2 5343.8h58.7v26.9h-58.7zM5186.1 5613.3h58.7v28.5h-58.7zM5361.8 5613.3h-47l2.3-242.5h42.4zM5308.4 5343.8h58.7v26.9h-58.7zM5308.4 5613.3h58.7v28.5h-58.7zM5484 5613.3h-46.9l2.2-242.5h42.5zM5430.7 5343.8h58.7v26.9h-58.7zM5430.6 5613.3h58.7v28.5h-58.7zM5606.3 5613.3h-47l2.3-242.5h42.4zM5552.9 5343.8h58.7v26.9h-58.7zM5552.9 5613.3h58.7v28.5h-58.7z"/></g><defs><path id="SVGID_00000114765447081991225870000017450358191181810061_" d="M0 0h6000v6000H0z"/></defs><clipPath id="SVGID_00000145751837654717735410000004913875445292338862_"><use xlink:href="#SVGID_00000114765447081991225870000017450358191181810061_" style="overflow:visible"/></clipPath><g style="clip-path:url(#SVGID_00000145751837654717735410000004913875445292338862_)"><path class="st1" d="M1165.3 2168.7V1270l78.6-45h117.9M1361.8 1225l78.6 45v898.7M1243.9 1236.1v932.6M1361.8 1225v943.7"/><path class="st1" d="M1285.8 1337.1h34.8v253h-34.8zM1165.3 1328.3l77-43.1h119.5l77 40.7M1204.2 1351.8v255.7M1401.6 1351.8v255.7M1165.3 2168.5h272.3"/></g><defs><path id="SVGID_00000181080716840147876680000013087175805527715486_" d="M0 0h6000v6000H0z"/></defs><clipPath id="SVGID_00000067232804716680073380000007684281396041613242_"><use xlink:href="#SVGID_00000181080716840147876680000013087175805527715486_" style="overflow:visible"/></clipPath><g style="clip-path:url(#SVGID_00000067232804716680073380000007684281396041613242_)"><path class="st1" d="M4046.3 5410.7V4512l78.6-45h117.9M4242.8 4467l78.6 45v898.7M4124.9 4478.1v932.6M4242.8 4467v943.7"/><path class="st1" d="M4166.8 4579.1h34.8v253h-34.8zM4046.3 4570.3l77-43.1h119.5l77 40.7M4085.2 4593.8v255.7M4282.6 4593.8v255.7M4046.3 5410.5h272.3"/></g><defs><path id="SVGID_00000111182911009301971340000018002503940901668237_" d="M0 0h6000v6000H0z"/></defs><clipPath id="SVGID_00000181052679794599413050000002584972658712653970_"><use xlink:href="#SVGID_00000111182911009301971340000018002503940901668237_" style="overflow:visible"/></clipPath><g style="clip-path:url(#SVGID_00000181052679794599413050000002584972658712653970_)"><path class="st1" d="M1655.2 399h746.3v702.2h-746.3zM1165.4 685.7v415.5h489.8"/><path class="st1" d="M2897.3 685.7v415.5h-495.9M1143.1 440.3h36.4M1639.3 399.1h15.1M2394.1 399.1h24.3M1300.9 549.8h74.3v105.5h-74.3zM1440.4 549.8h74.3v105.5h-74.3zM1300.9 719.6h74.3v105.5h-74.3zM1440.4 719.6h74.3v105.5h-74.3zM1300.9 889.4h74.3v105.5h-74.3zM1440.4 889.4h74.3v105.5h-74.3zM2544 549.8h74.3v105.5H2544zM2683.4 549.8h74.3v105.5h-74.3zM2544 719.6h74.3v105.5H2544z"/><path class="st1" d="M2683.4 719.6h74.3v105.5h-74.3zM2544 889.4h74.3v105.5H2544zM2683.4 889.4h74.3v105.5h-74.3zM1165.4 682.8V440.3h487.2M2897.3 682.8V440.3h-490M2920.7 440.3h-36.4M1656 513.8h745.8M1805.5 861.6l1 209.9h-51.3l2.5-525.4h46.3l1.3 284.9M1748.2 513.7h64.1v29.4h-64.1z"/><path class="st1" d="M1748.2 1070.6h64.1v31.1h-64.1zM1969 914l1.2 157.5h-51.3l1.1-181.8M1920 852.1l1.4-306h46.3l1.3 268.8M1912 513.7h64.1v29.4H1912z"/><path class="st1" d="M1911.9 1070.6h64.1v31.1h-64.1zM2084 789.5l1.1-243.4h46.3l1.3 272M2075.7 513.7h64.1v29.4h-64.1zM2297.6 1071.5h-51.2l2.5-525.4h46.3zM2239.4 513.7h64.1v29.4h-64.1z"/><path class="st1" d="M2303.4 1101.6h-59.3l-6.5-31h65.8zM1792.7 845.8c-1.6-8 5.3-15.1 13.3-13.6 29.5 5.4 61.9 10.7 90.1 16.1 19.2 3.7 50.1 10.7 63.5-9.7 4.9-7.4 6.3-16.2 11.4-23.7 5.3-7.7 10.5-15.7 17.4-22 8.1-7.4 18.1-7.1 28.6-7.3 6.5-.1 10.9 2.1 15.3 6.9 3.6 4 8.9 12.8 15 12.5 5.8-.3 12-4.8 17.3-7 23.7-9.9 50.2-2.5 65.6 18.5 2.3 3.2 4.4 6.7 7.3 9.4 6.5 6.2 17.3 6.4 25.6 8.3 10.1 2.3 19.7 7.1 27.5 14 16.8 14.7 28 35 29 57.3 1 22-1.8 44.5-3 66.5-1 19-2 38.1-3 57.1v.2h-24.3v-72.8l-18.2-12.1c0 29-6.5 56.6-12.1 84.9h-27.8c7.3-21.8 10.2-43.9 13.1-66.7.2-1.3-11.6-9.2-12.9-9.8-7.7-3.9-18.8-2.3-27.3-2.3h-17.9c-2.1 0-5.6 39-5.5 43 .2 11.9 3.6 24.1 5.5 35.8h-24.3c-4-13-9.6-25.7-8.5-39.6.8-9.1 1.7-18.1 2.4-27.1l-5.9-14.8c-4.1-10.3-9.6-20-16.2-28.8h0c-5-6.7-13.4-9.9-21.6-8.2l-2.6.5c-9.3 1.9-18.9.6-27.4-3.7l-2.4-1.2c-13.9-6.9-28.6-12.1-43.7-15.5L1802.6 861c-4.3-1-7.7-4.4-8.6-8.8l-1.3-6.4z"/><path class="st1" d="M2035.4 920.6c-7.7 5.4-15.7 10.6-23.6 15.8-12.9 8.5-17.3 20-13.5 34.3 1.8 7 5.8 12.7 8.2 19.7 2.3 6.3 1.1 13.9 1.1 20.6l30.3-12.1c-5.1-12.7-12.5-25.7-12.2-39.5.1-6.5 17.3-13 22.7-16.1M2038 841.2c8.3-4.1 13.4-6 22.8-6.2 11.6-.3 14.9 6.6 13.4 17.5-.9 6.2-4.9 31.5-14 31.2-8-.2-15-2.6-22.1-6.1M1861.4 909.2c32.4 68 106.7 1.3 134.1-31.7M2244.1 1101.9h-266.8l18.2-72.7h230.4z"/></g><defs><path id="SVGID_00000029029030626840621260000005165012100857948552_" d="M0 0h6000v6000H0z"/></defs><clipPath id="SVGID_00000082354405143426909210000012399398275943854485_"><use xlink:href="#SVGID_00000029029030626840621260000005165012100857948552_" style="overflow:visible"/></clipPath><g style="clip-path:url(#SVGID_00000082354405143426909210000012399398275943854485_)"><path class="st1" d="M225.6 4156.6V3319L86.7 3131.8-49.4 3319v837.6z"/><path class="st1" d="M120.1 3176.3h105.6v144.5M52 3176.3H-49.5v144.5M-48 3437.5h272.2M-48 3676.4h272.2M-48 3915.4h272.2"/><circle transform="matrix(.00909 -1 1 .00909 -3230.564 3375.936)" class="st1" cx="88.1" cy="3318" r="52.8"/><path class="st1" d="M88.1 3265.2v-133.4M88.1 3370.8v66.7M-48 3915.4l272.2 238.9M-48 4154.3l272.2-238.9M-48 3676.4l272.2 239M-48 3915.4l272.2-239M-48 3437.5l272.2 238.9M-48 3676.4l272.2-238.9M90.9 3315.2H102M88.1 3315.2v-16.7"/></g><defs><path id="SVGID_00000058575224180108257160000011582742697451580588_" d="M0 0h6000v6000H0z"/></defs><clipPath id="SVGID_00000036938910016135147240000018313327124890761660_"><use xlink:href="#SVGID_00000058575224180108257160000011582742697451580588_" style="overflow:visible"/></clipPath><g style="clip-path:url(#SVGID_00000036938910016135147240000018313327124890761660_)"><path class="st1" d="M3503.3 939.8V102.2L3364.3-85l-136.1 187.2v837.6z"/><path class="st1" d="M3397.7-40.6h105.6v144.5M3329.6-40.6h-101.5v144.5M3229.6 220.6h272.3M3229.6 459.6h272.3M3229.6 698.5h272.3"/><circle class="st1" cx="3365.7" cy="101.1" r="52.8"/><path class="st1" d="M3365.7 48.4V-85M3365.7 153.9v66.7M3229.6 698.5l272.3 239M3229.6 937.5l272.3-239M3229.6 459.6l272.3 238.9M3229.6 698.5l272.3-238.9M3229.6 220.6l272.3 239M3229.6 459.6l272.3-239M3368.5 98.4h11.1M3365.7 98.4V81.7"/></g><defs><path id="SVGID_00000000224703505159291170000015911181532992903305_" d="M0 0h6000v6000H0z"/></defs><clipPath id="SVGID_00000127744219439246937070000017546078134533500810_"><use xlink:href="#SVGID_00000000224703505159291170000015911181532992903305_" style="overflow:visible"/></clipPath><g style="clip-path:url(#SVGID_00000127744219439246937070000017546078134533500810_)"><path class="st1" d="M-905.5 4802.6H-372v166.7h-533.5zM-374.9 4802.6h233.4v-377.9h-739v377.9"/><path class="st1" d="M-825 4477.5h316.7v105.6H-825zM-144.2 4424.7l158.3 202.9V4911M-141.5 4799.8l55.6 22.3v88.9H8.6M-80.3 4911l-50.1 55.6"/><path class="st1" d="M14.1 4911h361.2v-355.7H-35.9M-374.9 4969.2h244.5M-302.6 4805.4V4911M-302.6 4911l-66.7 55.6"/><path class="st1" d="M64.1 4616.5h61.1v77.8H64.1zM958.8 4299.7h61.1v77.8h-61.1zM958.8 4444.2h61.1v77.8h-61.1zM958.8 4588.7h61.1v77.8h-61.1zM958.8 4733.2h61.1v77.8h-61.1zM164.2 4616.5h61.1v77.8h-61.1zM264.2 4616.5h61.1v77.8h-61.1zM64.1 4744.3h61.1v77.8H64.1zM164.2 4744.3h61.1v77.8h-61.1zM264.2 4744.3h61.1v77.8h-61.1zM525.4 4616.5h61.1v77.8h-61.1zM525.4 4744.3h61.1v77.8h-61.1zM-102.6 4477.5h600.2M375.3 4555.3l88.9-22.2 227.9-305.6"/><path class="st1" d="m692.1 4227.5 389-105.6v816.9h-389v-711.3M375.3 4911l88.9 13.4v-391.3l175.1-2.8v394.6H464.2M636.5 4922.1l55.6 16.7"/></g><defs><path id="SVGID_00000166637758401571851560000007325351409710661006_" d="M0 0h6000v6000H0z"/></defs><clipPath id="SVGID_00000047780801892868409190000007766194219280645033_"><use xlink:href="#SVGID_00000166637758401571851560000007325351409710661006_" style="overflow:visible"/></clipPath><g style="clip-path:url(#SVGID_00000047780801892868409190000007766194219280645033_)"><path class="st1" d="M496.2 5807.6H140.9v-677.5h490.8v95.2"/><path class="st1" d="M1452 5283.9v-51.2H488.9v574.9H1452"/><path class="st1" d="M814.8 5666.6v141H591.4v-516.3l172.1-58.6v124.9l153.8-40.7 326 3.7 106.2 36.6v-124.5M917.3 5316.9v336.9M1243.3 5320.6v340.5M814.8 5661.1h531M1349.5 5232.7l150.1 76.9v109.8l51.3 18.3v106.2l43.9 11v252.7H1452M1345.8 5661.1v146.5"/><path class="st1" d="M839 5335.5v-50.9h40v39.9M937.9 5313.6v-29h40v32.6M1040.4 5313.6v-29h40.1v32.6M1139.3 5313.6v-29h40v32.6M1238.2 5313.6v-29h40v43.6M1019.9 5661.1h128.2v146.5h-128.2zM672 5441.4l-40.3 11v-47.6l40.3-11zM672 5518.3l-40.3 11v-47.6l40.3-11zM672 5595.2l-40.3 11v-47.6l40.3-11zM1316.5 5441.4l40.3 11v-47.6l-40.3-11zM1316.5 5518.3l40.3 11v-47.6l-40.3-11zM1316.5 5595.2l40.3 11v-47.6l-40.3-11z"/></g><defs><path id="SVGID_00000000190309342120055260000003631377464313932734_" d="M0 0h6000v6000H0z"/></defs><clipPath id="SVGID_00000057830427283899918140000001773540380015424150_"><use xlink:href="#SVGID_00000000190309342120055260000003631377464313932734_" style="overflow:visible"/></clipPath><g style="clip-path:url(#SVGID_00000057830427283899918140000001773540380015424150_)"><path class="st1" d="M158.8 1566.5h750.5v655.6H-910v-655.6h755.3M-29.5 1443.5h58.2v82.7h-58.2z"/><path class="st1" d="M205.7 1666.8h58.2v82.7h-58.2zM300.7 1666.8h58.2v82.7h-58.2zM205.7 1861.6h58.2v82.7h-58.2zM300.7 1861.6h58.2v82.7h-58.2zM205.7 2056.3h58.2v82.7h-58.2zM300.7 2056.3h58.2v82.7h-58.2zM-359.6 1666.8h58.2v82.7h-58.2zM-264.6 1666.8h58.2v82.7h-58.2zM-359.6 1861.6h58.2v82.7h-58.2zM-264.6 1861.6h58.2v82.7h-58.2zM-359.6 2056.3h58.2v82.7h-58.2zM-264.6 2056.3h58.2v82.7h-58.2zM-856 1666.8h58.2v82.7H-856zM-761 1666.8h58.2v82.7H-761zM-666 1666.8h58.2v82.7H-666zM-571 1666.8h58.2v82.7H-571zM-856 1861.6h58.2v82.7H-856zM-761 1861.6h58.2v82.7H-761zM-666 1861.6h58.2v82.7H-666zM-571 1861.6h58.2v82.7H-571zM-856 2056.3h58.2v82.7H-856zM-761 2056.3h58.2v82.7H-761zM-666 2056.3h58.2v82.7H-666zM-571 2056.3h58.2v82.7H-571zM512.1 1666.8h58.2v82.7h-58.2zM607.1 1666.8h58.2v82.7h-58.2zM702.1 1666.8h58.2v82.7h-58.2zM797.1 1666.8h58.2v82.7h-58.2zM512.1 1861.6h58.2v82.7h-58.2zM607.1 1861.6h58.2v82.7h-58.2zM702.1 1861.6h58.2v82.7h-58.2zM797.1 1861.6h58.2v82.7h-58.2zM512.1 2056.3h58.2v82.7h-58.2zM607.1 2056.3h58.2v82.7h-58.2zM702.1 2056.3h58.2v82.7h-58.2zM797.1 2056.3h58.2v82.7h-58.2zM-97.6 1638.3H97v180H-97.6z"/><path class="st1" d="M154 1880.1V1424h-49.9L-.4 1357.5-108 1424h-46.7v456.1M-154.7 1956.1v266H154v-266M-112 1818.3h223.3M-112 1918.1h223.3M-112 1585.6h223.3"/><path class="st1" d="M-169 1880.1h337.3v76H-169zM-154.7 2122.3h71.3v99.8h-71.3zM82.8 2122.3h71.3v99.8H82.8zM-97.7 2122.3v-166.2M-126.2 2122.3v-166.2M125.5 2122.3v-166.2M97 2122.3v-166.2M-.4 1994.1h0c-30.2 0-54.6 24.5-54.6 54.6v106.9H54.3v-106.9c0-30.2-24.5-54.6-54.7-54.6zM-83.5 2155.6H82.8M-83.5 2188.8H82.8M-910 1566.5l494-128.2h261.3M909.3 1566.5l-494-128.2H154M-910 1566.5h-19M928.3 1566.5h-19M-456.4 1568.9v650.8M-406.5 1571.3v650.8M412.9 1568.9v650.8M462.8 1571.3v650.8"/></g><defs><path id="SVGID_00000183959780684894436220000000084994263248596924_" d="M0 0h6000v6000H0z"/></defs><clipPath id="SVGID_00000115475260307120214490000012230360294589766314_"><use xlink:href="#SVGID_00000183959780684894436220000000084994263248596924_" style="overflow:visible"/></clipPath><g style="clip-path:url(#SVGID_00000115475260307120214490000012230360294589766314_)"><path class="st1" d="M1667 1742.1h533.5v166.7H1667zM2197.7 1742.1h233.4v-377.9H1692v377.9"/><path class="st1" d="M1747.6 1417h316.7v105.6h-316.7zM2428.3 1364.2l158.4 202.9v283.4M2431.1 1739.3l55.6 22.3v88.9h94.4M2492.2 1850.5l-50 55.6"/><path class="st1" d="M2586.7 1850.5h361.2v-355.7h-411.2M2197.7 1908.7h244.5M2269.9 1744.9v105.6M2269.9 1850.5l-66.7 55.6"/><path class="st1" d="M2636.7 1556h61.1v77.8h-61.1zM3531.4 1239.2h61.1v77.8h-61.1zM3531.4 1383.7h61.1v77.8h-61.1zM3531.4 1528.2h61.1v77.8h-61.1zM3531.4 1672.7h61.1v77.8h-61.1zM2736.7 1556h61.1v77.8h-61.1zM2836.7 1556h61.1v77.8h-61.1zM2636.7 1683.8h61.1v77.8h-61.1zM2736.7 1683.8h61.1v77.8h-61.1zM2836.7 1683.8h61.1v77.8h-61.1zM3097.9 1556h61.1v77.8h-61.1zM3097.9 1683.8h61.1v77.8h-61.1zM2470 1417h600.1M2947.9 1494.8l88.9-22.2 227.8-305.6"/><path class="st1" d="m3264.6 1167 389-105.6v816.9h-389V1167M2947.9 1850.5l88.9 13.4v-391.3l175-2.8v394.6h-175M3209.1 1861.6l55.5 16.7"/></g><defs><path id="SVGID_00000034052809638515795040000010099131671102931620_" d="M0 0h6000v6000H0z"/></defs><clipPath id="SVGID_00000063634109955781396240000004772975664350904497_"><use xlink:href="#SVGID_00000034052809638515795040000010099131671102931620_" style="overflow:visible"/></clipPath><g style="clip-path:url(#SVGID_00000063634109955781396240000004772975664350904497_)"><path class="st1" d="M3568.9 5375.9c26.4 24.5 50.2 47.7 63.7 81.9 12.4 31.4 15.5 66.6 9.7 99.4-11.8 67.1-56.3 119.7-113.5 154.2-44.1 26.6-98.2 32.2-148.5 35.4-98 6.3-226.4 13-296-71.4-59.8-72.6-67.2-185.4-39.9-271.7 16.9-53.3 55-95.8 105.1-120.5 26.3-13 57.2-15 85.4-22 2.1-.5 17.4-3.5 18.7-4.8-6.4-4.8-12.9-7.1-6.6-15.5 5.3-7 16.2-8.4 24.3-9 13.3-1 26.6-1.3 39.9-1.2 14 0 28.3.5 41.9 4.1 2.8.7 31.4 5.1 32 16.5.5 9.1-5.8 16.6-14.7 17.9h256.8c19 0 29.2 30 33.5 44.5 6.1 20.5 7.9 42 10.5 63.1 6.2 50 6.6 100.6 5.5 150.9-.6 26.3.9 54.1-7 79.7-3.9 12.6-10.5 26.5-21 35-12.6 10.2-33.1 8.4-48.2 9.4"/><ellipse class="st1" cx="3337.2" cy="5430.6" rx="53.4" ry="63.6"/><path class="st1" d="M3337.2 5367v127.1"/><ellipse class="st1" cx="3337.2" cy="5644.8" rx="49.6" ry="59.1"/><path class="st1" d="M3337.2 5585.7v118.2M3509.1 5456c-3.4 29-5.5 58.2-5.2 87.4.3 27.7 1.5 54.8 12.8 80.4M3298.1 5504.3c19 15.2 42 10.3 64.7 7.5 18-2.2 29.7-9.7 44.6-19.3 10.5-6.8 14-9.2 25.4-3.5M3298.1 5575.2c19-15.2 42-10.3 64.7-7.5 18 2.2 29.7 9.7 44.6 19.3 10.5 6.8 14 9.2 25.4 3.5M3207.7 5529.7c15.1 0 30.9 3.8 45.7-.5 22.5-6.4 16.9-28 5.1-42.8M3207.7 5556.7c15.1 0 30.9-3.8 45.7.5 22.5 6.4 16.9 28 5.1 42.8M3415.8 5567.1l-2.6-9.2c-3.3-11.4-3.5-23.4-.6-34.9l1.3-5.2"/></g><defs><path id="SVGID_00000028306195449824986290000007972222529600478117_" d="M0 0h6000v6000H0z"/></defs><clipPath id="SVGID_00000013889521497027980890000006797645669939720101_"><use xlink:href="#SVGID_00000028306195449824986290000007972222529600478117_" style="overflow:visible"/></clipPath><g style="clip-path:url(#SVGID_00000013889521497027980890000006797645669939720101_)"><path class="st1" d="M107.8 211.3c26.4 24.5 50.2 47.7 63.7 81.9 12.4 31.4 15.5 66.6 9.7 99.4-11.7 67.1-56.2 119.6-113.4 154.2-44.1 26.6-98.2 32.2-148.5 35.4-98 6.3-226.4 13-296-71.4-59.8-72.6-67.2-185.4-39.9-271.7 16.9-53.3 55-95.8 105.1-120.5 26.3-13 57.2-15 85.4-22 2.1-.5 17.4-3.5 18.7-4.8-6.4-4.8-12.9-7.1-6.6-15.5 5.3-7 16.2-8.4 24.3-9 13.3-1 26.6-1.3 39.9-1.2 14 0 28.3.5 41.9 4.1 2.8.7 31.4 5.1 32 16.5.5 9.1-5.8 16.6-14.7 17.9h256.8c19 0 29.2 30 33.5 44.5 6.1 20.5 7.9 42 10.5 63.1 6.2 50 6.6 100.6 5.5 150.9-.6 26.3.9 54.1-7 79.7-3.9 12.6-10.5 26.5-21 35-12.6 10.2-33.1 8.4-48.2 9.4"/><ellipse class="st1" cx="-123.9" cy="265.9" rx="53.4" ry="63.6"/><path class="st1" d="M-123.9 202.4v127.1"/><ellipse class="st1" cx="-123.9" cy="480.1" rx="49.6" ry="59.1"/><path class="st1" d="M-123.9 421v118.2M48.1 291.3c-3.4 29-5.5 58.2-5.2 87.4.3 27.7 1.5 54.8 12.8 80.4M-162.9 339.6c19 15.2 42 10.3 64.7 7.5 18-2.2 29.7-9.7 44.6-19.3 10.5-6.8 14-9.2 25.4-3.5M-162.9 410.5c19-15.2 42-10.3 64.7-7.5 18 2.2 29.7 9.7 44.6 19.3 10.5 6.8 14 9.2 25.4 3.5M-253.3 365.1c15.1 0 30.9 3.8 45.7-.5 22.5-6.4 16.9-28 5.1-42.8M-253.3 392c15.1 0 30.9-3.8 45.7.5 22.5 6.4 16.9 28 5.1 42.8M-45.2 402.4l-2.6-9.2c-3.3-11.4-3.5-23.4-.6-34.9l1.3-5.2"/></g><defs><path id="SVGID_00000143585916289423053620000002452379049689885112_" d="M0 0h6000v6000H0z"/></defs><clipPath id="SVGID_00000035489828579583517450000005862896456221545913_"><use xlink:href="#SVGID_00000143585916289423053620000002452379049689885112_" style="overflow:visible"/></clipPath><g style="clip-path:url(#SVGID_00000035489828579583517450000005862896456221545913_)"><path class="st1" d="M4165.2 420H3810v-677.5h490.7v95.2"/><path class="st1" d="M5121.1-103.7V-155h-963.2v575h963.2"/><path class="st1" d="M4483.8 279v141h-223.4V-96.4l172.2-58.6v125l153.8-40.7 325.9 3.6 106.2 36.6V-155M4586.4-70.7v336.9M4912.3-67.1v340.6M4483.8 273.5h531.1M5018.5-155l150.2 76.9V31.8l51.2 18.3v106.2l44 11V420h-142.8M5014.9 273.5V420"/><path class="st1" d="M4508-52.1v-51h40.1v40M4606.9-74.1v-29h40.1v32.7M4709.5-74.1v-29h40v32.7M4808.3-74.1v-29h40.1v32.7M4907.2-74.1v-29h40.1v43.7M4688.9 273.5h128.2V420h-128.2zM4341 53.8l-40.3 11V17.2l40.3-11zM4341 130.7l-40.3 11V94.1l40.3-11zM4341 207.6l-40.3 11V171l40.3-11zM4985.6 53.8l40.2 11V17.2l-40.2-11zM4985.6 130.7l40.2 11V94.1l-40.2-11zM4985.6 207.6l40.2 11V171l-40.2-11z"/></g><defs><path id="SVGID_00000129927308942073575930000004369348164923027117_" d="M0 0h6000v6000H0z"/></defs><clipPath id="SVGID_00000085931938773821497520000009600161203536417982_"><use xlink:href="#SVGID_00000129927308942073575930000004369348164923027117_" style="overflow:visible"/></clipPath><g style="clip-path:url(#SVGID_00000085931938773821497520000009600161203536417982_)"><path class="st1" d="M2054.9 5580.7h783.5v94.5h-783.5zM2038.2 5580.7h16.7M2838.4 5580.7h16.7M2430 5550.2h-344.5v22.2M2449.4 5505.7h0c-10.7 0-19.4 8.7-19.4 19.4v11.1c0 10.7 8.7 19.4 19.4 19.4h0c10.7 0 19.4-8.7 19.4-19.4v-11.1c.1-10.7-8.6-19.4-19.4-19.4z"/><path class="st1" d="M2338.3 5547.4v-1.5c0-8.5 6.7-15.6 15.2-16l12.2-.6c16.8-.9 33.5-4.1 49.4-9.6l19-6.5M2467.5 5550.2h350.1v22.2M2564.7 5547.4v-1.5c0-8.5-6.7-15.6-15.2-16l-12.2-.6c-16.8-.9-33.5-4.1-49.4-9.6l-19-6.5M2253.4 5708.5v472.4h-42.3v-472.4"/><path class="st1" d="M2197.8 5678v25.2c0 4.1 3.7 7 7.4 5.8l7.7-2.5c12.5-4 25.9-4 38.5 0l7.7 2.5c3.7 1.2 7.4-1.7 7.4-5.8V5678M2396.4 5708.5v472.4H2354v-472.4"/><path class="st1" d="M2340.8 5678v25.2c0 4.1 3.7 7 7.4 5.8l7.7-2.5c12.5-4 25.9-4 38.5 0l7.7 2.5c3.7 1.2 7.5-1.7 7.5-5.8V5678M2110.5 5708.5v472.4h-42.4v-472.4"/><path class="st1" d="M2054.9 5678v25.2c0 4.1 3.7 7 7.4 5.8l7.7-2.5c12.5-4 25.9-4 38.5 0l7.7 2.5c3.7 1.2 7.4-1.7 7.4-5.8V5678M2539.3 5708.5v472.4h-42.4v-472.4"/><path class="st1" d="M2483.7 5678v25.2c0 4.1 3.7 7 7.4 5.8l7.7-2.5c12.5-4 25.9-4 38.5 0l7.7 2.5c3.7 1.2 7.5-1.7 7.5-5.8V5678M2682.2 5708.5v472.4h-42.3v-472.4"/><path class="st1" d="M2626.7 5678v25.2c0 4.1 3.7 7 7.4 5.8l7.7-2.5c12.5-4 25.9-4 38.5 0l7.7 2.5c3.7 1.2 7.5-1.7 7.5-5.8V5678M2825.2 5708.5v472.4h-42.4v-472.4"/><path class="st1" d="M2769.6 5678v25.2c0 4.1 3.7 7 7.5 5.8l7.7-2.5c12.5-4 25.9-4 38.5 0l7.7 2.5c3.7 1.2 7.4-1.7 7.4-5.8V5678"/><path class="st1" d="M2927.3 5616.9v564h-958.5v-564M2054.9 5614.1h-100M2938.4 5614.1h-100"/></g><defs><path id="SVGID_00000159433757032720927670000009564845235628752536_" d="M0 0h6000v6000H0z"/></defs><clipPath id="SVGID_00000048465924321333370530000017574120281267896511_"><use xlink:href="#SVGID_00000159433757032720927670000009564845235628752536_" style="overflow:visible"/></clipPath><g style="clip-path:url(#SVGID_00000048465924321333370530000017574120281267896511_)"><path class="st1" d="M5435 2880h-684v-47.9h683.8zM4751 2617.3h683.9v214.6H4751zM4751 2615.2l108.7-110.1h33.8M5294 2505.1h40.7l103.1 110.1M4751 2880.9h683.9v379.9H4751z"/><path class="st1" d="M4751.2 2880h-337.9v380.8H4751M5434.8 2880h337.9v380.8H5435M4413.3 2923.1H4751M5440.5 2923.1h327.7M5006.9 2505.1h33.3M4737.5 2616.2h13.7M4392.9 2655.1h33.4M5429.2 2616.2h22.2M5151.3 2505.1h33.4M5059.9 2677.7h68.1v96.7h-68.1zM5204.4 2677.7h68.1v96.7h-68.1zM4909.8 2677.7h68.1v96.7h-68.1zM4493.1 2722.2h68.1v96.7h-68.1zM4604.2 2722.2h68.1v96.7h-68.1zM5510 2722.2h68.1v96.7H5510zM5621.1 2722.2h68.1v96.7h-68.1z"/><path class="st1" d="M4493.1 3050h68.1v96.7h-68.1zM4604.2 3050h68.1v96.7h-68.1zM5510 3050h68.1v96.7H5510zM5621.1 3050h68.1v96.7h-68.1zM4413.3 2877.4v-222.3h335.4M5772.7 2877.4v-222.3h-332.4M4414.1 2655.1l72.3-72.2h293.7M5794.1 2655.1h-33.3M5775.6 2655.1l-72.3-72.2H5407M5046.7 3039.9h100.9v219.7h-100.9z"/><path class="st1" d="M5046.7 3042.8v-24.7c0-27.9 22.6-50.5 50.5-50.5h0c27.9 0 50.5 22.6 50.5 50.5v24.7M4902.2 3039.9h100.9v219.7h-100.9z"/><path class="st1" d="M4902.2 3042.8v-24.7c0-27.9 22.6-50.5 50.5-50.5h0c27.9 0 50.5 22.6 50.5 50.5v24.7M5191.2 3039.9h100.9v219.7h-100.9z"/><path class="st1" d="M5191.2 3042.8v-24.7c0-27.9 22.6-50.5 50.5-50.5h0c27.9 0 50.5 22.6 50.5 50.5v24.7M5042.5 2548.3v-41.4c0-27.9 22.6-50.5 50.5-50.5h0c27.9 0 50.5 22.6 50.5 50.5v41.4M4898.1 2548.3v-41.4c0-27.9 22.6-50.5 50.5-50.5h0c27.9 0 50.5 22.6 50.5 50.5v41.4M5187 2548.3v-41.4c0-27.9 22.6-50.5 50.5-50.5h0c27.9 0 50.5 22.6 50.5 50.5v41.4M4898.2 2548.4h100M5043 2549.6h100M5187.4 2549.6h100.1M4751.2 2988.6h55.6M4751.2 3071.9h55.6M4751.2 3155.3h55.6M5379.2 2988.6h55.6M5379.2 3071.9h55.6M5379.2 3155.3h55.6"/></g><defs><path id="SVGID_00000126298535041203020630000006942390388880489349_" d="M0 0h6000v6000H0z"/></defs><clipPath id="SVGID_00000155120581620040720750000008057685232610308008_"><use xlink:href="#SVGID_00000126298535041203020630000006942390388880489349_" style="overflow:visible"/></clipPath><g style="clip-path:url(#SVGID_00000155120581620040720750000008057685232610308008_)"><path class="st1" d="M5040.8 706.2h871v454.6H3800.5V706.2H4677zM5911.8 706.2l-520.9-81H4321.4l-520.9 81M3800.5 706.2h-22M5933.9 706.2h-22.1M5484.5 639.5V561h-57.1v64.2"/><path class="st1" d="M4723.7 802v358.8h-32.2V802"/><path class="st1" d="M4681.5 778.8v19.1c0 3.1 2.8 5.3 5.7 4.4l5.9-1.9c9.5-3.1 19.7-3.1 29.2 0l5.9 1.9c2.8.9 5.7-1.3 5.7-4.4v-19.1M4845.1 802v358.8h-32.2V802"/><path class="st1" d="M4802.8 778.8v19.1c0 3.1 2.8 5.3 5.7 4.4l5.9-1.9c9.5-3.1 19.7-3.1 29.2 0l5.9 1.9c2.8.9 5.7-1.3 5.7-4.4v-19.1M4966.5 802v358.8h-32.2V802"/><path class="st1" d="M4924.2 778.8v19.1c0 3.1 2.8 5.3 5.7 4.4l5.9-1.9c9.5-3.1 19.7-3.1 29.2 0l5.9 1.9c2.8.9 5.7-1.3 5.7-4.4v-19.1M5087.8 802v358.8h-32.1V802"/><path class="st1" d="M5045.6 778.8v19.1c0 3.1 2.8 5.3 5.7 4.4l5.9-1.9c9.5-3.1 19.7-3.1 29.2 0l5.9 1.9c2.8.9 5.7-1.3 5.7-4.4v-19.1M5113.2 710.9v64.3h-449.8v-64.3M5077.5 668.1h35.7v42.8M4663.4 710.9v-42.8h42.8M5077.5 668.1v-14.3h-371.3v14.3M5191.8 796.6h92.8v292.8h-92.8zM5191.8 946.6h92.8M5377.4 796.6h92.8v292.8h-92.8zM5377.4 946.6h92.9M5563.1 796.6h92.8v292.8h-92.8zM5563.1 946.6h92.8M5748.7 796.6h92.8v292.8h-92.8zM5748.7 946.6h92.9M3913.6 796.6h92.8v292.8h-92.8zM3913.6 946.6h92.9M4099.3 796.6h92.8v292.8h-92.8zM4099.3 946.6h92.8M4284.9 796.6h92.8v292.8h-92.8zM4284.9 946.6h92.9M4470.6 796.6h92.8v292.8h-92.8zM4470.6 946.6h92.8"/></g><defs><path id="SVGID_00000172413221380866755040000005019512272248854176_" d="M0 0h6000v6000H0z"/></defs><clipPath id="SVGID_00000101086599630752684890000013539228118329891241_"><use xlink:href="#SVGID_00000172413221380866755040000005019512272248854176_" style="overflow:visible"/></clipPath><g style="clip-path:url(#SVGID_00000101086599630752684890000013539228118329891241_)"><path class="st1" d="M4759.2 4556v61.2M4759.2 4693.8v61.2M4859 4655.8h-61.2M4721.2 4655.8H4660"/></g><defs><path id="SVGID_00000026137906461332985580000003549492251505062791_" d="M0 0h6000v6000H0z"/></defs><clipPath id="SVGID_00000096753590616500092210000010590766740108558521_"><use xlink:href="#SVGID_00000026137906461332985580000003549492251505062791_" style="overflow:visible"/></clipPath><g style="clip-path:url(#SVGID_00000096753590616500092210000010590766740108558521_)"><path class="st1" d="M2085.2 3988v61.2M2085.2 4125.8v61.2M2185 4087.8h-61.2M2047.2 4087.8H1986"/></g><defs><path id="SVGID_00000021826857585336696770000008756203780248453556_" d="M0 0h6000v6000H0z"/></defs><clipPath id="SVGID_00000073687632268111586500000012940847993226452900_"><use xlink:href="#SVGID_00000021826857585336696770000008756203780248453556_" style="overflow:visible"/></clipPath><path style="clip-path:url(#SVGID_00000073687632268111586500000012940847993226452900_);fill:none;stroke:#333;stroke-width:18;stroke-linecap:round;stroke-linejoin:round;stroke-miterlimit:10" d="m4606.8 4949.4 77.9 26.3-77.9 26.3-26.3 77.8-26.3-77.8-77.9-26.3 77.9-26.3 26.3-77.9z"/><defs><path id="SVGID_00000047020843522737249470000016628430882793526429_" d="M0 0h6000v6000H0z"/></defs><clipPath id="SVGID_00000068675730192364025330000008139655370580331194_"><use xlink:href="#SVGID_00000047020843522737249470000016628430882793526429_" style="overflow:visible"/></clipPath><path style="clip-path:url(#SVGID_00000068675730192364025330000008139655370580331194_);fill:none;stroke:#333;stroke-width:18;stroke-linecap:round;stroke-linejoin:round;stroke-miterlimit:10" d="m4020.8 1508.4 77.9 26.3-77.9 26.3-26.3 77.8-26.3-77.8-77.9-26.3 77.9-26.3 26.3-77.9z"/><defs><path id="SVGID_00000176761261301842575430000000791419644777947288_" d="M0 0h6000v6000H0z"/></defs><clipPath id="SVGID_00000092442714985103384320000017563909862689023649_"><use xlink:href="#SVGID_00000176761261301842575430000000791419644777947288_" style="overflow:visible"/></clipPath><path style="clip-path:url(#SVGID_00000092442714985103384320000017563909862689023649_);fill:none;stroke:#333;stroke-width:18;stroke-linecap:round;stroke-linejoin:round;stroke-miterlimit:10" d="m4098.8 2923.4 77.9 26.3-77.9 26.3-26.3 77.8-26.3-77.8-77.9-26.3 77.9-26.3 26.3-77.9z"/><defs><path id="SVGID_00000145755321690704889680000009136738823587784843_" d="M0 0h6000v6000H0z"/></defs><clipPath id="SVGID_00000178904790209568746490000004169484733552882095_"><use xlink:href="#SVGID_00000145755321690704889680000009136738823587784843_" style="overflow:visible"/></clipPath><g style="clip-path:url(#SVGID_00000178904790209568746490000004169484733552882095_)"><path class="st1" d="M1502.2 37v61.2M1502.2 174.8V236M1602 136.8h-61.2M1464.2 136.8H1403"/></g><defs><path id="SVGID_00000139979671696498774300000018255182383381684923_" d="M0 0h6000v6000H0z"/></defs><clipPath id="SVGID_00000036965446232725184240000003226676615596531072_"><use xlink:href="#SVGID_00000139979671696498774300000018255182383381684923_" style="overflow:visible"/></clipPath><g style="clip-path:url(#SVGID_00000036965446232725184240000003226676615596531072_)"><path class="st1" d="M2.2 2499v61.2M2.2 2636.8v61.2M102 2598.8H40.8M-35.8 2598.8H-97"/></g><defs><path id="SVGID_00000129902868188237051370000011436019399041266563_" d="M0 0h6000v6000H0z"/></defs><clipPath id="SVGID_00000082354609569321014560000006054871001506211742_"><use xlink:href="#SVGID_00000129902868188237051370000011436019399041266563_" style="overflow:visible"/></clipPath><g style="clip-path:url(#SVGID_00000082354609569321014560000006054871001506211742_)"><path class="st1" d="M1692.2 2158v61.2M1692.2 2295.8v61.2M1792 2257.8h-61.2M1654.2 2257.8H1593"/></g><defs><path id="SVGID_00000119835740694546692440000000877682182355737016_" d="M0 0h6000v6000H0z"/></defs><clipPath id="SVGID_00000016040149063555562270000006242130618464825235_"><use xlink:href="#SVGID_00000119835740694546692440000000877682182355737016_" style="overflow:visible"/></clipPath><g style="clip-path:url(#SVGID_00000016040149063555562270000006242130618464825235_)"><path class="st1" d="M6224.6 4156.6V3319l-138.9-187.2-136.1 187.2v837.6z"/><path class="st1" d="M6119.1 3176.3h105.6v144.5M6051 3176.3h-101.5v144.5M5951 3437.5h272.2M5951 3676.4h272.2M5951 3915.4h272.2"/><circle class="st1" cx="6087.1" cy="3318" r="52.8"/><path class="st1" d="M6087.1 3265.2v-133.4M6087.1 3370.8v66.7M5951 3915.4l272.2 238.9M5951 4154.3l272.2-238.9M5951 3676.4l272.2 239M5951 3915.4l272.2-239M5951 3437.5l272.2 238.9M5951 3676.4l272.2-238.9M6089.9 3315.2h11.1M6087.1 3315.2v-16.7"/></g><defs><path id="SVGID_00000083777708517158489860000015258702710503843751_" d="M0 0h6000v6000H0z"/></defs><clipPath id="SVGID_00000153685996216902937630000002801084531099253384_"><use xlink:href="#SVGID_00000083777708517158489860000015258702710503843751_" style="overflow:visible"/></clipPath><g style="clip-path:url(#SVGID_00000153685996216902937630000002801084531099253384_)"><path class="st1" d="M5093.5 4802.6H5627v166.7h-533.5zM5624.1 4802.6h233.4v-377.9h-739v377.9"/><path class="st1" d="M5174 4477.5h316.7v105.6H5174zM5854.8 4424.7l158.3 202.9V4911M5857.5 4799.8l55.6 22.3v88.9h94.5M5918.7 4911l-50.1 55.6"/><path class="st1" d="M6013.1 4911h361.2v-355.7h-411.2M5624.1 4969.2h244.5M5696.4 4805.4V4911M5696.4 4911l-66.7 55.6"/><path class="st1" d="M6063.1 4616.5h61.1v77.8h-61.1zM6957.8 4299.7h61.1v77.8h-61.1zM6957.8 4444.2h61.1v77.8h-61.1zM6957.8 4588.7h61.1v77.8h-61.1zM6957.8 4733.2h61.1v77.8h-61.1zM6163.2 4616.5h61.1v77.8h-61.1zM6263.2 4616.5h61.1v77.8h-61.1zM6063.1 4744.3h61.1v77.8h-61.1zM6163.2 4744.3h61.1v77.8h-61.1zM6263.2 4744.3h61.1v77.8h-61.1zM6524.4 4616.5h61.1v77.8h-61.1zM6524.4 4744.3h61.1v77.8h-61.1zM5896.4 4477.5h600.2M6374.3 4555.3l88.9-22.2 227.9-305.6"/><path class="st1" d="m6691.1 4227.5 389-105.6v816.9h-389v-711.3M6374.3 4911l88.9 13.4v-391.3l175.1-2.8v394.6h-175.1M6635.5 4922.1l55.6 16.7"/></g><defs><path id="SVGID_00000167377032076271215300000008421383034877444537_" d="M0 0h6000v6000H0z"/></defs><clipPath id="SVGID_00000052106398852666975840000013636159259815325575_"><use xlink:href="#SVGID_00000167377032076271215300000008421383034877444537_" style="overflow:visible"/></clipPath><g style="clip-path:url(#SVGID_00000052106398852666975840000013636159259815325575_)"><path class="st1" d="M6157.8 1566.5h750.5v655.6H5089v-655.6h755.3M5969.5 1443.5h58.2v82.7h-58.2z"/><path class="st1" d="M6204.7 1666.8h58.2v82.7h-58.2zM6299.7 1666.8h58.2v82.7h-58.2zM6204.7 1861.6h58.2v82.7h-58.2zM6299.7 1861.6h58.2v82.7h-58.2zM6204.7 2056.3h58.2v82.7h-58.2zM6299.7 2056.3h58.2v82.7h-58.2zM5639.4 1666.8h58.2v82.7h-58.2zM5734.4 1666.8h58.2v82.7h-58.2zM5639.4 1861.6h58.2v82.7h-58.2zM5734.4 1861.6h58.2v82.7h-58.2zM5639.4 2056.3h58.2v82.7h-58.2zM5734.4 2056.3h58.2v82.7h-58.2zM5143 1666.8h58.2v82.7H5143zM5238 1666.8h58.2v82.7H5238zM5333 1666.8h58.2v82.7H5333zM5428 1666.8h58.2v82.7H5428zM5143 1861.6h58.2v82.7H5143zM5238 1861.6h58.2v82.7H5238zM5333 1861.6h58.2v82.7H5333zM5428 1861.6h58.2v82.7H5428zM5143 2056.3h58.2v82.7H5143zM5238 2056.3h58.2v82.7H5238zM5333 2056.3h58.2v82.7H5333zM5428 2056.3h58.2v82.7H5428zM6511.1 1666.8h58.2v82.7h-58.2zM6606.1 1666.8h58.2v82.7h-58.2zM6701.1 1666.8h58.2v82.7h-58.2zM6796.1 1666.8h58.2v82.7h-58.2zM6511.1 1861.6h58.2v82.7h-58.2zM6606.1 1861.6h58.2v82.7h-58.2zM6701.1 1861.6h58.2v82.7h-58.2zM6796.1 1861.6h58.2v82.7h-58.2zM6511.1 2056.3h58.2v82.7h-58.2zM6606.1 2056.3h58.2v82.7h-58.2zM6701.1 2056.3h58.2v82.7h-58.2zM6796.1 2056.3h58.2v82.7h-58.2zM5901.4 1638.3H6096v180h-194.6z"/><path class="st1" d="M6153 1880.1V1424h-49.9l-104.5-66.5L5891 1424h-46.7v456.1M5844.3 1956.1v266H6153v-266M5887 1818.3h223.3M5887 1918.1h223.3M5887 1585.6h223.3"/><path class="st1" d="M5830 1880.1h337.3v76H5830zM5844.3 2122.3h71.3v99.8h-71.3zM6081.8 2122.3h71.3v99.8h-71.3zM5901.3 2122.3v-166.2M5872.8 2122.3v-166.2M6124.5 2122.3v-166.2M6096 2122.3v-166.2M5998.6 1994.1h0c-30.2 0-54.6 24.5-54.6 54.6v106.9h109.3v-106.9c0-30.2-24.5-54.6-54.7-54.6zM5915.5 2155.6h166.3M5915.5 2188.8h166.3M5089 1566.5l494-128.2h261.3M6908.3 1566.5l-494-128.2H6153M5089 1566.5h-19M6927.3 1566.5h-19M5542.6 1568.9v650.8M5592.5 1571.3v650.8M6411.9 1568.9v650.8M6461.8 1571.3v650.8"/></g><defs><path id="SVGID_00000098200610776678773100000009236575489596432792_" d="M0 0h6000v6000H0z"/></defs><clipPath id="SVGID_00000109726269851696700920000015011534235743337616_"><use xlink:href="#SVGID_00000098200610776678773100000009236575489596432792_" style="overflow:visible"/></clipPath><g style="clip-path:url(#SVGID_00000109726269851696700920000015011534235743337616_)"><path class="st1" d="M6106.8 211.3c26.4 24.5 50.2 47.7 63.7 81.9 12.4 31.4 15.5 66.6 9.7 99.4-11.8 67.1-56.3 119.7-113.5 154.2-44.1 26.6-98.2 32.2-148.5 35.4-98 6.3-226.4 13-296-71.4-59.8-72.6-67.2-185.4-39.9-271.7 16.9-53.3 55-95.8 105.1-120.5 26.3-13 57.2-15 85.4-22 2.1-.5 17.4-3.5 18.7-4.8-6.4-4.8-12.9-7.1-6.6-15.5 5.3-7 16.2-8.4 24.3-9 13.3-1 26.6-1.3 39.9-1.2 14 0 28.3.5 41.9 4.1 2.8.7 31.4 5.1 32 16.5.5 9.1-5.8 16.6-14.7 17.9h256.8c19 0 29.2 30 33.5 44.5 6.1 20.5 7.9 42 10.5 63.1 6.2 50 6.6 100.6 5.5 150.9-.6 26.3.9 54.1-7 79.7-3.9 12.6-10.5 26.5-21 35-12.6 10.2-33.1 8.4-48.2 9.4"/><ellipse class="st1" cx="5875.1" cy="265.9" rx="53.4" ry="63.6"/><path class="st1" d="M5875.1 202.4v127.1"/><ellipse class="st1" cx="5875.1" cy="480.1" rx="49.6" ry="59.1"/><path class="st1" d="M5875.1 421v118.2M6047.1 291.3c-3.4 29-5.5 58.2-5.2 87.4.3 27.7 1.5 54.8 12.8 80.4M5836.1 339.6c19 15.2 42 10.3 64.7 7.5 18-2.2 29.7-9.7 44.6-19.3 10.5-6.8 14-9.2 25.4-3.5M5836.1 410.5c19-15.2 42-10.3 64.7-7.5 18 2.2 29.7 9.7 44.6 19.3 10.5 6.8 14 9.2 25.4 3.5M5745.7 365.1c15.1 0 30.9 3.8 45.7-.5 22.5-6.4 16.9-28 5.1-42.8M5745.7 392c15.1 0 30.9-3.8 45.7.5 22.5 6.4 16.9 28 5.1 42.8M5953.8 402.4l-2.6-9.2c-3.3-11.4-3.5-23.4-.6-34.9l1.3-5.2"/></g><defs><path id="SVGID_00000091013810897295125350000013972694661625884086_" d="M0 0h6000v6000H0z"/></defs><clipPath id="SVGID_00000109729356288004698230000006058490299113445537_"><use xlink:href="#SVGID_00000091013810897295125350000013972694661625884086_" style="overflow:visible"/></clipPath><g style="clip-path:url(#SVGID_00000109729356288004698230000006058490299113445537_)"><path class="st1" d="M6001.2 2499v61.2M6001.2 2636.8v61.2M6101 2598.8h-61.2M5963.2 2598.8H5902"/></g><defs><path id="SVGID_00000120559654965693533590000002314124705644711062_" d="M0 0h6000v6000H0z"/></defs><clipPath id="SVGID_00000090263476927803520810000016841037520597677193_"><use xlink:href="#SVGID_00000120559654965693533590000002314124705644711062_" style="overflow:visible"/></clipPath><g style="clip-path:url(#SVGID_00000090263476927803520810000016841037520597677193_)"><path class="st1" d="M3503.3 6937.8v-837.6l-139-187.2-136.1 187.2v837.6z"/><path class="st1" d="M3397.7 5957.4h105.6v144.5M3329.6 5957.4h-101.5v144.5M3229.6 6218.6h272.3M3229.6 6457.6h272.3M3229.6 6696.5h272.3"/><circle class="st1" cx="3365.7" cy="6099.1" r="52.8"/><path class="st1" d="M3365.7 6046.4V5913M3365.7 6151.9v66.7M3229.6 6696.5l272.3 239M3229.6 6935.5l272.3-239M3229.6 6457.6l272.3 238.9M3229.6 6696.5l272.3-238.9M3229.6 6218.6l272.3 239M3229.6 6457.6l272.3-239M3368.5 6096.4h11.1M3365.7 6096.4v-16.7"/></g><defs><path id="SVGID_00000138538355363576756840000017521001109130746001_" d="M0 0h6000v6000H0z"/></defs><clipPath id="SVGID_00000117635713105957965920000009320778661174127490_"><use xlink:href="#SVGID_00000138538355363576756840000017521001109130746001_" style="overflow:visible"/></clipPath><g style="clip-path:url(#SVGID_00000117635713105957965920000009320778661174127490_)"><path class="st1" d="M4165.2 6418H3810v-677.5h490.7v95.2"/><path class="st1" d="M5121.1 5894.3V5843h-963.2v575h963.2"/><path class="st1" d="M4483.8 6277v141h-223.4v-516.4l172.2-58.6v125l153.8-40.7 325.9 3.6 106.2 36.6V5843M4586.4 5927.3v336.9M4912.3 5930.9v340.6M4483.8 6271.5h531.1M5018.5 5843l150.2 76.9v109.9l51.2 18.3v106.2l44 11V6418h-142.8M5014.9 6271.5V6418"/><path class="st1" d="M4508 5945.9v-51h40.1v40M4606.9 5923.9v-29h40.1v32.7M4709.5 5923.9v-29h40v32.7M4808.3 5923.9v-29h40.1v32.7M4907.2 5923.9v-29h40.1v43.7M4688.9 6271.5h128.2V6418h-128.2zM4341 6051.8l-40.3 11v-47.6l40.3-11zM4341 6128.7l-40.3 11v-47.6l40.3-11zM4341 6205.6l-40.3 11V6169l40.3-11zM4985.6 6051.8l40.2 11v-47.6l-40.2-11zM4985.6 6128.7l40.2 11v-47.6l-40.2-11zM4985.6 6205.6l40.2 11V6169l-40.2-11z"/></g><defs><path id="SVGID_00000162320533161144756710000005948897060038835356_" d="M0 0h6000v6000H0z"/></defs><clipPath id="SVGID_00000127040993205386058300000005458473748363767446_"><use xlink:href="#SVGID_00000162320533161144756710000005948897060038835356_" style="overflow:visible"/></clipPath><g style="clip-path:url(#SVGID_00000127040993205386058300000005458473748363767446_)"><path class="st1" d="M2054.9-418.3h783.5v94.5h-783.5zM2038.2-418.3h16.7M2838.4-418.3h16.7M2430-448.8h-344.5v22.2M2449.4-493.3h0c-10.7 0-19.4 8.7-19.4 19.4v11.1c0 10.7 8.7 19.4 19.4 19.4h0c10.7 0 19.4-8.7 19.4-19.4v-11.1c.1-10.7-8.6-19.4-19.4-19.4z"/><path class="st1" d="M2338.3-451.6v-1.5c0-8.5 6.7-15.6 15.2-16l12.2-.6c16.8-.9 33.5-4.1 49.4-9.6l19-6.5M2467.5-448.8h350.1v22.2M2564.7-451.6v-1.5c0-8.5-6.7-15.6-15.2-16l-12.2-.6c-16.8-.9-33.5-4.1-49.4-9.6l-19-6.5M2253.4-290.5v472.4h-42.3v-472.4"/><path class="st1" d="M2197.8-321v25.2c0 4.1 3.7 7 7.4 5.8l7.7-2.5c12.5-4 25.9-4 38.5 0l7.7 2.5c3.7 1.2 7.4-1.7 7.4-5.8V-321M2396.4-290.5v472.4H2354v-472.4"/><path class="st1" d="M2340.8-321v25.2c0 4.1 3.7 7 7.4 5.8l7.7-2.5c12.5-4 25.9-4 38.5 0l7.7 2.5c3.7 1.2 7.5-1.7 7.5-5.8V-321M2110.5-290.5v472.4h-42.4v-472.4"/><path class="st1" d="M2054.9-321v25.2c0 4.1 3.7 7 7.4 5.8l7.7-2.5c12.5-4 25.9-4 38.5 0l7.7 2.5c3.7 1.2 7.4-1.7 7.4-5.8V-321M2539.3-290.5v472.4h-42.4v-472.4"/><path class="st1" d="M2483.7-321v25.2c0 4.1 3.7 7 7.4 5.8l7.7-2.5c12.5-4 25.9-4 38.5 0l7.7 2.5c3.7 1.2 7.5-1.7 7.5-5.8V-321M2682.2-290.5v472.4h-42.3v-472.4"/><path class="st1" d="M2626.7-321v25.2c0 4.1 3.7 7 7.4 5.8l7.7-2.5c12.5-4 25.9-4 38.5 0l7.7 2.5c3.7 1.2 7.5-1.7 7.5-5.8V-321M2825.2-290.5v472.4h-42.4v-472.4"/><path class="st1" d="M2769.6-321v25.2c0 4.1 3.7 7 7.5 5.8l7.7-2.5c12.5-4 25.9-4 38.5 0l7.7 2.5c3.7 1.2 7.4-1.7 7.4-5.8V-321"/><path class="st1" d="M2927.3-382.1v564h-958.5v-564M2054.9-384.9h-100M2938.4-384.9h-100"/></g><defs><path id="SVGID_00000023248632710497140450000013306280489954883977_" d="M0 0h6000v6000H0z"/></defs><clipPath id="SVGID_00000045596547778340624310000016464748285983645068_"><use xlink:href="#SVGID_00000023248632710497140450000013306280489954883977_" style="overflow:visible"/></clipPath><g style="clip-path:url(#SVGID_00000045596547778340624310000016464748285983645068_)"><path class="st39" d="m2040.5 3405 51.5-38c150.2-111 344.2-144.4 522.8-89.9l36.1 11v-31.8l-36.1-11c-178.7-54.5-377.9-21.1-528.1 89.9l-51.5 38 5.3 31.8zM2177.2 3832h-50.5v-399.6c0-13.9 11.3-25.2 25.2-25.2h0c13.9 0 25.2 11.3 25.2 25.2V3832h.1zM2602.1 3832h-50.5v-458.5c0-13.9 11.3-25.2 25.2-25.2h0c13.9 0 25.2 11.3 25.2 25.2V3832h.1zM2152 3407.1v-75.7M2576.9 3344v-75.7M2189.9 3272v-331.8M2694.7 3135.9v674.9M1285 3487h841.8M1878.6 3487v-298.6"/><path class="st39" d="M1878.6 3344c-26.5-15.1-58.2-33.9-63.7-66.7-7.2-43 24.4-83.2 48.5-115.5 26.1-34.9 55.8-66.9 87.9-96.3 65-59.5 139-108 213.4-154.7 6.1-3.8 44.8 1.6 56.2 2.4 27.6 1.9 55 4.9 82.3 9.3 101.8 16.3 201.2 47.5 290.7 99.4 70.5 40.9 129.9 94.6 189.2 149.7l-86.1 58"/><path class="st39" d="M1878.6 3314.6c-20.8-11.9-37.6-23.7-37.6-50.2 0-25 14.7-48.3 29.1-67.6 29.8-39.9 61.5-78.5 97.9-112.5 38.4-35.9 78-66.5 121.6-95.7 24.7-16.6 49.8-32.5 75-48.4 6.1-3.8 111.2 7.3 138.5 11.7 101.8 16.3 204 55.1 293 107.9 52.5 31.2 102.4 74.7 159.2 127.4M2164.6 2910.7v29.5M2518 3823.6h-311.3v-483.8l10.3-4.4c94.8-41 199.6-56.8 301-37.6h0v525.8zM2123.7 3617h-992.6M563.2 3521.5c-30.9-23.1-72.2-55.1-58.5-99 10.2-32.8 34.1-58.8 64.2-74.6 71.5-37.4 154.2-37.8 232.8-31.2 161.2 13.5 315.2 79.7 467.5 130.5 5.3 1.8 10.5 3.5 15.8 5.3l122.1 31.8"/><path class="st39" d="M563.2 3521.5c-30.9-23.1-95.5-47.8-90.3-114.9 2.7-34.2 55.3-85.4 85.5-101.1 71.5-37.4 154.2-37.8 232.8-31.2 161.2 13.5 315.2 79.7 467.5 130.5 5.3 1.8 10.5 3.5 15.8 5.3l238.8 74.3M1003.7 3356.9l15.9-31.8M520.7 3335.7l26.6 26.5M1285 3489.6v323.8M1285 3452.5l16-31.9"/><path class="st39" d="M568.5 3351.6v520.2c.1 7 122.5 16.2 132.1 16.9 43.5 2.9 87.3 2.2 130.8-2.1 42.2-4.2 83-14.2 124.7-22.7 102.1-20.8 225.8-38 329-50.4M1285 3813.4h838.7M2606.7 3813.4h84.9M2208.6 3824h-31.9M2548.3 3824h-31.9M1131.1 3399.4v429.9M1842.4 3654.2h127.4v122.1h-127.4zM1630 3654.2h127.4v122.1H1630zM1423 3654.2h127.4v122.1H1423zM2150.2 3080.9l-74.3 53.1v-74.3l74.3-53.1zM2022.8 3160.6l-37.1 31.8v-69l37.1-31.8z"/><path class="st39" d="M1178.9 3818.7v-138h69v132.7"/></g><defs><path id="SVGID_00000142883710136739056480000012385304587763634845_" d="M0 0h6000v6000H0z"/></defs><clipPath id="SVGID_00000120525580722894978910000004810416277685559958_"><use xlink:href="#SVGID_00000142883710136739056480000012385304587763634845_" style="overflow:visible"/></clipPath><g style="clip-path:url(#SVGID_00000120525580722894978910000004810416277685559958_)"><path class="st39" d="M1734.3 4421.8h376.3v666h-376.3zM2976.7 4424.8H3353v663h-376.3z"/><path class="st39" d="M1734.3 4380h376.3v44.6h-376.3zM2110.6 4403.9h866.1v44.6h-866.1zM2976.7 4380.2H3353v44.6h-376.3zM2110.6 4448.7h866.1v639.1h-866.1zM1322.2 4448.7h412.1v639.1h-412.1zM3353 4448.7h412.1v639.1H3353zM2460 4215.7h167.2v185.2H2460zM2627.3 4215.7H2460l14.9-28.9c5.9-11.5 9.7-24 11.1-36.8h0c2.2-20.4 19.4-35.8 39.9-35.8h35.5c20.5 0 37.7 15.4 39.9 35.8h0c1.4 12.9 5.1 25.3 11.1 36.8l14.9 28.9z"/><path class="st39" d="M2513.8 4263.5h59.7v83.6h-59.7zM2543.6 4111.2v-101.5M2445.1 4215.7h197.1M1872.7 4850.3h108.5v236.1h-108.5zM3115.1 4850.3h108.5v236.1h-108.5zM1841.8 4759.3h167.3M1892.8 4556.6h73.2v104h-73.2zM1409 4622.3h73.2v104H1409zM1564.3 4622.3h73.2v104h-73.2zM2274.1 4622.3h73.2v104h-73.2zM2429.4 4622.3h73.2v104h-73.2zM2584.7 4622.3h73.2v104h-73.2zM2740 4622.3h73.2v104H2740zM2274.1 4825.4h73.2v104h-73.2zM2429.4 4825.4h73.2v104h-73.2zM2584.7 4825.4h73.2v104h-73.2zM2740 4825.4h73.2v104H2740zM1409 4825.4h73.2v104H1409zM1564.3 4825.4h73.2v104h-73.2zM3445.8 4622.3h73.2v104h-73.2zM3601.1 4622.3h73.2v104h-73.2zM3445.8 4825.4h73.2v104h-73.2zM3601.1 4825.4h73.2v104h-73.2zM1740.3 4556.2h41.8M1740.3 4657.7h41.8M1740.3 4759.3h41.8M1740.3 4860.8h41.8M1740.3 4962.4h41.8M2068.8 4556.2h41.8M2068.8 4657.7h41.8M2068.8 4759.3h41.8M2068.8 4860.8h41.8M2068.8 4962.4h41.8M3078.2 4759.3h167.2M3129.2 4556.6h73.2v104h-73.2zM2976.7 4556.2h41.8M2976.7 4657.7h41.8M2976.7 4759.3h41.8M2976.7 4860.8h41.8M2976.7 4962.4h41.8M3305.2 4556.2h41.8M3305.2 4657.7h41.8M3305.2 4759.3h41.8M3305.2 4860.8h41.8M3305.2 4962.4h41.8M1393.9 4448.7v-42.8l313.5-113.5 295.7 84.6M1375.9 4406.9h358.4M3699.4 4448.7v-42.8l-313.6-113.5-295.6 84.6M3717.3 4406.9h-358.4M3753.1 4448.7h29.9"/></g><defs><path id="SVGID_00000094591383651577613980000009182068532509628090_" d="M0 0h6000v6000H0z"/></defs><clipPath id="SVGID_00000142161479722994576580000011336410162537803436_"><use xlink:href="#SVGID_00000094591383651577613980000009182068532509628090_" style="overflow:visible"/></clipPath><g style="clip-path:url(#SVGID_00000142161479722994576580000011336410162537803436_)"><path class="st1" d="M4268.7 3612h1173.4v614.5H4268.7z"/><path class="st1" d="M5442 3614H4270.6l175.8-125.3h819.8zM4247.1 3672.7h1220.4M4247.1 3613.1h1220.4M5078.4 3801.8h389.1M4247.1 3801.8h385.2M4624.4 3754.9h463.8"/><path class="st1" d="M5659.2 4226.7H5442l2-614.7-137-97.7v-103.8h352.2zM4636.2 3754.9h438.4v93.9h-438.4zM4675.3 4197.4h-47l7.9-321.5h31.3zM4784.9 4197.4h-47l7.9-321.5h31.3zM4976.7 4197.4h-47l7.8-321.5h31.3zM5082.4 4197.4h-47l7.8-321.5h31.3z"/><path class="st1" d="M4620.5 3848.8h58.7v27.1h-58.7zM4734 3848.8h58.7v27.1H4734zM4925.8 3848.8h58.7v27.1h-58.7zM5027.7 3848.8h58.7v27.1h-58.7zM4621.9 4197.4h58.7v29h-58.7zM4731.8 4197.4h58.7v29h-58.7zM4923.4 4197.4h58.7v29h-58.7zM5029.1 4197.4h58.7v29h-58.7zM4347.2 3889.2h68.1v96.7h-68.1zM4469.4 3889.2h68.1v96.7h-68.1zM4347.2 4039.2h68.1v96.7h-68.1zM4469.4 4039.2h68.1v96.7h-68.1zM5175.2 3889.2h68.1v96.7h-68.1zM5297.4 3889.2h68.1v96.7h-68.1zM5175.2 4039.2h68.1v96.7h-68.1zM5297.4 4039.2h68.1v96.7h-68.1zM4420.7 3718.2h42.4v43.5h-42.4zM4504.1 3718.2h42.4v43.5h-42.4zM4337.4 3718.2h42.4v43.5h-42.4zM5248.7 3718.2h42.4v43.5h-42.4zM5332.1 3718.2h42.4v43.5h-42.4zM5165.4 3718.2h42.4v43.5h-42.4zM5500.1 4007.7H5601v219.7h-100.9z"/></g><defs><path id="SVGID_00000181068751430446091230000004592347869366837121_" d="M0 0h6000v6000H0z"/></defs><clipPath id="SVGID_00000134946627915639659400000015763651154577182622_"><use xlink:href="#SVGID_00000181068751430446091230000004592347869366837121_" style="overflow:visible"/></clipPath><path style="clip-path:url(#SVGID_00000134946627915639659400000015763651154577182622_);fill:none;stroke:#333;stroke-width:18;stroke-linecap:round;stroke-linejoin:round;stroke-miterlimit:10" d="m1860.2 5302.2 77.9 26.3-77.9 26.3-26.3 77.8-26.3-77.8-77.9-26.3 77.9-26.3 26.3-77.9z"/><defs><path id="SVGID_00000183235464263686974250000009019052257406961287_" d="M0 0h6000v6000H0z"/></defs><clipPath id="SVGID_00000015345244151958091490000005263371788966621074_"><use xlink:href="#SVGID_00000183235464263686974250000009019052257406961287_" style="overflow:visible"/></clipPath><path style="clip-path:url(#SVGID_00000015345244151958091490000005263371788966621074_);fill:none;stroke:#333;stroke-width:18;stroke-linecap:round;stroke-linejoin:round;stroke-miterlimit:10" d="m1471.6 3188.9 77.9 26.3-77.9 26.3-26.3 77.8-26.3-77.8-77.9-26.3 77.9-26.3 26.3-77.9z"/><defs><path id="SVGID_00000137822558933414645840000004267226750023806080_" d="M0 0h6000v6000H0z"/></defs><clipPath id="SVGID_00000034802711662658150030000005164064006826449043_"><use xlink:href="#SVGID_00000137822558933414645840000004267226750023806080_" style="overflow:visible"/></clipPath><g style="clip-path:url(#SVGID_00000034802711662658150030000005164064006826449043_)"><path class="st39" d="M3500.3 3322.5h0c-51.6 0-93.4 41.8-93.4 93.4V3581h186.7v-165.2c.1-51.5-41.7-93.3-93.3-93.3zM3679.8 3682.3v390.5h-359v-390.5M3320.8 3658.1v-19.7h359v19.7M3679.8 3658.1h25.2l-24.3 24.2h-359.9l-25.2-24.2h384.2"/><path class="st39" d="M3624.2 4071v-215.4c0-63.5-51.4-114.9-114.9-114.9h0c-63.5 0-114.9 51.4-114.9 114.9V4071M3766 3193.3V4073M3595.5 3168.1h193.8l-24.2 24.3h-528.7l-25.1-24.3h384.2M3767.8 3351.2H4073M4073 3351.2h0l-24.2 24.3h-281M3238.2 3193.3V4073M3238.2 4073h82.6M4047.9 3376.4v603.2M3767.8 3979.6h280.1M3950.9 3620.5h-86.2V3520c0-23.8 19.3-43.1 43.1-43.1h0c23.8 0 43.1 19.3 43.1 43.1v100.5h0zM3864.7 3703.1h86.2v143.6h-86.2zM3236.4 3351.2h-305.2M2931.2 3351.2h0l24.2 24.3h281M2956.3 3376.4v603.2M3236.4 3979.6h-280.1M3053.3 3620.5h86.2V3520c0-23.8-19.3-43.1-43.1-43.1h0c-23.8 0-43.1 19.3-43.1 43.1v100.5h0zM3053.2 3703.2h86.2v143.6h-86.2zM3678 4073h86.2"/></g><defs><path id="SVGID_00000062155093140822655010000013707938238036632482_" d="M0 0h6000v6000H0z"/></defs><clipPath id="SVGID_00000070107645131645938820000015098172753824536997_"><use xlink:href="#SVGID_00000062155093140822655010000013707938238036632482_" style="overflow:visible"/></clipPath><g style="clip-path:url(#SVGID_00000070107645131645938820000015098172753824536997_)"><path class="st39" d="M3061 2185.4h770.8v560.3H1963.3v-560.3H2739z"/><path class="st39" d="M2661.1 2075.8h-236.8l-461 109.6M2851.2 2075.8h-95M3039 2075.8h-95.1 2.3M3831.8 2185.4l-461-109.6h-239.1M1963.3 2185.4h-19.5M3851.4 2185.4h-19.6M2897.6 2020.2h0c-25.6 0-46.4 20.8-46.4 46.4v55.6h92.7v-55.6c0-25.7-20.7-46.4-46.3-46.4zM3085.3 2020.2h0c-25.6 0-46.4 20.8-46.4 46.4v55.6h92.7v-55.6c.1-25.7-20.7-46.4-46.3-46.4zM2753.9 2075.8v-9.3c0-25.6-20.8-46.4-46.4-46.4h0c-25.6 0-46.4 20.8-46.4 46.4v55.6h92.7l.1-46.3M2841.9 2571.8h111.3v171.5h-111.3zM2844.3 2451.3h111.3v88.1h-111.3zM2899.9 2256.6h0c-30.7 0-55.6 24.9-55.6 55.6v102h111.3v-102c-.1-30.7-25-55.6-55.7-55.6zM2746.9 2187.1V2748M3048.2 2187.1V2748M2505.8 2298.3h106.6v139.1h-106.6zM2505.8 2497.7h106.6v139.1h-106.6zM2297.2 2298.3h106.6v139.1h-106.6zM2297.2 2497.7h106.6v139.1h-106.6zM2088.6 2298.3h106.6v139.1h-106.6zM2088.6 2497.7h106.6v139.1h-106.6zM3604.5 2298.3h106.6v139.1h-106.6zM3604.5 2497.7h106.6v139.1h-106.6zM3395.9 2298.3h106.6v139.1h-106.6zM3395.9 2497.7h106.6v139.1h-106.6zM3187.3 2298.3h106.6v139.1h-106.6zM3187.3 2497.7h106.6v139.1h-106.6z"/></g><defs><path id="SVGID_00000117636540686213385790000003548647675109245354_" d="M0 0h6000v6000H0z"/></defs><clipPath id="SVGID_00000147188736502631746040000011244800516791315848_"><use xlink:href="#SVGID_00000117636540686213385790000003548647675109245354_" style="overflow:visible"/></clipPath><g style="clip-path:url(#SVGID_00000147188736502631746040000011244800516791315848_)"><path class="st1" d="M5440-99.3v61.2M5440 38.6v61.1M5539.8.5h-61.2M5402 .5h-61.2"/></g><defs><path id="SVGID_00000015348377638329289790000015131227203634626984_" d="M0 0h6000v6000H0z"/></defs><clipPath id="SVGID_00000102541144868390350710000004716513882338129289_"><use xlink:href="#SVGID_00000015348377638329289790000015131227203634626984_" style="overflow:visible"/></clipPath><g style="clip-path:url(#SVGID_00000102541144868390350710000004716513882338129289_)"><path class="st1" d="M5440 5900.7v61.2M5440 6038.6v61.1M5539.8 6000.5h-61.2M5402 6000.5h-61.2"/></g></svg>
