<svg version="1.1" id="Layer_1" xmlns="http://www.w3.org/2000/svg" xmlns:xlink="http://www.w3.org/1999/xlink" x="0" y="0" viewBox="0 0 6000 6000" style="enable-background:new 0 0 6000 6000" xml:space="preserve"><style>.st1,.st2{stroke-width:32;stroke-miterlimit:10}.st1{fill:none;stroke:#333;stroke-linecap:round;stroke-linejoin:round}.st2{stroke:#333}.st2,.st3,.st4{fill:none;stroke-linecap:round;stroke-linejoin:round}.st3{stroke:#333;stroke-width:38.1575;stroke-miterlimit:10}.st4{stroke:#333;stroke-width:32}</style><defs><path id="SVGID_1_" d="M0 0h6000v6000H0z"/></defs><clipPath id="SVGID_00000132060982847931531370000011444586341187767948_"><use xlink:href="#SVGID_1_" style="overflow:visible"/></clipPath><g style="clip-path:url(#SVGID_00000132060982847931531370000011444586341187767948_)"><path class="st1" d="M-195.2 3843.5h-172.3v560.7L-703.9 4953c-60.1 98.1 10.4 224.1 125.5 224.1h383.3M-193.8 3843.5h172.3v560.7L315 4953c60.1 98.1-10.4 224.1-125.5 224.1h-383.3"/><path class="st1" d="M2.4 3843.7h-394.3c-25.8 0-46.6-20.9-46.6-46.6v0c0-25.8 20.9-46.6 46.6-46.6H2.4c25.8 0 46.6 20.9 46.6 46.6v0c0 25.7-20.9 46.6-46.6 46.6zM-154.5 3949.7h133.1M-154.5 4197.7h133.1M-220.2 4072.6h198.8M-547.1 4697.2h705.3"/><circle class="st1" cx="-413.1" cy="4926.9" r="61.5"/><circle class="st1" cx="63.9" cy="5043.5" r="38.2"/><circle class="st1" cx="6.6" cy="4865.4" r="86.9"/></g><g style="clip-path:url(#SVGID_00000132060982847931531370000011444586341187767948_)"><path class="st2" d="m688.6 4254.3 136.2-396.9H231.5L363 4254.3zM515.4 3857.4h0c53.7-130.7 134.5-248.5 237.1-345.6l115.6-86.4M0 3022.8l13.9 14.2c227.4 231.7 399 512.3 501.5 820.4h0"/><path class="st2" d="M317.7 3427.4c-8.9 8.6-14.9 19.7-21.1 30.4-23.5 40.1-53.7 77.9-94.5 100-64.1 34.7-146.8 23.9-207.5-16.4-115-76.3-160.4-216.4-179.1-347.2-21.1-148.1-11.6-314.7 46.3-454.4 79.7 50.8 145.9 108.8 236.5 143.6 88.3 34 183.3 47.3 260.2 105.8 69.8 53.1 122 130.2 140.4 216.3 23.2 108.5-46.8 163.7-140.1 199.5-14.2 5.4-28.8 10.9-39.9 21.2l-1.2 1.2zM697.8 3611.4c5.7 5.5 9.5 12.6 13.5 19.4 15 25.6 34.3 49.7 60.4 63.8 40.9 22.1 93.7 15.3 132.5-10.5 73.4-48.7 102.4-138.2 114.3-221.7 13.5-94.6 7.4-200.9-29.6-290.1-50.9 32.5-93.2 69.4-151 91.7-56.4 21.7-117 30.2-166.2 67.6-44.5 33.9-77.9 83.1-89.7 138.1-14.8 69.3 29.9 104.5 89.5 127.4 9 3.5 18.4 7 25.5 13.6.3.2.5.4.8.7z"/></g><g style="clip-path:url(#SVGID_00000132060982847931531370000011444586341187767948_)"><path class="st3" d="M4017.4 1795.3h290.1v837.8h-290.1zM4433.4 2039.8h290.1v593.4h-290.1zM4848.2 1588.4h290.1v1044.7h-290.1z"/><circle class="st3" cx="4162.4" cy="1444.5" r="106.1"/><circle class="st3" cx="4578.9" cy="1710.4" r="106.1"/><circle class="st3" cx="4993.2" cy="1200.1" r="106.1"/><path class="st3" d="m4253.7 1497.5 223.8 181.7M4663.4 1646.3l277.1-354.5M3927.7 2633.1H5215"/><path class="st1" d="M4017.4 1795.3h290.1v837.8h-290.1zM4433.4 2039.8h290.1v593.4h-290.1zM4848.2 1588.4h290.1v1044.7h-290.1z"/><circle class="st1" cx="4162.4" cy="1444.5" r="106.1"/><circle class="st1" cx="4578.9" cy="1710.4" r="106.1"/><circle class="st1" cx="4993.2" cy="1200.1" r="106.1"/><path class="st1" d="m4253.7 1497.5 223.8 181.7M4663.4 1646.3l277.1-354.5M3927.7 2633.1H5215"/></g><g style="clip-path:url(#SVGID_00000132060982847931531370000011444586341187767948_)"><path class="st2" d="M2440.3 2566.3c17.4 72.9-69.3 295.5-69.3 295.5s-177.4-159.8-194.8-232.7c-17.4-72.9 27.7-146.1 100.6-163.4 73-17.4 146.2 27.7 163.5 100.6zM2320.3 2648.1l50.8 213.7M2383.8 2440.1l-213.8 50.8-222.2-981.3 213.7-50.9zM1858.9 1135.6c-59 14.1-95.4 73.2-81.4 132.2l101.6 427.3"/><path class="st2" d="m1846.2 1082.2 213.7-50.9 101.6 427.4-213.7 50.9z"/></g><g style="clip-path:url(#SVGID_00000132060982847931531370000011444586341187767948_)"><path class="st2" d="M-87 2542.5c0 33.7-27.3 61-61 61h-366.2c-33.7 0-61-27.3-61-61V1260.9c0-33.7 27.3-61 61-61H-148c33.7 0 61 27.4 61 61v1281.6z"/><path class="st2" d="M-97.1 1215.2c12.5-4 26.4-4 39.8 1L286 1343.4c31.6 11.7 47.7 46.8 36 78.4L-83.3 2515.2"/><path class="st2" d="M326.9 1375.4c13.7.3 27.3 5.1 38.4 14.7L643 1628.7c25.6 22 28.5 60.5 6.5 86.1L-111.2 2592M-453.1 1321.9H-209V1566h-244.1zM-453.1 1688.1H-209v244.1h-244.1zM-453.1 2054.3H-209v244.1h-244.1z"/><circle class="st2" cx="-331.1" cy="2450.9" r="61"/></g><g style="clip-path:url(#SVGID_00000132060982847931531370000011444586341187767948_)"><circle class="st2" cx="1323.2" cy="3883.9" r="157.1"/><circle class="st2" cx="1323.2" cy="3150.8" r="157.1"/><path class="st4" d="M1689.7 3805.3h26.2"/><path style="fill:none;stroke:#333;stroke-width:32;stroke-linecap:round;stroke-linejoin:round;stroke-dasharray:57.1207,114.2414" d="M1830.1 3805.3h457"/><path class="st4" d="M2344.2 3805.3h26.2"/><path class="st2" d="M1711.6 3700.6c-141.2-144.3-231.4-353.3-231.4-549.8"/><path class="st2" d="M1480.2 3883.9c0-347 281.3-733 628.3-733 93.5 0 182.1 20.4 261.8 57L1585 3517.3l471.2 183.3"/></g><g style="clip-path:url(#SVGID_00000132060982847931531370000011444586341187767948_)"><path class="st2" d="M3143.4 4694.3v-467.2c-137.4 137.4-796.7 137.5-934.1 0v467.2c0 302.1 357.2 549.5 467.1 549.5s467-247.4 467-549.5z"/><path class="st2" d="M2813.7 4172.3V3980c-137.4 137.4-796.7 137.5-934.1 0v467.1c0 136 72.4 261 162 357.3M2841.2 4859.1c0 91.1-73.8 164.8-164.8 164.8-91.1 0-164.8-73.8-164.8-164.8M2786.2 4611.8c0-45.5 36.9-82.4 82.4-82.4 45.5 0 82.4 36.9 82.4 82.4M2401.6 4611.8c0-45.5 36.9-82.4 82.4-82.4 45.5 0 82.4 36.9 82.4 82.4"/></g><g style="clip-path:url(#SVGID_00000132060982847931531370000011444586341187767948_)"><path class="st2" d="M3355.7 282h-63.2l-253.1 253.1V282h-189.9v-759.3h1202.2V-66"/><path class="st2" d="M3545.5 598.4h348.1l284.7 253.1V598.4h126.5V92.2h-759.3z"/></g><g style="clip-path:url(#SVGID_00000132060982847931531370000011444586341187767948_)"><path class="st2" d="M1705.6 1994c0 177.5-145.2 322.7-322.7 322.7h-193.6c-177.5 0-322.7-145.2-322.7-322.7v-451.8c0-177.5 145.2-322.7 322.7-322.7h193.6c177.5 0 322.7 145.2 322.7 322.7V1994zM1318.4 2445.8v-258.1"/><circle class="st2" cx="1318.4" cy="2058.6" r="129.1"/><path class="st2" d="M866.6 1800.4h387.2M866.6 1671.3h387.2M866.6 1542.2h387.2M1576.5 1800.4h129.1M1576.5 1671.3h129.1M1576.5 1542.2h129.1M1576.5 2704h-516.3c0-142.6 115.6-258.2 258.2-258.2s258.1 115.6 258.1 258.2z"/></g><g style="clip-path:url(#SVGID_00000132060982847931531370000011444586341187767948_)"><path class="st1" d="M5421.3 4267.6c0 52.7-42.7 95.3-95.3 95.3-52.6 0-95.3-42.6-95.3-95.3 0-52.6 95.3-211.6 95.3-211.6s95.3 159 95.3 211.6zM4477.2 3862.5c-104 0-188.4-84.3-188.4-188.4h-251.2v-314h251.2c0-104 84.4-188.4 188.4-188.4h188.4c104 0 188.4 84.4 188.4 188.4 188.4 0 565.2 62.8 565.2 439.6v125.6H5168v-125.6c0-69.4-56.2-125.6-125.6-125.6H4854c0 104.1-84.4 188.4-188.4 188.4h-188.4zM4477.2 2920.4h188.4v251.2h-188.4zM4477.2 3046h-345.4M5011 3046l-345.4-1.4M4288.8 3360.1v314M4854 3360.1v314"/></g><g style="clip-path:url(#SVGID_00000132060982847931531370000011444586341187767948_)"><path class="st1" d="M2132.6 5366.4h-1629c-40.9 0-74.2-33.3-74.2-74.1v-74.1c0-41 33.3-74.1 74.2-74.1H1244"/><path class="st1" d="M503.6 5144.3c0-347.7 281.8-629.5 629.5-629.5 240.5 0 449.5 134.9 555.5 333.1"/><path class="st1" d="M1910.5 5366.4v-222.2c0-394.3-293.3-719.9-673.6-770.8-61.6-8.2-123.8 9.8-171.6 49.5L906 4557.5M577.4 5366.4v259.2c0 61.3 49.8 111.1 111.2 111.1 61.3 0 111.2-49.8 111.2-111.1 0-61.4 49.7-111.1 111.1-111.1h777.6c81.8 0 148-66.3 148-148.1"/></g><g style="clip-path:url(#SVGID_00000132060982847931531370000011444586341187767948_)"><path class="st1" d="M1033.6 913.4c0 39.1-31.7 70.7-70.7 70.7H-26.2c-39 0-70.7-31.6-70.7-70.7V348.1c0-39.1 31.7-70.7 70.7-70.7H963c39 0 70.7 31.6 70.7 70.7v565.3z"/><circle class="st1" cx="221.1" cy="595.4" r="106"/><circle class="st1" cx="715.7" cy="595.4" r="106"/><path class="st1" d="M221.1 489.4h494.6M-167.6 65.5H539c39 0 70.7 31.6 70.7 70.7v141.3M892.3 277.4v-212c0-39.1 31.7-70.7 70.7-70.7h141.3"/><path class="st1" d="M1457.6-5.2c0 39.1-31.7 70.7-70.7 70.7h-212c-39 0-70.7-31.6-70.7-70.7s31.7-70.7 70.7-70.7h212c39 .1 70.7 31.7 70.7 70.7zM1033.6 524.7 1404.9 370c11.7-4.9 25.1-3.6 35.7 3.5 10.5 7.1 16.9 19 16.9 31.7v451.1c0 12.7-6.4 24.6-16.9 31.7-10.6 7-24 8.4-35.7 3.5l-371.3-154.7"/></g><g style="clip-path:url(#SVGID_00000132060982847931531370000011444586341187767948_)"><path class="st2" d="M3784.5 3024.4c0-263.1-248.5-413.5-474-413.5-280.3 0-496.9 219.8-496.9 500.1 0 159.1 52.3 308.5 209.2 401.5v301.2h523V3632c104.6.6 157.8-7 194.5-43.7 47-47 42.5-245.2 42.5-245.2s44.6 1.7 78.4.3c11.7-.5 23.4-6.4 30.1-16 6.7-9.6 4.6-21.2 5.5-32.9 5.9-84.1-112.3-228.2-112.3-270.1z"/><path class="st2" d="M3310.5 3345.8S3572 3157.5 3572 3018c0-160.9-213.9-211.8-261.5-16-47.6-195.8-261.5-144.8-261.5 16 0 139.5 261.5 327.8 261.5 327.8z"/></g><g style="clip-path:url(#SVGID_00000132060982847931531370000011444586341187767948_)"><path class="st1" d="M4615.4 5528.8c85.9 0 28.6 57.3 200.5 57.3s343.6-343.6 343.6-572.7-143.2-400.9-315-400.9-171.8 57.3-229.1 57.3-57.3-57.3-229.1-57.3-315 171.8-315 400.9 171.8 572.7 343.6 572.7 114.6-57.3 200.5-57.3z"/><path class="st1" d="M4615.4 4669.7v-114.5c0-63-51.6-114.5-114.5-114.5h-114.5M4729.9 4526.5c142.3 0 257.7-115.4 257.7-257.7-142.3 0-257.7 115.4-257.7 257.7z"/></g><g style="clip-path:url(#SVGID_00000132060982847931531370000011444586341187767948_)"><path class="st2" d="M2667 1164.7h644.2M2667 1340.4h292.8v351.4H2667zM3135.5 1457.5h175.7M3076.9 1574.6h234.3M3076.9 1691.8h234.3M2667 1808.9h644.2M2667 1926h644.2M2667 2043.2h644.2M3604 1281.8h117.1v878.5c0 32.3-26.2 58.6-58.6 58.6-32.3 0-58.6-26.2-58.6-58.6V1076.8h-117.1V1194"/><path class="st2" d="M3662.6 2336H2667c-97 0-175.7-78.7-175.7-175.7V989h995.6v1171.3c0 97 78.7 175.7 175.7 175.7 97.1 0 175.7-78.7 175.7-175.7v-995.6H3604"/></g><g style="clip-path:url(#SVGID_00000132060982847931531370000011444586341187767948_)"><path class="st1" d="M3146.3 5172.9c208-6 167.8-192.3 221.8-278 57.3-90.8 180.1-118.6 270.9-61.2 294.4 185.6-169.4 625.3-492.7 339.2zM3684.9 4703.2l96.6 82.6"/><path class="st1" d="m3699.6 4888.4 642.6-811.8c-7.3-94.1 0-139.3-149.3-127.6L3608 4817.8"/></g><g style="clip-path:url(#SVGID_00000132060982847931531370000011444586341187767948_)"><path class="st2" d="M1879.4 348.1v196.2l-111.1 250-111.1-250v-749.9c0-61.3 49.7-111.1 111.1-111.1 61.4 0 111.1 49.8 111.1 111.1V237M1879.4-150.1h-222.2M1851.7 570.3H1685M2434.9-96.3l434 690.9-128.1 77.9-470.2-765.3M2806.7 632.5l95.2 160.6M2101.6-318.5c0-92.1 74.6-166.6 166.6-166.6s166.6 74.6 166.6 166.6v222.2h-333.3v-222.2z"/><path class="st2" d="M2098.4-97.4 1978.2 237h-321v111.1h444.4l173.6-440.9"/></g><g style="clip-path:url(#SVGID_00000132060982847931531370000011444586341187767948_)"><path class="st2" d="M4459.6-132.4h1280.1M5098.3-260.1v191.6M4906.7 570.2c0 141.2-114.3 255.5-255.5 255.5-141.1 0-255.5-114.3-255.5-255.5h511zM5803.6 570.2c0 141.2-114.4 255.5-255.5 255.5s-255.5-114.3-255.5-255.5h511zM4459.6 570.2l191.6-702.6 191.7 702.6M5356.5 570.2l191.6-702.6 191.6 702.6"/></g><g style="clip-path:url(#SVGID_00000132060982847931531370000011444586341187767948_)"><path class="st1" d="M-76.7 5363.6v139.6M-76.7 5678v139.7M151 5591.3H11.3M-163.5 5591.3h-139.6"/></g><g style="clip-path:url(#SVGID_00000132060982847931531370000011444586341187767948_)"><path class="st1" d="M5361.3 2897.6v139.6M5361.3 3212.1v139.6M5589 3125.3h-139.7M5274.5 3125.3h-139.6"/></g><g style="clip-path:url(#SVGID_00000132060982847931531370000011444586341187767948_)"><path class="st1" d="M2511.3 3246.6v139.6M2511.3 3561.1v139.6M2739 3474.3h-139.7M2424.5 3474.3h-139.6"/></g><g style="clip-path:url(#SVGID_00000132060982847931531370000011444586341187767948_)"><path class="st1" d="M2267.3 485.6v139.6M2267.3 800v139.7M2495 713.3h-139.7M2180.5 713.3h-139.6"/></g><path style="clip-path:url(#SVGID_00000132060982847931531370000011444586341187767948_);fill:none;stroke:#333;stroke-width:32;stroke-linecap:round;stroke-linejoin:round;stroke-miterlimit:10" d="m670.2 2532.1 177.7 60-177.7 60-60 177.7-60.1-177.7-177.6-60 177.6-60 60.1-177.7zM4561.2 1076.1l177.7 60-177.7 60-60 177.7-60.1-177.7-177.6-60 177.6-60 60.1-177.7zM3605.2 4167.1l177.7 60-177.7 60-60 177.7-60.1-177.7-177.6-60 177.6-60 60.1-177.7z"/><g style="clip-path:url(#SVGID_00000132060982847931531370000011444586341187767948_)"><path class="st2" d="M3355.7 6280h-63.2l-253.1 253.1V6280h-189.9v-759.3h1202.2V5932"/><path class="st2" d="M3545.5 6596.4h348.1l284.7 253.1v-253.1h126.5v-506.2h-759.3z"/></g><g style="clip-path:url(#SVGID_00000132060982847931531370000011444586341187767948_)"><path class="st1" d="M1033.6 6911.4c0 39.1-31.7 70.7-70.7 70.7H-26.2c-39 0-70.7-31.6-70.7-70.7v-565.3c0-39.1 31.7-70.7 70.7-70.7H963c39 0 70.7 31.6 70.7 70.7v565.3z"/><circle class="st1" cx="221.1" cy="6593.4" r="106"/><circle class="st1" cx="715.7" cy="6593.4" r="106"/><path class="st1" d="M221.1 6487.4h494.6M-167.6 6063.5H539c39 0 70.7 31.6 70.7 70.7v141.3M892.3 6275.4v-212c0-39.1 31.7-70.7 70.7-70.7h141.3"/><path class="st1" d="M1457.6 5992.8c0 39.1-31.7 70.7-70.7 70.7h-212c-39 0-70.7-31.6-70.7-70.7s31.7-70.7 70.7-70.7h212c39 .1 70.7 31.7 70.7 70.7zM1033.6 6522.7l371.3-154.7c11.7-4.9 25.1-3.6 35.7 3.5 10.5 7.1 16.9 19 16.9 31.7v451.1c0 12.7-6.4 24.6-16.9 31.7-10.6 7-24 8.4-35.7 3.5l-371.3-154.7"/></g><g style="clip-path:url(#SVGID_00000132060982847931531370000011444586341187767948_)"><path class="st2" d="M1879.4 6346.1v196.2l-111.1 250-111.1-250v-749.9c0-61.3 49.7-111.1 111.1-111.1 61.4 0 111.1 49.8 111.1 111.1V6235M1879.4 5847.9h-222.2M1851.7 6568.3H1685M2434.9 5901.7l434 690.9-128.1 77.9-470.2-765.3M2806.7 6630.5l95.2 160.6M2101.6 5679.5c0-92.1 74.6-166.6 166.6-166.6s166.6 74.6 166.6 166.6v222.2h-333.3v-222.2z"/><path class="st2" d="M2098.4 5900.6 1978.2 6235h-321v111.1h444.4l173.6-440.9"/></g><g style="clip-path:url(#SVGID_00000132060982847931531370000011444586341187767948_)"><path class="st2" d="M4459.6 5865.6h1280.1M5098.3 5737.9v191.6M4906.7 6568.2c0 141.2-114.3 255.5-255.5 255.5-141.1 0-255.5-114.3-255.5-255.5h511zM5803.6 6568.2c0 141.2-114.4 255.5-255.5 255.5s-255.5-114.3-255.5-255.5h511z"/><path class="st2" d="m4459.6 6568.2 191.6-702.6 191.7 702.6M5356.5 6568.2l191.6-702.6 191.6 702.6"/></g><g style="clip-path:url(#SVGID_00000132060982847931531370000011444586341187767948_)"><path class="st1" d="M5802.8 3843.5h-172.3v560.7L5294.1 4953c-60.1 98.1 10.4 224.1 125.5 224.1h383.3M5804.2 3843.5h172.3v560.7L6313 4953c60.1 98.1-10.4 224.1-125.5 224.1h-383.3"/><path class="st1" d="M6000.4 3843.7h-394.3c-25.8 0-46.6-20.9-46.6-46.6v0c0-25.8 20.9-46.6 46.6-46.6h394.3c25.8 0 46.6 20.9 46.6 46.6v0c0 25.7-20.9 46.6-46.6 46.6zM5843.5 3949.7h133.1M5843.5 4197.7h133.1M5777.8 4072.6h198.8M5450.9 4697.2h705.3"/><circle class="st1" cx="5584.9" cy="4926.9" r="61.5"/><circle class="st1" cx="6061.9" cy="5043.5" r="38.2"/><circle class="st1" cx="6004.6" cy="4865.4" r="86.9"/></g><g style="clip-path:url(#SVGID_00000132060982847931531370000011444586341187767948_)"><path class="st2" d="m6686.6 4254.3 136.2-396.9h-593.3l131.5 396.9zM6513.4 3857.4h0c53.7-130.7 134.5-248.5 237.1-345.6l115.6-86.4M5998 3022.8l13.9 14.2c227.4 231.7 399 512.3 501.5 820.4v0"/><path class="st2" d="M6315.7 3427.4c-8.9 8.6-14.9 19.7-21.1 30.4-23.5 40.1-53.7 77.9-94.5 100-64.1 34.7-146.8 23.9-207.5-16.4-115-76.3-160.4-216.4-179.1-347.2-21.1-148.1-11.6-314.7 46.3-454.4 79.7 50.8 145.9 108.8 236.5 143.6 88.3 34 183.3 47.3 260.2 105.8 69.8 53.1 122 130.2 140.4 216.3 23.2 108.5-46.8 163.7-140.1 199.5-14.2 5.4-28.8 10.9-39.9 21.2l-1.2 1.2zM6695.8 3611.4c5.7 5.5 9.5 12.6 13.5 19.4 15 25.6 34.3 49.7 60.4 63.8 40.9 22.1 93.7 15.3 132.5-10.5 73.4-48.7 102.4-138.2 114.3-221.7 13.5-94.6 7.4-200.9-29.6-290.1-50.9 32.5-93.2 69.4-151 91.7-56.4 21.7-117 30.2-166.2 67.6-44.5 33.9-77.9 83.1-89.7 138.1-14.8 69.3 29.9 104.5 89.5 127.4 9 3.5 18.4 7 25.5 13.6.3.2.5.4.8.7z"/></g><g style="clip-path:url(#SVGID_00000132060982847931531370000011444586341187767948_)"><path class="st2" d="M5911 2542.5c0 33.7-27.3 61-61 61h-366.2c-33.7 0-61-27.3-61-61V1260.9c0-33.7 27.3-61 61-61H5850c33.7 0 61 27.4 61 61v1281.6z"/><path class="st2" d="M5900.9 1215.2c12.5-4 26.4-4 39.8 1l343.3 127.2c31.6 11.7 47.7 46.8 36 78.4l-405.3 1093.4"/><path class="st2" d="M6324.9 1375.4c13.7.3 27.3 5.1 38.4 14.7l277.7 238.6c25.6 22 28.5 60.5 6.5 86.1L5886.8 2592M5544.9 1321.9H5789V1566h-244.1zM5544.9 1688.1H5789v244.1h-244.1zM5544.9 2054.3H5789v244.1h-244.1z"/><circle class="st2" cx="5666.9" cy="2450.9" r="61"/></g><g style="clip-path:url(#SVGID_00000132060982847931531370000011444586341187767948_)"><path class="st1" d="M7031.6 913.4c0 39.1-31.7 70.7-70.7 70.7h-989.2c-39 0-70.7-31.6-70.7-70.7V348.1c0-39.1 31.7-70.7 70.7-70.7H6961c39 0 70.7 31.6 70.7 70.7v565.3z"/><circle class="st1" cx="6219.1" cy="595.4" r="106"/><circle class="st1" cx="6713.7" cy="595.4" r="106"/><path class="st1" d="M6219.1 489.4h494.6M5830.4 65.5H6537c39 0 70.7 31.6 70.7 70.7v141.3M6890.3 277.4v-212c0-39.1 31.7-70.7 70.7-70.7h141.3"/><path class="st1" d="M7455.6-5.2c0 39.1-31.7 70.7-70.7 70.7h-212c-39 0-70.7-31.6-70.7-70.7s31.7-70.7 70.7-70.7h212c39 .1 70.7 31.7 70.7 70.7zM7031.6 524.7 7402.9 370c11.7-4.9 25.1-3.6 35.7 3.5 10.5 7.1 16.9 19 16.9 31.7v451.1c0 12.7-6.4 24.6-16.9 31.7-10.6 7-24 8.4-35.7 3.5l-371.3-154.7"/></g><g style="clip-path:url(#SVGID_00000132060982847931531370000011444586341187767948_)"><path class="st1" d="M5921.3 5363.6v139.6M5921.3 5678v139.7M6149 5591.3h-139.7M5834.5 5591.3h-139.6"/></g><g style="clip-path:url(#SVGID_00000132060982847931531370000011444586341187767948_)"><path class="st1" d="M7031.6 6911.4c0 39.1-31.7 70.7-70.7 70.7h-989.2c-39 0-70.7-31.6-70.7-70.7v-565.3c0-39.1 31.7-70.7 70.7-70.7H6961c39 0 70.7 31.6 70.7 70.7v565.3z"/><circle class="st1" cx="6219.1" cy="6593.4" r="106"/><circle class="st1" cx="6713.7" cy="6593.4" r="106"/><path class="st1" d="M6219.1 6487.4h494.6M5830.4 6063.5H6537c39 0 70.7 31.6 70.7 70.7v141.3M6890.3 6275.4v-212c0-39.1 31.7-70.7 70.7-70.7h141.3"/><path class="st1" d="M7455.6 5992.8c0 39.1-31.7 70.7-70.7 70.7h-212c-39 0-70.7-31.6-70.7-70.7s31.7-70.7 70.7-70.7h212c39 .1 70.7 31.7 70.7 70.7zM7031.6 6522.7l371.3-154.7c11.7-4.9 25.1-3.6 35.7 3.5 10.5 7.1 16.9 19 16.9 31.7v451.1c0 12.7-6.4 24.6-16.9 31.7-10.6 7-24 8.4-35.7 3.5l-371.3-154.7"/></g></svg>
