<svg xmlns="http://www.w3.org/2000/svg" width="180" height="142"><path fill="#c7c8ca" d="M179.9 116h-.2v.2c-.2 0-.3 0-.4.1l.101.3c-.2.2-.7 1.101-1 1-.5-.199.1-.5 0-.8-.2-.2-.7-.3-.801-.6.101-.101.301-.2.4-.2v-.4l.1-.199-.1-.2v-.201l-.3-.4c0-.1 0-.199-.101-.199l-.199-.101c0 .101.1.2.1.2l-.4-.6c0-.101 0-.2-.1-.2l-.2-.3h.2c0 .199 0 .199.1.3.101-.101.301.1.4.1 0 .101 0 .101.1.101l.101-.101c0 .101.1.101.1.3v.101h-.1c.1.1.2.2.2.3h-.101l.101.2h-.101v.1s.101 0 .101.101v.1h.199v.1l.2.101c0-.101-.1-.2 0-.3.2.1.2.3.3.5.2.1.4.3.7.199l.5-.199.101.1c.099.197-.001.397-.001.497zm-2.6 1.7l.2-.2h.2c0 .1 0 .1.1.2v.1l.101.2-.5.6-.401.3.3.199c-.1 0-.1 0-.2.101l-.1-.1c-.2.101-.4.2-.5.301-.1 0-.1-.101-.2 0l.101.199v.301h-.301l.2.1-.2.6-.6.5c-.4 0-.6-.1-.9-.199v-.102h-.1c-.1.101-.3.101-.4-.1h.101v-.1h.1l-.1-.1c.1 0 .1 0 .2.1l-.101-.2c.101 0 .2.1.2 0 0 0-.1-.101-.1-.2l.399-.3v-.1l.5-.3.5-.3c0-.101 0-.101.101-.2l.3-.1c.1 0 .399-.301.399-.4v-.3c.101 0 .301-.101.301-.2l.1-.4.1-.199c0-.101 0 .099.2.299zm-88.7-58c-.1.1-.2.2-.3.2l-.1-.2h-.3c-.2-.3 0-.3.1-.5 0 .1.1.2.2.2 0-.1 0-.2.1-.3h.2c0 .2 0 .3-.1.4.1.1.2.1.2.2zm-1.1-1.3h-.7c0 .2-.1.2-.2.3l-.1-.1c0-.1.1-.2.2-.2h.4l.3-.3.3-.1v-.1h.1c-.1.1-.1.2 0 .4-.3 0-.3 0-.3.1zm86.7-6.1l-.101.1c-.199.1-.5.1-.699 0 0-.1 0-.1-.101-.2h-.1v-.1c-.101.1-.2.1-.4.1 0-.1-.1-.1-.2-.1l.101.2s-.101 0-.101.1l.301.1.1-.1h.2c.1.2 0 .3.2.3.1 0 .199 0 .199-.1 0 0 0 .1-.1.1.1 0 .1 0 .2-.1l.1.4-.1.2c.2 0 .2.2.399.3v.2h.2c0 .5-.3.4-.7.3-.1 0-.3 0-.399-.1v-.1h-.199l-.1.2-.7.3c-.101 0-.2 0-.3.1l-.301.2h-.3c-.1.1-.1.2-.2.2h-.199c-.101.1-.2.3-.301.3l-.399.1-.101.2-.399.1c0 .1 0 .2-.101.2l-.1.1h-.1c-.2-.1-.2-.3-.301-.4-.199-.1-.899 0-1.1.1s-.4.3-.5.4l-.1-.1.1-.4h-.2l-.399.3v.2c-.101 0-.101 0-.2.1l-.2-.3c-.1.1-.2.1-.2.2-.2 0-.3.2-.399.3l.1.2c-.1.1-.2.1-.2.2l.101.1c-.2.3-.5.3-.601.8.2.1.4.1.7.2v.1c-.1.2-.3.2-.3.4l.1.3h.2c0 .1.1.2 0 .3 0 .1-.2.2-.2.1 0 0-.1 0-.1-.1l.1-.2h-.1c-.2.1-.601.6-.4 1 0 .1.101.1.2.2-.2.4-.3.1-.7.2-.2 0-.5.3-.5.6l.101.1v.1c-.301.1-.5.2-.7.3v.4c-.101.2-.601.8-.9.8l-.2-.6v-.3c-.1-.1-.1-.2-.199-.4l-.2-.9c-.101-.4-.2-.8-.101-1.2v-.3l.5-.5.2-.3c0-.1 0-.1-.1-.2.5-.1 1-.4 1.3-.8l.2-.3.899-.7c.101-.1.101-.2.101-.3.2-.2.6-.2.8-.3 0 0 .2-.4.3-.4l-.1-.1.2-.3v-.3c.199-.1.399-.1.599-.1l-.1-.1-.5-.1-.6.2-.1.6c-.101 0-.2.1-.2.1-.3.2-.8.8-1.1.7l.1-.3h-.2v-.1c.101-.2.3-.3.2-.5-.2 0-.3.1-.5.2-.1-.4-1.2 0-1.4.1v.2c-.1 0-.3.2-.3.3v.2c-.2.1-1.1.5-.899.9.1.1.3.1.399.1 0 0 0 .1.101.1l-.5.1c-.2 0-.4-.1-.5-.1l-.2.2-.101-.1c-.199.1-.399.3-.6.1l.4-.2c-.101-.2-.301-.3-.601-.3-.1 0-.1 0-.2.1-.1-.1-.199-.1-.199-.2-.2 0-.4 0-.5.1v.2l-.101.1-.3-.1h-.4c-.199 0-.399-.1-.5 0 0 .1 0 .1-.1.2-.3 0-.2-.1-.3-.3-.4 0-1.101 0-1.4.1-.2.1-.399.2-.5.4l-.1.2-.4.2c-.1.1-.2.3-.2.4l-.6.4-.9.8-.3.3c-.2.2-.8.3-.8.7l.1.1h.7l-.1.5c.2 0 .3-.2.5-.1 0 .1-.101.1-.101.1v.1c.301 0 .601 0 .7-.2v-.2l.7.1c.199.1.4.5.699.6l-.1.2s.1 0 .1.1 0 .2-.1.3c.1 0 .1 0 .2.1-.2.3-.399.6-.5 1l.101.3-.201 1.1-.5.5-.1.3-.3.3s-.101.3-.2.4l-.699.8c-.201.2-.201.3-.5.5-.201.1-.201.3-.301.4-.199.2-.4.3-.699.4l-.4.1s0-.1-.1-.1c-.201-.1-.201 0-.301-.2l-.3.1.101-.1h-.098c-.101 0-.899.9-1 1 0 .1 0 .5-.101.6h-.199l-.301.3c-.199.2-.399 0-.6.4 0 .1-.1.1 0 .2s.301.2.4.3c.199.2.4.5.5.8l.1.9h.1c-.1.199-.1.399-.299.5h-.201c-.1 0-.1.1-.199.199l-.2-.1c-.2 0-.3.2-.5.3-.101 0-.101 0-.2.101 0-.2-.1-.4-.1-.5l.199-.5-.1-.2v-.2h-.199l.199-.1s.1 0 .2.1c0-.2-.2-.4-.3-.5l-.2.1c0-.1-.101-.2-.2-.2l-.199.2c0-.2-.201-.3-.301-.4.1-.2.2-.2.301-.3l-.101-.1.101-.4c-.101-.2-.4 0-.601-.3l-.399.1c-.201.1-.5.2-.701.4-.1.1-.199.3-.399.2l.3-.3h-.2v-.1c.199-.2.299-.3.399-.5 0-.2-.3-.3-.601-.3l-.399.5c-.101.1-.3.1-.399.1l-.201.4h-.199l-.1.1-.1-.2h-.101c-.1.1-.199.3-.199.4s.1.1.1.2c.1.2.5.1.7.2 0 .2-.101.4 0 .5h.3c.2-.1.301-.4.6-.4.101 0 .201.2.4.2h.5l-.1.3c-.301-.1-.7 0-.9.2v.2h-.1s0-.1-.1-.1h-.1l-.399.8c.199.1.5.3.6.5l.1.3.2.2v.3l.199.1.1.199c.1.101.2.101.2.2v.101l-.2.1c.1.1.2.2.2.4-.2.1-.7.199-.8.399.199.101.3-.1.6-.1.1.1.1.2.301.2l-.201.199h.101c0 .101-.2.601-.3.7 0 0-.1 0-.1-.1-.101.2-.4.8-.5.8-.101 0-.201 0-.201.1 0 .101.101.4 0 .601l-.2.101-.1.3s-.201.2-.301.2-.199-.1-.199 0v.3l-.201.2c-.199.101-.399.101-.5.3v.2c-.199 0-.299 0-.299.2-.101 0-.201-.1-.201-.1-.099.1-.199.2-.399.2v-.1c-.399 0-.3.2-.5-.1 0 .199 0 .3-.2.399h-.1c0 .101 0 .101-.1.2-.101 0-.201 0-.301.1h-.199c-.101 0-.101.101-.101.101h-.2l-.3.1h-.101l-.1.2.2.2v.1l-.3.101-.2-.301c0-.199.101-.199.101-.3h-.099l-.101.101c-.199 0-.299-.101-.399-.2 0 .1 0 .1-.101.1h-.199c-.1.101-.2.101-.2.2s0 .1-.101.2h-.299c0 .3-.301.3-.4.5-.1.1-.2.399-.2.6l.399.4.101.3s.2.1.3.2c.1.1.2.2.301.399l.199.1c0 .1 0 .2.1.3.101.1.201.2.201.3.1.4.199.8.299 1.101l-.1.199v.5c-.1.301-.4.2-.5.4-.199.2-.3.4-.6.1 0 .2 0 .5-.1.601h-.1s-.101.1-.101.2c-.1 0-.199.1-.199.1-.2.1-.1.3-.4.3 0-.2 0-.6.1-.7 0-.1 0-.1-.1-.1l-.4-.2h-.4c.101-.1.101-.1 0-.3-.101 0-.101.1-.3.1l-.2-.6c-.101 0-.101 0-.2-.1l-.199-.2c-.101-.101-.201 0-.301 0s-.1-.101-.2-.101v-.4c-.301 0-.4 0-.5.1.1.2 0 .2 0 .4v.3c-.101.3-.601 1-.301 1.5h.301c0 .1 0 .3.1.4h.1c.1.5 0 .899.7.899.101.101.2.3.3.3h.1l.3.401.199.2v1c0 .2.201.2.201.3l.199.4h-.4c-.199-.2-.399-.301-.6-.4-.1-.1-.199-.1-.4-.2l-.199-.4-.2-.2c-.101-.101 0-.2 0-.3 0-.101-.101-.2-.101-.2-.1-.3-.1-.5-.1-.8-.1 0-.199.1-.199 0h-.1c0-.2 0-.2-.101-.301h-.1c-.1-.199-.199-.3-.4-.5 0 0-.1 0-.1.101-.1-.3.1-.7.2-1 0 0-.101 0-.101-.101-.1-.1.101-.6.201-.699h-.099c0-.2.101-.5 0-.801l-.399-.8c0-.3-.101-.6-.101-1-.2-.1-.2-.399-.3-.5-.1.5-.2.4-.5.601-.1.1-.1.3-.301.199v-.1c-.1 0-.1 0-.1.1l-.1-.1v-.1l-.301.1s-.1 0-.1-.1l.2-.601c0-.399-.101-.8-.3-1 0 0 0 .101-.1.101l-.201-.101h.201c0-.1-.101-.3-.201-.399h-.197v-.099h-.1c-.4-.1-.301-1-.601-1.2-.101 0-.101.101-.3.101l-.2-.2v.1l.101.299c-.101 0-.101 0-.201.199h-.1l-.1-.199c0 .1 0 .199-.1.199h-.099v-.1s0 .1-.101.1c0 0-.1 0-.1-.1v.1h-.199c0-.1 0-.199-.101-.199l-.101.199h-.1c0-.1 0-.1-.1-.199l-.2.199-.5.2c0 .101 0 .2.101.2-.101.2-.201.4-.4.5l-.5.2-.5.6c-.1.101-.1.101-.2.101l-.3.3-.301.2-.198.4-.4.101c0 .1-.1.199-.199.3-.101-.101-.201 0-.301 0 0 .1-.1.2-.1.2v.8c.3.3-.1.8-.2 1.2 0 .199.101.399 0 .6h-.3l-.1.4.1.099-.4.1-.1.301c-.1.1-.301.199-.4.199l-.3-.3-.2-.6-.4-.9-.2-.3-.1-.4c-.101-.3-.201-.6-.301-.8-.199-.399-.4-.7-.5-1.2l-.199-1.1-.101-.8.2-.3-.2-.301c0-.1-.101-.399 0-.5h-.2v.2c.2.3-.199.4-.4.5l-.199.101c-.2 0-.9-.7-1-.9.3-.1.4.1.6-.1.1-.101.1-.101.1-.2-.399.1-.899-.101-1-.3l-.199-.2-.301-.101c0-.1-.1-.199-.1-.399-.1 0-.199 0-.199-.101 0-.199 0-.3-.101-.399-.2 0-1.101.3-1.2 0-.199 0-.199.1-.3.1h-.5s-.399.101-.601.101l-.399-.101h-.8l-.1-.1h-.4s-.2-.101-.301-.101c0-.199-.1-.199-.199-.399 0-.101 0-.2-.1-.3-.101 0-.101 0-.201-.101-.199-.1-.399 0-.6.101l-.3.3c-.2 0-.2-.101-.3-.2l-.6-.2c-.101-.1-.201-.2-.201-.3-.199-.1-.399-.1-.5-.3-.1-.101-.299-.4-.299-.601v-.199c-.101-.101-.201-.2-.301-.4-.1.1-.4.1-.4-.1v-.2l-.198.3c-.1 0-.4 0-.4.1v.2h-.1l-.1.101h.299c.101.3.201.6.4 1h.2v.099c.101.2.3.2.399.3 0 .101 0 .101-.1.101 0 0 0 .1.1.1-.1.2 0 .2 0 .4.101 0 .101 0 .101.1 0 .2.101.4.2.5.1 0 .1 0 .1-.2-.1-.2 0-.6.1-.7h.101c0 .101.101.101.101.101v.5c0 .2-.201.2-.101.399.101 0 .101 0 .101.101h.399l.1-.102c.1.101.699.101.799 0v-.1h.201c0-.1.1-.1.1-.1 0-.101.1-.2.1-.2.2-.2.4-.3.5-.5.1-.101.2-.2.2-.3 0 .199 0 .3-.101.399h.101v.4s.2.3.399.399l.5.301h.301l.3.399c.101.101.3.101.3.2-.1.2-.199.3-.3.4-.101.1-.2.1-.2.199l-.199.4h-.301c-.1.2 0 .5 0 .7-.3 0-.5.1-.6.3 0 .1 0 .2-.1.2l-.5.1c-.201.101-.101.3-.201.4l-.1.1h-.4l-.6.2-.4.3-.1.3c-.4.2-.9.2-1.4.5-.1.101-.1.2-.299.301-.101.1-.301 0-.4 0l-.6.3h-.5c-.101.1-.201.2-.301.2-.3.199-.8.3-1-.101v-.397l-.3-.9c0-.1 0-.2.101-.2 0-.1 0-.2-.101-.399-.101-.2-.3-.5-.399-.601l-.201-.1c-.199-.3-.299-.601-.5-1l-.5-.4-.299-.4-.1-.8-.3-.6-.6-.4c.1-.3-.101-.5-.301-.699l-.5-.801c-.1-.1-.199-.199-.199-.3h-.201c0-.2.101-.5.201-.7 0 0-.101 0-.101-.1l-.399-1c.199-.1.199-.4.299-.6v-.2c.201-.3.301-.8.5-1l-.1-.601.1-.3-.1-.2c.1-.1.2-.1.2-.2v-.1s0-.1-.101-.1l-.198.201-.5-.1c-.1.1-.2.1-.301.3-.1 0-.399.101-.699.101-.2 0-.2-.2-.4-.3-.199-.1-.4-.2-.699-.1l-.101.399h-.101c-.1-.101-.299 0-.5 0l-.1-.3-.1.1c-.1 0-.1-.1-.301-.1l-.1.1v-.1c0-.1 0-.1.1-.1h-.398v-.1s.101 0 .101-.1l-.202-.1v-.3l-.399-.1v-.1s0-.1.101-.1l.199.1v-.1l-.1-.1c.1 0 .1 0 .199-.1h-.1v-.1s0-.1-.1-.1l.1-.1s.1 0 .1-.1c-.199 0-.299 0-.5.1 0-.1 0-.2.101-.3.101 0 .101 0 .101-.1.1-.1.299-.2.399-.2 0 .1.2.1.3.1h.1l-.1.1h.5v-.1c.2 0 .4 0 .5-.1h-.3l-.101-.2s0-.1.101-.1h.6c.199 0 .299.2.6 0v-.1l.9-.4c.399-.1.6.1 1-.1l.199.3c.1 0 .301-.1.301 0l.2.3c.2-.1.301.1.5.1l.7.1.3-.1.6.1c.4-.1.701-.3.601-.8l-.101-.3c-.1-.2-.5-.2-.699-.4v-.1l-.301-.2-.5-.4c-.1 0-.199 0-.199-.1-.1 0-.1-.1-.2-.2h-.2l-.3-.3c.101 0 .3 0 .399-.1 0-.2.101-.3.201-.4.1 0 .199 0 .199-.1l-.3-.3v-.1c.3 0 .601-.1.7-.3 0 0 0-.1-.1-.1l-.5.1h-.4l-.1.1c-.201 0-.4.1-.701.1l-.199.1h-.1s-.101 0-.101-.1c0 .1-.101.2-.101.2h-.5c.201.1.5.3.601.5.2 0 .3-.1.399-.1h.301l-.1.2h-.201c-.1 0-.1-.1-.199 0l-.2.1h-.3c-.301.1-.1.2-.6.2.199-.5-.101-.4-.4-.5l.6-.3s0-.1-.1-.1c-.301 0-.6.1-.801-.2l.101-.1-.101-.1v.1c-.699 0-.5.3-.899.5-.101.1-.3.1-.3.2l.1.1-.099.3c-.4 0-.4.3-.5.7v.2s-.2 0-.2.1-.101.2-.101.4l-.199.1v.1c.199 0 .3.4.5.5l.4.2-.1.2c-.3 0-.2-.1-.5 0h-.3l-.1.2-.3.1c-.1.1-.1.2-.199.2v-.2l.199-.1c-.1 0-.199 0-.3-.1l-.5-.2c-.101 0-.101.1-.3.1 0-.1 0-.1-.1-.1-.201.2-.101.1-.4.1.1.2.199.2.3.3l-.101-.1c0-.1-.1-.1-.1-.1h-.099l.1.2h-.1c0-.1-.1-.2-.301-.2 0 .1.101.1.201.2h-.201c0-.2-.199-.2-.299-.3h.1c0 .1-.1.1-.1.1l.1.1s-.1.1-.1.2c.1.2.299.4.399.5h-.101c0 .1 0 .1.101.2l-.199.1c.1 0 .7.3.7.4s0 .1.101.2l-.101.1c0-.1-.101-.2-.2-.2l-.2.1c-1.9.4-1.9.4-1.8.5h.1v.1c-.1 0-.1 0-.1.1h-.1v-.1c-.1 0-.1 0-.2-.1v.1c.101.2.2.3.2.5-.1 0-.1-.101-.2 0 0 0 0 .1-.101.1 0-.1-.1-.3-.199-.2l-.1.1-.1-.1v-.3c-.101-.1-.101-.2-.2-.2l.1-.2.301-.1c.199 0 .4.3.6.1-.199 0-.3-.1-.4-.2-.199-.1-.399 0-.6 0l-.201-.3c.1 0 .1 0 .199-.1-.199 0-.4-.1-.5-.3v-.2c-.1-.1-.3-.1-.3-.3h.101c0-.1 0-.1-.101-.2l.101-.2v-.4c.1 0 .1 0 .1-.1l-.2-.1-.2-.2c-.2-.2-.5-.3-.7-.4l-.201-.2-.299-.1c-.101 0-.101.1-.201 0-.1-.2-.299-.3-.5-.5h.2c-.5-.1-.2-.5-.6-.7 0 .1-.1.2-.1.2-.1 0-.1.1-.1.1l-.2-.4c.1 0 .1 0 .1-.1 0 0 0-.1-.1-.1h-.3v.1c-.2 0-.4.1-.4.1v.1h.1c0 .1 0 .1.1.2 0 .1-.1.1-.1.1.1.4.2.4.5.6.1 0 .2.1.2.1.1.1.1.3.1.4.1.2.3.4.4.5.2.2.6 0 .699.1v.1l-.198.1.1.1c.5.1 1 .4 1.301.8 0 .1-.101.2-.101.2l-.2-.1v-.1c-.1-.1-.4 0-.4-.2-.2 0-.3.3-.3.5l.299.2v.2l-.1.1c-.199 0-.199 0-.3.1v.2c-.101 0-.2.2-.3.3h-.2v-.1c.1-.1.1-.1.1-.2l.1-.1h.1c0-.1-.2-.8-.3-.8h-.1c-.1 0-.2-.1-.2-.1v-.2l-.1-.1c-.1 0-.1 0-.2.1h.1s0-.1-.1-.1h-.2c-.1-.4-.3-.3-.6-.4l-.899-.7-.7-1.1c-.3-.1-.5-.1-.8 0l-.1.1c-.1 0-.2 0-.2.1-.3.2-.4.4-.8.5-.2 0-.3-.2-.4-.2h-.2c-.3 0-.3-.2-.6 0-.4.3 0 .5-.2.9-.1.1-.4.1-.5.3 0 0 0 .1-.1.1-.2.1-.5 0-.7.3l.1.1c-.2.1-.6.5-.6.8l.1.3.2.1c-.2.1-.5.3-.5.6v.1c-.2 0-.4 0-.5.2l-.2.3-.1-.1-.2.1h-.9l-.2.1c-.2.101-.3 0-.3.2-.2.1-.4-.1-.4-.3h-.1c0-.2-.2-.4-.5-.3-.1 0-.2.1-.2.1h-.2c-.2 0-.3 0-.4.1l.1-.3v-.3c0-.1 0-.2.1-.3h-.2v-.1c.1 0 .1 0 .2-.1v-.1c0 .1-.1.1-.1.1-.1 0-.1 0-.1-.1s.1-.2.1-.4c.3-.2.4-1.1.2-1.5 0-.1.1-.4.1-.4 0-.1-.1-.2-.3-.3v-.1c.1-.1.2-.2.3-.2h.1c0-.1 0-.1.1-.2.2-.1.4 0 .6.1l.5-.1s.5.1.6.1c.3 0 .8.1.9-.1.2.1.4.2.7.1.1-.2.2-.5.2-.7h.1v-.1h-.1c0-.2 0-.4.1-.5l.2.2c0-.2-.1-.2-.2-.4 0-.1.1-.2.1-.2-.1-.3-.1-.1-.3-.3l-.2-.3s0-.1.1-.1l-.3-.2s0-.1.1-.1h-.2c-.2-.2-.5-.2-.8-.2v-.1s-.1 0-.2-.1h.1c.1 0 .1 0 .1-.1h-.2v-.1c.2 0 .3-.1.4-.1h.2v-.1h.2l.1.2.5-.1v.1h.2c-.1-.1 0-.2 0-.3-.1-.1-.2-.2-.2-.3h.4v.2c.3-.1.5.1.8-.1h-.1v-.1c.1-.2.4-.1.6-.3.2-.1.1-.4.2-.6.1 0 .2-.1.2-.1h.2l.3-.2h.4c0-.1-.1-.1-.1-.1l.4-.3.2-.5h.2l.1.1v.1h-.1v.2c.1 0 .2.1.3 0 .1-.1.1-.1.1-.2h-.1v-.1h-.1v-.3c.2-.1.5-.2.7-.1 0 .1.1.1.1.1s-.1 0-.1-.1v-.1c.1-.1.3-.1.5-.1v.1c.1 0 .1 0 .2.1-.1-.1 0-.1 0-.2h.3s-.1 0-.1-.1v-.1h.1l-.1-.1.1-.1h-.2c.1 0 .1 0 .2-.1 0-.1-.1-.2-.2-.3v-.4c-.1 0-.1 0-.1-.1v.1h-.1l.1-.2c0-.2-.2-.3 0-.5.1 0 .2.1.2.1l.2-.2c0 .1 0 .1.1.2h.1v-.3h.4c0 .1 0 .2.1.3h.3s0 .2-.1.3h-.1s0-.1-.1-.1c0 0-.1 0-.1.1.1.2-.1.2-.1.3h-.1v.1c-.1.1-.1.2-.2.4.1 0 .3.2.2.4.1 0 .1 0 .1.1h.5v.1l-.2.2h.2v.1h.1c.1-.1.7-.4.8-.3.1.2.2.1.4.2v.2c.1 0 .2.1.4.1v-.3c.6 0 1-.3 1.5-.5.1 0 .5-.1.5 0s.1.1.1.2c.301.1.5-.1.701-.2v-.3c.199 0 .5.1.6 0v-.2h.1c-.1-.1-.199-.8-.1-1l.199-.1v-.2l.201-.2.5-.1v.1c.1.1.199.1.199.2l.1.2c.201.2.5.1.601-.1-.101-.3 0-.5.101-.8h-.102l-.101.1-.199-.1v-.3h-.1c0-.1 0-.2-.101-.3.101 0 .101 0 0-.1.2 0 .3-.1.5-.2h.2v-.1c.1 0 .199 0 .3.1l.101-.1c.1.1.199 0 .399 0l.8.1c.1 0 .2-.1.2-.1l-.101-.2v-.1h.102s.101.1.101 0v-.1h.199c.1-.1.1-.2.2-.2s.2.1.399.1c0 0 .101 0 .101-.1-.3-.5-.601 0-.899-.4 0-.1.1-.2 0-.2v.1c-.201 0-.4.1-.5.2 0 0-.101 0-.101-.1-.101 0-.101 0-.101.1-.1 0-.1 0-.199-.1v-.1c0 .1 0 .1-.1.2l-.3.1-.1-.1c0 .1-.2.1-.301.2-.1 0-.199.1-.299.2h-.201c-.1 0-.299.2-.399.1-.101 0-.101-.1-.101-.2 0 0 0-.1.101-.1-.101 0-.2 0-.3.1v-.1c-.1 0-.2 0-.301-.1-.199-.1-.299-.3-.199-.7v-.2l-.2-.3c0-.1.101-.2.101-.4 0 0-.101-.1-.201-.1.1-.2.1-.3.3-.4v-.1h.3c.3-.1.101-.3.3-.5 0 0 0 .1.1.1h.1c.101-.2.899-1 1.101-1h.199v-.1l-.1-.1c0-.1.1-.2 0-.3 0 0 0-.1-.1-.1-.301 0-.301-.1-.5-.2-.101 0-.5.1-.5.1l-.3-.2-.4.4c-.1.1-.199 0-.299.2l.1.2s-.2.2-.301.2l.201.2c-.9-.1-.9.1-1 .2-.201.1-.4.2-.5.4l-.101-.1c-.101.1-.101.2-.2.2-.199.1-.3.1-.4.3h-.2v.2l-.1.1c-.101 0-.101 0-.201-.1 0 .3.101.3 0 .6h-.1c0 .2.1.6 0 .7.1 0 .2.1.2.1h.101c.1.2.199.3.399.4 0 .1.101.1.101.3h-.1c0 .1-.399.3-.5.3-.101-.1-.601-.2-.601-.1v.1c.201-.1.301.1.5.2.201 0 .301-.2.5-.1v-.1h.101v.1h-.101v.1c-.1 0-.199.1-.199.2h-.1v-.2c-.201.1 0 .3-.301.3v.1h-.3c0 .1.3.4.101.6h-.1v.1h.1v.2s-.101.1-.101.2v.2l-.299.6-.1-.1h-.4v.1h-.1l-.2.2c0 .1.1.1 0 .2l-.1.1c-.2-.1-.4.1-.7 0l.1-.2c-.1-.1-.2-.2-.3-.4 0 0 .1 0 .1-.1v-.1h.1v-.1c-.2-.2-.3-.3-.4-.6h-.1c0-.2-.1-.3-.1-.4s.1-.2.1-.3h-.2v-.1h-.1c0-.1 0-.4-.1-.4l.1-.2c-.2.1-.2 0-.3-.2v-.2s-.1 0-.1.1c0 .2 0 .3-.1.4-.1.1-.2 0-.2 0-.1 0-.1.1-.2.2l-.6.5c-.1.1-.5.1-.6.1 0-.1 0-.1-.1-.1l-.1.1h-.1l.1-.1c-.2 0-.3-.1-.5-.2l-.1-.2s.1-.1 0-.2h.1v.1c0-.1.1 0 .2 0 0 0 0-.1.1-.1h-.2v-.1l.2-.1h-.2c0-.1.1-.1.1-.1l-.1.1c0-.1 0-.1-.1-.1v.1h-.3v-.2s.1-.1.1-.2h.1c.1 0 .2 0 .2-.1l-.2.1s-.1 0-.1-.1v-.1c.1 0 .1-.1.1-.2-.2 0-.3.1-.4-.1.1-.1.2-.1.2-.2l-.1-.1h-.2v-.1c0-.1.1-.2.2-.2-.1 0-.1-.1-.2-.2l.1-.4h.3l-.2-.1v-.1c.2-.1.3-.2.4-.1l.2-.2c.2 0 .4.1.5 0-.1 0-.2-.1-.3-.2l.1-.1c.2 0 .4 0 .6.1 0-.2.3-.5.4-.4 0 0 .1 0 .1.1l.3-.3v-.2c.1-.2.4-.4.5-.5.1 0 .2.1.3 0v-.1c.1-.1.2-.3.4-.4h.2v-.2h-.1c.1-.2.1-.4.4-.4v-.2h.2c0-.2-.1-.2-.1-.3s.1-.1.1-.2h.3l-.1-.2.5-.2c-.1 0-.1 0-.1-.1.1 0 .1-.1.2-.2.1 0 .2 0 .2.1 0-.1.1-.1.2-.1v-.1c-.1 0-.1-.1-.1-.1l.2-.2c0 .1.1.1.2.2l.1-.1c0-.1 0-.2-.1-.2.1 0 .2 0 .301-.1l-.101-.1.101-.1.299-.3c.201-.2.301.1.4-.4l.1.1c.201-.1.301 0 .5.1.101-.1.201-.5.301-.5v.1l-.1.3c.1-.1.199-.2.299-.4.201 0 .301-.1.4-.2l.2.2c.2-.6.3-.3.7-.1 0-.2.199-.4.3-.5h.2c.3-.2.3-.4.8-.4-.2.2-.399.3-.399.7h.099c.1-.3.4-.6.699-.8v.5c.201-.1.4-.3.4-.5.1 0 .301-.1.4 0-.1.2-.2.3-.2.5h.2c0-.2.1-.4.3-.5l.5.3h.3l.1.1v.1c-.199.2-.6.2-1 .2l.5.4c.301 0 .4-.1.601 0 .101 0 .2 0 .2-.1l.3-.2c0 .4.3.4.601.5v.2l.199-.1c.301 0 .6 0 1 .1l.6.2c.101 0 .201.1.4.1.2.2.4.4.6.5.201.1.4.1.701.2l.6.3c0 .2 0 .3.1.4 0 .3-.199.5-.4.6-.899.7-2.299 0-3.199-.2-.1 0-.2 0-.4-.1-.199-.1-.199-.4-.6-.2l.6.6.5.2c.2.2.1.5-.1.5 0 .1.3.9.4.9l.5.1c0 .1.1.2.1.2l.4.1c.299.1.699.1.5-.4h-.302c-.1 0-.3-.3-.3-.4.101-.1.101-.2.3-.2.301.2.7.4 1.1.5h.4c.1 0 .1 0 .2.1.2-.3-.2-.5-.2-.8.301-.4.9-.3 1.2-.8.399 0 .7.3 1 .3v-.2c.101-.3.2-.3.101-.7-.101 0-.201-.1-.301-.2l.301-.4c.1-.3-.201-.3-.201-.6.101 0 .201 0 .4.1h.5c.2 0 .4.5.5.7-.4 0-.8 0-.9.4.4.3.5.6 1.101.4.101 0 .2 0 .3-.1.2-.1.1-.5.2-.6l.3-.1c.4-.1.801-.3 1.2-.5l.7-.3c0 .1 0 .1.1.2.4-.1.1-.4.7-.4v.4h-.2v.2c.301.1.301 0 .7 0 0 .1 0 .1.101.1.1-.1.1-.3.299-.4.101-.1.5-.1.601-.1s.2.1.399.1l.201-.2c.299-.2.5-.2.799-.1l-.199.2c0 .1.199.2.4.2l.1-.3c.3 0 .5 0 .5-.4l-.301-.4c.101-.1.201-.2.301-.2.3-.1.9.1 1.1.2 1 .3 1.9.6 2.6 1.2h.101c.101-.1.3-.4.3-.5-.3 0-.4 0-.5-.3v-.3c-.199-.2-.5-.1-.6-.3.1-.4.5-.2.3-.9h-.3c-.1-.5.6-.6.8-.9l.3-.4c0-.2.1-.4.1-.5s.101-.1.101-.2c.101 0 .3.1.5.1.3 0 .601-.1.8-.1.2 0 .301-.1.4 0 .3.4-.4 1-.5 1.3.199.1.6.6.5.9-.1.1-.1.2-.2.2v1.1c.101.4.3.3.399.5l-.1.3s-.1.2-.1.3c-.1.2-.301.4-.5.5-.1.1-.301.1-.4.3 0 .1 0 .1.1.2-.1 0-.199.1-.399.1l-.2-.1c-.199-.1-.5-.1-.699 0 .1.3.5.3.899.4h.3c.1 0 .301.1.5 0 .1-.3.5-.3.7-.5.101-.1.101-.2.2-.4l.199-.1.201-.3c0-.3-.101-.4-.201-.6.101-.5 1.201-.5 1.4-.1.1.2-.1.7 0 .7.1.2.6.2.801.1v-.1c-.101-.1-.301-.1-.5-.2v-.2c.1 0 .199-.1.199-.2l-.103-.3s-.1-.3-.2-.4h-.2c-.199-.1-.5-.3-.699-.2l-.301.1h-.5l-.1-.6.3-.8c0-.3-.399-.6-.5-.8.101-.3.5-.2.7-.4.199-.2.199-.5.199-.8l.301.1v.4c-.1.2-.301.4-.2.7.2.3.7.3 1 .3h.2l.199.2h.301l-.2-.5c-.5 0-.7-.1-.899-.3 0-.1 0-.1.1-.2h.3c.2.1.2.1.5 0v-.3c.8-.4 1.3.4 1.8.6.2.1.5 0 .6-.1v.2l-.299.3-.101.7h.101c0-.1.1-.3.199-.4h.1c.099.2.199.2.099.5l.3-.2c0-.3-.199-.5-.3-.7.101-.2.101-.3.2-.4l-.2-.2c-.2-.1-.399-.1-.5-.4-.2 0-.7-.2-.7-.3v-.4c0-.1-.3-.3-.1-.4.1-.1 1.3-.2 1.6-.2l.5-.1.2.2c.3-.2.601-.4.899-.2-.199.1-.199.2-.299.3.299 0 .699-.2.799-.5 0-.1 0-.1-.1-.2l-.3-.2-.101-.1c0-.1 0-.3.101-.4l1.2-.7.6-.1c.5-.1 1.1-.1 1.6-.3.4-.1.4-.3 1-.3.101 0 .301 0 .301.1l-.1.2c.1 0 .299 0 .399.1.3-.1.601-.1.8-.2l.5.1.2-.1c0-.2 0-.3.101-.4h.399l.3-.2c-.1-.1-.199-.2-.1-.4.1-.1.199-.1.199-.2.4-.3 1.4-.7 2-.3v.1l-.5.3c.201.1.301 0 .5 0 .301 0 .5.1.801 0l-.4.5h.7l.101-.1.1-.1c.9 0 2.1-.1 2.3.6h.399c0 .1.101.2.101.2l-.3.4.3.2-.5.4-.601.2-1.6 1-.6.2c-.4.2-.7.4-1 .8.4 0 .4-.2.6-.3l.6-.1c.301-.1 1.201-.2 1.4-.4v-.2c-.1 0-.1 0-.1-.1s.1-.2.199-.2l.602.4c.3.1.5-.2.7-.1 0 .1 0 .3.1.4l.1.2.101-.1.3-.3c.301 0 .6-.1.801-.1.5 0 1 .1 1.399.1 0 .2-.101.3 0 .5l1 .2c.3 0 .601-.1.8-.1.2 0 .301.2.4.1l.3-.4-.101-.3c.101-.1.301-.2.4-.2.301-.1.6.3.801.3h1l.399.3v.2c-.3 0-1.101.4-1.2.6.7 0 .6.2 1 .4.1 0 .1 0 .2.1l.5.6c.2.2.5.5.8.4.301-.3.4-.8.801-1.1h.1c0 .2.199.3.4.4.1 0 .299.2.5.1l.899-.3c.2 0 .8.4.8.4.2 0 .2-.3.2-.4.101 0 .101-.1.3-.1.1.1.301.3.5.2v-.8c-.1 0-.4.1-.4 0l.101-.1.5-.1c.2 0 .399-.2.5-.3.5 0 1.2.2 1.7.3h.5c-.1.1-.2.2-.4.3h.5l-.1.1c-.2.1-.4.1-.4.3.5 0 .801-.4 1.1-.6.601 0 1.101 0 1.4.3-.199.1-.3.2-.5.2l.5.2c.301.1.6.1.801.2.199.1.299.5.5.5l.799-.1.701-.2c.299-.1 1.5 0 1.699.1.2.1.5.3.6.5l-.1.4c.1.1.4.1.6.2 0 .2 0 .3.101.4l.5-.4h.5c.101 0 .2-.1.399-.1.301-.1.301.2.5.2h.4c.5.1.7-.1 1-.2l.4.4c.3.2.4.1.5.4.199 0 .8 0 .9-.2.1-.2-.101-.4-.201-.6-.1 0-.1 0-.199-.1l.199-.4c.4 0 .9.1 1.301.2v.1l1.3-.1c.2 0 .399.1.5.2.2 0 .399.1.5.1.399.1.8.3 1.101.5v3.4c.598 1 .498 1 .298 1.1zm-78.3 16.4c-.1 0-.1-.1 0 0zm14.2 0l-.1-.4h-.5c0 .1 0 .4-.1.5l-.101-.2v-.1h-.1v-.2c0-.1.1-.2.2-.4-.101-.1-.301-.1-.4-.1 0-.1-.1-.2-.2-.2h-.2c0-.3-.199-.4-.199-.6-.101 0-.301 0-.301-.1v-.1c.2 0 .5.1.601 0-.101 0-.2-.1-.2-.1 0-.1.1-.1.1-.1 0-.1 0-.1.101-.2h.2c.199 0 .5 0 .699.1-.1 0-.199-.1-.199-.2.199-.2.199-.3.1-.6l.1-.1-.1-.1c-.1 0-.2 0-.3-.1l-.2.1-.4-.2c-.3 0-.5.3-.699.3h-.2c-.101.1-.2.2-.4.3v.1h-.1c-.101.1-.3.2-.5.1l-.2.5c-.1.1-.2.1-.2.2v.1s.101 0 .2.1c.2.1.2.3.2.5 0-.1 0-.1.1-.2-.1.2-.1.4 0 .5l.098.2h.1c.1.1.2.3.2.4h.1l.3.3.101.2c0 .1.1.1.2.2s.3 0 .399.2v.1c-.5-.2-.5.3-.5.6h-.1v.1c0 .3-.2.6-.101 1l.601.2c.2.5 1 .5 1.5.3.2 0 .399 0 .5-.1.1-.1 0-.6 0-.7v-.2c0-.2.1-.3.1-.4-.1-.1-.2-.1-.2-.2h-.2v-.1s0-.1.1-.1h.2s-.101 0-.101-.1v-.1l.101-.1h-.4c-.1-.2 0-.5.101-.7l.099.2h.2v-.1h.1v.1c.101 0 .101 0 .2-.1h.1v-.1c.101 0 .101 0 .101.1.1 0 .1 0 .1-.1-.501 0-.701 0-.701-.1zm6.5-27l-2.199.6c-.301.1-1 .2-1.101.5l.101.1-.101.1-.2.1c-.1.1-.399 0-.6 0 0 0-.1 0-.1.1v.1l.1.1-.3.3-.3-.1-.101.1.2.1v.1l-.4.4-.6-.2c-.5-.1-.6.3-.9-.2.4-.2.301-.4 1-.4v-.1l-.199-.2c.1-.2.3-.1.5-.3 0-.1-.101-.1-.2-.2l.1-.1c.101-.1.3-.4.4-.4h.3c.2-.2.4-.5.7-.5.6-.2.8.1 1.1-.4.101 0 .2-.1.3 0l.4.1c.2-.1.4-.1.5-.2h.2l.9-.2c.2-.4.4-.3.9-.4h.3c.2 0 .4.2.3.4-.2.5-.6.6-1 .7zm-5.7 2.8l.3.1c-.101.6-.7.3-.5 1.1.1.4.2.8.399.9.101.1.4.2.4.4h-.8c-.101 0-.2.2-.4.1l-.1-.2h-.5c0-.2.2-.2.3-.3v-.1c-.3-.1-.5-.3-.9-.4-.199 0-.199.2-.5.1l-.1-.1c-.1-.2 0-.3.1-.4.101 0 .2.1.301 0 .199-.1.399-.4.399-.5l-.3-.1c.2-.1.3-.3.4-.4h.399c.502 0 .802-.2 1.102-.2zm-15.3-6.6l-.4.2c-.2 0-.3 0-.4.1l-.3.2c-.5 0-1 0-1.5-.1v-.2c.3-.1.4-.2.5-.5-.7 0-1.4.2-1.9-.1.101-.2.2-.2.301-.3l.399-.6c.101.1.2.2.3.4.301.2.601-.2.9.2l.1-.1c.2-.1.2-.4.5-.5 0 .2-.1.4 0 .6h.2c.101-.2.3-.4.5-.4.101 0 .101 0 .2.1l.1.3c.2 0 .5-.1.7 0l.3.1.101.2-.601.4zm-4.1.3c.1-.1.2-.2.3-.2l.3.4c.101.1.301.1.4.1.2.1.4.2.5.4l-.3.1-.5.1c-.2.1-.2.5-.3.7l-.2.4c-.101 0-.3 0-.3.1-.2.2-.3.4-.3.7l-.2.1c-.301.1-1.101-.6-1.3-.7l.1-.2c.4 0 .8 0 1-.3l-.1-.1c-.399 0-.7.1-1.2.2l-.1-.3c.5-.2 1-.2 1.4-.5-.3 0-.6-.2-.8-.3-.2.2-.3.4-.6.5-.3.1-1-.4-1.1-.7l.4-.2-.2-.3-.3.2c-.1-.1-.3-.3-.3-.4.2-.1.3-.2.5-.2h.2l.4-.1c0 .2 0 .3.1.4l.4.1.1-.4c.2-.1.2-.1.3 0 .1.2.4.6.6.7l.1-.1c0-.2-.3-.5-.2-.7l.2-.2c.2 0 .3.1.4.2h.3l.1.1c0 .2-.1.4 0 .5.1-.2.1-.2.2-.1zm-9.1 24.1c.1 0 .5.1.5.1v.2c-.1 0-.2.1-.2.2l-.4.1h-.3s-.1 0-.2.1l-.2-.1s-.3 0-.4.1v.1c-.3 0-.4-.1-.8 0 0 .4-.2.3-.4.2 0 0-.1.1-.2 0-.2.1-.3.1-.4.3l-.1-.1h-.2c.2-.1.6-.3.6-.6l.2-.1c.2-.1.4 0 .6 0 0-.1.1-.2.2-.3-.1 0-.2.1-.4.1l-.3-.2h-.4l-.1-.1.1-.1c.1-.1.4-.1.5-.3v-.3h-.2c.1-.3.5-.3.9-.3-.1-.2 0-.3 0-.6h-.2l-.2-.2c0-.1.1-.2.2-.3-.3-.1-.2 0-.5.1-.1-.3-.1-.3-.2-.3 0 .1 0 .1-.1.1s-.2 0-.3-.1c0-.2.3-.4.2-.5-.1 0-.1-.1-.1-.2.1 0 .1-.1.1-.1v-.1l-.4.3c-.1-.2.1-.4.2-.5l-.1-.1c0 .1-.1.1-.1.1s-.1 0-.1-.1l.2-.4v-.2s.1 0 .1-.1-.1-.1-.1-.2l.1-.1h.2l-.1-.3c.1 0 .1 0 .2-.1l-.1-.2.1-.1.2.1.7-.1v.1c-.1.2-.5.2-.6.5.3 0 .9-.1 1.1 0v.1c-.1.2-.2.7-.6.8l.2.1c-.1.1-.3.1-.5.1.3.1.3 0 .5 0 .1 0 .5.3.6.4.1.2 0 .4.2.5l.3.1.3.3c.1.1 0 .4 0 .4.2.3.4.2.1.6h.2c.2-.2.5-.1.6.1v.3c-.1.5-.5.8-.7.8zm-3.1-2.9c.1 0 .1.1.1.2l-.1.1h-.1c.1-.2.1-.2.1-.3zm0 1c-.1.2-.2.2-.4.3.1.1.3.6.2.8 0 .1-.1.2-.2.4h-.3v.1h-.4l-.4.3h-.2s-.3.1-.5.1v-.3h-.2v-.2h-.1v-.1h.3s0-.1.1-.2c.1 0 .2 0 .3-.1h-.2s0-.1.1-.1v-.1c.1-.1.1-.1.3-.2v-.1c-.1.1-.5 0-.6-.1 0 0 0-.1.1-.1h.2c0-.1 0-.1.1-.2-.1-.1-.1 0-.2 0v-.1l.1-.2c.2.1.4.1.7.1v-.1c.1 0 .2-.1.2-.2h-.2c.1-.2.1-.3.4-.4 0 .1.1.1.2.1.2-.1.5-.1.7 0-.2.2-.1.3-.1.6zm7.9 9s-.1.1-.1.2v.2l-.1.3c-.1 0-.2-.1-.3 0l-.1.1c-.4-.1-.1-.4-.2-.8 0-.2-.1-.2-.2-.3.3 0 .4-.1.5-.2.4.1.6.4.5.5zm-.2-1.4v-.2c0 .3.1.8-.1 1h-.1v-.1h-.2s0-.1.1-.1h-.1l.1-.1s-.1 0-.1-.1v-.1c.1-.2.4-.3.4-.3zm3.1 3.5c-.1 0-.1.1-.2.2-.3-.101-.6-.3-1-.4-.2-.1-.3 0-.3-.2.1-.3.3-.1.4-.3.3.2.4.2.8.1.1 0 .2-.1.3 0-.1.1-.2.3-.2.5.1 0 .2 0 .2.1zm5.6 1c0 .1 0 .1-.101.2h-.699v-.1c-.2-.1-.5-.1-.601-.1v-.2h.101v-.1s.1 0 .1.1h.1c.101 0 .101 0 .101.101h.399c.101.1.2.1.4.1v.1c0-.101.1-.101.2-.101zm3.7-.1l.5-.2-.3.3.101.1-.5.2v.1l-.301-.1-.1-.2.3-.1v-.1h.3zm-22.3 2.3c.1-.101.2-.2.3-.4.1-.1 0-.2 0-.3s.3-.4.4-.4c.3-.199.6-.199.9-.5.1-.199.3-.8.4-.899l.2-.101c.2.2.2.4.5.4.2.1.8-.1.8-.1.1.199.3.199.6.199.2-.1.2-.199.3-.3.1 0 .4-.1.4-.2 0 0 .1.101.2.101l.5-.4.8-.1c.1 0 .2-.101.2-.101.1 0 .1.101.3 0l.2-.1.9.1c.2 0 .3-.1.5-.2l.3.1.2-.1.2.2c.3.101.6-.2.8-.3h.2c.1 0 .2.1.2.1 0 .1 0 .2.1.2h.1l.3-.2c0 .4-.6.5 0 .9 0 .101 0 .101.1.2 0 .1-.5.5-.6.6 0 .2.2.301.4.4.1 0 .1-.1.2 0v.2l.7.3h.5c.1 0 .2 0 .3.1l.1.101h.3l.4.6c.2.101.7.101 1 .2.2.1.4.4.7.4l.3-.101c.601-.3 0-.5.3-.899.2-.3.9-.6 1.4-.4.2.1.1.2.2.3.1.1.4.1.6.1h.3c.101 0 .101.199.2.3h.6l.8.2s0 .1.1.1h.3c.101 0 .2.1.4.1l.2-.199c.3-.2.7-.301 1.1-.2 0 .1.101.1.2.2.2 0 .3.1.5-.101.3.2.4 0 .6 0l.4 1c-.2.2-.2.601-.3.9h-.1c-.3-.3-.6-.7-.7-1.1-.101 0-.101.101-.2.2.1.4.399.601.5.9l.3.8.6 1.2.3.3-.101.1.101.4.3.2c.2.1.399.5.399.7.101.399 0 1 .2 1.3.101.2.601.3.601.4.199.4.3 1.301.6 1.5v-.2c.1.1.2.199.2.3h.2l.5.5h.199c.101.1.101.3.2.3.2.2.601.2.601.5-.101.1-.301.2-.5.3h.3c.1.2.3.4.5.601h.3l.5-.2c.2 0 .3.1.4.1.1-.1.3-.2.399-.2h.3c.101 0 .2-.199.301-.1.1 0 .199.1.3 0 .3-.1.5-.2.7-.4l.3.101-.101.2v.3c0 .1-.1.2-.1.2v.5l-.3.5-.199.198v.1l-.4.6c0 .101 0 .2-.1.3-.2.5-.6.801-.9 1.2-.1.2-.3.4-.399.5l-1.3.9-1.101 1.2v.2l-.3.101c0 .3-.2.3-.3.399 0 .4-.2.4-.3.601v.3s-.101 0-.2.1c-.101.101-.2.601-.2.801.1.199.2.3.3.399 0 .101-.1.3-.2.4l.101.1c-.101.3 0 .8.1 1 .101.2.4.2.5.5l-.2.3.101.7-.102.199c.101.2.101.5.101.8 0 0 .1 0 .1.101v.099s-.1.2-.2.2v.1c-.199.2-.3.5-.6.7s-.8.3-1.1.5l-.7.7-.601.5v.399c.101 0 .2.101.2.2-.1.2 0 .4.101.7h.1v.7c0 .1 0 .1-.1.2l.1.1c-.2.5-.7.4-1.1.7-.2.1-.301.3-.4.399 0 .101.1.101.2.101 0 .3 0 .7-.2.899l-.2.101s.101.2 0 .3l-.5.5c-.5.8-1.1 1.4-1.8 2l-.4.4-.699.1s0 .1-.101.1c-.1 0-.2 0-.3-.1 0 .1-.1.1-.2.2-.1 0-.3-.2-.6-.2l-.2.1c-.2 0-.3-.1-.6 0l-.2.2h-.601c-.1 0-.199.2-.3.3-.1 0-.2-.1-.3-.199 0-.101 0-.101-.1-.2h-.2s0-.101-.101-.101h-.1v.101l-.1-.101.1-.3c-.1-.1-.3-.399-.3-.5h.2c.1-.5-.2-.8-.4-1.2-.2-.399-.3-.8-.5-1.1l-.6-.7c-.1-.2-.1-.399-.2-.5 0-.1.1-.1 0-.2 0-.1-.1-.199-.2-.399 0-.101.1-.2 0-.4l-.1-.3-.2-.7c.3-.3-.2-.8-.4-1-.2-.399-.4-.8-.6-1.1-.1-.2-.3-.3-.4-.601-.1-.3 0-.8 0-1.1.3-.2.2-.8.4-1.2l.2-.2.1-.199c.1 0 .1 0 .2-.101.1-.1.2-.399.3-.6v-.5c-.1-.2-.6-.7-.2-.9.1-.399-.1-.399-.2-.7 0-.1 0-.199-.1-.3-.1-.1-.2-.2-.2-.3l-.099-.499c0-.1-.2-.4-.2-.4-.2-.199-.4-.399-.6-.5-.1-.2-.2-.3-.4-.4 0 0 0-.101.1-.101l-.2-.1s-.2-.2-.2-.3l.1-.101c-.1-.098-.1-.098-.2-.098l-.1-.2c.2-.1.3-.3.3-.5h.2c-.1-.1-.2-.2-.3-.2.1 0 .1-.1.1-.3h-.1c.1-.1.2-.3.3-.5v-.2c0-.1 0-.1.1-.199 0-.2-.1-.301-.2-.4l.1-.1v-.101c-.4 0-.3-.1-.4-.3-.1-.1-.3-.1-.3-.1v.1c-.2.1-.4 0-.6 0-.3.3-.9 0-.9-.3 0-.101 0-.101.1-.2h-.1l-.1-.1c-.1-.1-.4-.3-.6-.4-.1 0-.1.1-.1.1-.4 0-.8.101-1.1.101l-.2.2h-.5l-1.1.5c-.1-.101-.4-.301-.5-.301l-.1.1-.4-.1h-.7l-.6.2c-.2.101-.4.2-.5.3-.1 0-.6-.199-.7-.3l-.8-.6-.4-.2c-.2-.1-.3-.3-.6-.4v-.2c-.2 0-.4-.2-.5-.4l.1-.1h-.1v-.2l-.2-.3v-.2c-.2-.101-.4-.2-.5-.3v-.2c-.1 0-.2 0-.2-.101v-.1s-.1 0-.2-.1c0-.2.1-.2.1-.301-.1-.1-.2 0-.4 0l-.2-.098v-.1c-.2-.101-.1.1-.2-.2 0-.101 0-.3.1-.5h.1v-.1c-.2-.1-.1-.399-.5-.5.2-.1.4-.399.5-.6v-.4c.1-.399.4-1.1 0-1.399.2-.2.1-.8-.2-.8l-.1.1c0-.2 0-.5.1-.7.1-.1.2-.2.2-.3l.3-.8c.1-.101.4-.2.4-.4v-.2c0-.199.1-.399.2-.5l.4-.3c.1-.2.2-.6.4-.7.2-.1.4-.1.5-.1.3-.1.8-.6 1-.8.5-.401.1-.601.2-1.001zm-2.3-22.3v.1c-.1.2-.2.3-.5.2l-.6.4c-.2 0-.4 0-.5.1-.2.1-.2.4-.6.3-.2 0-.4-.1-.5-.1l-.3-.2c-.3-.1-.9.1-1.1-.1.2-.2.4-.2.5-.4-.3 0-.3-.1-.4-.2-.2 0-.5.1-.6.1v-.1c.1-.2.7-.1.9-.3v-.2c-.1-.1-.3-.1-.4-.1-.3 0-.6.3-.8 0v-.1c.1-.1.3-.1.5-.1l-.1-.2c.1-.3.3.2.6 0 0-.1-.1-.2-.2-.2l.1-.1c.3.1.7.1.7.4l-.1.3.2.3.2-.2c.1-.1.2-.1.3-.1v-.4s.1 0 .1-.1c.1.2.2.3.3.4h.1c0-.1 0-.1-.1-.2.1-.1.3-.2.4-.1 0 .1.2.2.3.2 0-.1 0-.2-.1-.3.3 0 .6.1.8 0v-.3c.1 0 .2 0 .3.1.1.2.3.2.5.3v.1c0 .1-.1.2 0 .2l.1.1c.1 0 .3 0 .4.1.1.1 0 .5 0 .6-.1-.2-.2-.2-.4-.2zm-16.3-3c-.2-.2 0-.2.1-.3.1.1 0 .3-.1.3zm-1.1-1.9c.1 0 .3.1.1.2-.1-.1-.1-.2-.1-.2zm-.2.4s0-.1.1-.1l.1.3c-.2-.1-.3-.1-.2-.2zm13.1-5.6c-.2.1-.3 0-.4-.1 0-.1.1-.2.2-.2.2 0 .3.1.4.1l-.1.1s-.1 0-.1.1zm.3 3.6c-.1.1-.1.1-.2.1s-.1 0-.2.1l-.1.1s-.1.1-.2.1c0 0-.2.1-.3.1l.1-.2c0-.1 0-.2.1-.2l.3-.1.3-.3c.1 0 .4.2.3.3-.1 0-.1.1-.2.2.2-.2.2-.2.1-.2zm1.9.1s.1 0 .1.1l-.1-.1c0 .1 0 .1-.1.1h.1c-.1.1-.5.2-.4.3l.2.1c-.1 0-.2.1-.2.1 0 .1.1.1.1.1 0 .1-.2.1-.3.1.1 0 .1 0 .1.1l-.2.1c.1 0 .1.1.1.2h-.1v.1l-.2.1-.1.1h-.1c0 .1-.2.2-.3.3-.1 0-.1.1-.1.1-.1 0-.1 0-.2.1-.1 0-.2.1-.2.2-.1 0-.2.1-.2.1l-.1.2c-.1 0-.2 0-.3-.1l.1.2s-.1.1-.2.1l-.2-.1c.1.1.2.1.2.1l-.3.1-.2-.1h-.2c-.2 0-.4-.1-.4-.2v.1s.3.1.3.2h.1c.1.1-.1.2-.1.3v.1c0 .1-.2.1-.2.1-.1.1 0 .1 0 .2l-.1.1v.2l.1.1-.1.2s.1.1 0 .2l-.1.1c-.1.1-.1.2-.1.3 0 0-.1.1-.2.1l-.1-.1h-.4l.2.2-.1.1v.2c-.1.1-.3 0-.4 0 0 .1-.1.2-.2.2l-.1-.1c0 .1-.1.2-.2.2.1.1 0 .1 0 .2h-.2v-.3s.1-.1.1-.2l.1-.3c-.1.1-.3 0-.4 0 0 .1.1.1 0 .2 0 .1-.1.1-.2.2l-.1.1c0 .1.5.1.2.3h-.1s0 .1-.1.2c-.1 0-.2.1-.3 0h-.2l-.1-.1.1.2-.2-.1c0 .1 0 .2-.3.2.1 0 .2 0 .3.1.1.1 0 .3 0 .3s-.1.1-.2.1c-.3 0-.2-.1-.6 0h.1c0 .2.2.1.3.2 0 0 .1 0 .1.1 0 0 0 .1.1.1h.1s0 .1-.1.1c0 0 .1 0 .1.1h-.3l-.3.1s-.1 0-.2.1l.3.1h.2l.1.1s.1 0 .1.1c0 0 .2.1.1.2h-.6l.1.1h.1c.1 0 .2.1.3 0v.1h-.2s0 .1-.1.1h-.2s.1 0 .2.1l-.1.1h-.2c0 .1.1.1.2.1-.1 0-.3 0-.4-.1.1.5.3.5.3.6v.1c-.1 0-.2.1-.2.1-.1.1-.2.1-.2.2 0 0 0 .1.1.2.1 0 .2 0 .3.1-.1.1-.3-.1-.5-.1.1.1.3.1.5.2 0 .1.1.2.2.3 0 .1-.1.2-.3.2h.2l-.1.1c0 .1 0 .1-.1.2v.2h-.1c-.1 0-.3-.1-.3 0v.1s.3 0 .4.1c-.2.1 0 .1-.1.2 0 0-.1 0-.2.1h.2c-.1 0-.2 0-.3.1 0 .1.2.1.2.1.1 0 .1 0 .2-.1h.1c0 .1-.5.3-.7.3 0 .1.1.1.3.1l.2-.1c0 .1.2.1.1.2v.1h-.4s-.2-.1-.4 0l-.2.2-.2-.1-.3.1.1-.3.1-.2s-.1 0-.1.1c0 0-.1.2-.2.2-.1-.1.1-.2.1-.2 0-.1-.1-.1-.2 0l-.1.2s0-.1-.1-.1h-.2l.2-.1s0-.1.1-.1l.2-.1s-.1 0-.1-.1c0 0 0-.1-.1-.1l-.1.1h-.1c-.1 0-.1.1-.1.1 0-.1.2-.2.2-.2h-.1s0-.1-.1-.1-.2.1-.1.2c0 .1-.1.1-.2.1l-.2.1-.2.1h-.2c-.1 0-.1 0-.1.1h-.1v.1c-.2.1-.4 0-.5 0 .1 0 .2-.1.2-.1s0-.1-.1-.2l-.2.1v-.2s-.4 0-.5-.1c.1 0 .2 0 .2-.1-.2 0-.1 0-.2.1h-.1c-.2.1-.3 0-.3 0l.2-.1s-.1 0-.1-.1.2-.1.2-.3c-.2 0-.2.1-.4.2 0-.1.1-.1.2-.2h.1l-.2.1h-.1c.1 0 .1 0 .1-.1 0 0 0-.1-.1-.1h-.6s-.2-.1-.1-.2l.2-.3.1-.1c-.1.1-.2.2-.4.3 0 0 0-.1.1-.2h-.2c-.1-.1.1-.1.1-.2s-.1-.2-.2-.2-.2.1-.3.1c.1-.1.2-.2.4-.3-.1 0-.2 0-.2.1l-.3.1c0-.1 0-.2-.1-.2.1 0 .1 0 .2-.1l-.1-.2c.1 0 .2 0 .2-.1.1-.1.3-.1.5-.1h.2l-.1-.1-.1.1-.5.2h-.3s.1 0 .2-.1l.3-.2s.1 0 .1-.1l-.1-.1s.2-.1.3-.1.1.1.1.2c.1.1.3.1.4.1l-.1-.1c-.1 0-.1 0-.2-.1-.1 0-.1-.2-.1-.3-.1 0-.2.1-.2 0-.1 0-.1-.1-.1-.2v-.1s-.1 0-.1-.1v.4s0 .1-.1.1c0-.1-.1-.1-.1-.1l-.1.1v.1c0 .1-.1.2-.2.2 0 0-.1.1-.2.1v-.2c.1-.1-.1-.4.2-.4 0 0 0-.1-.1-.1s-.2.1-.3 0l.1-.1v-.1s-.1.1-.2.1-.1 0-.1-.1c.1-.1.3-.2.4-.2l-.3.1c0-.1.1-.3-.1-.3-.1.1-.2.1-.3 0 .1 0 .2-.1.3-.2-.2 0-.2.1-.3 0 0 0-.1 0 0-.1l.2-.1c.2-.1.4-.3.7-.4.1 0 .2-.1.2-.1l.3-.2c.2 0 .4 0 .6-.1.1 0 .1-.1.1-.1h-.4s-.1 0-.2.1l-.3.1-.2.2s-.1 0-.1.1l-.4.3-.3.1h-.1s.1 0 .1-.1h-.1c-.1-.1 0-.2.1-.2h.2l.3-.1c-.1 0-.3 0-.4-.1.1-.1.5-.1.6-.1.1-.1 0-.2-.1-.1l-.1.1h-.4l-.1-.1c-.1 0-.2 0-.2-.1.1 0 .2 0 .2-.1.4-.1.7-.1 1.1-.1h.3c-.1-.1-.1-.2-.3-.2h-.4c-.3 0-.7.2-.9.1l.1-.1c.1 0 .1 0 .2-.1l.3-.1.2-.1h.9l-.1-.1c0-.1.1-.1.2-.2h-.3c.1.1 0 .1-.1.1h-.3v-.1c-.2 0-.3.1-.4.2h-.2c-.1 0-.2.2-.4.2l.1-.2c.1-.1 0-.2.2-.3.1 0 .3.1.4 0-.1 0-.3 0-.3-.1.1 0 .2 0 .4.1h1c-.1-.1-.4-.1-.4-.2s.1-.1.1-.2h-.1c-.1 0-.2 0-.2.1h-.8l.5-.3h.3s.2-.1.3-.1h.2s.1-.2 0-.2-.1.1-.3.1l.1-.2.1-.1.1-.1c.1 0 .3 0 .3-.1h-.1s0-.1-.1-.1-.1.1-.2.1l.1-.1v-.2h.1l-.1-.1s.1 0 .1-.1v-.1l.1-.1h-.2s-.1.1-.3.1c-.1 0-.1 0-.2.1h-.1c-.1 0-.3 0-.4-.1-.1-.1-.3-.2-.4-.2h-.1l-.4-.1v-.1s-.1 0-.2-.1c.1 0 .1-.2.3-.2.1 0 .1 0 .2.1.1 0 .2-.1.3 0 .1 0 .4.1.5.2.1.1.2.1.3.1s.3.1.4 0c.1 0 .1-.1.1-.1h-.1l-.3-.1c.1 0 .2 0 .2-.1s-.5-.1-.5-.2c.1 0 .3.1.4 0 0-.1-.1-.1-.2-.1h-.1c-.1-.1 0-.1 0-.1-.1 0-.3.2-.4.1l.1-.1s.1 0 .1-.1c.1-.1.2-.1.3-.1h-.2c-.1 0-.2.2-.3.1 0 0 0-.1-.1-.1l.5-.1v-.1l-.4.1h-.1c-.1 0-.1 0-.1-.1.1 0 .2-.2.2-.2-.1 0-.2.1-.2.2v-.1c0 .1-.1.1-.2.1 0 .1 0 .3-.2.3-.2.1-.5 0-.6 0h-.2v-.1l-.1-.1.3-.1.2-.1.1-.1s-.1 0-.1.1h-.4c0-.1.3-.2.4-.3 0 0 .1-.1 0-.1l-.4-.1h.7v-.1c0-.1-.1-.2-.2-.2 0-.1.1-.1 0-.2h-.3c0-.1.1-.1.2-.2v-.1s.1-.1 0-.1c0 0-.1 0-.1-.1l-.1-.1h-.1s0-.1.1-.1h.1s-.1 0-.1-.1c-.1-.1-.2-.2-.2-.3l-.4.1.4-.2s.1 0 .1-.1-.2-.2-.3-.2c0-.1-.1-.3-.2-.3s-.2 0-.2-.1v-.1c-.1-.1-.2-.2-.2-.4v-.3h-.2l-.1-.1c-.1 0-.2 0-.2-.1 0 0 0-.1-.1-.2l-.3-.1h-.1l-.2.1c0-.1 0-.2-.2-.2l-.3.2-.1-.1s-.1.1-.2.1h-.2s0 .1-.1.1v-.3c-.9-1.1-1-1-1-.9h-.1l-.1-.1c-.1.1 0 .1 0 .2-.3.1-.6-.1-.7-.3l-.1-.1s.1-.1.2-.1.1 0 .2-.1c.1 0 .2 0 .2-.1l-.5-.1c-.1 0-.1-.1 0-.2-.1 0-.1 0-.1.1-.1 0-.2-.1-.2-.1l.1-.1s.1-.1.2-.1h.2c.2 0 .3 0 .5.1.1 0 .2.1.3 0l-.1-.1c-.1 0-.3 0-.3-.1.1-.1.5 0 .6 0 0 0 .1.1.2 0-.1-.2.1-.1.2-.2 0-.1-.1-.1-.2-.2h-.1c-.1 0-.1 0-.2.1h-.6l-.2-.1h-.1l.2-.1h-.3l.2-.1-.4-.1h-.2l-.1-.3.3-.1v-.1l.1-.1s.1 0 .1-.1l.3-.1h.2l.2-.1h.1l.2-.1c.1-.1.2-.1.4-.1h.4s.2 0 .3-.1h.1c.2 0 .3-.1.3-.2v-.1c0-.1.1-.2.2-.3.1-.1.2-.1.2-.2l-.1-.1c0 .1-.3.2-.5.2-.1 0-.2 0-.2-.1s.2-.2.2-.3c0-.1-.1-.1 0-.2l.3-.1c.2-.1.3-.2.3-.3.1 0 .2 0 .2-.1 0 0 0-.1.1-.1h.6v-.2c.1 0 .2-.1.2-.2h-.1c0-.1.1-.3.2-.3h.2l.3.3c-.1-.1 0-.1 0-.2l-.2-.2.3-.1s.1 0 .2-.1h.1c.1 0 .2.1.3 0v-.1c.3-.2.4.3.4.4v-.1c.2 0 .4.2.6.3h.1l-.1-.1-.1-.1c.1 0 .2.1.3 0l-.2-.2c-.1-.1 0-.3.1-.4.2-.1.2.1.3.1h.1s.1 0 .1.1c.1 0 .2 0 .2.1l.4.3s.1-.1 0-.1v-.1s.1-.3.2-.3h.1c-.1 0-.2 0-.2-.1l-.3-.2s-.2-.1-.1-.1c.2-.1.4 0 .6 0h.2l.1.1c.1 0 .2-.1.2-.1 0-.1-.3-.2-.4-.1l-.3.1c-.1 0-.2 0-.3-.1h-.3s.1-.1.2-.1h.1s.2.1.3 0c-.1 0-.4 0-.3-.1h.4v-.1c.1 0 .2 0 .2.1v.1l.3.1h.3c-.1-.1-.1-.2 0-.3h.1s-.3-.1-.2-.2h.1v-.1h.2l-.1-.1.2-.1c.2-.1.6-.2.9-.2l.3.1c.1 0 .1-.1.1-.1h.1c.1 0 .3 0 .2.1-.1.1-.4.2-.6.2l-.3.2h-.2s.1 0 .1.1h-.1l-.3.2s0 .1.1.1c0 0 0-.1.1-.1h.2c0-.1.1-.2.2-.2h.1l.2-.2s.2-.1.3-.1h.1c.1 0 .3-.1.3-.2.1 0 .1 0 .2.1l.1.1.2.1h.6c.1.2-.2.6-.4.7h-.1l-.4.1s-.1.1-.2.1l-.1.1h-.1c-.1.1-.1.2-.1.2 0 .1-.2.2-.2.2l.1.1c.1 0 .2-.2.2-.2l.2-.1h.1s.1 0 .1-.1l.4-.1h.1l.1-.1c.1 0 .1 0 .1.1l.1.1c.1.2-.2.3-.2.4 0 0 .1.1.1 0l.4-.5c0-.1-.1-.2-.2-.3l.2-.1c.2 0 .4.2.5.3v.2l.1.3s0 .3.1.4v-.3c0-.2 0-.3.1-.5v-.2h.1c.1 0 .2-.1.2-.2l-.1-.2s0-.1.1-.2l.2-.1.1-.1h.8c0 .1 0 .3-.1.4v.2s.2 0 .2.1-.1.3-.2.4h-.1l-.1.1-.1.2c-.1.1-.3.1-.3.1v.1l.2-.1h.2l.2-.2h.3c.1.1-.2.3-.3.4-.1 0-.3.1-.3.2l.1.1v.1c0 .1.1.1.1.1h.1v-.1s-.1 0-.1-.1v-.1c0-.1.1-.1.2-.2.1 0 .3-.2.4-.1v.1c0 .1 0 .2-.1.2l-.1.1c0 .2.2.2.2.3l.2.3s.1 0 .1.1c-.1.1-.2.2-.3.2l.1.1h.1s0 .1.1.1l.1.2.1.1v.1c0 .1.1.2.3.2-.1-.1 0-.2.1-.3h.1v-.1h.1s-.1.1 0 .1c.2 0 .3 0 .3.1-.2 0-.4 0-.5.1 0 .1.1.2.3.2l.3-.1h.2c0-.1 0-.2.2-.2h.2s0 .1.1.1l.1.1s.2.1.2.2-.3.1-.4.1h-.1c-.1.1-.1.1-.3.1h.1l-.1.2v.1c-.1 0-.2 0-.3-.1l.2.2h.2c.1 0 .2 0 .2.1.1 0 .1-.1.1-.1h.2c.1 0 .1 0 .1-.1h.2v.1c-.1.1-.2.1-.3.1l-.2.2c.1 0 .2 0 .2-.1 0 0 .1-.1.2-.1h.1c.1 0 .3-.1.3 0 0 0 0 .1.1.1l.3.2s0 .2-.1.2l-.1-.1c-.1 0-.2.1-.2.1-.1 0-.2 0-.3-.1h-.4c.1 0 .2 0 .2.1l-.1.1h.7c-.1 0-.1.1-.2.2v.1c-.1 0-.3-.1-.4 0 .2 0 .3.1.5 0 .1-.1 0-.2.3-.2 0 .1.1.1.2.2v.2l.1-.1.4-.2c.1 0 .3 0 .3.1s-.1.2-.2.3h-.3l-.4.1h-.3c.1.1.2.1.2.2 0 0-.1 0-.1.1h.1c.1.1 0 .1 0 .2h.3l-.1-.1c.1-.1.4-.1.5-.1h.2s.3.3.2.3c0 0-.2.1-.3.1h-.1c0 .1-.1.2-.2.3h-.6l-.2-.1c0 .5.3.5.4.5l.1-.1h-.3c-.2 0-.5.1-.4.2l.1.1h-.3l.2.1c-.1 0-.2.1-.2.1v.1s-.1.2-.2.2c-.1-.1-.3 0-.4 0 0 0 .2 0 .2.1s-.4.1-.2.3h.1c0-.1.1-.2.2-.3l.1-.1c.1 0 .1 0 .2-.1.2 0 .3 0 .4.1l-.2.3c-.1 0-.2 0-.2.1.1 0 .2 0 .3.1 0-.1 0-.1.1-.2l.1-.1s0-.1.1-.1l.2.1s.2 0 .2.1l-.1.2s-.1 0-.1.1.1.2.2.2l.1-.1c0-.1 0-.1.1-.2h.5c.1.2.2.1.4.1h.3v.1c.1 0 .2 0 .2.1l.2-.1c0 .1 0 .2.1.2v.1c0-.1 0-.2.1-.3.3.1.2.2.3.4h.1v.1c.2-.1.1.1.1.1h.1s0 .1.1.1c.1.1.3.1.2.2 0 0 0 .1-.1.1h-.2c-.1 0-.4-.2-.4-.3l.2.3-.1.1s-.3.1-.5.1l-.4-.1-.1-.1h-.1l-.1-.1h-.1l-.3-.1-.1.1-.5-.1c-.2 0-.3.1-.5.2-.2-.1-.4-.1-.7-.2h-.4c0 .1.2.1.3.1h.1c.1 0 .4 0 .3.1l-.2.2.2-.1s.1.1.2 0 .2-.1.3-.1c.2 0 .2-.1.3-.1h.1l.1.1c0 .1-.2.3-.3.4-.1 0-.2.1-.2.1-.2 0-.4.1-.5.1.1 0 .2 0 .2.1.2.2-.4.4-.3.5 0 0 .2-.2.3-.2l.1.1c.2 0 .4-.1.5-.2.1 0 .1 0 .2-.1l.1-.1s.1 0 .1.1c0 0-.2.1-.3.1-.1.1 0 .2-.2.2h-.1c-.1 0-.2 0-.2.1v.1l.3-.1h.3l.2-.2.2-.2c.1-.1.2-.2.4-.3v.1c.1 0 .3-.1.5-.1h.3s.3-.1.4-.1.2-.1.3-.2c0 0 0-.1.1-.1v.2h-.1c-.1.1-.2.2-.2.3zm-3.1-2.5c.1 0 .1-.1.1-.2h.2c.1 0 .3 0 .3.1l-.6.1zm1.4-.2c0 .1-.1.1 0 0-.1.1-.2.1-.3.1s-.1.1-.2.1-.2 0-.2.1c-.1 0-.2.1-.2.1l.1-.1.3-.2c.1 0 .3 0 .5-.1zm.5.7s-.1.1-.2.1l-.1-.1h-1c-.1 0-.3-.1-.2-.2l.4-.2c.3-.1.5.1.7.1h.1l-.3.1c.3.1.5.1.6.2zm-1.2-2.4c-.1 0-.3-.1-.2-.2h.1c.2.1.2.1.1.2zm.2-.4c-.1-.1-.2-.3-.2-.3s.2-.1.2-.2c.1.1.2.2.3.2 0 0 .1-.1.2-.1v.1c-.1.1-.4.3-.5.3zm-.7-.8s-.1-.1-.2-.1-.1 0-.2-.1c0 0-.1 0-.1-.1-.1 0-.1 0-.2-.1v-.2l.2.1c.1.1.2.2.3.2.2.2.3.3.2.3zm-10.1-3.2c-.1 0-.1 0-.2-.1-.2-.1-.3-.2-.4-.4.1 0 .2-.1.2-.1.1 0 .1 0 .2.1.1 0 .2.1.2.2v.3zm-1.6.1c0-.1.1-.1.1-.1.1.1.2.1.2.2-.1 0-.3 0-.3-.1zm-4.1 1.5l-.8-.1c-.5-.1-.8.1-1.2.2l-.1.3.2.2c.4.1.6-.2 1-.2l.2.3v.1c-.5.1-.9.4-1.3.6-.1 0-.2.1-.4.1-.4.2-.3.3-1 .4l.1.5-.3.2c-.6.3-1.1 0-1.8-.1l-.1.2.6.3c-.5.2-1.1 0-1.5 0h-.5v.3c.4 0 1-.1 1.2.2v.3l-.3.2c0 .1-.1.2-.1.4h-.4l-.1.1c.1.1.2.2.2.3-.2.1-.4.1-.6.1l-.5-.1.1.5c-.1.2-.5.2-.8.2-.5-.1-.8-.3-1.2.1.4.2 1.1.2 1.5.3h.5l.1.1v.2l-.2.2-.8.2-.5.2-.3-.4h-.3l-.3-.2v.1s.1.2.1.3c-.7 0-.8-.2-1.1-.4h-.1c0 .1.1.2.1.4-.1.1-.1.1-.2.1l-1.2-.1-.4-.3c-.1.1 0 .2-.2.3l-.4-.2c0-.2 0-.3.1-.4l.7-.2c.2 0 .3 0 .4-.1-.2-.1-.5-.4-.5-.6.1-.1.2 0 .4 0s.4 0 .6.1c.2.1.4.4.7.5.2 0 .6.1.8 0v-.1l.1-.1c-.3 0-.7 0-.9-.1v-.5c-.4 0-.7-.2-1.1-.1.1-.3.1-.5.3-.6.2-.1 1-.1 1.3 0 .2.1.4.2.7.2l.2-.1h.2l-.8-.4-.4-.2c-.2-.2-.5-.6-.8-.6l-.1.1-.3-.4v-.2c.2 0 .5 0 .7.1h.6l1 .6h.5l-.2-.2s-.4-.1-.5-.2l.3-.4.3-.2h.4s.2-.1.4-.1l1-.1c-.1-.1-.3-.2-.4-.2-.2-.1-.7-.1-.9-.1-.3.1-.6.2-.8.3h-.6l-.3-.2c-.1.1-.2.2-.5.1h-.2l-.3.2c0-.2 0-.3.1-.5l.2-.2v-.1l-.1-.1c-.4-.2-1.3.1-1.6.2-.2.1-.3.2-.5.4-.1 0-.2-.1-.2-.2l.2-.1s-.1-.2-.2-.3c-.3 0-.6-.1-.8-.2 0-.1 0-.2-.1-.4l.2-.2c.3-.2.8 0 1.2-.1.1 0 .4-.1.6-.1.1 0 .2.2.4.2l.2-.3s.5-.2.7-.2l.4.1.9.1c.2.1 1.1.4 1.3.3l.1-.1-.3-.2c-.2-.1-.4-.2-.6-.4 0-.1 0-.1.1-.2.2 0 .4-.2.5-.2l.6-.1c.1 0 .2 0 .3-.1l.8.2c.2.1.3.4.6.4 0-.1 0-.1.1-.2-.1-.1-.4-.4-.4-.5l.1-.1.7.2h.4c.2.1.2.2.5.3 0-.2 0-.3-.1-.4h.7c.1.1.3.2.4.4h.1c0-.2-.1-.3-.1-.4.6-.1 1.2.3 1.7.4h1.2c.1 0 .2.1.4.1h.3l.4.2h.4l.3.2-.1.2c-.4-.5-.6-.3-1-.2zm-13.3 1.6l.2.1c.1.2.1.4.2.5h.4v-.3l.1-.1c.1.1.4.3.4.4v.5l.2.2c.4 0 .6-.1.9.2l-.3-.1c-.4.3-.8.2-1 .7l-.5-.2-.1.2s.1.2.1.3c0 .1-.1.1-.2.1l-.5-.3c0 .1 0 .3-.1.4-.4 0-.8-.1-1.1-.2h-.1l-.4-.4c-.1-.1-.3-.2-.3-.4l.4-.1c.3-.1 1.1.1 1.3.1-.2-.2-.9-.5-1.3-.5-.1 0-.1 0-.2.1h-.4c-.1 0-.2.2-.4.1l-.4-.4-.3-.2c0-.1 0-.1-.1-.2.4.1.6 0 1 0-.2-.1-.3-.1-.4-.3 0-.1 0-.1.1-.2l.5-.1v-.1l-.4-.4c.2-.1.4-.1.5-.2.1 0 .2.1.4 0 0-.2 0-.2-.1-.4.7.1.7.3 1 .7.1.1.2.2.4.3.2.3.3.2.5.2zm-2.7 2.7c0 .1 0 .2-.1.3-.7.2-1.1.2-1.4-.3-.1-.1-.2-.2-.2-.4v-.1h.3c.4 0 .8.2 1.1.3.1.1.3 0 .3.2zm-1.4 2.3c0 .1.1.3 0 .4l-.2.3c-.1.1 0 .4.1.5l-.1.1h-.4c-.3 0-.7.2-.8-.2.1-.1.1-.2.3-.2v-.1c0-.1-.1-.1-.1-.1-.2-.1-.8.1-1 .1l-.2-.1v-.2c.2 0 .3-.1.4-.1-.1-.2-.1-.3 0-.5.4 0 .6.5.9.5h.1c0-.2-.3-.4-.4-.6.4-.2.6.2.9.2v-.2s.1 0 .1-.1c.3 0 .3 0 .4.3zm-1.3-1.7l-.5-.5h-.3c-.6-.1-1.5.2-1.7-.4l.1-.1c.3 0 .4.1.8.1 0-.5-.6-.6-1.1-.7v-.3c.3 0 .8-.1 1.1 0 .2.1.2.4.4.4.1 0 .3 0 .4.1.7.1.8.1 1.1.7.1.2.2.3.2.5s-.2.3-.5.2zm-3 2.9c-.1.1-.2 0-.4 0-.1 0-.3 0-.4.1l-.8-.1c-.6.2-1.2.8-2.1.6-.2 0-.3-.1-.5-.2 0-.1 0-.1-.1-.2l.4-.1c.1 0 .1 0 .2-.1l.9-.1c0-.1.1-.2.1-.2-.3 0-.6 0-.9-.1-.1 0-.2.1-.4.1l-.6.1c-.1 0-.1 0-.2.1l-.4-.2c-.2.2-.6 0-.7-.1v-.1l.2-.2.9-.1-.5-.2c0-.1 0-.2-.1-.3.2 0 .7-.3 1-.2l.4.3s.2-.1.4-.1c.3 0 .5.5.7.6h.8s.2-.1.4-.1c0-.4-.3-.6-.6-.8.2-.1.2-.2.3-.3l.3-.1s.1 0 .1.1c.2.1.2.6.3.9.3.1.5.2.7.3 0-.1-.1-.2 0-.4.3 0 .5.1.7.3.2.2.1.7-.1.8zm-2.3-2.6c-.3 0-1.1.1-1.2-.1 0-.1 0-.1-.1-.2 0 0 0-.1.1-.1s.2-.1.3-.1h.7c.3 0 .5.1.7.1-.2.1-.4.3-.5.4zm-3 .4c-.1.2 0 .3.1.5h-.4l-.2.3h-.2c0-.2-.2-.6-.4-.5-.1.2-.2.4-.3.5l-.2.1c0 .1 0 .1-.1.2l-.2.2c-.4 0-.4-.2-.6-.3-.3.1-.3.3-.7 0v-.3l.6-.2.2-.2c.1-.1.2-.1.4-.2.1-.1.2-.3.4-.3l.8-.1h.5l.2-.1h.2c.2 0 .4.1.4.2-.2 0-.4.1-.5.2zm-2.5 2.7c.3 0 .6.3.9.4.3.1.6-.1 1-.1.3.1.8.4 1 .6l-.1.1c-.3.1-1.2.4-1.5.6-.2.2-.4.4-.6.5-.1 0-.2.1-.4.1 0 .7-.1.8-.8.8-.1.3-.4.4-.8.3-.1-.3-.3-.6-.6-.7-.3-.1-.6 0-.7-.2l.4-.3-.1-.5c.2 0 .2-.1.3-.2.1-.2.4-.3.4-.6-.1-.2-.3-.3-.4-.6.5 0 1.1 0 1.5-.1.3 0 .4-.1.5-.1zm23.3 5.9c.2 0 .3.1.4.2v.5c-.1.2-.7.4-1 .2-.3-.2 0-.7.2-.8.2 0 .3 0 .4-.1zm-2.2 4l-.3.2c-.2-.1-.6 0-.8-.2-.2-.2-.2-.4-.6-.4 0 0 0 .1-.1.1v.2l-1 .4c0-.2 0-.3-.1-.4l-.8.1c.1-.2.3-.3.5-.4-.2-.5.1-1 .3-1.4l.3.2c0 .1 0 .1-.1.2.1.1.1.1.3.1l.1-.2.7.4c.4.2.7 0 .6.7.2 0 .4 0 .6.1.3.2.3.2.4.3zm-5.3-9.2l-.8 1.1c-.3 0-.9-.1-1.1 0l.1.1.2.2c-.1.3-.4.4-.7.2 0-.3-.2-.4-.2-.6-.1-.3 0-.7.1-.9h.3l-.2-.3c.1 0 .4 0 .6-.1.3.1.5.1.9.2.3.1.6-.2.8.1zm-2.7-3.3l.5.1h.4l.2.2c0 .1 0 .3-.1.4l-.7-.1h-.2l-.5-.5.4-.1zm-1.4 7.7l.2-.5h.2s.8.4.8.5c.1.3.2.2.3.4-.1.1-.2.2-.4.2-.4.1-.9-.2-1.2-.3-.2 0-.3 0-.4-.1.2-.1.4-.1.5-.2zm-2.6-1.2c.5.2 1.4.2 1.4.9-.3 0-.5-.1-.7-.2l-.5.2v.3c.2 0 .5-.2.6-.1.1.1.2.1.2.3-.2.1-.2.2-.4.2-.6.1-1.3-.1-1.8-.3-.1-.1-.1-.2-.2-.2h-.2c-.1.3-.3.3-.6.4h-.3l-.3.2c-.3.1-1 .2-1.3.2-.3 0-.9.1-1-.1 0-.1.1-.3 0-.4-.2-.1-.9-.1-1.2-.1-.3-.1-.7-.4-.9-.6.1 0 .2-.1.2-.1h.3l.2-.1h2.4c-.5-.5-1.8-.4-2.7-.4-.3 0-.9-.1-.8-.3.2-.2 1.2-.1 1.5-.3v-.1l-.1-.1-.9.1-.3-.2-.3-.1-.2-.1c0-.6 1.1-1.1 1.5-1.2.2-.1.9-.4.9-.1-.1.2-.1.2-.1.5.4 0 .4-.2.6-.3.2-.1.7.1.8.2v.4c.3 0 .4-.1.6-.2h.3l-.2-.5c.3 0 .6.1.8.3.1.1.1.2.1.3.1.2.2.5.4.6.1 0 .2-.1.2-.1.1-.2-.2-.5-.2-.7-.2-.3-.2-.7-.2-.9.5.1 1.1.2 1.4.6l.1.5c.1.2.2.5.4.6l-.1.6c.3.1.4.3.6.4zm3-2.3c.1 0 .6.2.6.3v.2l-.2.1c-.1.2 0 .8-.5.7l-.4-.2v.1c.1.1.1.2.2.2l-.2.2c-.5 0-.6-.5-1-.7l-.6-.2c-.2-.1-.5-.4-.6-.5l.2-.3c.3.1.4.4.8.4l.4-.4v-.1c-.1 0-.5-.4-.5-.4v-.1h.4s.1-.1.3-.1l.2.2c.1 0 .6-.1.6-.2.2 0 .4 0 .5.2 0 .1-.1.1-.2.1l-.1.2-.4.2v.2c.4-.1.4-.1.5-.1zm4.5-2.5c.2 0 .2 0 .2-.2h.3s.1-.1.2-.1l.7.3.2-.2c.3-.2 1.6-.4 2.1-.3l.5.3c.3.1.5.1.7.3-.1 0-.6.2-.5.4l.1.3-1.1.1-.3-.1c0-.1 0-.3-.1-.3s-.1-.1-.2-.1h-.1v.3c-.1 0-.6.1-.8.1l-.5-.2v.2c-.3 0-.6.1-.9 0-.1-.1-.1-.2-.1-.4-.1 0-.3 0-.4.1l-.1.2c-.4.3-.7-.1-.9-.3l-.2.2h-.3c0-.2-.2-.4-.2-.7.4-.4 0-.6-.2-.8 0-.1-.2-.2-.1-.3s.3 0 .4-.1h.6c.2.1.4.2.7.3l-.6.2-.1.2c.3 0 .6 0 .8.1-.1.3.1.4.2.5zm13.8 8l.5.3c-.1.1-.1.2-.2.2-.2.1-.3-.2-.6 0 .1.1.3.2.3.3-.2 0-.3.1-.4.3l-.3-.2c0 .1 0 .3-.1.4l.1.3c-.1 0-.4-.1-.4-.2l-.1-.2s-.1.1-.2.1c-.1-.1-.1-.1-.2-.3 0-.1 0-.1.1-.2l-.4-.1c-.3-.1-.4-.4-.8-.5-.1.1-.2.1-.2.2l.3.3h-.2c-.1-.1-.2-.2-.4-.3.1.2.2.4.3.5h.3c.1.2.2.5.4.7l.1-.1c.1 0 .2.2.3.3s.2.1.3.2h-.1v.1c.2.3.6.2.5.8-.1-.2-.2-.4-.4-.5 0 .3.3.4.3.8h-.2l.2.4c-.2-.1-.4-.2-.5-.4-.6 0-.7-.4-1.1-.6v.3c-.2-.1-.3-.2-.6-.2 0 .4.6.5.8.7.3.2.6.5.7.9l-1.1-.4-.6-.1c-.1-.1-.1-.2-.2-.2h-.3l-.1-.1h-.2c-.2-.1-.4-.1-.5-.3.1-.1.2-.1.2-.2l-.3-.2h-.3c-.2-.1-.4-.3-.4-.6-.3 0-.4-.1-.7-.2 0 .1.1.2 0 .3h-.1l-.5-.1-.2.2c-.4 0-.8-.1-1.1-.2 0-.3.1-.4.4-.5v-.3c.1 0 .7.1.8.2l.2.2v-.3c.3 0 .4-.1.6-.1h.3v-.1c-.1-.1-.5-.5-.4-.5l.6-.4c0-.1.1-.2.1-.2l.3-.3c0-.2-.3-.8-.4-.9-.3-.1-.4-.1-.6-.3 0 0-.2-.3-.2-.4l-.2.2h-.2c-.1 0-.3.1-.5.1 0-.1 0-.2-.1-.3.2 0 .4 0 .5-.1v-.1l-.7-.5h-.2l-.1-.1c0-.4-.3-.3-.5-.5-.1-.1-.2-.1-.2-.2-.1 0-.1 0-.2.1-.1 0-.4-.3-.5-.2h-.1c.1.3.8.2 1 .5v.1l-.2.1c-.4.1-.7-.4-1-.2 0 .2.2.2.1.4-.1-.1-.3-.3-.5-.2-.1 0-.2.1-.2.1-.1-.1-.2-.2-.4-.1h-.2l-.7-.1h-.6l-.2-.1v-.3c-.1 0-.2 0-.3-.1l-.1.2c-.4.1-1.1-.1-1.1-.5.2 0 .9.1 1 0-.4-.4-.9-.3-1.5-.5 0-.3.1-.4.3-.5v-.1c-.1-.1-.2-.1-.2-.2 0-.9 1.4-1.8 2.3-1.4v.1c-.2.1-.7.7-.8.8v.2l.3.2c-.3.5.3.7.5.9v.1l-.3.1v.1c.2 0 .4 0 .6.1 0-.1.2-.3.1-.4.1-.2 0-.2-.2-.3-.1-.1-.1-.2-.2-.2 0-.1.2-.2.2-.2h.4c-.1-.1-.2-.1-.2-.2h-.2l-.2-.1v-.4l.2-.1c.2.1.4 0 .6 0l-.5-.3c.3-.1 1.2-.6 1.7-.3.1.1.2.2.3.4l.3.3-.3.6v.3c.3.1.5 0 .5-.3.2 0 .3 0 .4.1v.3c.1 0 .1 0 .2.1v-.4c.2-.6.8-.3 1.3-.2.2 0 .3-.1.4 0l.2.3s.2.1.3.2v.1c-.2 0-.4.2-.5.4l.1.1h.1c.1-.1.3-.2.5-.2.1.1.2.3.3.5.1-.2.3-.3.4-.4.3.1.5.1.7.3l-.3.4c.3 0 .4-.1.6-.1v.3l.2.1c.4 0 .6-.3.9.1-.1.2-.4.2-.6.4v.1l.1.1.3-.1h.3c.1 0 .1-.1.2-.2.2 0 .4.3.5.5-.2 0-.4 0-.6.1v.1c.1.2.4.1.6.2.1 0 .1.1.2.2h-.5c-.1 0-.3-.2-.4-.1 0 0 0 .1-.1.1l.3.2v.1h-.4c.1.3.6.3.9.5.1.1.1.3.2.3.3-.1.3 0 .6 0l.4-.1c.2.1.4.3.5.5l-.3.1v.2c.3 0 .6-.1.8 0 0 .1 0 .1-.1.2.3-.4.4-.4.6-.6zm1.2-8.3l.1-.2c.1.1.1.2.1.3-.1 0-.2 0-.2-.1zm.8 3.1c0-.1.1-.1.2-.2.3-.1.5 0 .7.1.1.1.1.1.3.2.1 0 .4.1.3.3-.1.1-.2.2-.4.3h-.3l-.2.1c-.1 0-.3-.1-.3-.2l.1-.1c-.1 0-.1 0-.2-.1l-.2-.2s0-.1.1-.1h.1c-.1-.1-.2-.1-.2-.1zm-9.4 36.8c-.1.101-.1 0-.2 0l-.2.1c-.1 0-.5-.2-.5-.301l.1-.1c.2.001.7.101.8.301zm.5-9.9c-.1-.101-.1-.2-.1-.301l.1.301zm.6 8.8l-.6.1c-.2 0-.3 0-.5-.1-.2 0-.4.1-.7.1l.1-.1c.1 0 .2-.101.2-.2l-.7-.2c0-.1 0-.3-.1-.3-.1-.1-.3 0-.5 0l-.6-.3-.7-.1c.1 0 .2 0 .2-.1v-.1c-.5-.1-.5.1-.8.2h-.3c0 .101-.2.301-.4.2l.1-.1v-.2c.2-.1.4-.2.7-.3h.4c.4 0 .7.1 1 .1h.1l.3.3c.3.101.6.101.8.301.1.1.1.199.2.199.2.101.7.101.8.2 0 0 0 .101-.1.101.7-.001.9.099 1.1.299zm.4.2c.1-.1.1-.1.2-.1l.6.101c.1 0 .2-.101.2-.101h.2s.1 0 .2-.1c.1.2.3.1.5.1.1.3.6.3.8.601 0 .1-.1.199-.2.199-.1-.1-.2-.3-.4-.1 0 0-.1-.1-.2 0-.1 0-.2.2-.3.1l-.1-.1c-.2.1-.3.2-.4.4-.1 0-.2-.2-.3-.301h-.4c-.1 0-.3 0-.4-.1l-.2.1-.3-.199s0-.101.1-.101c.3.101.8.2 1 0-.3-.1-.1-.2-.2-.399-.1.1-.3.1-.4 0zm3.2.7c.3-.1.6-.1.8 0 0 .2-.2.2-.4.2s-.2.101-.4 0v-.2zm.1 6.3c.1 0 .2 0 .3-.101h.1l-.1.4h-.4l.2-.101v-.098c0-.1 0-.1-.1-.1zm3.2-22.1c.2-.1.3-.5.5-.1-.1.3-.7.4-.8 0-.1-.3.3-.5.4-.7l.2.1-.2.4c0 .1-.2.1-.1.3zm3.8 27.8l-.2.5c-.1.2-.6.301-.9.2-.1-.2-.1-.5 0-.8.3 0 1 0 1.1.1zm.4-28.9c0 .2-.1.4-.2.5l-.3-.1v-.2l-.1.1h-.1v-.1c.1-.1.1-.1.1-.3 0-.1-.1-.1-.1-.1h-.1c-.1.2-.4.4-.6.5h-.2v-.1c.3-.1.3-.3.5-.4h-.3c0 .1 0 .1-.1.1h-.1v-.2h-.2c0 .1-.2.2-.4.1l-.6-.1c-.2 0-.3 0-.5.1 0-.1-.1-.1 0-.2.1-.2.4-.2.6-.4-.1 0-.2 0-.3-.1.1-.3.3-.1.4-.3l-.2-.2c.1-.4.6-1.1.9-1.3l.4-.1h.1v.1c-.1 0-.2.1-.2.1.2.4-.4.6-.4 1.1.2 0 .2-.2.4-.3.1 0 .2.1.2.1l-.2.2c.2.1.4.3.6.2 0 0 0-.1.1-.1l.6.1s0 .1-.1.1l-.3.2c0 .1.1.1.2.2.1 0 .2 0 .2-.1h.1v.1c-.2.2-.2.1-.4.2l.1.3c0-.1.1-.1.1-.1h.1c.1.4.1.4.3.4zm2.6-11.1l.2-.2h.1v.1l-.3.1zm-16.1 63.6c-.1 0-.2 0-.3-.101l.2-.8h.2s.1.101.1.2l-.2.2.1.2c0 .101 0 .201-.1.301zm-23.7-69.1c0-.1-.2-.3-.1-.4.1 0 .3-.1.3-.1.1.1.1.3 0 .4.4.3.7-.3.8-.3.2-.1.8.1 1 .2.7.3 1.8.8 2.7.6.3 0 .8.3.9.5l-.7.1c0 .1 0 .2-.1.3.5.1 1 .3 1.7.2.3-.1.6-.2.9-.2.3 0 .4.2.5.2.3.1.5.1.7.3v.1c-.1 0-.2.1-.2.1l.4.4v-.3c.1 0 .2 0 .2-.1-.1-.3-.4-.3-.3-.9.2 0 .6-.1.7-.1l.1-.2c.5 0 .6.3 1.2.2.1.2.7.5 1.1.4.1 0 .1-.1.3-.1.5 0 1 0 1.3-.1.2.1.3.3.6.3 0-.1.1-.2 0-.3-.1-.1-.4-.1-.6-.2v-.2c.4-.1.5.1.8.1l.3.1c0 .2-.1.3-.1.4 0 .3.4.4.5.5 0-.3-.2-.7 0-.9h.4l.3-.3.4-.1c0-.1-.1-.3-.2-.3-.1.1-.2.1-.4.1l.1-.2.4-.1c.1.1.2.2.3.2v-.5c-.4.1-.5-.1-.7-.2h-.2c-.3 0-.9-.2-.9-.6l.3-.2c-.1-.1-.2-.2-.4-.3l.3-.5.4.1v-.2c-.1-.1-.2-.1-.2-.3.1 0 .1-.1.2-.2.5-.2 1.1.2 1.2.4.1.2 0 .3 0 .4l.7.6s0 .1-.1.1c-.2 0-.3 0-.3.1l-.1.2c.2 0 .2.1.3.1h.3c.2-.1.4.1.5.2-.1.1-.1.2-.2.2 0 .1.1.1.2.2s.1.4.1.6c.4-.1.3-.6.6-.8.3 0 .7.5.6.9h-.3l-.1.3s.5.6.6.7c.1 0 .3-.1.4-.2 0-.4.3-.4.4-.6.1-.2 0-.5.2-.6h.4v-.2l-.4-.3v-.4l.1-.1c.4 0 .6.1.9.2l.3.1.3.3c.1 0 .2-.1.3 0 .1.1.1.4.1.5l-.2.1s-.2-.1-.2-.2l-.3.1c.1.5.5.7.7 1.1 0 .3-.4.7-.5.7-.2.1-.3.1-.4.2-.4-.1-.4-.6-.8-.6l-.1.1c.2.1.5.3.6.5h-.4c-.3 0-.4 0-.4-.3-.2 0-.6 0-.7.1v.1l.4.2c-.1.1-.7.8-.9.7l-.4-.3-.3-.1s-.2-.1-.3-.1c-.2-.1-.4 0-.6.1l.6.2.4.3c.2.1.6.2.9.2l-.1.4c-.1.2-.6.5-.9.5-.2 0-.3-.1-.4-.2 0 .2.1.4 0 .5-.4 0-.6-.1-.9-.2l-.9-.1.5.3c.4.1.6.1.9.3v.1c-.1.1-.2.1-.4.2-.2 0-.4-.1-.5 0l.3.2c-.1.2-.6.4-.8.6 0 .1.1.2 0 .3-.1.1-.2.1-.3.1-.3.3-.7 1.5-.4 1.9l.7.1c.2.1.4.7.4.9v.4c.3 0 .5-.2.9-.2.5.1 1.1.4 1.4.6.1.1.2.2.2.3l.8.2c.2.1.3.2.4.2.3.1 1.2 0 1.5.2l-.1.5.1.3c.1.3-.1.4-.1.6.2.2.3.2.3.6.3 0 .6.3.7.6.3 0 .3.2.5.3l-.1-.3c0-.1.1-.2.2-.2s.1.2.2.3v-.4c.3-.2 0-.5 0-.8v-.2s-.1-.2-.1-.3h.1c0-.3-.2-.2-.3-.3-.1-.1-.1-.2-.1-.4.8-.1 2.1-1.2 1.4-2.2-.2-.3-.8-.5-.9-.8.2-.1.3-.3.3-.5 0-.1 0-.1.1-.2l.2-.1c0-.1 0-.2-.1-.3l-.1-.2s.1-.1.1-.3h-.4l.4-.6-.3-.2c-.1-.3.2-.6.4-.5.3 0 .6.2 1 .3.4.1.8-.2 1-.1l.9.6c-.1.1-.1.1 0 .2l.8.3c.2 0 .2-.1.3-.1 0 0 0 .1.1.1v.2c-.4.2.2 1 0 1.3h-.2v.3c.4-.1.6-.3.8.1v.1s0 .1.1.1l.6-.2.2-.3c.2 0 .2.2.3.3 0-.4.2-.5.3-.7-.3-.4-.1-.2.2-.4l.1-.2c.3.1.7.9.9 1.1l-.1.2h.1c.1.5.4.3.5.6-.1 0-.1 0-.2.1l.4.3v.2c-.1 0-.4-.1-.5 0 .1.1.2.4.3.4h.2c.1 0 .5.4.5.5l-.1.3.5-.1c.2 0 .4.2.6.3l.6.1c-.1.2-.3.2-.5.2l-.5.3h-.3c-.1.1-.1.2-.1.4.2-.1.4-.1.5-.2.3-.2.6-.7 1.1-.2l-.1.2s0 .1.1.1.2-.1.3-.1c.2 0 .4.2.4.3l-.2.4.2.3-.7.5-.8.1-.4.5c-.3.2-.7.2-1.1.3h-.9c-.3 0-.6.1-.9 0-.2 0-.6-.1-.8 0-.3.1-.3.5-.5.6-.1.1-.4.1-.5.1-.5.3-1.1 1-1.4 1.6l.9-.9c.4-.3.9-.4 1.4-.6.5-.2 1-.2 1.2.3-.1.1-.5.4-.7.4l-.2-.1s-.2 0-.3.1c.2 0 .3.1.4.3l.3-.1v.1h.1s.1 0 .1.1l-.1.1c-.1.2-.1.2-.2.3h.3v.2h.1c-.1.3.3.2.5.3h-.1c.1 0 .1.1.1.1h.1s.1 0 .1.1c.1 0 .2-.1.3 0v.1h.2l.2-.1c0 .2.1.1.2.1l.1.1h-.1c.1 0 .2 0 .2.1h-.4c-.3 0-.5.2-.7.3l-.1-.1v.1h-.1c0 .1 0 .1-.1.1h-.2v-.1s0 .1-.1.1v-.1h-.1v.2c-.2 0-.2.2-.4.3v.1h-.2v.1h-.1l-.1-.2c0-.2-.1-.3 0-.5 0 0 .1 0 .1-.1l-.2.1.2-.1c.1-.1.6-.4.7-.4v.1h.1v-.1c.1 0 .2-.1.4-.1-.2 0-.6-.1-.8 0v-.1c.1 0 .3-.1.3-.3 0 0-.1 0-.1.1 0-.1 0-.1-.1-.1v.1s0 .1-.1.1c-.3 0-.4.2-.6.3 0 0-.1 0-.1-.1v.1l-.2.1c-.1-.1-.2-.1-.3 0h-.1s0 .1.1.1c0 0 0 .1-.1.1h.1v.1c-.1 0-.1.1-.3.1v.1s-.1 0-.1-.1c-.1 0-.1.1-.2.2v-.1l-.2.1v.1h-.1v-.1c0 .1-.1.3-.2.4h-.1v.1h-.1v-.1h-.1v.1h-.1v-.1s-.1 0-.1.1v.1c-.2 0-.2.3-.3.5l.1.1c-.1 0-.2.1-.2.2.2 0 .3.2.3.3h.1c.1 0 .1 0 .2-.1v-.1h-.1s0-.1-.1-.1h.1l.1.2-.4.1v-.1c0 .1-.1.199-.2.199v-.199h-.1v.2c-.6 0-1 .2-1.3.4 0-.1.1-.2.1-.2l-.1.3h-.1c0 .101.1.101.2.101 0 .2-.1.399-.2.5h-.1c0 .2-.2.3-.3.399v-.1c-.2 0-.2-.1-.3-.2l.1-.1c-.1 0-.1.1-.1.1 0 .2.1.5.3.5v.2l-.2.2-.1.3h-.1l-.1.2v-.1c0-.199.1-.3.2-.399h-.1v-.101h-.1v-.1s-.1 0-.1.1c0 0-.1 0-.1-.1 0 0 0-.1-.1-.1.1 0 .1 0 .2-.101-.1 0-.1-.1-.2 0v-.1c.1 0 .1 0 .1-.101h-.1s0-.1.1-.1v-.1s-.1 0-.1.1l-.1.1v.102h-.1c.1.3 0 .2 0 .3s.1.1.1.2c-.1 0-.1 0-.1-.101l.2.301-.3-.2v.1l-.2-.1v-.1l.1-.1h-.1v.2c.1.1.5.2.5.3s0 .1-.1.1l-.2-.2c.1.1.1.199.3.199.1 0 .1 0 .1.101h-.1v.1l-.1-.1.2.2v.1h-.1c0-.1-.1-.1-.2-.2h-.1c.1 0 .2.101.2.2.2 0 .3-.1.3.2v.1h-.1l.1.2v-.1h-.2s0 .1.1.1c0 0-.1 0-.1-.1v.1h.2c0 .1-.1.1 0 .2 0-.101 0-.101.1-.101l.1.101v.1h-.1l-.1.2c-.1 0-.2-.1-.2-.1v.1c-.1 0-.2-.1-.2-.1v.1c.1 0 .2 0 .2.1l-.2.1c-.1 0-.1-.101-.1-.101s0 .101.1.101h.1l.2-.101.1.101-.1.1c-.1 0-.2 0-.4.101l-.3.399c-.1.1-.4.1-.5.1l-.2.3c-.1.2-.4.3-.6.3l-.3.5-.2.5c-.1.4.4.9.5 1.2 0 .1 0 .3.1.399 0 .2.1.301.2.5.1.4-.1.801-.2 1.101v-.1c.6.4.4.4.4.4l-.2-.4c-.3 0-.1-.1-.2-.3 0 0-.1 0-.1-.1v-.2h-.1c-.1-.1-.1-.2-.2-.4.1 0 .1 0 .1-.1v-.1l-.2.1.1-.6c0-.101-.1-.101-.2-.2-.2-.101-.3-.601-.6-.5-.1 0-.2.1-.2.2l-.3.1-.2-.3c-.2 0-.3-.101-.4-.2-.2 0-.3.1-.5 0v.1h-.2l-.1-.2v.2c-.1 0-.4-.1-.6 0l-.2.1c-.1 0-.2-.2-.3-.101 0 0 0 .101-.1.101.1.1.2 0 .3 0s.2.1.2.2l-.2.1c0 .2.2.2.3.3h-.3c0-.1-.2-.2-.3-.2v.1s.1 0 .1.1h-.1s0-.1-.1-.1l-.2.1s-.1-.1-.2-.1l-.1-.1-.3-.2h-.1l.1.1c-.1.1-.2 0-.3 0-.2 0-.5-.2-.8-.1-.1 0-.1.1-.3.1v-.1s-.1 0-.1.1.1.1.1.2c-.2.1-.3.3-.6.399-.2 0-.3-.1-.4 0l.1.101-.5.3.1.1-.2.2.1.8c-.1.1-.2.3-.2.4s0 .3-.1.4c-.1.5 0 1.399.2 1.699.1.2.3.4.5.7.1.2.2.4.4.601h.4c.1.1.2.199.3.199.3 0 .9-.199 1.2-.3v.101h.2l.1-.101c0-.1-.1-.1-.1-.1.1-.101.3-.101.4-.3v-.2l.1-.099v-.3l.1-.3c.5-.2 1.4-.5 1.9-.2v.2l-.3.3s-.1.4-.2.4h.1l-.1.6-.1-.3v.2h.1v.1l-.1.9c-.1.1-.2.1-.3.3l.1.1v-.1l.2.1c.3-.1.6 0 .9 0l.2-.1s.1 0 .1.1h.5s.1.101.2.101v.2l.3.1c.1.2.2.4 0 .6l-.1.2-.1.7-.1.6c.1.301.6.7.8.9 0 .1.1.2.1.2.1.1.2-.101.4.1.3.101.4-.1.6-.2h.2c.1-.1.2-.1.2-.199.1 0 .2 0 .3.1h.4c.3.1.5.4.6.7-.1.1-.1.2-.2.2 0 0 0-.101-.1-.101 0 .101 0 .101-.1.2.1 0 .1 0 .2-.1.1-.101.2-.4.5-.301.1 0 .2.101.2.2l-.1.1c-.2 0-.4 0-.4.199.1.2.1.301.2.4-.1.1-.2.3-.2.4.1.101.1.301.3.401l.3-.1c.1-.2-.2-.601-.3-.7 0 0 .1 0 .1-.1.2-.101.9-.301.9-.4l-.1-.1h-.1l-.1-.1c0-.1.1-.1.2-.1 0 .1.1.3.2.3.3 0 .6.1.7.3 0 .101 0 .2.1.2h.8c.3 0 .4.4.9.3.2 0 .2-.2.4-.3.2-.1.7-.1 1 0h-.4v.1c.2.1.3.1.3.3 0-.101 0-.101.1-.101s.2 0 .3.101c0 0 0 .1.1.1.1.1.2.1.3.1-.2.101-.2.301-.5.4h.3c.1 0 .3-.1.4 0 .3.1.7.3.8.6 0 .2 0 .301.1.5 0 0 0-.1.1-.1.3 0 .6.3.7.5l.1-.1.5.1v-.1c.3-.101.7 0 .9.1l.6.2c.1.1.7.6.7.6h.1c.1.101.1.2.1.3.1.4.1 1 .6 1 0 .101.1.2 0 .301-.2.1-.2.3-.3.399l-.5.4s-.1.399-.3.5c.2.1.4-.2.6-.2l.2.4h.7c0 .1-.1.1-.1.3.1-.2.4-.3.5-.4.1-.1.1-.3.2-.3s.3 0 .4-.1l.3.199c.3.101.6.101.7.4l.1-.1c.1 0 .3.199.3.399s-.2.102-.1.402c.2-.101.4-.3.7-.4.2 0 .4.2.5.2l.5.1h.8c.5.2.8.7 1.3 1l.8.101c.1 0 .4 1.1.4 1.3-.1.7-.5 1.1-.9 1.5-.1 0-.2.1-.2.1l-.1.301c-.1.199-.3.6-.5.8l-.1-.2h-.1c0 .3-.1.5-.2.8l.1.9c0 .2-.1.5-.1.6v.4c-.2.1-.4.3-.3.6v.3c0 .101-.2.2-.2.2-.1.101-.1.2-.2.4s-.3.3-.3.5v.3c-.3 0-.5.1-.5.4-.3 0-.6.1-.9 0h-.5c0 .199-.1.199-.3.3l-.2.2-.2-.101c-.2 0-.9.5-1 .7-.1.1-.2.3-.4.2v.1c.2.101 0 .4 0 .4l.1.3c.2 1-.4 1-.7 1.5l-.3.6c-.1.2-.3.5-.5.601.1-.3.5-.5.4-.9h-.3l-.1.4c-.1.1-.3.2-.3.3l-.1.6c-.1.301-.4.5-.6.7-.2.2-.3.5-.6.601-.2.1-.3-.101-.4-.101l-.5.101c-.2-.301-.4-.301-.8-.2-.1-.101-.2-.2-.3-.2l-.1.1c.2.301.5.301.7.5 0 .101 0 .101-.1.2-.1.3.2.3.3.4 0 .1.1.2 0 .3l-.3.5c-.1.1-.1.2-.1.3-.2.3-.8.3-1.2.4-.3.1-.6.1-.9 0-.1 0-.3-.101-.3 0-.1.2.1.3.1.399-.1.101-.2.301-.2.4 0 .2.1.2.1.3 0 .101-.1.101-.2.101-.1.1-.4.1-.6.1l-.6-.2s0 .101-.1.101c0 .199.1.3.1.399 0 .101-.1.2 0 .3.1 0 .2.301.4.101l-.1-.101.3-.1c0 .1 0 .2.1.4-.1 0-.1.1-.2 0 0 0 0-.101-.1-.101s-.4 0-.4.101l.3.1c-.2.1-.4.2-.5.3 0 .4.1.4-.2.601l.1.199c-.2 0-.3 0-.5.101-.3.1-.7.5-.5 1 .1.2.3.3.5.399.1 0 .2 0 .3.101.2.7-.6.7-.8 1.1-.1.101-.1.2-.2.2 0 .2.1.3-.1.5-.1.2-.4.1-.6.3-.4.5.1 1 .3 1.4-.2.1-.3 0-.4-.101h-.1c-.1.101-.1.2-.3.2l-.4.101-.1.699h-.2l-.2-.103c.1-.2.2-.3.4-.5l-.1-.1c-.2 0-.4.199-.7.199v-.199c.2 0 .4-.101.6-.2-.1-.101-.3-.101-.5-.101l.1-.3c-.1 0-.2-.1-.2-.2l-.2.101s-.1 0-.1-.101l.1-.199c-.1 0-.1 0-.2.1 0-.1-.1-.1-.1-.1v-.1l.1-.1v-.1l-.3-.199c.2 0 .3-.2.4-.4-.1 0-.2.1-.3 0 0-.1 0-.1-.1-.2l.1-.1c-.1-.101-.1-.101-.1-.3l.2-.101v-.1l-.2.1v-.5l.1-.1v-.3l.4.1v-.2l-.2-.1h-.4v-.1c.1-.1.1-.199.1-.3h.1v-.1c-.2-.2-.3-.101-.5-.2v-.1h-.2v-.1c.2-.1.3-.2.4-.399h.2v.1c-.1 0-.2.1-.2.1v.101c.1-.101.1-.101.1-.2v.2l.2-.3c.1-.4-.1-.301.3-.601-.1 0-.2-.1-.1-.2 0-.1.1-.1.2-.1.1-.1.2-.2.2-.3v-.101c-.1 0-.2-.1-.2-.1v-.3c.1-.3-.1-.3.2-.4 0-.1-.1-.2-.1-.399 0-.101.1-.101.1-.101v-.1c0-.101-.1-.101-.1-.101 0-.1 0-.1.1-.199h-.2c-.1.1-.2.199-.3.1l-.1-.3c-.1-.5.3-.7.3-1 0-.2-.1-.4-.1-.5v-.5l-.1-.3c.1 0 .2 0 .3-.101.1-.6.4-1.1.6-1.7 0-.199.2-.3.2-.399l-.1-.3c.1-.101.1-.2.2-.2v-.2c0-.2-.1-.9-.1-1s.2-.2.2-.4c.1-.199-.1-.3-.1-.5l.1-.6.1-.2c.1-.2.2-.8.1-1.1l.2-.3v-.2c0-.2 0-.5.1-.7l-.1-.1v-.2l.1-.101c.1-.5.2-2.199-.1-2.6l-.4-.2-.1-.3c-.2-.1-.4-.2-.5-.2-.6-.3-1.2-.6-1.6-1.1l-.2-.3v-.4c0-.1-.2-.2-.2-.4-.2-.3-.2-.6-.5-.8 0-.5-.7-1.5-.9-1.8-.1-.2-.2-.4-.3-.5-.2-.2-.4-.2-.6-.3h.2l-.3-.699.9-.9v-.3c-.2.2-.3.4-.6.1.1 0 .1 0 .1-.101 0-.2 0-.399-.1-.6l.3-.199-.1-.1.2-.301v-.399c.3-.101.4-.101.6-.3 0-.101 0-.101-.1-.101v-.1h.2v-.3c.1 0 .4 0 .4-.101l.3-.6-.2-.2.1-.3c0-.2-.1-.3-.1-.4.1 0 .1 0 .1-.1 0-.101-.1-.101-.2-.2l.1-.2-.3-.298.1-.3.1.1.2-.2c0-.199-.1-.199-.2-.399.2.1.2.2.3.399l.1-.1-.1-.2.4-.399h.2c.1-.301 0-.601.3-.801l.2-.1.1.1s.1 0 .1-.1 0-.2.1-.3c.2.1.5 0 .6-.101-.1-.1-.2-.3-.2-.399 0-.101.1-.101.2-.101-.1 0-.1-.1-.1-.1l-.2.1c-.1-.3-.3-.399-.7-.199v.2c-.1 0-.3.101-.4.2.1.101.2.2.2.4l-.4.1-.1-.3v.1c-.2 0-.2-.1-.3-.3l-.6-.1-.1.1c0-.2-.1-.3-.2-.399l.1.1c-.1 0-.2 0-.2-.1.2-.301-.2-.301-.4-.4-.1 1.699-.1 1.599-.1 1.499l-.3-.1v.1c.1 0 .1 0 .1.1l-.1.1c-.1-.2-.3-.101-.4-.4l.1-.2v-.1s-.1 0-.1-.1h.1v-.1c-.1 0-.2-.2-.3-.3-.2-.2-.5-.4-.7-.7v-.1h.1c0-.101-.1-.2-.2-.2 0 .1 0 .1-.1.1-.6 0-.9-.3-1.4-.399l-.5-.101c-.4-.3-.9-1-1.4-1.1s-.6.2-1 .3c-.1 0-.8-.1-.9-.2l-.6-.3-.4-.1-.6-.3c-.2-.1-.4-.4-.6-.3l-.6-.2c-.1-.1-.2-.3-.4-.4l-.4-.2c-.1-.1-.2-.2-.3-.399l-.1-.101.2-.2-.1-.1c.2-.2 0-.4-.1-.6 0-.101 0-.101.1-.2l-.9-1.1-.3-.2c0-.101 0-.2-.1-.2l-.3-.1-.1-.2h-.2l-.1-.1c-.1-.1 0-.2.1-.3-.1-.2-.2-.2-.3-.2-.1-.399-.3-.2-.4-.5v-.2l-.3-.1c-.3-.2-.9-1.3-.9-1.7l-.3-.1v-.2h-.1s0 .1-.1.1c-.2 0-.3-.1-.4-.199l-.1.399.1.2v.4c.1.199.3.199.5.399l.2.5c.1 0 .2.101.2.101l.1.399h.2c.1.3 0 .5.4.4.1.1.1.3.1.5.1.2.2.399.3.5l.1.399.2-.1c.1.1.1.2.2.4l.2.1c0 .2-.1.2-.2.3h-.1c0-.1 0-.2-.1-.3l-.3-.2c-.2-.1-.6-.399-.7-.6-.1-.101 0-.3 0-.4 0-.1-.1-.3-.2-.399-.1 0-.2 0-.2-.101l-.2-.2c-.3.102-.8-.398-.9-.598.2 0 .4.1.4-.1.2-.2-.1-.5-.2-.6-.1-.1-.5-.3-.5-.4l-.1-.3c0-.1-.1-.1-.2-.1 0-.1 0-.199-.1-.3-.1-.2-.3-.3-.2-.5l-.2-.2v-.199c-.1-.201-.4-.901-.6-.701h-.1v-.1c-.3 0-.3-.1-.5-.199h-.5l-.1-.201v-.2c-.1 0-.1 0-.1-.1 0-.201-.5-.5-.5-.801.1 0 .1-.1 0-.199-.2 0-.2-.101-.3-.201 0-.1-.1-.199 0-.299 0 .1.1.199.2.199-.1-.1-.2-.199-.2-.3v.2s0-.1-.1 0l-.3-.299-.1-.2v-.1l-.3-.5.1-.701c0-.199-.3-.699-.2-1 0-.1.1-.1.1-.1l.1-.2-.1-.2c-.1-.2.1-.4.1-.6.1-.3.1-.7 0-.9h-.1v-.4h.1s-.1 0-.1-.1v.1c0-.4-.3-.5-.2-.9l.5.1c.2 0 .5-.1.5.2l-.2.2.2.1c0-.2.2-.3.2-.6 0-.1-.1-.2-.1-.4-.1-.2-.4-.2-.3-.5-.1 0-.1.1-.3.1l-.1-.3c-.1 0-.1.1-.3.1-.2-.1-.2-.3-.2-.5-.2 0-.4 0-.6-.1 0-.1-.1-.2-.1-.2-.2.1-.5.2-.6-.1 0-.1.1-.3.2-.3-.1-.099-.2-.099-.3-.099l.2-.2c.1-.1.2-.1.2-.2-.2 0-.4.1-.5 0v-.3h-.2c-.1-.2-.2-.3-.2-.6-.2 0-.2.1-.3.2-.2-.2-.4-.4-.4-.7.1-.1.2-.2.2-.3l-.1-.2v.1l-.3.1s-.1 0-.1-.1v-.4l-.2-.4c-.3 0-.3.1-.5.1 0-.2.1-.4 0-.4-.1-.3-.4-.4-.6-.6.1-.1-.1-.2-.1-.4l.1-.1c-.2-.1-.2-.1-.3-.3l-.3-.2s-.2-.5-.3-.6h-.1c-.1.3.1.5.1.7-.3 0-.3-.2-.4-.4-.1.1-.2 0-.4 0 .1.1.2.1.2.3-.1 0-.3 0-.4.1-.3-.1-.4-.4-.6-.5h-.2c-.2 0-.4-.2-.5-.3.1 0 .2-.1.2-.1 0-.1-.1-.1-.1-.1l-.3.1-.6-.1v-.2c-.2 0-.2 0-.3.1h-.5c-.2 0-.5.1-.7 0-.2-.1-.2-.2-.3-.3-.1.1-.1.1-.3.1l-.5-.4c-.3-.1-.5-.1-.7-.3l-.3.1v.2c-.1 0-.2.1-.2.2.3.2.4 0 .2.5l-.5-.1-.3.3-.3.1c-.3.2-.3.2-.7.3 0-.2.1-.2.2-.3 0-.2-.1-.2-.2-.3 0-.1.1-.1.2-.2.1-.5.1-.7.4-.8.2-.1.5.1.6 0-.2-.1-.4-.4-.7-.3l-.5.4-.3.1-.2.2c-.1 0-.1 0-.2.1.2.5-.7.3-.7.9l.1.1c.2 0 .3 0 .4.1-.1.2-.3.2-.4.3l-.3.3-.5.1-.6.4.1.2c-.1.2-.4.2-.7.3-.1 0-.3.1-.4.2l-.1.2c-.2.2-.7.3-1 .1.1-.1.5-.5.7-.5h.3v-.3l.5-.3.1-.5.2-.2c0-.1 0-.2.1-.3l-.6.1-.1-.2c-.1 0-.2.1-.2.1 0 .1.1.2 0 .3-.2.1-.3-.3-.5-.4-.4-.1-.4.1-.6.2-.1 0-.4.1-.4 0-.1-.2 0-.4 0-.6 0-.1-.1-.4-.2-.5-.1.1-.8.3-.9.2-.1 0-.5-.5-.5-.5.1 0 .1-.1.1-.2.2 0 .5.2.7.1-.1-.1-.1-.2-.2-.2s-.2.1-.3.1l-.7-.3-.2-.4c.1 0 .1 0 .2-.1v-.2s.1 0 .1-.1 0-.2.1-.2l.2-.2.4-.4c.1 0 .5.2.5.2.2 0 .2-.2.4-.3.1-.1.5-.1.7-.1 0 0 .1 0 .1-.1 0-.3-.1-.5-.2-.7h.2v-.1c0-.2 0-.3-.1-.3l-.4.2-.4.3c-.2 0-.4-.1-.5-.1h-.6c-.3.1-.6-.1-.8-.2v-.3h.1c.2 0 .3 0 .4-.1-.4-.1-.9-.2-1.3-.4v-.1c.3-.1.7-.2 1-.4.4-.1.7-.5 1.2-.3v.3c.5.1.9.2 1.2-.2.2 0 .5.2.6 0v-.2c-.1 0-.9-.1-.9-.2l-.1-.3-.9-.1c0-.5-1.2-.9-1.6-1 .2-.1.2-.2.3-.4.5 0 1.1 0 1.3-.3l.1-.3c.1-.2.3-.5.5-.6l.8-.3h.5v-.1c-.1-.1-.1-.2-.2-.2v-.1c.4 0 1 0 1.3-.1l.5-.3c.2-.1.4.1.5.2-.1.1-.1.1-.1.2l.3.1.2-.2.3.1c.3 0 .5 0 .8.1.2.1.3.4.5.4h.1c.2 0 .4.1.7 0 .2 0 .4 0 .6-.1.3 0 .5.1.7.2.3 0 .5 0 .8.1l.5.1 1-.1 1.1.5h.4c.2 0 .5.1.7.2s.4.3.7.3l.7.1.4.2c-.1-.1-.1-.3-.3-.4v-.2l.3-.2h.1c.1 0 .1 0 .2-.1.2-.1.4.1.6.1l.3-.2h.1l.2-.1.5-.1.2-.2c.2-.1.5 0 .6 0-.1.2-.2.2-.4.3-.1.1-.2.1-.2.2 0 .2-.2.3-.4.3l-.2.2c-.3.2-.4 0-.6.3l.5.4v-.3c.3-.1.4-.2.5-.4.5 0 .5-.2.9-.3.2 0 .3 0 .5-.1l.2-.2c.2-.1.4-.1.5-.3-.1-.2-.2-.3-.3-.4.6.1.6.7 1.1 1 .1.1.4.3.6.2zm-21.9 12.7c-.1 0-.2 0-.3.1l-.1-.1c0-.1.1-.1.2-.2.1 0 .1.1.2.2zm.5-.5h.2l.1.1c0 .1-.1.2-.2.2l-.1-.3zm1.6-.7c.1 0 .3.1.3.2-.1 0-.1 0-.2.1-.1 0-.2-.1-.3 0l-.2.2c-.1 0-.2 0-.2-.1l.2-.2.4-.2zm.3-.1h.2v.1l-.1.1c-.1-.1-.2-.1-.1-.2zm.7-.4c.1-.1.1-.1.2-.1.2 0 .4.1.5.2v.1h-.6c-.2.1-.2.3-.5.2v-.2c.2 0 .2-.1.4-.2zm1.8 20.8c.1 0 .1.1.2.199h-.2v-.199zm1.1.4c-.1.1-.1.1-.2.1 0 0-.1-.101-.1-.2v-.1c.1.1.2.2.3.2zm.1.3c.1 0 .4.101.4.2 0 .1 0 .1.1.2-.1.2-.2.1-.4.2 0 0 0 .1-.1.1 0 0-.1 0-.1-.1 0-.2 0-.2-.1-.4l.1-.1c.1 0 .1 0 .1-.1zm1.2-22.8c.1 0 .1-.1.2-.3h.1c.2 0 .3.1.4.2-.2 0-.3 0-.4.1-.2.1-.2.5-.6.3l-.2-.1c0-.2.2-.2.2-.3.1.1.2.2.3.1zm9-.5c.2.1.1.1.4.1 0 .1.1.2.1.4-.1-.1-.2-.1-.3-.1v.2l-.1-.1-.3-.3c.1-.1.1-.2.2-.2zm.6.6c.1.4.1.3 0 .6-.1-.1-.3-.5-.3-.6h.3zm1.2 1.1v.2c0 .1.1.2.2.2v.3c-.2-.1-.5-.4-.6-.5v-.2l-.1-.2c.2 0 .4.1.5.2zm.4 1.4c-.1.1-.1.2-.1.4-.1 0-.2 0-.3.1-.1-.1-.3-.3-.2-.5.1-.1.4-.1.6 0zm1.9 2.1c.3 0 .5.2.8.3.1 0 .3 0 .4.1.2.1.3.4.4.6.3.2.6.2.6.6 0 0 0 .1-.1.1-.3 0-.6-.1-.8-.2v-.1s.1-.1.1-.2c-.2 0-.3 0-.3.1-.1 0-.1 0-.2-.1v-.1c-.1-.1-.2-.1-.3-.1v-.1s0-.1.1-.1l-.2-.2h-.2s-.6-.4-.6-.5c.2-.1.2-.1.3-.1zm25.6 60.5c.1.3 0 .4-.1.5h-.1v-.3h-.2v-.2h.4zm1.9 1.6h.1l-.2-.3c-.2-.1-.2 0-.3-.3.1-.1.2-.1.4-.2v-.1c-.2 0-.4.1-.5 0 .1-.3.4-.4.5-.601.1.101.4.101.6.2v.101c-.1.1-.2.199-.1.3.3 0 .4.2.5.399.3.301.5.601 1.2.601v.2l-.7.1-.3-.1h-.6c-.2 0-.3 0-.5.1-.1 0-.2-.2-.3-.1l-.4.1.1-.3c.1-.2.4-.2.5-.1zm38.3-39.1c.1 0 .1 0 .1.1-.1.101-.1.2-.2.2h-.1v-.1l.2-.2zm18.1 13c.1-.1.399-.8.399-1l-.199-.2.1-.2c-.1-.1-.3-.5-.2-.699.101-.2.2-.301.2-.7h.2l.1-.101c.101 0 .101.101.2 0l.1-.1h.4v-.1c.1-.101.2-.101.2-.2h.2l-.1-.1.2-.1c0 .1 0 .1.1.1l.1-.1-.101-.2h.101v-.1l-.101-.3h.101c0 .1 0 .1.1.1 0-.1.101-.1.2-.2.1-.1.1-.3.1-.5.101-.1.101-.1.2 0 .101.101.2.101.2.2.1.2.1.7.2 1l.1.3c0 .101-.1.3-.2.3-.1-.1-.199-.199-.199-.3h-.101c0 .2.101.4.2.5 0 .2-.2.3-.3.4-.101.2 0 .399 0 .5l-.8 2.6c-.101.3-.2 1-.5 1.2h-.4c-.2.1-.3.2-.5.2l-.6-.4v-.2c0-.1-.2-.1-.101-.399 0-.101 0-.2.101-.3l-.301-.5c0-.101.101-.5.2-.5.301.099.401.099.401.099zm18.5-15.8h.2c0-.101.1-.2 0-.3.3.199.399.3.5.699.1.101.1.101.2.301.101.1.2.3.2.399 0 .3-.399.7-.8.601-.1-.101-.2-.4-.3-.601v-.6c0-.101-.101-.101 0-.2v-.299zm14.4 5.7c.2.1.4 0 .601 0 .1.199.2.3.399.399v.201c.101.1.2.2.4.3l.5.3v.2c.2 0 .3.2.4.4h.1v-.2c.2.1.2.2.3.3l.3.101.101.3c.1.1.2.1.399.1.101 0 .301.2.301.3 0 .101-.2.301-.2.301.1.1.1.199.3.199h.2c.1.101 0 .4.2.5h.1c0 .101-.1.2-.1.2l.199-.1c.101 0 .2 0 .2.1.101 0 .101.2.3.3l-.1.5c0 .2.2.7 0 .9l-.2-.2c0 .101 0 .101-.1.2l-.3-.1.1.199c-.1.101-.8-.6-.9-.8l-.3-.2c0-.1 0-.199-.1-.199-.2-.2-.5-.4-.601-.601l-.099-.4c-.2-.2-.3-.5-.5-.801l-.3-.199c0-.101-.101-.2-.101-.2-.199-.4-.199-.7-.699-.8-.101-.4-.2-.601-.5-.801-.2.101-.2 0-.301-.1-.1-.2-.6-.5-.399-.8.3.001.3.201.4.201zm5 4.1c0-.1 0-.2-.1-.2l-.3-.1.1-.2.101.1.1-.199c.1.199.1.5.4.6 0 0-.101 0-.101.1v.099c.1 0-.1-.1-.2-.2zm-3.7-14.9l-.3.1-.1.2-.4-.2c0-.2-.1-.3 0-.4l.4-.2c0-.1 0-.1.1-.1 0 0 .101 0 .101.1.1-.1.2-.1.3-.1h.1l.101.1c-.102.1-.302.2-.302.5zm4 5l-.101.2s-.3.2-.399.2c.199-.3.5-.5.699-.7v.2c.001 0-.099 0-.199.1zm.5 2.1c-.101.1-.5.2-.5.2 0 .1.1.199.199.199-.1.2-.399.101-.399.2-.101-.1-.8-.2-.9-.1-.2.1-.1.3-.1.5l-.2.2v.201c0 .101-.2.4-.3.5 0 0-.5.2-.601.2-.199 0-.399-.2-.5-.1-.199.1-.3.2-.399.3l-.3-.1c-.101 0-.2.1-.2.1-.2-.2-.4-.2-.5-.6l.1.1h.3c.101 0 .2.2.301.1h.1l-.1-.1v-.1c0-.101.199-.5.3-.601l.399-.1c.101 0 .2 0 .301-.101l.199-.3.101-.1c.1-.101.2-.3.3-.3s.2 0 .2-.101c.1-.1.1-.2.2-.2v.103h.3c.1-.101 0-.101-.101-.2v-.1h.2l.3-.5.1-.3.1.101h.101l.1-.101c0 .101.2.2.2.2l-.101.3c.101 0 .2-.1.301 0 0 0 0 .101-.101.101.2.199.5.299.6.499zm-.1-2.5l.101-.3c0-.101 0-.2.1-.301v.101l.1.3c-.101 0-.201.1-.301.2zm-.8 12.4v-.2h.1c0-.101 0-.101.101-.2.1 0 .2 0 .3.1 0 .101 0 .101.1.101h.101v-.101c.2.101.3.2.399.2.101 0 .2-.1.2 0 .101 0 .2.2.2.3.2 0 .9.101 1 0l.1-.2h.101l.1.2h.3c.2 0 .301.101.5.2v.1c.2.301.601.101.9.2 0 .101-.1.2 0 .3l.1.101-.6-.2-.3.1-.9-.1c-.3-.1-.5-.2-.899-.3l-.5.1c-.2 0-.301-.1-.4-.2l-.503-.101.1-.2c-.1 0-.7-.1-.6-.2zm3.9 10.8c-.101-.101-.101-.101-.101-.2.101 0 .201 0 .101.2zm12-6.9s-.101 0-.101-.1v-.1c0-.1 0-.1.101-.1h.1c0 .1 0 .3-.1.3zm1.6 1.1l-.2.101c.1-.101.1-.101.2-.101zm-.5-4.6c.1 0 .1.1 0 0 .1.2-.1.5-.2.5h-.3c.1-.2.2-.4.5-.5zm-4.2 2h.3c0 .1-.1.2-.199.2h-.101c-.1 0-.2 0-.3-.101l-.1-.199v-.1c.2.2.3.3.4.2zm-.3.3h-.2c.101-.1 0-.1 0-.2h.101c.099 0 .199.1.099.2zm-.6-4.5l-.3.1-.2-.3c.2-.1.4 0 .5.2l.3-.2c.3-.1.6.2.7.4v.1l-.5-.3h-.1v.1l-.4-.1zm-.7-2.3c0-.2.1-.3.2-.4.1 0 .1.101.1.2-.1.101-.2.2-.1.4.1-.101.199-.4.399-.3v.2c-.1 0-.2.101-.2.2.101 0 .2.101.2.101v.099l-.3-.1h-.1c0 .3.1.399.199.6-.1-.1-.3-.2-.3-.4v-.2l-.1-.2v-.2h.002zm-4.6-21c0-.1.101-.2.101-.2h.2c.1.2.199.101.399.101v.1c-.1 0-.1.1-.1.1.1 0 .2.101.2.2-.2.2-.2.4-.301.7l-.3.4h-.1l.1-.301h-.2c0 .101-.1.2-.1.2 0-.1.1-.1.1-.3 0-.1 0-.1-.1-.2l.2-.2c0-.199-.101-.199-.101-.3h-.098l-.1.2c-.101 0-.201-.2-.301-.3.201-.2.401-.1.501-.2zm.2 26.6c.101-.1.3-.1.5-.1l.4.3c0 .101 0 .101-.101.101.001-.001-.699-.301-.799-.301zm2-.6c-.1.1-.3.1-.399.1l-.101.1h-.2l-.199.1c-.101 0-.301-.1-.601-.1v-.2c.2-.1.4-.1.601 0l.199.1.5-.1v-.1c.101 0 .2-.101.2-.101v-.1h.101l.1.1v.101c-.201 0-.201.1-.201.1zm-.5-26c-.3.1-.2.3-.399.5-.101-.1-.2-.3-.301-.5.2-.1.301-.2.301-.3.199.1.399 0 .5-.2l.399.1c0 .2-.2.4-.3.4h-.2zm2.2 23.3c.1-.1.2-.1.3-.1h.101l.199.2c-.2.3-.5.1-.6-.1zm.6 2.7l-1.1.5s-.4.4-.8.4c0-.101.1-.301.1-.301.101-.199.4-.199.601-.3.1-.1.1-.2.199-.2l1-.099zm-3.5-3.8c0 .1 0 .1.101.2h.3l.2-.301c.1 0 .1.101.1.101s.4-.101.5-.101c.101 0 .101-.1.101-.1s.1 0 .1.1v.2l-.2-.1-.302.301s-.2.1-.3.2h-.2v.1c.2.101.5.4.5.601-.1.199 0 .399.2.5v.1c-.2 0-.4 0-.4.2h-.2v-.3l-.3-.301c0-.1.2-.199 0-.399-.2 0-.2 0-.399.1 0 .101.1.2.1.4 0 .1 0 .2-.1.399l.1.2-.1.3s0 .101.1.101l-.4.1c-.1-.1.101-.899 0-1.1h-.3v-.4l.3-.399v-.302c0-.1.101-.199.101-.199h.1c0-.4.101-.7.3-.9l.101.1c.1-.1.1-.199.2-.199.197-.102.297.098.397.098h.3l.301.1s.1 0 .1-.1c.4-.1.5.1.8-.1v-.1c0-.1.2-.2.3-.2 0 .2-.1.301-.199.4-.4.5-.7.2-1.4.2-.5 0-.9-.101-1 .3-.002.1-.102.2.098.2-.2-.1-.1-.1 0 0zm-1.2 4l-.7.1v-.2l.1-.1h.2c.1 0 .1.2.3 0-.1 0-.1 0-.2-.1v-.1h.101c.1 0 .1 0 .2.101h.199v.1s0-.1.101-.1h.1v.1h.101v.1s-.101-.1-.2-.1c0 .1-.101.1-.2.1v-.1c-.102.099-.102.199-.102.199zm-1.5-.4c.1 0 .199.101.199.101l-.199.199c-.101-.1-.301-.1-.301-.199l.301-.101zm-.1-6.7c.1.1.1.2.1.3-.101 0-.301.1-.4.199-.1 0-.1-.1-.1-.1v-.1c.2-.199.2-.299.4-.299zm-2.4-7.3c.199.101.199.2.5.101v.1c-.101.2-.301.3-.5.4v-.601zm.5 1.4c-.101-.101-.301-.2-.301-.3v-.1c.2-.1.2-.3.301-.5h.199c0 .3-.3.5-.1.8.001 0 .001.1-.099.1zm-.9-2.2c.1.2 0 .5-.1.6-.2-.1-.2-.399-.4-.6h.2c.2-.1.3-.1.3 0zm-.1-5c-.101.1-.101.4-.2.4-.101-.2-.3-.4-.3-.601s.399-.899.5-1l.3-.2.2.101c-.101.2-.101.5-.2.8-.2.2-.3.4-.3.5zm1.4 5.2c-.1 0-.2-.101-.2-.101 0-.199-.3-.399-.399-.399l.1.2-.1.1c-.101-.1-.2-.3-.5-.3l-.2.1c-.1-.1-.2-.1-.2-.2l.099-.1.199.1h.101c-.2 0-.2-.1-.4-.199 0 0 0 .1-.1.1-.4-.2-.2-.6-.3-.9v-.101l.199.1c.101-.4-.099-1.1.301-1.3.199 0 .3.101.399.101.2 0 .2-.101.3-.101v.1c-.199.3 0 .399.101.6-.101.4-.3.5-.5.7 0 .2-.101.2-.101.3.2.2.101.7.4.7 0-.101.1-.2.1-.2h.101l.2.3h.1l.1-.1c.101 0 .101 0 .2.1l-.2.101c.1-.001.2.099.2.299zm.3.2c.101 0 .2 0 .301-.101h.1l.2.7-.2-.1v-.2c-.201.001-.401-.099-.401-.299zm1.1 2.7l-.2.3h-.1c0-.101-.101-.301-.2-.301l-.2.301c0 .199.3.399 0 .6 0 0-.1 0-.1-.1v-.2h-.1s0 .1-.1.1c-.2 0-.4-.2-.5-.399-.101-.301.2-.4 0-.601-.101 0-.101-.1-.3-.1-.101.1-.101.2-.301.2v-.1c-.199 0-.3.3-.3.5l-.1-.1c0-.101.1-.4.2-.4s.199 0 .3-.1c.1-.2.2-.2.399-.2.101.1.101.1.101.2.1 0 .2 0 .2-.101 0-.1.1-.199.1-.199l.1.1c0-.1 0-.2.101-.3 0 0 0 .1.1.1l.2-.1v-.4c.2.101.4.4.3.7h.101v.1c.199.2.299.3.299.5zm.5 5.3c.3 0 .7 0 .899.1l.101.2c-.101 0-.2 0-.3.1v.2c.1.1.3.3.3.5l-.101.2.5.5h-.5c-.3.2-.199.6-.199.899h-.2c-.101.2-.3.4-.5.5l.1.101c0 .1 0 .1.101.2h-.101s.101.1.101.199c-.101.2-.301.5-.5.601-.101 0-.301.2-.4.1-.1-.1 0-.3-.2-.5l-.2.101h-.1l-.4-.301c0 .101-.1.2-.1.2-.2 0-.3.101-.4.101 0-.2 0-.301-.1-.4-.1.1-.2.1-.4.2l-.101-.101h-.3c0-.3 0-.699-.101-.899l-.3-.2h.101l-.2-.2c0-.1.1-.2 0-.3 0 0-.101 0-.101-.1-.1-.301.101-.5.2-.601 0-.1 0-.2.101-.2.1 0 .1.101.1.2.1.2.3.3.5.4l.3-.101.2.101c.2 0 .3-.3.4-.3.3-.101.399.199.6.199l.2-.1c.1 0 .2 0 .3-.1.1 0 .3-.301.3-.5v-.2l.2-.2c.1-.299.1-.399.2-.599zm5-21.3c.2-.2.399-.2.7-.399l.199-.3.2-.1c.2-.2.4-.7.4-1.1l-.101-.1.101-.1v-.3c.1-.1.1-.2.2-.2l.1.2c.1 0 .2 0 .3-.1v-.101c-.1 0-.1 0-.1-.1l.1-.1c.101 0 .2.1.2.1v.5l.1.1c.101.1.2.4.2.6 0 .2-.2.3-.2.4v.2c-.6.2-.1.4-.3.899-.1.2-.399.5-.1.7-.2.101-.2.2-.3.4-.101 0-.2.1-.2.1l.1-.399c-.1 0-.399.199-.5.3 0 .1 0 .2-.1.3h-.099v-.2c-.199 0-.199.2-.3.3h-.5c0-.1-.2-.199-.3-.199 0 .1 0 .1-.1.199l.2.1c-.3.1-.399.2-.5.5l-.399-.2v-.3c.1-.101.2-.101.2-.2-.101.1-.301 0-.4 0s-.2.1-.3.1h-.101c-.199.101-.399.101-.5.2v-.1c-.199 0-.199.1-.199.3-.2-.1-.4-.1-.601 0l-.101-.1c0-.101 0-.101.101-.2.5 0 .601-.5.899-.7.101-.1.201 0 .201.1.399 0 .799-.1 1.1-.199 0 .1 0 .1.1.199.101 0 .2-.1.301-.199 0-.4.199-.4.399-.601v-.4c.101-.1.2-.1.3-.1v.1l-.199.1c-.301 0-.301 0-.201.1zm3.2-8.9l.3.9.3.5c-.3-.1-.5-.4-.9-.2-.1.3-.3.7-.1 1.1.1.3.6.5.4.9 0-.2-.101-.4-.4-.4-.2.1-.2.3-.3.5l-.101-.4.2-.3-.1-.3s.1-.2.2-.3c.1-.2-.101-.4-.2-.6.2-.2.3-1.4.2-1.7-.101-.2-.2-.2-.2-.4-.101-.3.2-.5 0-.8.1-.1.399-.1.5-.3.1 0 .1.1.1.2.3.5-.1.7 0 1.2-.099.1.001.2.101.4zm1.1 5l-.4.2-.199-.1c-.2.1-.4.4-.5.6-.301 0-.7-.5-1-.4-.101.1-.2.1-.2.2l-.101-.2c-.1 0-.199.1-.199.2l.5.3h-.301c-.1.1-.1.2-.3.3-.1-.1 0-.2 0-.4-.1 0-.1 0-.2-.1v-.2l.4-.3v-.1s-.1 0-.1-.1c0 0 0-.1.1-.1.1.1.2.2.4.1v-.4c.1 0 .199-.1.199-.1v-.4c0-.3-.199-.3 0-.5.301.2 1 1.2 1.5 1 .101-.1.2-.2.301-.2 0 .1-.101.2-.101.2.001.2.201.4.201.5zm7.3 31.6c.101.2.101.4.2.4h.4c0 .1-.101.1-.101.1 0 .101.3.101.4.2 0 0-.101 0-.101.1.101 0 .301.101.4.2 0 .101.1.101 0 .2-.1 0-.2 0-.3-.1 0-.101 0-.101-.101-.101l-.6-.1h-.497l-.2-.2-.3-.2-.4-.6-.5-.101-.2-.098c-.101 0-.2 0-.301.1l-.199-.1c0 .1 0 .2.1.2h-.2v.1h-.6c.2.101.399.101.5.3l-.3.2h-.9c-.2-.2-.3-.399-.5-.5-.1-.1-.3 0-.5 0 0-.2.1-.2.1-.3l-.3-.3.2-.101-.1-.1c-.301-.1-.301-.6-.601-.8-.399-.3-1.101-.3-1.5-.5v-.199c-.5.2-.399-.3-.5-.4-.2.2-.101.5-.399.5l-.1-.2h.101c0-.301-.301-.2-.4-.4v-.1c.1 0 .3.1.3 0 .101 0 .101-.101.2-.2.1.1.2.1.3 0v-.2c-.2 0-.6.1-.899 0-.2-.1-.101-.3-.2-.4-.101 0-.2-.1-.4-.1l.101-.1v-.2c.3 0 .3-.2.5-.2.1 0 .699.2.899.3l.101.2s0 .2-.101.2c0 .2.101.5.2.6v-.1c0 .2.1.399.3.399.3-.1.4-.3.5-.6.2 0 .3 0 .4-.1v-.2l.3-.2c.2 0 .8.3 1 .4l1.8.6c.3.1.5.3.8.3.101.3.4.3.601.5 0 .101-.101.2 0 .3.2.101.399.2.6.2h.3c.101.101.2.2.2.3l-.403.101c.1.3.199.399.399.5.401.5.501.6.501.6zm2-1.9l.2.1c0 .1 0 .1-.1.2-.101 0-.101 0-.2.1l.1.101s0 .1-.1.1h-.3c-.101.3-.5.4-.9.4 0-.101-.1-.101-.2-.101h-.1l-.4-.2v-.1c.2 0 .5.1.7 0v-.1c.1.199.4.199.5.1l.1-.2h.2v-.3c.4-.1.4-.1.5-.1zm.7 11.5v-.3s.1 0 .1-.1v-.1c.2.2 0 .4-.1.5zm-21 .2l.2.301c0 .1.1.1.2.1l.1.1v-.201l.1.1h.101v-.3c-.101-.2-.2-.3-.4-.5l-.1-.2c-.101-.2.2-.4.2-.6v-.4c0-.1.1-.3.199-.4 0 .101 0 .2.101.301l.1-.101.2-.3.2-.1.2-.101c.1-.1.3-.3.5-.399l.5-.101.199-.1.101-.101.399-.1.101-.1v-.098h.3c.2-.1.4-.2.5-.2s.2-.1.3-.199c.101-.101.101-.2.2-.4 0 0 0-.1.1-.1h.101c.1 0 .1-.101.1-.2 0 0 .101 0 .101-.101h-.103v-.1c0-.1 0-.2.101-.3v-.1c.1-.1.199-.1.199-.199 0-.101 0-.101.101-.101l.1.101v.1l.2.2s.1.1.1 0v-.201h.101v-.1s-.101 0-.2-.101c0-.1.1-.1 0-.2.1-.1.1 0 .2 0 0 0 .1.101.2.101v-.1c.1 0 .1-.1.1-.199 0 0-.1.1-.1 0v-.101c0-.1.199-.2.199-.2h.101s0-.1.1-.1c0 0 .101.1.2 0l-.1-.1c.1-.101.1-.101.199-.101h.101l.1.101c0-.101 0-.101.101-.2v-.1h.1s0 .101.1.101c0-.101.101-.2.201-.2h.199l.4.3.1.101h.1l-.103.098v.3c.1 0 0-.2.2-.2v-.1h.399v.1s.101-.1.2-.1v.1c.101-.1.101-.1.101-.199v-.101c-.101-.1-.101-.1-.2-.1 0-.101.101-.2.2-.3 0 0 0-.101.1-.101s.2 0 .2-.1c-.101 0-.101-.101 0-.2l.101-.1c.1 0 .1 0 .1-.101h.1c0-.1 0-.1.1-.2h.801s.1-.1.199-.1v-.1c0-.101 0-.2-.199-.2h-.2c.101 0 .101-.101.101-.101l.199.101h.2l.2.2c.1 0 .199-.101.199-.101l.101.101h.2c.199-.101.3.199.4.1l.299-.1v.1h.201c0 .1 0 .2.1.2h.1c0-.101-.1-.2 0-.2l.1.1h.101s.101.101.2.101c0 .1-.1.1-.2.2v.199l-.103.102c-.1-.2-.199.1-.299.1 0 .101-.101.2 0 .2v.1l-.301.4v.1l.2.101s.101.1.2.1c0 0 0 .101.1.101.1.1.2.1.2.199.101-.1.3.101.399.2h.101s.101 0 .101.101c0 0 .1.1.1.199h.199l.4.101.1.2c.101.1.101 0 .201 0l.199.1c.1 0 .301 0 .4-.1l.199-.2.201-.5v-.102c0-.1 0-.199.199-.3l-.1-.3v-.5c.1 0 .1-.1.1-.2v-.1c0-.101.1-.101.2-.2l-.2-.1.1-.101.101-.2s.101 0 .101-.1c.1-.2.1-.4.199-.5h.1s0 .1.101.1c0 0 .101 0 .101.101v.1c0 .101.1.2.199.3 0 0 0 .101-.1.101.199.1.199.2.3.399v.601c0 .1.101.2.2.2 0-.101.1-.101.199-.101h.101s0 .101.101.2l.299.2v.2h-.1c.1.1.1.199.1.3v.2l.301.3v.399c0 .101 0 .2.1.301 0 .3 0 .3.2.399.101 0 .101.101.2 0 0 .101.1.101.199.101.101.1 0 .1 0 .199l.101.101.101.1c.1.101.199.101.299.101h.101c0 .1.2.1.101.199h-.104v.2l.101.101v.1c.1 0 .1.1.199.2v.3s.1.1.2.1v-.201c.101.1.101.199.2.199h.1s0-.1.1-.1c0 0 0 .1.101.1v.5c.101.101.101 0 .2 0-.1.2.199.301.3.4v.1c0 .101.101.101.101.101.1.1.199.1.199.3.2 0 .1.2.2.3v.101s0 .1.101.1v.6s0 .101-.101.101l.101.2c.1.1.1.199.1.3 0 0 0 .1.1.1v.101c0 .1 0 .199-.1.199 0 .101 0 .101-.1.2-.101.101-.101.3-.101.5 0 0 0 .101-.101.101v.1c0 .2 0 .3-.1.5-.1 0-.1.1-.1.2 0 0 0 .1-.1.1-.101.101-.101.4-.301.4l-.199.2-.3.597c-.1.1-.199.2-.1.3l-.1.101v.1c-.101 0-.101.1-.101.2-.101.1-.2.2-.2.399l-.1.601v.5h-.1l-.101.1h-.899c-.201 0-.201.3-.4.4l-.301.1h-.1c0 .101.1.101.1.101l-.1.1-.1-.1h-.1l-.298-.302s0-.1.1-.1l-.1-.1c-.1 0-.199.1-.199 0 .1 0 .199-.2.1-.301l-.1-.1-.201.1c0 .101-.1.101-.1.101l-.1.1c-.1.101-.1.2-.301.3h-.099c-.199-.1-.3-.199-.4-.3h-.299c-.101-.2-.201 0-.301 0 0 0-.1-.1-.1-.2h-.1c-.1 0-.2 0-.2-.1-.1-.1-.1-.1-.1-.2-.1-.1-.3-.2-.3-.399.1-.101.1-.301 0-.5v-.101h-.1l-.1-.1-.2-.2h-.2l.101-.2v-.3s-.101-.1-.101-.2l-.1-.1-.1.399s0 .101-.101.101h-.1c0 .1-.101.1-.2.1v-.2h.1c.101 0 .2-.1.101-.3v-.3s.2-.1.2-.2 0-.1-.101-.1l.101-.101s0-.1-.101-.1v-.1c0 .1-.1.199-.2.3l-.1.1c0 .101 0 .101-.1.101-.101 0-.101 0-.2.1-.101 0-.2.1-.2.2l-.2.3s-.1.1 0 .1c0 0 .101.101 0 .101 0 .1-.1.1-.2 0l-.3-.3h.101v-.2l-.101-.3-.1-.101c0-.1 0-.2-.101-.2-.1-.1-.3-.1-.3-.199v-.301h-.1v-.1s-.101-.1-.2-.1h-.2l-.3-.101h-.2l-.3-.2h-1s-.3.101-.4.101l-.1.1h-.1l-.7.3h-.5l-.7.4h-.1c-.2 0-.101.2-.2.4v.1h-.098l-.199.1h-.101l-.2-.1c-.1 0-.199.1-.199.1h-.101l-.2-.1c-.1 0-.3 0-.399.1h-.4c-.1 0-.2 0-.3.101-.1 0-.1.2-.2.3v.1c-.1 0-.3 0-.3.101v.1h-.1s0 .101-.101.101h-.1s-.101.199-.2 0c0 .1-.1 0-.2 0h-.1l-.6-.103v-.1c0-.101-.1-.101-.199-.101h-.301v-.399h.2c.101-.101.101-.2.2-.2 0 0 0-.2-.1-.3v-.1l-.1-.6c-.1-.3-.3-.5-.399-.7 0-.2 0-.399-.101-.6-.2 0-.2-.2-.2-.3 0-.101-.1-.101-.1-.101l-.1-.1-.101-.5-.101-.101c-.1-.199-.299-.3-.399-.399-.299.101-.299.101-.299-.099zm12.9 5l.199.101c0 .1-.1.1-.199.1h-.7v-.1c.4-.001.5-.001.7-.101zm3.5 2.6c0 .1 0 .2-.101.2-.099-.2.001-.2.101-.2zm2 .4c-.101-.1-.101-.199-.101-.3.001 0 .101.2.101.3zm-1.8.6v-.5c.101 0 .2.1.301 0l.199.1c.2.101.301.2.5.2 0-.1.101-.1.301-.1h.3l.1-.101c.101 0 .101.101.101.2v.3c0 .2-.101.3-.2.4 0 .1-.101.2-.101.2v.3h-.101v-.099c-.2 0-.3.2-.4.4l-.5-.1s0-.101.101-.101l-.2-.2c-.1-.1-.1-.199-.1-.3v-.299c-.101 0-.201-.1-.301-.3z"/><path fill="#6d6d69" d="M95.5 53.5c0-2.5-2-4.6-4.6-4.6-2.5 0-4.601 2-4.601 4.6 0 .9.3 1.7.7 2.4 1.3 2.2 3.2 5.4 3.8 8.4.601-3 2.5-6.1 3.8-8.4.601-.6.901-1.5.901-2.4zm-4.6 3c-1.601 0-3-1.3-3-3s1.3-3 3-3c1.6 0 3 1.3 3 3s-1.3 3-3 3zm2-3c0 1.1-.9 2-2 2-1.101 0-2-.9-2-2s.9-2 2-2 2 .9 2 2z"/><path fill="#6d6d69" d="M45.7 61.4c0-2.5-2-4.6-4.6-4.6-2.5 0-4.6 2-4.6 4.6 0 .9.3 1.7.7 2.4 1.3 2.2 3.2 5.4 3.8 8.3.6-3 2.5-6.1 3.8-8.3.6-.7.9-1.5.9-2.4zm-4.6 2.9c-1.6 0-3-1.3-3-3 0-1.6 1.3-3 3-3 1.6 0 3 1.3 3 3s-1.3 3-3 3zm2-3c0 1.1-.9 2-2 2s-2-.9-2-2 .9-2 2-2 2 .9 2 2z"/><path fill="#6d6d69" d="M157.5 97.2c0-2.5-2-4.601-4.6-4.601-2.5 0-4.601 2-4.601 4.601 0 .899.3 1.7.7 2.399 1.3 2.2 3.2 5.4 3.8 8.301.601-3 2.5-6.101 3.8-8.301.601-.599.901-1.499.901-2.399zm-4.6 2.9c-1.601 0-3-1.3-3-3 0-1.6 1.3-3 3-3 1.6 0 3 1.301 3 3 0 1.7-1.3 3-3 3zm2-2.9c0 1.1-.9 2-2 2-1.101 0-2-.9-2-2 0-1.101.899-2 2-2 1.1 0 2 .9 2 2z"/><path fill="#6d6d69" d="M154 50.9c0-2.5-2-4.6-4.6-4.6-2.5 0-4.601 2-4.601 4.6 0 .9.3 1.7.7 2.4 1.3 2.2 3.2 5.4 3.8 8.4.601-3 2.5-6.1 3.8-8.4.601-.7.901-1.5.901-2.4zm-4.6 2.9c-1.601 0-3-1.3-3-3s1.3-3 3-3c1.6 0 3 1.3 3 3s-1.3 3-3 3zm2-3c0 1.1-.9 2-2 2-1.101 0-2-.9-2-2s.899-2 2-2c1.1.1 2 .9 2 2z"/><path fill="#6d6d69" d="M134.8 53.5c0-2.5-2-4.6-4.6-4.6-2.5 0-4.601 2-4.601 4.6 0 .9.301 1.7.7 2.4 1.3 2.2 3.2 5.4 3.8 8.4.601-3 2.5-6.1 3.801-8.4.6-.6.9-1.5.9-2.4zm-4.6 3c-1.601 0-3-1.3-3-3s1.3-3 3-3c1.6 0 3 1.3 3 3s-1.3 3-3 3zm2-3c0 1.1-.9 2-2 2-1.101 0-2-.9-2-2s.899-2 2-2c1.1 0 2 .9 2 2z"/><path fill="#6d6d69" d="M86.7 74.5c0-2.5-2-4.6-4.6-4.6-2.5 0-4.6 2-4.6 4.6 0 .9.3 1.7.7 2.4 1.3 2.199 3.2 5.399 3.8 8.3.6-3 2.5-6.101 3.8-8.3.7-.7.9-1.5.9-2.4zm-4.5 2.9c-1.6 0-3-1.301-3-3 0-1.601 1.3-3 3-3 1.6 0 3 1.3 3 3s-1.4 3-3 3zm2-3c0 1.1-.9 2-2 2s-2-.9-2-2c0-1.101.9-2 2-2s2 .9 2 2z"/><path fill="#6d6d69" d="M61.4 97.2c0-2.5-2-4.601-4.6-4.601-2.5 0-4.6 2-4.6 4.601 0 .899.3 1.7.7 2.399 1.3 2.2 3.2 5.4 3.8 8.301.6-3 2.5-6.101 3.8-8.301.6-.599.9-1.499.9-2.399zm-4.6 2.9c-1.6 0-3-1.3-3-3 0-1.6 1.3-3 3-3 1.6 0 3 1.301 3 3 0 1.7-1.3 3-3 3zm2-2.9c0 1.1-.9 2-2 2s-2-.9-2-2c0-1.101.9-2 2-2s2 .9 2 2z"/></svg>